%TF.GenerationSoftware,KiCad,Pcbnew,8.0.8*%
%TF.CreationDate,2025-04-07T19:10:49-05:00*%
%TF.ProjectId,Senior_Design_PCB_ethanl7_nrkim2,53656e69-6f72-45f4-9465-7369676e5f50,rev?*%
%TF.SameCoordinates,Original*%
%TF.FileFunction,Soldermask,Bot*%
%TF.FilePolarity,Negative*%
%FSLAX46Y46*%
G04 Gerber Fmt 4.6, Leading zero omitted, Abs format (unit mm)*
G04 Created by KiCad (PCBNEW 8.0.8) date 2025-04-07 19:10:49*
%MOMM*%
%LPD*%
G01*
G04 APERTURE LIST*
G04 Aperture macros list*
%AMRoundRect*
0 Rectangle with rounded corners*
0 $1 Rounding radius*
0 $2 $3 $4 $5 $6 $7 $8 $9 X,Y pos of 4 corners*
0 Add a 4 corners polygon primitive as box body*
4,1,4,$2,$3,$4,$5,$6,$7,$8,$9,$2,$3,0*
0 Add four circle primitives for the rounded corners*
1,1,$1+$1,$2,$3*
1,1,$1+$1,$4,$5*
1,1,$1+$1,$6,$7*
1,1,$1+$1,$8,$9*
0 Add four rect primitives between the rounded corners*
20,1,$1+$1,$2,$3,$4,$5,0*
20,1,$1+$1,$4,$5,$6,$7,0*
20,1,$1+$1,$6,$7,$8,$9,0*
20,1,$1+$1,$8,$9,$2,$3,0*%
G04 Aperture macros list end*
%ADD10R,2.200000X2.200000*%
%ADD11O,2.200000X2.200000*%
%ADD12R,1.800000X1.800000*%
%ADD13O,1.800000X1.800000*%
%ADD14RoundRect,0.250000X0.620000X0.845000X-0.620000X0.845000X-0.620000X-0.845000X0.620000X-0.845000X0*%
%ADD15O,1.740000X2.190000*%
%ADD16C,3.200000*%
%ADD17R,1.600000X1.600000*%
%ADD18O,1.600000X1.600000*%
%ADD19R,2.000000X1.905000*%
%ADD20O,2.000000X1.905000*%
%ADD21RoundRect,0.250000X-0.620000X-0.845000X0.620000X-0.845000X0.620000X0.845000X-0.620000X0.845000X0*%
%ADD22RoundRect,0.250000X-0.845000X0.620000X-0.845000X-0.620000X0.845000X-0.620000X0.845000X0.620000X0*%
%ADD23O,2.190000X1.740000*%
%ADD24RoundRect,0.250000X0.845000X-0.620000X0.845000X0.620000X-0.845000X0.620000X-0.845000X-0.620000X0*%
%ADD25R,1.700000X1.700000*%
%ADD26O,1.700000X1.700000*%
%ADD27RoundRect,0.250000X0.600000X0.600000X-0.600000X0.600000X-0.600000X-0.600000X0.600000X-0.600000X0*%
%ADD28C,1.700000*%
G04 APERTURE END LIST*
D10*
%TO.C,D12*%
X177800000Y-54864000D03*
D11*
X177800000Y-65024000D03*
%TD*%
D10*
%TO.C,D13*%
X105664000Y-127508000D03*
D11*
X115824000Y-127508000D03*
%TD*%
D12*
%TO.C,U5*%
X112251361Y-83935469D03*
D13*
X113521361Y-78855469D03*
X114791361Y-83935469D03*
X116061361Y-78855469D03*
X117331361Y-83935469D03*
X118601361Y-78855469D03*
X119871361Y-83935469D03*
X121141361Y-78855469D03*
X122411361Y-83935469D03*
X123681361Y-78855469D03*
X124951361Y-83935469D03*
X126221361Y-78855469D03*
X127491361Y-83935469D03*
X128761361Y-78855469D03*
X130031361Y-83935469D03*
%TD*%
D10*
%TO.C,D11*%
X177800000Y-40132000D03*
D11*
X177800000Y-50292000D03*
%TD*%
D10*
%TO.C,D15*%
X105664000Y-115316000D03*
D11*
X115824000Y-115316000D03*
%TD*%
D10*
%TO.C,D8*%
X159766000Y-39878000D03*
D11*
X159766000Y-50038000D03*
%TD*%
D12*
%TO.C,U3*%
X153272361Y-82157469D03*
D13*
X154542361Y-77077469D03*
X155812361Y-82157469D03*
X157082361Y-77077469D03*
X158352361Y-82157469D03*
X159622361Y-77077469D03*
X160892361Y-82157469D03*
X162162361Y-77077469D03*
X163432361Y-82157469D03*
X164702361Y-77077469D03*
X165972361Y-82157469D03*
X167242361Y-77077469D03*
X168512361Y-82157469D03*
X169782361Y-77077469D03*
X171052361Y-82157469D03*
%TD*%
D14*
%TO.C,D1*%
X170163361Y-91682469D03*
D15*
X167623361Y-91682469D03*
%TD*%
D10*
%TO.C,D19*%
X103632000Y-90678000D03*
D11*
X103632000Y-100838000D03*
%TD*%
D10*
%TO.C,D28*%
X139446000Y-55880000D03*
D11*
X139446000Y-66040000D03*
%TD*%
D16*
%TO.C,H3*%
X100838000Y-142240000D03*
%TD*%
D10*
%TO.C,D9*%
X165608000Y-39878000D03*
D11*
X165608000Y-50038000D03*
%TD*%
D10*
%TO.C,D26*%
X127762000Y-56388000D03*
D11*
X127762000Y-66548000D03*
%TD*%
D17*
%TO.C,U2*%
X173736000Y-127762000D03*
D18*
X173736000Y-130302000D03*
X173736000Y-132842000D03*
X173736000Y-135382000D03*
X181356000Y-135382000D03*
X181356000Y-132842000D03*
X181356000Y-130302000D03*
X181356000Y-127762000D03*
%TD*%
D10*
%TO.C,D5*%
X147066000Y-55880000D03*
D11*
X147066000Y-66040000D03*
%TD*%
D19*
%TO.C,U1*%
X187943361Y-57900469D03*
D20*
X187943361Y-55360469D03*
X187943361Y-52820469D03*
%TD*%
D12*
%TO.C,U4*%
X125713361Y-104128469D03*
D13*
X126983361Y-99048469D03*
X128253361Y-104128469D03*
X129523361Y-99048469D03*
X130793361Y-104128469D03*
X132063361Y-99048469D03*
X133333361Y-104128469D03*
X134603361Y-99048469D03*
X135873361Y-104128469D03*
X137143361Y-99048469D03*
X138413361Y-104128469D03*
X139683361Y-99048469D03*
X140953361Y-104128469D03*
X142223361Y-99048469D03*
X143493361Y-104128469D03*
%TD*%
D21*
%TO.C,J10*%
X132588000Y-54356000D03*
D15*
X135128000Y-54356000D03*
%TD*%
D10*
%TO.C,D23*%
X119675000Y-40386000D03*
D11*
X119675000Y-50546000D03*
%TD*%
D22*
%TO.C,J5*%
X153670000Y-50800000D03*
D23*
X153670000Y-53340000D03*
%TD*%
D19*
%TO.C,U7*%
X194293361Y-67044469D03*
D20*
X194293361Y-69584469D03*
X194293361Y-72124469D03*
%TD*%
D14*
%TO.C,D2*%
X174989361Y-98794469D03*
D15*
X172449361Y-98794469D03*
%TD*%
D10*
%TO.C,D3*%
X156845000Y-125857000D03*
D11*
X156845000Y-136017000D03*
%TD*%
D10*
%TO.C,D18*%
X116332000Y-108700469D03*
D11*
X126492000Y-108700469D03*
%TD*%
D10*
%TO.C,D25*%
X127762000Y-40386000D03*
D11*
X127762000Y-50546000D03*
%TD*%
D24*
%TO.C,J7*%
X116332000Y-122174000D03*
D23*
X116332000Y-119634000D03*
%TD*%
D10*
%TO.C,D20*%
X113284000Y-91948000D03*
D11*
X123444000Y-91948000D03*
%TD*%
D10*
%TO.C,D14*%
X122428000Y-127254000D03*
D11*
X132588000Y-127254000D03*
%TD*%
D10*
%TO.C,D6*%
X159258000Y-55626000D03*
D11*
X159258000Y-65786000D03*
%TD*%
D16*
%TO.C,H2*%
X202438000Y-35560000D03*
%TD*%
D10*
%TO.C,D7*%
X147066000Y-40386000D03*
D11*
X147066000Y-50546000D03*
%TD*%
D10*
%TO.C,D27*%
X139446000Y-40386000D03*
D11*
X139446000Y-50546000D03*
%TD*%
D24*
%TO.C,J8*%
X116586000Y-101346000D03*
D23*
X116586000Y-98806000D03*
%TD*%
D10*
%TO.C,D16*%
X122174000Y-115062000D03*
D11*
X132334000Y-115062000D03*
%TD*%
D10*
%TO.C,D21*%
X106639000Y-40386000D03*
D11*
X106639000Y-50546000D03*
%TD*%
D21*
%TO.C,J2*%
X197358000Y-44704000D03*
D15*
X199898000Y-44704000D03*
%TD*%
D22*
%TO.C,J6*%
X172192000Y-51054000D03*
D23*
X172192000Y-53594000D03*
%TD*%
D21*
%TO.C,J9*%
X112377000Y-54610000D03*
D15*
X114917000Y-54610000D03*
%TD*%
D10*
%TO.C,D22*%
X106444000Y-58166000D03*
D11*
X106444000Y-68326000D03*
%TD*%
D10*
%TO.C,D10*%
X165608000Y-55372000D03*
D11*
X165608000Y-65532000D03*
%TD*%
D25*
%TO.C,J3*%
X198103361Y-94857469D03*
D26*
X195563361Y-94857469D03*
X198103361Y-97397469D03*
X195563361Y-97397469D03*
X198103361Y-99937469D03*
X195563361Y-99937469D03*
%TD*%
D10*
%TO.C,D17*%
X108966000Y-100076000D03*
D11*
X108966000Y-110236000D03*
%TD*%
D10*
%TO.C,D24*%
X119634000Y-58420000D03*
D11*
X119634000Y-68580000D03*
%TD*%
D27*
%TO.C,J4*%
X183625361Y-108192469D03*
D28*
X181085361Y-108192469D03*
X183625361Y-105652469D03*
X181085361Y-105652469D03*
X183625361Y-103112469D03*
X181085361Y-103112469D03*
X183625361Y-100572469D03*
X181085361Y-100572469D03*
X183625361Y-98032469D03*
X181085361Y-98032469D03*
%TD*%
D24*
%TO.C,J1*%
X148082000Y-132080000D03*
D23*
X148082000Y-129540000D03*
%TD*%
D16*
%TO.C,H1*%
X100838000Y-35560000D03*
%TD*%
%TO.C,H4*%
X202438000Y-142240000D03*
%TD*%
M02*
