%TF.GenerationSoftware,KiCad,Pcbnew,8.0.8*%
%TF.CreationDate,2025-04-07T19:10:48-05:00*%
%TF.ProjectId,Senior_Design_PCB_ethanl7_nrkim2,53656e69-6f72-45f4-9465-7369676e5f50,rev?*%
%TF.SameCoordinates,Original*%
%TF.FileFunction,Legend,Top*%
%TF.FilePolarity,Positive*%
%FSLAX46Y46*%
G04 Gerber Fmt 4.6, Leading zero omitted, Abs format (unit mm)*
G04 Created by KiCad (PCBNEW 8.0.8) date 2025-04-07 19:10:48*
%MOMM*%
%LPD*%
G01*
G04 APERTURE LIST*
%ADD10C,0.300000*%
%ADD11C,0.150000*%
%ADD12C,0.120000*%
G04 APERTURE END LIST*
D10*
X111722286Y-136020425D02*
X112436572Y-136020425D01*
X111579429Y-136448996D02*
X112079429Y-134948996D01*
X112079429Y-134948996D02*
X112579429Y-136448996D01*
X113722286Y-135448996D02*
X113722286Y-136448996D01*
X113079428Y-135448996D02*
X113079428Y-136234710D01*
X113079428Y-136234710D02*
X113150857Y-136377568D01*
X113150857Y-136377568D02*
X113293714Y-136448996D01*
X113293714Y-136448996D02*
X113508000Y-136448996D01*
X113508000Y-136448996D02*
X113650857Y-136377568D01*
X113650857Y-136377568D02*
X113722286Y-136306139D01*
X114222286Y-135448996D02*
X114793714Y-135448996D01*
X114436571Y-134948996D02*
X114436571Y-136234710D01*
X114436571Y-136234710D02*
X114508000Y-136377568D01*
X114508000Y-136377568D02*
X114650857Y-136448996D01*
X114650857Y-136448996D02*
X114793714Y-136448996D01*
X115508000Y-136448996D02*
X115365143Y-136377568D01*
X115365143Y-136377568D02*
X115293714Y-136306139D01*
X115293714Y-136306139D02*
X115222286Y-136163282D01*
X115222286Y-136163282D02*
X115222286Y-135734710D01*
X115222286Y-135734710D02*
X115293714Y-135591853D01*
X115293714Y-135591853D02*
X115365143Y-135520425D01*
X115365143Y-135520425D02*
X115508000Y-135448996D01*
X115508000Y-135448996D02*
X115722286Y-135448996D01*
X115722286Y-135448996D02*
X115865143Y-135520425D01*
X115865143Y-135520425D02*
X115936572Y-135591853D01*
X115936572Y-135591853D02*
X116008000Y-135734710D01*
X116008000Y-135734710D02*
X116008000Y-136163282D01*
X116008000Y-136163282D02*
X115936572Y-136306139D01*
X115936572Y-136306139D02*
X115865143Y-136377568D01*
X115865143Y-136377568D02*
X115722286Y-136448996D01*
X115722286Y-136448996D02*
X115508000Y-136448996D01*
X116650857Y-136448996D02*
X116650857Y-135448996D01*
X116650857Y-135591853D02*
X116722286Y-135520425D01*
X116722286Y-135520425D02*
X116865143Y-135448996D01*
X116865143Y-135448996D02*
X117079429Y-135448996D01*
X117079429Y-135448996D02*
X117222286Y-135520425D01*
X117222286Y-135520425D02*
X117293715Y-135663282D01*
X117293715Y-135663282D02*
X117293715Y-136448996D01*
X117293715Y-135663282D02*
X117365143Y-135520425D01*
X117365143Y-135520425D02*
X117508000Y-135448996D01*
X117508000Y-135448996D02*
X117722286Y-135448996D01*
X117722286Y-135448996D02*
X117865143Y-135520425D01*
X117865143Y-135520425D02*
X117936572Y-135663282D01*
X117936572Y-135663282D02*
X117936572Y-136448996D01*
X119293715Y-136448996D02*
X119293715Y-135663282D01*
X119293715Y-135663282D02*
X119222286Y-135520425D01*
X119222286Y-135520425D02*
X119079429Y-135448996D01*
X119079429Y-135448996D02*
X118793715Y-135448996D01*
X118793715Y-135448996D02*
X118650857Y-135520425D01*
X119293715Y-136377568D02*
X119150857Y-136448996D01*
X119150857Y-136448996D02*
X118793715Y-136448996D01*
X118793715Y-136448996D02*
X118650857Y-136377568D01*
X118650857Y-136377568D02*
X118579429Y-136234710D01*
X118579429Y-136234710D02*
X118579429Y-136091853D01*
X118579429Y-136091853D02*
X118650857Y-135948996D01*
X118650857Y-135948996D02*
X118793715Y-135877568D01*
X118793715Y-135877568D02*
X119150857Y-135877568D01*
X119150857Y-135877568D02*
X119293715Y-135806139D01*
X119793715Y-135448996D02*
X120365143Y-135448996D01*
X120008000Y-134948996D02*
X120008000Y-136234710D01*
X120008000Y-136234710D02*
X120079429Y-136377568D01*
X120079429Y-136377568D02*
X120222286Y-136448996D01*
X120222286Y-136448996D02*
X120365143Y-136448996D01*
X120865143Y-136448996D02*
X120865143Y-135448996D01*
X120865143Y-134948996D02*
X120793715Y-135020425D01*
X120793715Y-135020425D02*
X120865143Y-135091853D01*
X120865143Y-135091853D02*
X120936572Y-135020425D01*
X120936572Y-135020425D02*
X120865143Y-134948996D01*
X120865143Y-134948996D02*
X120865143Y-135091853D01*
X122222287Y-136377568D02*
X122079429Y-136448996D01*
X122079429Y-136448996D02*
X121793715Y-136448996D01*
X121793715Y-136448996D02*
X121650858Y-136377568D01*
X121650858Y-136377568D02*
X121579429Y-136306139D01*
X121579429Y-136306139D02*
X121508001Y-136163282D01*
X121508001Y-136163282D02*
X121508001Y-135734710D01*
X121508001Y-135734710D02*
X121579429Y-135591853D01*
X121579429Y-135591853D02*
X121650858Y-135520425D01*
X121650858Y-135520425D02*
X121793715Y-135448996D01*
X121793715Y-135448996D02*
X122079429Y-135448996D01*
X122079429Y-135448996D02*
X122222287Y-135520425D01*
X124793715Y-135020425D02*
X124650858Y-134948996D01*
X124650858Y-134948996D02*
X124436572Y-134948996D01*
X124436572Y-134948996D02*
X124222286Y-135020425D01*
X124222286Y-135020425D02*
X124079429Y-135163282D01*
X124079429Y-135163282D02*
X124008000Y-135306139D01*
X124008000Y-135306139D02*
X123936572Y-135591853D01*
X123936572Y-135591853D02*
X123936572Y-135806139D01*
X123936572Y-135806139D02*
X124008000Y-136091853D01*
X124008000Y-136091853D02*
X124079429Y-136234710D01*
X124079429Y-136234710D02*
X124222286Y-136377568D01*
X124222286Y-136377568D02*
X124436572Y-136448996D01*
X124436572Y-136448996D02*
X124579429Y-136448996D01*
X124579429Y-136448996D02*
X124793715Y-136377568D01*
X124793715Y-136377568D02*
X124865143Y-136306139D01*
X124865143Y-136306139D02*
X124865143Y-135806139D01*
X124865143Y-135806139D02*
X124579429Y-135806139D01*
X126150858Y-135448996D02*
X126150858Y-136448996D01*
X125508000Y-135448996D02*
X125508000Y-136234710D01*
X125508000Y-136234710D02*
X125579429Y-136377568D01*
X125579429Y-136377568D02*
X125722286Y-136448996D01*
X125722286Y-136448996D02*
X125936572Y-136448996D01*
X125936572Y-136448996D02*
X126079429Y-136377568D01*
X126079429Y-136377568D02*
X126150858Y-136306139D01*
X126865143Y-136448996D02*
X126865143Y-135448996D01*
X126865143Y-134948996D02*
X126793715Y-135020425D01*
X126793715Y-135020425D02*
X126865143Y-135091853D01*
X126865143Y-135091853D02*
X126936572Y-135020425D01*
X126936572Y-135020425D02*
X126865143Y-134948996D01*
X126865143Y-134948996D02*
X126865143Y-135091853D01*
X127365144Y-135448996D02*
X127936572Y-135448996D01*
X127579429Y-134948996D02*
X127579429Y-136234710D01*
X127579429Y-136234710D02*
X127650858Y-136377568D01*
X127650858Y-136377568D02*
X127793715Y-136448996D01*
X127793715Y-136448996D02*
X127936572Y-136448996D01*
X129079430Y-136448996D02*
X129079430Y-135663282D01*
X129079430Y-135663282D02*
X129008001Y-135520425D01*
X129008001Y-135520425D02*
X128865144Y-135448996D01*
X128865144Y-135448996D02*
X128579430Y-135448996D01*
X128579430Y-135448996D02*
X128436572Y-135520425D01*
X129079430Y-136377568D02*
X128936572Y-136448996D01*
X128936572Y-136448996D02*
X128579430Y-136448996D01*
X128579430Y-136448996D02*
X128436572Y-136377568D01*
X128436572Y-136377568D02*
X128365144Y-136234710D01*
X128365144Y-136234710D02*
X128365144Y-136091853D01*
X128365144Y-136091853D02*
X128436572Y-135948996D01*
X128436572Y-135948996D02*
X128579430Y-135877568D01*
X128579430Y-135877568D02*
X128936572Y-135877568D01*
X128936572Y-135877568D02*
X129079430Y-135806139D01*
X129793715Y-136448996D02*
X129793715Y-135448996D01*
X129793715Y-135734710D02*
X129865144Y-135591853D01*
X129865144Y-135591853D02*
X129936573Y-135520425D01*
X129936573Y-135520425D02*
X130079430Y-135448996D01*
X130079430Y-135448996D02*
X130222287Y-135448996D01*
X131650858Y-134948996D02*
X132508001Y-134948996D01*
X132079429Y-136448996D02*
X132079429Y-134948996D01*
X133650858Y-135448996D02*
X133650858Y-136448996D01*
X133008000Y-135448996D02*
X133008000Y-136234710D01*
X133008000Y-136234710D02*
X133079429Y-136377568D01*
X133079429Y-136377568D02*
X133222286Y-136448996D01*
X133222286Y-136448996D02*
X133436572Y-136448996D01*
X133436572Y-136448996D02*
X133579429Y-136377568D01*
X133579429Y-136377568D02*
X133650858Y-136306139D01*
X134365143Y-135448996D02*
X134365143Y-136448996D01*
X134365143Y-135591853D02*
X134436572Y-135520425D01*
X134436572Y-135520425D02*
X134579429Y-135448996D01*
X134579429Y-135448996D02*
X134793715Y-135448996D01*
X134793715Y-135448996D02*
X134936572Y-135520425D01*
X134936572Y-135520425D02*
X135008001Y-135663282D01*
X135008001Y-135663282D02*
X135008001Y-136448996D01*
X136293715Y-136377568D02*
X136150858Y-136448996D01*
X136150858Y-136448996D02*
X135865144Y-136448996D01*
X135865144Y-136448996D02*
X135722286Y-136377568D01*
X135722286Y-136377568D02*
X135650858Y-136234710D01*
X135650858Y-136234710D02*
X135650858Y-135663282D01*
X135650858Y-135663282D02*
X135722286Y-135520425D01*
X135722286Y-135520425D02*
X135865144Y-135448996D01*
X135865144Y-135448996D02*
X136150858Y-135448996D01*
X136150858Y-135448996D02*
X136293715Y-135520425D01*
X136293715Y-135520425D02*
X136365144Y-135663282D01*
X136365144Y-135663282D02*
X136365144Y-135806139D01*
X136365144Y-135806139D02*
X135650858Y-135948996D01*
X137008000Y-136448996D02*
X137008000Y-135448996D01*
X137008000Y-135734710D02*
X137079429Y-135591853D01*
X137079429Y-135591853D02*
X137150858Y-135520425D01*
X137150858Y-135520425D02*
X137293715Y-135448996D01*
X137293715Y-135448996D02*
X137436572Y-135448996D01*
X138865143Y-134948996D02*
X139365143Y-136448996D01*
X139365143Y-136448996D02*
X139865143Y-134948996D01*
X141150857Y-136448996D02*
X140293714Y-136448996D01*
X140722285Y-136448996D02*
X140722285Y-134948996D01*
X140722285Y-134948996D02*
X140579428Y-135163282D01*
X140579428Y-135163282D02*
X140436571Y-135306139D01*
X140436571Y-135306139D02*
X140293714Y-135377568D01*
X141793713Y-136306139D02*
X141865142Y-136377568D01*
X141865142Y-136377568D02*
X141793713Y-136448996D01*
X141793713Y-136448996D02*
X141722285Y-136377568D01*
X141722285Y-136377568D02*
X141793713Y-136306139D01*
X141793713Y-136306139D02*
X141793713Y-136448996D01*
X143293714Y-136448996D02*
X142436571Y-136448996D01*
X142865142Y-136448996D02*
X142865142Y-134948996D01*
X142865142Y-134948996D02*
X142722285Y-135163282D01*
X142722285Y-135163282D02*
X142579428Y-135306139D01*
X142579428Y-135306139D02*
X142436571Y-135377568D01*
X122293715Y-137363912D02*
X122436572Y-137363912D01*
X122436572Y-137363912D02*
X122579429Y-137435341D01*
X122579429Y-137435341D02*
X122650858Y-137506769D01*
X122650858Y-137506769D02*
X122722286Y-137649626D01*
X122722286Y-137649626D02*
X122793715Y-137935341D01*
X122793715Y-137935341D02*
X122793715Y-138292484D01*
X122793715Y-138292484D02*
X122722286Y-138578198D01*
X122722286Y-138578198D02*
X122650858Y-138721055D01*
X122650858Y-138721055D02*
X122579429Y-138792484D01*
X122579429Y-138792484D02*
X122436572Y-138863912D01*
X122436572Y-138863912D02*
X122293715Y-138863912D01*
X122293715Y-138863912D02*
X122150858Y-138792484D01*
X122150858Y-138792484D02*
X122079429Y-138721055D01*
X122079429Y-138721055D02*
X122008000Y-138578198D01*
X122008000Y-138578198D02*
X121936572Y-138292484D01*
X121936572Y-138292484D02*
X121936572Y-137935341D01*
X121936572Y-137935341D02*
X122008000Y-137649626D01*
X122008000Y-137649626D02*
X122079429Y-137506769D01*
X122079429Y-137506769D02*
X122150858Y-137435341D01*
X122150858Y-137435341D02*
X122293715Y-137363912D01*
X124079429Y-137863912D02*
X124079429Y-138863912D01*
X123722286Y-137292484D02*
X123365143Y-138363912D01*
X123365143Y-138363912D02*
X124293714Y-138363912D01*
X125936571Y-137292484D02*
X124650857Y-139221055D01*
X126722286Y-137363912D02*
X126865143Y-137363912D01*
X126865143Y-137363912D02*
X127008000Y-137435341D01*
X127008000Y-137435341D02*
X127079429Y-137506769D01*
X127079429Y-137506769D02*
X127150857Y-137649626D01*
X127150857Y-137649626D02*
X127222286Y-137935341D01*
X127222286Y-137935341D02*
X127222286Y-138292484D01*
X127222286Y-138292484D02*
X127150857Y-138578198D01*
X127150857Y-138578198D02*
X127079429Y-138721055D01*
X127079429Y-138721055D02*
X127008000Y-138792484D01*
X127008000Y-138792484D02*
X126865143Y-138863912D01*
X126865143Y-138863912D02*
X126722286Y-138863912D01*
X126722286Y-138863912D02*
X126579429Y-138792484D01*
X126579429Y-138792484D02*
X126508000Y-138721055D01*
X126508000Y-138721055D02*
X126436571Y-138578198D01*
X126436571Y-138578198D02*
X126365143Y-138292484D01*
X126365143Y-138292484D02*
X126365143Y-137935341D01*
X126365143Y-137935341D02*
X126436571Y-137649626D01*
X126436571Y-137649626D02*
X126508000Y-137506769D01*
X126508000Y-137506769D02*
X126579429Y-137435341D01*
X126579429Y-137435341D02*
X126722286Y-137363912D01*
X127722285Y-137363912D02*
X128722285Y-137363912D01*
X128722285Y-137363912D02*
X128079428Y-138863912D01*
X130365142Y-137292484D02*
X129079428Y-139221055D01*
X130793714Y-137506769D02*
X130865142Y-137435341D01*
X130865142Y-137435341D02*
X131008000Y-137363912D01*
X131008000Y-137363912D02*
X131365142Y-137363912D01*
X131365142Y-137363912D02*
X131508000Y-137435341D01*
X131508000Y-137435341D02*
X131579428Y-137506769D01*
X131579428Y-137506769D02*
X131650857Y-137649626D01*
X131650857Y-137649626D02*
X131650857Y-137792484D01*
X131650857Y-137792484D02*
X131579428Y-138006769D01*
X131579428Y-138006769D02*
X130722285Y-138863912D01*
X130722285Y-138863912D02*
X131650857Y-138863912D01*
X133007999Y-137363912D02*
X132293713Y-137363912D01*
X132293713Y-137363912D02*
X132222285Y-138078198D01*
X132222285Y-138078198D02*
X132293713Y-138006769D01*
X132293713Y-138006769D02*
X132436571Y-137935341D01*
X132436571Y-137935341D02*
X132793713Y-137935341D01*
X132793713Y-137935341D02*
X132936571Y-138006769D01*
X132936571Y-138006769D02*
X133007999Y-138078198D01*
X133007999Y-138078198D02*
X133079428Y-138221055D01*
X133079428Y-138221055D02*
X133079428Y-138578198D01*
X133079428Y-138578198D02*
X133007999Y-138721055D01*
X133007999Y-138721055D02*
X132936571Y-138792484D01*
X132936571Y-138792484D02*
X132793713Y-138863912D01*
X132793713Y-138863912D02*
X132436571Y-138863912D01*
X132436571Y-138863912D02*
X132293713Y-138792484D01*
X132293713Y-138792484D02*
X132222285Y-138721055D01*
X122758001Y-139778828D02*
X123615144Y-139778828D01*
X123186572Y-141278828D02*
X123186572Y-139778828D01*
X124686572Y-141207400D02*
X124543715Y-141278828D01*
X124543715Y-141278828D02*
X124258001Y-141278828D01*
X124258001Y-141278828D02*
X124115143Y-141207400D01*
X124115143Y-141207400D02*
X124043715Y-141064542D01*
X124043715Y-141064542D02*
X124043715Y-140493114D01*
X124043715Y-140493114D02*
X124115143Y-140350257D01*
X124115143Y-140350257D02*
X124258001Y-140278828D01*
X124258001Y-140278828D02*
X124543715Y-140278828D01*
X124543715Y-140278828D02*
X124686572Y-140350257D01*
X124686572Y-140350257D02*
X124758001Y-140493114D01*
X124758001Y-140493114D02*
X124758001Y-140635971D01*
X124758001Y-140635971D02*
X124043715Y-140778828D01*
X126043715Y-141278828D02*
X126043715Y-140493114D01*
X126043715Y-140493114D02*
X125972286Y-140350257D01*
X125972286Y-140350257D02*
X125829429Y-140278828D01*
X125829429Y-140278828D02*
X125543715Y-140278828D01*
X125543715Y-140278828D02*
X125400857Y-140350257D01*
X126043715Y-141207400D02*
X125900857Y-141278828D01*
X125900857Y-141278828D02*
X125543715Y-141278828D01*
X125543715Y-141278828D02*
X125400857Y-141207400D01*
X125400857Y-141207400D02*
X125329429Y-141064542D01*
X125329429Y-141064542D02*
X125329429Y-140921685D01*
X125329429Y-140921685D02*
X125400857Y-140778828D01*
X125400857Y-140778828D02*
X125543715Y-140707400D01*
X125543715Y-140707400D02*
X125900857Y-140707400D01*
X125900857Y-140707400D02*
X126043715Y-140635971D01*
X126758000Y-141278828D02*
X126758000Y-140278828D01*
X126758000Y-140421685D02*
X126829429Y-140350257D01*
X126829429Y-140350257D02*
X126972286Y-140278828D01*
X126972286Y-140278828D02*
X127186572Y-140278828D01*
X127186572Y-140278828D02*
X127329429Y-140350257D01*
X127329429Y-140350257D02*
X127400858Y-140493114D01*
X127400858Y-140493114D02*
X127400858Y-141278828D01*
X127400858Y-140493114D02*
X127472286Y-140350257D01*
X127472286Y-140350257D02*
X127615143Y-140278828D01*
X127615143Y-140278828D02*
X127829429Y-140278828D01*
X127829429Y-140278828D02*
X127972286Y-140350257D01*
X127972286Y-140350257D02*
X128043715Y-140493114D01*
X128043715Y-140493114D02*
X128043715Y-141278828D01*
X130543715Y-139778828D02*
X130258000Y-139778828D01*
X130258000Y-139778828D02*
X130115143Y-139850257D01*
X130115143Y-139850257D02*
X130043715Y-139921685D01*
X130043715Y-139921685D02*
X129900857Y-140135971D01*
X129900857Y-140135971D02*
X129829429Y-140421685D01*
X129829429Y-140421685D02*
X129829429Y-140993114D01*
X129829429Y-140993114D02*
X129900857Y-141135971D01*
X129900857Y-141135971D02*
X129972286Y-141207400D01*
X129972286Y-141207400D02*
X130115143Y-141278828D01*
X130115143Y-141278828D02*
X130400857Y-141278828D01*
X130400857Y-141278828D02*
X130543715Y-141207400D01*
X130543715Y-141207400D02*
X130615143Y-141135971D01*
X130615143Y-141135971D02*
X130686572Y-140993114D01*
X130686572Y-140993114D02*
X130686572Y-140635971D01*
X130686572Y-140635971D02*
X130615143Y-140493114D01*
X130615143Y-140493114D02*
X130543715Y-140421685D01*
X130543715Y-140421685D02*
X130400857Y-140350257D01*
X130400857Y-140350257D02*
X130115143Y-140350257D01*
X130115143Y-140350257D02*
X129972286Y-140421685D01*
X129972286Y-140421685D02*
X129900857Y-140493114D01*
X129900857Y-140493114D02*
X129829429Y-140635971D01*
X132043714Y-139778828D02*
X131329428Y-139778828D01*
X131329428Y-139778828D02*
X131258000Y-140493114D01*
X131258000Y-140493114D02*
X131329428Y-140421685D01*
X131329428Y-140421685D02*
X131472286Y-140350257D01*
X131472286Y-140350257D02*
X131829428Y-140350257D01*
X131829428Y-140350257D02*
X131972286Y-140421685D01*
X131972286Y-140421685D02*
X132043714Y-140493114D01*
X132043714Y-140493114D02*
X132115143Y-140635971D01*
X132115143Y-140635971D02*
X132115143Y-140993114D01*
X132115143Y-140993114D02*
X132043714Y-141135971D01*
X132043714Y-141135971D02*
X131972286Y-141207400D01*
X131972286Y-141207400D02*
X131829428Y-141278828D01*
X131829428Y-141278828D02*
X131472286Y-141278828D01*
X131472286Y-141278828D02*
X131329428Y-141207400D01*
X131329428Y-141207400D02*
X131258000Y-141135971D01*
D11*
X198127266Y-113219288D02*
X198127266Y-112219288D01*
X198127266Y-112219288D02*
X198365361Y-112219288D01*
X198365361Y-112219288D02*
X198508218Y-112266907D01*
X198508218Y-112266907D02*
X198603456Y-112362145D01*
X198603456Y-112362145D02*
X198651075Y-112457383D01*
X198651075Y-112457383D02*
X198698694Y-112647859D01*
X198698694Y-112647859D02*
X198698694Y-112790716D01*
X198698694Y-112790716D02*
X198651075Y-112981192D01*
X198651075Y-112981192D02*
X198603456Y-113076430D01*
X198603456Y-113076430D02*
X198508218Y-113171669D01*
X198508218Y-113171669D02*
X198365361Y-113219288D01*
X198365361Y-113219288D02*
X198127266Y-113219288D01*
X199555837Y-112552621D02*
X199555837Y-113219288D01*
X199317742Y-112171669D02*
X199079647Y-112885954D01*
X199079647Y-112885954D02*
X199698694Y-112885954D01*
X180724819Y-61158285D02*
X179724819Y-61158285D01*
X179724819Y-61158285D02*
X179724819Y-60920190D01*
X179724819Y-60920190D02*
X179772438Y-60777333D01*
X179772438Y-60777333D02*
X179867676Y-60682095D01*
X179867676Y-60682095D02*
X179962914Y-60634476D01*
X179962914Y-60634476D02*
X180153390Y-60586857D01*
X180153390Y-60586857D02*
X180296247Y-60586857D01*
X180296247Y-60586857D02*
X180486723Y-60634476D01*
X180486723Y-60634476D02*
X180581961Y-60682095D01*
X180581961Y-60682095D02*
X180677200Y-60777333D01*
X180677200Y-60777333D02*
X180724819Y-60920190D01*
X180724819Y-60920190D02*
X180724819Y-61158285D01*
X180724819Y-59634476D02*
X180724819Y-60205904D01*
X180724819Y-59920190D02*
X179724819Y-59920190D01*
X179724819Y-59920190D02*
X179867676Y-60015428D01*
X179867676Y-60015428D02*
X179962914Y-60110666D01*
X179962914Y-60110666D02*
X180010533Y-60205904D01*
X179820057Y-59253523D02*
X179772438Y-59205904D01*
X179772438Y-59205904D02*
X179724819Y-59110666D01*
X179724819Y-59110666D02*
X179724819Y-58872571D01*
X179724819Y-58872571D02*
X179772438Y-58777333D01*
X179772438Y-58777333D02*
X179820057Y-58729714D01*
X179820057Y-58729714D02*
X179915295Y-58682095D01*
X179915295Y-58682095D02*
X180010533Y-58682095D01*
X180010533Y-58682095D02*
X180153390Y-58729714D01*
X180153390Y-58729714D02*
X180724819Y-59301142D01*
X180724819Y-59301142D02*
X180724819Y-58682095D01*
X180354819Y-55125904D02*
X179354819Y-55125904D01*
X180354819Y-54554476D02*
X179783390Y-54983047D01*
X179354819Y-54554476D02*
X179926247Y-55125904D01*
X109529714Y-125492819D02*
X109529714Y-124492819D01*
X109529714Y-124492819D02*
X109767809Y-124492819D01*
X109767809Y-124492819D02*
X109910666Y-124540438D01*
X109910666Y-124540438D02*
X110005904Y-124635676D01*
X110005904Y-124635676D02*
X110053523Y-124730914D01*
X110053523Y-124730914D02*
X110101142Y-124921390D01*
X110101142Y-124921390D02*
X110101142Y-125064247D01*
X110101142Y-125064247D02*
X110053523Y-125254723D01*
X110053523Y-125254723D02*
X110005904Y-125349961D01*
X110005904Y-125349961D02*
X109910666Y-125445200D01*
X109910666Y-125445200D02*
X109767809Y-125492819D01*
X109767809Y-125492819D02*
X109529714Y-125492819D01*
X111053523Y-125492819D02*
X110482095Y-125492819D01*
X110767809Y-125492819D02*
X110767809Y-124492819D01*
X110767809Y-124492819D02*
X110672571Y-124635676D01*
X110672571Y-124635676D02*
X110577333Y-124730914D01*
X110577333Y-124730914D02*
X110482095Y-124778533D01*
X111386857Y-124492819D02*
X112005904Y-124492819D01*
X112005904Y-124492819D02*
X111672571Y-124873771D01*
X111672571Y-124873771D02*
X111815428Y-124873771D01*
X111815428Y-124873771D02*
X111910666Y-124921390D01*
X111910666Y-124921390D02*
X111958285Y-124969009D01*
X111958285Y-124969009D02*
X112005904Y-125064247D01*
X112005904Y-125064247D02*
X112005904Y-125302342D01*
X112005904Y-125302342D02*
X111958285Y-125397580D01*
X111958285Y-125397580D02*
X111910666Y-125445200D01*
X111910666Y-125445200D02*
X111815428Y-125492819D01*
X111815428Y-125492819D02*
X111529714Y-125492819D01*
X111529714Y-125492819D02*
X111434476Y-125445200D01*
X111434476Y-125445200D02*
X111386857Y-125397580D01*
X105402095Y-125862819D02*
X105402095Y-124862819D01*
X105973523Y-125862819D02*
X105544952Y-125291390D01*
X105973523Y-124862819D02*
X105402095Y-125434247D01*
X110886551Y-86803288D02*
X110886551Y-85803288D01*
X110886551Y-86279478D02*
X111457979Y-86279478D01*
X111457979Y-86803288D02*
X111457979Y-85803288D01*
X112267503Y-86279478D02*
X112410360Y-86327097D01*
X112410360Y-86327097D02*
X112457979Y-86374716D01*
X112457979Y-86374716D02*
X112505598Y-86469954D01*
X112505598Y-86469954D02*
X112505598Y-86612811D01*
X112505598Y-86612811D02*
X112457979Y-86708049D01*
X112457979Y-86708049D02*
X112410360Y-86755669D01*
X112410360Y-86755669D02*
X112315122Y-86803288D01*
X112315122Y-86803288D02*
X111934170Y-86803288D01*
X111934170Y-86803288D02*
X111934170Y-85803288D01*
X111934170Y-85803288D02*
X112267503Y-85803288D01*
X112267503Y-85803288D02*
X112362741Y-85850907D01*
X112362741Y-85850907D02*
X112410360Y-85898526D01*
X112410360Y-85898526D02*
X112457979Y-85993764D01*
X112457979Y-85993764D02*
X112457979Y-86089002D01*
X112457979Y-86089002D02*
X112410360Y-86184240D01*
X112410360Y-86184240D02*
X112362741Y-86231859D01*
X112362741Y-86231859D02*
X112267503Y-86279478D01*
X112267503Y-86279478D02*
X111934170Y-86279478D01*
X112934170Y-86803288D02*
X112934170Y-86136621D01*
X112934170Y-86327097D02*
X112981789Y-86231859D01*
X112981789Y-86231859D02*
X113029408Y-86184240D01*
X113029408Y-86184240D02*
X113124646Y-86136621D01*
X113124646Y-86136621D02*
X113219884Y-86136621D01*
X113553218Y-86803288D02*
X113553218Y-86136621D01*
X113553218Y-85803288D02*
X113505599Y-85850907D01*
X113505599Y-85850907D02*
X113553218Y-85898526D01*
X113553218Y-85898526D02*
X113600837Y-85850907D01*
X113600837Y-85850907D02*
X113553218Y-85803288D01*
X113553218Y-85803288D02*
X113553218Y-85898526D01*
X114457979Y-86803288D02*
X114457979Y-85803288D01*
X114457979Y-86755669D02*
X114362741Y-86803288D01*
X114362741Y-86803288D02*
X114172265Y-86803288D01*
X114172265Y-86803288D02*
X114077027Y-86755669D01*
X114077027Y-86755669D02*
X114029408Y-86708049D01*
X114029408Y-86708049D02*
X113981789Y-86612811D01*
X113981789Y-86612811D02*
X113981789Y-86327097D01*
X113981789Y-86327097D02*
X114029408Y-86231859D01*
X114029408Y-86231859D02*
X114077027Y-86184240D01*
X114077027Y-86184240D02*
X114172265Y-86136621D01*
X114172265Y-86136621D02*
X114362741Y-86136621D01*
X114362741Y-86136621D02*
X114457979Y-86184240D01*
X115362741Y-86136621D02*
X115362741Y-86946145D01*
X115362741Y-86946145D02*
X115315122Y-87041383D01*
X115315122Y-87041383D02*
X115267503Y-87089002D01*
X115267503Y-87089002D02*
X115172265Y-87136621D01*
X115172265Y-87136621D02*
X115029408Y-87136621D01*
X115029408Y-87136621D02*
X114934170Y-87089002D01*
X115362741Y-86755669D02*
X115267503Y-86803288D01*
X115267503Y-86803288D02*
X115077027Y-86803288D01*
X115077027Y-86803288D02*
X114981789Y-86755669D01*
X114981789Y-86755669D02*
X114934170Y-86708049D01*
X114934170Y-86708049D02*
X114886551Y-86612811D01*
X114886551Y-86612811D02*
X114886551Y-86327097D01*
X114886551Y-86327097D02*
X114934170Y-86231859D01*
X114934170Y-86231859D02*
X114981789Y-86184240D01*
X114981789Y-86184240D02*
X115077027Y-86136621D01*
X115077027Y-86136621D02*
X115267503Y-86136621D01*
X115267503Y-86136621D02*
X115362741Y-86184240D01*
X116219884Y-86755669D02*
X116124646Y-86803288D01*
X116124646Y-86803288D02*
X115934170Y-86803288D01*
X115934170Y-86803288D02*
X115838932Y-86755669D01*
X115838932Y-86755669D02*
X115791313Y-86660430D01*
X115791313Y-86660430D02*
X115791313Y-86279478D01*
X115791313Y-86279478D02*
X115838932Y-86184240D01*
X115838932Y-86184240D02*
X115934170Y-86136621D01*
X115934170Y-86136621D02*
X116124646Y-86136621D01*
X116124646Y-86136621D02*
X116219884Y-86184240D01*
X116219884Y-86184240D02*
X116267503Y-86279478D01*
X116267503Y-86279478D02*
X116267503Y-86374716D01*
X116267503Y-86374716D02*
X115791313Y-86469954D01*
X117362742Y-85803288D02*
X117981789Y-85803288D01*
X117981789Y-85803288D02*
X117648456Y-86184240D01*
X117648456Y-86184240D02*
X117791313Y-86184240D01*
X117791313Y-86184240D02*
X117886551Y-86231859D01*
X117886551Y-86231859D02*
X117934170Y-86279478D01*
X117934170Y-86279478D02*
X117981789Y-86374716D01*
X117981789Y-86374716D02*
X117981789Y-86612811D01*
X117981789Y-86612811D02*
X117934170Y-86708049D01*
X117934170Y-86708049D02*
X117886551Y-86755669D01*
X117886551Y-86755669D02*
X117791313Y-86803288D01*
X117791313Y-86803288D02*
X117505599Y-86803288D01*
X117505599Y-86803288D02*
X117410361Y-86755669D01*
X117410361Y-86755669D02*
X117362742Y-86708049D01*
X180724819Y-46426285D02*
X179724819Y-46426285D01*
X179724819Y-46426285D02*
X179724819Y-46188190D01*
X179724819Y-46188190D02*
X179772438Y-46045333D01*
X179772438Y-46045333D02*
X179867676Y-45950095D01*
X179867676Y-45950095D02*
X179962914Y-45902476D01*
X179962914Y-45902476D02*
X180153390Y-45854857D01*
X180153390Y-45854857D02*
X180296247Y-45854857D01*
X180296247Y-45854857D02*
X180486723Y-45902476D01*
X180486723Y-45902476D02*
X180581961Y-45950095D01*
X180581961Y-45950095D02*
X180677200Y-46045333D01*
X180677200Y-46045333D02*
X180724819Y-46188190D01*
X180724819Y-46188190D02*
X180724819Y-46426285D01*
X180724819Y-44902476D02*
X180724819Y-45473904D01*
X180724819Y-45188190D02*
X179724819Y-45188190D01*
X179724819Y-45188190D02*
X179867676Y-45283428D01*
X179867676Y-45283428D02*
X179962914Y-45378666D01*
X179962914Y-45378666D02*
X180010533Y-45473904D01*
X180724819Y-43950095D02*
X180724819Y-44521523D01*
X180724819Y-44235809D02*
X179724819Y-44235809D01*
X179724819Y-44235809D02*
X179867676Y-44331047D01*
X179867676Y-44331047D02*
X179962914Y-44426285D01*
X179962914Y-44426285D02*
X180010533Y-44521523D01*
X180354819Y-40393904D02*
X179354819Y-40393904D01*
X180354819Y-39822476D02*
X179783390Y-40251047D01*
X179354819Y-39822476D02*
X179926247Y-40393904D01*
X109529714Y-113300819D02*
X109529714Y-112300819D01*
X109529714Y-112300819D02*
X109767809Y-112300819D01*
X109767809Y-112300819D02*
X109910666Y-112348438D01*
X109910666Y-112348438D02*
X110005904Y-112443676D01*
X110005904Y-112443676D02*
X110053523Y-112538914D01*
X110053523Y-112538914D02*
X110101142Y-112729390D01*
X110101142Y-112729390D02*
X110101142Y-112872247D01*
X110101142Y-112872247D02*
X110053523Y-113062723D01*
X110053523Y-113062723D02*
X110005904Y-113157961D01*
X110005904Y-113157961D02*
X109910666Y-113253200D01*
X109910666Y-113253200D02*
X109767809Y-113300819D01*
X109767809Y-113300819D02*
X109529714Y-113300819D01*
X111053523Y-113300819D02*
X110482095Y-113300819D01*
X110767809Y-113300819D02*
X110767809Y-112300819D01*
X110767809Y-112300819D02*
X110672571Y-112443676D01*
X110672571Y-112443676D02*
X110577333Y-112538914D01*
X110577333Y-112538914D02*
X110482095Y-112586533D01*
X111958285Y-112300819D02*
X111482095Y-112300819D01*
X111482095Y-112300819D02*
X111434476Y-112777009D01*
X111434476Y-112777009D02*
X111482095Y-112729390D01*
X111482095Y-112729390D02*
X111577333Y-112681771D01*
X111577333Y-112681771D02*
X111815428Y-112681771D01*
X111815428Y-112681771D02*
X111910666Y-112729390D01*
X111910666Y-112729390D02*
X111958285Y-112777009D01*
X111958285Y-112777009D02*
X112005904Y-112872247D01*
X112005904Y-112872247D02*
X112005904Y-113110342D01*
X112005904Y-113110342D02*
X111958285Y-113205580D01*
X111958285Y-113205580D02*
X111910666Y-113253200D01*
X111910666Y-113253200D02*
X111815428Y-113300819D01*
X111815428Y-113300819D02*
X111577333Y-113300819D01*
X111577333Y-113300819D02*
X111482095Y-113253200D01*
X111482095Y-113253200D02*
X111434476Y-113205580D01*
X105402095Y-113670819D02*
X105402095Y-112670819D01*
X105973523Y-113670819D02*
X105544952Y-113099390D01*
X105973523Y-112670819D02*
X105402095Y-113242247D01*
X162690819Y-45696094D02*
X161690819Y-45696094D01*
X161690819Y-45696094D02*
X161690819Y-45457999D01*
X161690819Y-45457999D02*
X161738438Y-45315142D01*
X161738438Y-45315142D02*
X161833676Y-45219904D01*
X161833676Y-45219904D02*
X161928914Y-45172285D01*
X161928914Y-45172285D02*
X162119390Y-45124666D01*
X162119390Y-45124666D02*
X162262247Y-45124666D01*
X162262247Y-45124666D02*
X162452723Y-45172285D01*
X162452723Y-45172285D02*
X162547961Y-45219904D01*
X162547961Y-45219904D02*
X162643200Y-45315142D01*
X162643200Y-45315142D02*
X162690819Y-45457999D01*
X162690819Y-45457999D02*
X162690819Y-45696094D01*
X162119390Y-44553237D02*
X162071771Y-44648475D01*
X162071771Y-44648475D02*
X162024152Y-44696094D01*
X162024152Y-44696094D02*
X161928914Y-44743713D01*
X161928914Y-44743713D02*
X161881295Y-44743713D01*
X161881295Y-44743713D02*
X161786057Y-44696094D01*
X161786057Y-44696094D02*
X161738438Y-44648475D01*
X161738438Y-44648475D02*
X161690819Y-44553237D01*
X161690819Y-44553237D02*
X161690819Y-44362761D01*
X161690819Y-44362761D02*
X161738438Y-44267523D01*
X161738438Y-44267523D02*
X161786057Y-44219904D01*
X161786057Y-44219904D02*
X161881295Y-44172285D01*
X161881295Y-44172285D02*
X161928914Y-44172285D01*
X161928914Y-44172285D02*
X162024152Y-44219904D01*
X162024152Y-44219904D02*
X162071771Y-44267523D01*
X162071771Y-44267523D02*
X162119390Y-44362761D01*
X162119390Y-44362761D02*
X162119390Y-44553237D01*
X162119390Y-44553237D02*
X162167009Y-44648475D01*
X162167009Y-44648475D02*
X162214628Y-44696094D01*
X162214628Y-44696094D02*
X162309866Y-44743713D01*
X162309866Y-44743713D02*
X162500342Y-44743713D01*
X162500342Y-44743713D02*
X162595580Y-44696094D01*
X162595580Y-44696094D02*
X162643200Y-44648475D01*
X162643200Y-44648475D02*
X162690819Y-44553237D01*
X162690819Y-44553237D02*
X162690819Y-44362761D01*
X162690819Y-44362761D02*
X162643200Y-44267523D01*
X162643200Y-44267523D02*
X162595580Y-44219904D01*
X162595580Y-44219904D02*
X162500342Y-44172285D01*
X162500342Y-44172285D02*
X162309866Y-44172285D01*
X162309866Y-44172285D02*
X162214628Y-44219904D01*
X162214628Y-44219904D02*
X162167009Y-44267523D01*
X162167009Y-44267523D02*
X162119390Y-44362761D01*
X162320819Y-40139904D02*
X161320819Y-40139904D01*
X162320819Y-39568476D02*
X161749390Y-39997047D01*
X161320819Y-39568476D02*
X161892247Y-40139904D01*
X156733551Y-71563288D02*
X156733551Y-70563288D01*
X156733551Y-71039478D02*
X157304979Y-71039478D01*
X157304979Y-71563288D02*
X157304979Y-70563288D01*
X158114503Y-71039478D02*
X158257360Y-71087097D01*
X158257360Y-71087097D02*
X158304979Y-71134716D01*
X158304979Y-71134716D02*
X158352598Y-71229954D01*
X158352598Y-71229954D02*
X158352598Y-71372811D01*
X158352598Y-71372811D02*
X158304979Y-71468049D01*
X158304979Y-71468049D02*
X158257360Y-71515669D01*
X158257360Y-71515669D02*
X158162122Y-71563288D01*
X158162122Y-71563288D02*
X157781170Y-71563288D01*
X157781170Y-71563288D02*
X157781170Y-70563288D01*
X157781170Y-70563288D02*
X158114503Y-70563288D01*
X158114503Y-70563288D02*
X158209741Y-70610907D01*
X158209741Y-70610907D02*
X158257360Y-70658526D01*
X158257360Y-70658526D02*
X158304979Y-70753764D01*
X158304979Y-70753764D02*
X158304979Y-70849002D01*
X158304979Y-70849002D02*
X158257360Y-70944240D01*
X158257360Y-70944240D02*
X158209741Y-70991859D01*
X158209741Y-70991859D02*
X158114503Y-71039478D01*
X158114503Y-71039478D02*
X157781170Y-71039478D01*
X158781170Y-71563288D02*
X158781170Y-70896621D01*
X158781170Y-71087097D02*
X158828789Y-70991859D01*
X158828789Y-70991859D02*
X158876408Y-70944240D01*
X158876408Y-70944240D02*
X158971646Y-70896621D01*
X158971646Y-70896621D02*
X159066884Y-70896621D01*
X159400218Y-71563288D02*
X159400218Y-70896621D01*
X159400218Y-70563288D02*
X159352599Y-70610907D01*
X159352599Y-70610907D02*
X159400218Y-70658526D01*
X159400218Y-70658526D02*
X159447837Y-70610907D01*
X159447837Y-70610907D02*
X159400218Y-70563288D01*
X159400218Y-70563288D02*
X159400218Y-70658526D01*
X160304979Y-71563288D02*
X160304979Y-70563288D01*
X160304979Y-71515669D02*
X160209741Y-71563288D01*
X160209741Y-71563288D02*
X160019265Y-71563288D01*
X160019265Y-71563288D02*
X159924027Y-71515669D01*
X159924027Y-71515669D02*
X159876408Y-71468049D01*
X159876408Y-71468049D02*
X159828789Y-71372811D01*
X159828789Y-71372811D02*
X159828789Y-71087097D01*
X159828789Y-71087097D02*
X159876408Y-70991859D01*
X159876408Y-70991859D02*
X159924027Y-70944240D01*
X159924027Y-70944240D02*
X160019265Y-70896621D01*
X160019265Y-70896621D02*
X160209741Y-70896621D01*
X160209741Y-70896621D02*
X160304979Y-70944240D01*
X161209741Y-70896621D02*
X161209741Y-71706145D01*
X161209741Y-71706145D02*
X161162122Y-71801383D01*
X161162122Y-71801383D02*
X161114503Y-71849002D01*
X161114503Y-71849002D02*
X161019265Y-71896621D01*
X161019265Y-71896621D02*
X160876408Y-71896621D01*
X160876408Y-71896621D02*
X160781170Y-71849002D01*
X161209741Y-71515669D02*
X161114503Y-71563288D01*
X161114503Y-71563288D02*
X160924027Y-71563288D01*
X160924027Y-71563288D02*
X160828789Y-71515669D01*
X160828789Y-71515669D02*
X160781170Y-71468049D01*
X160781170Y-71468049D02*
X160733551Y-71372811D01*
X160733551Y-71372811D02*
X160733551Y-71087097D01*
X160733551Y-71087097D02*
X160781170Y-70991859D01*
X160781170Y-70991859D02*
X160828789Y-70944240D01*
X160828789Y-70944240D02*
X160924027Y-70896621D01*
X160924027Y-70896621D02*
X161114503Y-70896621D01*
X161114503Y-70896621D02*
X161209741Y-70944240D01*
X162066884Y-71515669D02*
X161971646Y-71563288D01*
X161971646Y-71563288D02*
X161781170Y-71563288D01*
X161781170Y-71563288D02*
X161685932Y-71515669D01*
X161685932Y-71515669D02*
X161638313Y-71420430D01*
X161638313Y-71420430D02*
X161638313Y-71039478D01*
X161638313Y-71039478D02*
X161685932Y-70944240D01*
X161685932Y-70944240D02*
X161781170Y-70896621D01*
X161781170Y-70896621D02*
X161971646Y-70896621D01*
X161971646Y-70896621D02*
X162066884Y-70944240D01*
X162066884Y-70944240D02*
X162114503Y-71039478D01*
X162114503Y-71039478D02*
X162114503Y-71134716D01*
X162114503Y-71134716D02*
X161638313Y-71229954D01*
X163828789Y-71563288D02*
X163257361Y-71563288D01*
X163543075Y-71563288D02*
X163543075Y-70563288D01*
X163543075Y-70563288D02*
X163447837Y-70706145D01*
X163447837Y-70706145D02*
X163352599Y-70801383D01*
X163352599Y-70801383D02*
X163257361Y-70849002D01*
X180094095Y-140424819D02*
X180665523Y-140424819D01*
X180379809Y-141424819D02*
X180379809Y-140424819D01*
X180998857Y-141424819D02*
X180998857Y-140424819D01*
X180998857Y-140424819D02*
X181379809Y-140424819D01*
X181379809Y-140424819D02*
X181475047Y-140472438D01*
X181475047Y-140472438D02*
X181522666Y-140520057D01*
X181522666Y-140520057D02*
X181570285Y-140615295D01*
X181570285Y-140615295D02*
X181570285Y-140758152D01*
X181570285Y-140758152D02*
X181522666Y-140853390D01*
X181522666Y-140853390D02*
X181475047Y-140901009D01*
X181475047Y-140901009D02*
X181379809Y-140948628D01*
X181379809Y-140948628D02*
X180998857Y-140948628D01*
X181951238Y-140520057D02*
X181998857Y-140472438D01*
X181998857Y-140472438D02*
X182094095Y-140424819D01*
X182094095Y-140424819D02*
X182332190Y-140424819D01*
X182332190Y-140424819D02*
X182427428Y-140472438D01*
X182427428Y-140472438D02*
X182475047Y-140520057D01*
X182475047Y-140520057D02*
X182522666Y-140615295D01*
X182522666Y-140615295D02*
X182522666Y-140710533D01*
X182522666Y-140710533D02*
X182475047Y-140853390D01*
X182475047Y-140853390D02*
X181903619Y-141424819D01*
X181903619Y-141424819D02*
X182522666Y-141424819D01*
X162490180Y-92357135D02*
X162013989Y-92690468D01*
X162490180Y-92928563D02*
X161490180Y-92928563D01*
X161490180Y-92928563D02*
X161490180Y-92547611D01*
X161490180Y-92547611D02*
X161537799Y-92452373D01*
X161537799Y-92452373D02*
X161585418Y-92404754D01*
X161585418Y-92404754D02*
X161680656Y-92357135D01*
X161680656Y-92357135D02*
X161823513Y-92357135D01*
X161823513Y-92357135D02*
X161918751Y-92404754D01*
X161918751Y-92404754D02*
X161966370Y-92452373D01*
X161966370Y-92452373D02*
X162013989Y-92547611D01*
X162013989Y-92547611D02*
X162013989Y-92928563D01*
X162490180Y-91404754D02*
X162490180Y-91976182D01*
X162490180Y-91690468D02*
X161490180Y-91690468D01*
X161490180Y-91690468D02*
X161633037Y-91785706D01*
X161633037Y-91785706D02*
X161728275Y-91880944D01*
X161728275Y-91880944D02*
X161775894Y-91976182D01*
X168155266Y-96257288D02*
X168155266Y-95257288D01*
X168155266Y-95257288D02*
X168393361Y-95257288D01*
X168393361Y-95257288D02*
X168536218Y-95304907D01*
X168536218Y-95304907D02*
X168631456Y-95400145D01*
X168631456Y-95400145D02*
X168679075Y-95495383D01*
X168679075Y-95495383D02*
X168726694Y-95685859D01*
X168726694Y-95685859D02*
X168726694Y-95828716D01*
X168726694Y-95828716D02*
X168679075Y-96019192D01*
X168679075Y-96019192D02*
X168631456Y-96114430D01*
X168631456Y-96114430D02*
X168536218Y-96209669D01*
X168536218Y-96209669D02*
X168393361Y-96257288D01*
X168393361Y-96257288D02*
X168155266Y-96257288D01*
X169679075Y-96257288D02*
X169107647Y-96257288D01*
X169393361Y-96257288D02*
X169393361Y-95257288D01*
X169393361Y-95257288D02*
X169298123Y-95400145D01*
X169298123Y-95400145D02*
X169202885Y-95495383D01*
X169202885Y-95495383D02*
X169107647Y-95543002D01*
X182188694Y-120585288D02*
X181855361Y-120109097D01*
X181617266Y-120585288D02*
X181617266Y-119585288D01*
X181617266Y-119585288D02*
X181998218Y-119585288D01*
X181998218Y-119585288D02*
X182093456Y-119632907D01*
X182093456Y-119632907D02*
X182141075Y-119680526D01*
X182141075Y-119680526D02*
X182188694Y-119775764D01*
X182188694Y-119775764D02*
X182188694Y-119918621D01*
X182188694Y-119918621D02*
X182141075Y-120013859D01*
X182141075Y-120013859D02*
X182093456Y-120061478D01*
X182093456Y-120061478D02*
X181998218Y-120109097D01*
X181998218Y-120109097D02*
X181617266Y-120109097D01*
X182760123Y-120013859D02*
X182664885Y-119966240D01*
X182664885Y-119966240D02*
X182617266Y-119918621D01*
X182617266Y-119918621D02*
X182569647Y-119823383D01*
X182569647Y-119823383D02*
X182569647Y-119775764D01*
X182569647Y-119775764D02*
X182617266Y-119680526D01*
X182617266Y-119680526D02*
X182664885Y-119632907D01*
X182664885Y-119632907D02*
X182760123Y-119585288D01*
X182760123Y-119585288D02*
X182950599Y-119585288D01*
X182950599Y-119585288D02*
X183045837Y-119632907D01*
X183045837Y-119632907D02*
X183093456Y-119680526D01*
X183093456Y-119680526D02*
X183141075Y-119775764D01*
X183141075Y-119775764D02*
X183141075Y-119823383D01*
X183141075Y-119823383D02*
X183093456Y-119918621D01*
X183093456Y-119918621D02*
X183045837Y-119966240D01*
X183045837Y-119966240D02*
X182950599Y-120013859D01*
X182950599Y-120013859D02*
X182760123Y-120013859D01*
X182760123Y-120013859D02*
X182664885Y-120061478D01*
X182664885Y-120061478D02*
X182617266Y-120109097D01*
X182617266Y-120109097D02*
X182569647Y-120204335D01*
X182569647Y-120204335D02*
X182569647Y-120394811D01*
X182569647Y-120394811D02*
X182617266Y-120490049D01*
X182617266Y-120490049D02*
X182664885Y-120537669D01*
X182664885Y-120537669D02*
X182760123Y-120585288D01*
X182760123Y-120585288D02*
X182950599Y-120585288D01*
X182950599Y-120585288D02*
X183045837Y-120537669D01*
X183045837Y-120537669D02*
X183093456Y-120490049D01*
X183093456Y-120490049D02*
X183141075Y-120394811D01*
X183141075Y-120394811D02*
X183141075Y-120204335D01*
X183141075Y-120204335D02*
X183093456Y-120109097D01*
X183093456Y-120109097D02*
X183045837Y-120061478D01*
X183045837Y-120061478D02*
X182950599Y-120013859D01*
X106556819Y-96972285D02*
X105556819Y-96972285D01*
X105556819Y-96972285D02*
X105556819Y-96734190D01*
X105556819Y-96734190D02*
X105604438Y-96591333D01*
X105604438Y-96591333D02*
X105699676Y-96496095D01*
X105699676Y-96496095D02*
X105794914Y-96448476D01*
X105794914Y-96448476D02*
X105985390Y-96400857D01*
X105985390Y-96400857D02*
X106128247Y-96400857D01*
X106128247Y-96400857D02*
X106318723Y-96448476D01*
X106318723Y-96448476D02*
X106413961Y-96496095D01*
X106413961Y-96496095D02*
X106509200Y-96591333D01*
X106509200Y-96591333D02*
X106556819Y-96734190D01*
X106556819Y-96734190D02*
X106556819Y-96972285D01*
X106556819Y-95448476D02*
X106556819Y-96019904D01*
X106556819Y-95734190D02*
X105556819Y-95734190D01*
X105556819Y-95734190D02*
X105699676Y-95829428D01*
X105699676Y-95829428D02*
X105794914Y-95924666D01*
X105794914Y-95924666D02*
X105842533Y-96019904D01*
X106556819Y-94972285D02*
X106556819Y-94781809D01*
X106556819Y-94781809D02*
X106509200Y-94686571D01*
X106509200Y-94686571D02*
X106461580Y-94638952D01*
X106461580Y-94638952D02*
X106318723Y-94543714D01*
X106318723Y-94543714D02*
X106128247Y-94496095D01*
X106128247Y-94496095D02*
X105747295Y-94496095D01*
X105747295Y-94496095D02*
X105652057Y-94543714D01*
X105652057Y-94543714D02*
X105604438Y-94591333D01*
X105604438Y-94591333D02*
X105556819Y-94686571D01*
X105556819Y-94686571D02*
X105556819Y-94877047D01*
X105556819Y-94877047D02*
X105604438Y-94972285D01*
X105604438Y-94972285D02*
X105652057Y-95019904D01*
X105652057Y-95019904D02*
X105747295Y-95067523D01*
X105747295Y-95067523D02*
X105985390Y-95067523D01*
X105985390Y-95067523D02*
X106080628Y-95019904D01*
X106080628Y-95019904D02*
X106128247Y-94972285D01*
X106128247Y-94972285D02*
X106175866Y-94877047D01*
X106175866Y-94877047D02*
X106175866Y-94686571D01*
X106175866Y-94686571D02*
X106128247Y-94591333D01*
X106128247Y-94591333D02*
X106080628Y-94543714D01*
X106080628Y-94543714D02*
X105985390Y-94496095D01*
X106186819Y-90939904D02*
X105186819Y-90939904D01*
X106186819Y-90368476D02*
X105615390Y-90797047D01*
X105186819Y-90368476D02*
X105758247Y-90939904D01*
X142370819Y-62174285D02*
X141370819Y-62174285D01*
X141370819Y-62174285D02*
X141370819Y-61936190D01*
X141370819Y-61936190D02*
X141418438Y-61793333D01*
X141418438Y-61793333D02*
X141513676Y-61698095D01*
X141513676Y-61698095D02*
X141608914Y-61650476D01*
X141608914Y-61650476D02*
X141799390Y-61602857D01*
X141799390Y-61602857D02*
X141942247Y-61602857D01*
X141942247Y-61602857D02*
X142132723Y-61650476D01*
X142132723Y-61650476D02*
X142227961Y-61698095D01*
X142227961Y-61698095D02*
X142323200Y-61793333D01*
X142323200Y-61793333D02*
X142370819Y-61936190D01*
X142370819Y-61936190D02*
X142370819Y-62174285D01*
X141466057Y-61221904D02*
X141418438Y-61174285D01*
X141418438Y-61174285D02*
X141370819Y-61079047D01*
X141370819Y-61079047D02*
X141370819Y-60840952D01*
X141370819Y-60840952D02*
X141418438Y-60745714D01*
X141418438Y-60745714D02*
X141466057Y-60698095D01*
X141466057Y-60698095D02*
X141561295Y-60650476D01*
X141561295Y-60650476D02*
X141656533Y-60650476D01*
X141656533Y-60650476D02*
X141799390Y-60698095D01*
X141799390Y-60698095D02*
X142370819Y-61269523D01*
X142370819Y-61269523D02*
X142370819Y-60650476D01*
X141799390Y-60079047D02*
X141751771Y-60174285D01*
X141751771Y-60174285D02*
X141704152Y-60221904D01*
X141704152Y-60221904D02*
X141608914Y-60269523D01*
X141608914Y-60269523D02*
X141561295Y-60269523D01*
X141561295Y-60269523D02*
X141466057Y-60221904D01*
X141466057Y-60221904D02*
X141418438Y-60174285D01*
X141418438Y-60174285D02*
X141370819Y-60079047D01*
X141370819Y-60079047D02*
X141370819Y-59888571D01*
X141370819Y-59888571D02*
X141418438Y-59793333D01*
X141418438Y-59793333D02*
X141466057Y-59745714D01*
X141466057Y-59745714D02*
X141561295Y-59698095D01*
X141561295Y-59698095D02*
X141608914Y-59698095D01*
X141608914Y-59698095D02*
X141704152Y-59745714D01*
X141704152Y-59745714D02*
X141751771Y-59793333D01*
X141751771Y-59793333D02*
X141799390Y-59888571D01*
X141799390Y-59888571D02*
X141799390Y-60079047D01*
X141799390Y-60079047D02*
X141847009Y-60174285D01*
X141847009Y-60174285D02*
X141894628Y-60221904D01*
X141894628Y-60221904D02*
X141989866Y-60269523D01*
X141989866Y-60269523D02*
X142180342Y-60269523D01*
X142180342Y-60269523D02*
X142275580Y-60221904D01*
X142275580Y-60221904D02*
X142323200Y-60174285D01*
X142323200Y-60174285D02*
X142370819Y-60079047D01*
X142370819Y-60079047D02*
X142370819Y-59888571D01*
X142370819Y-59888571D02*
X142323200Y-59793333D01*
X142323200Y-59793333D02*
X142275580Y-59745714D01*
X142275580Y-59745714D02*
X142180342Y-59698095D01*
X142180342Y-59698095D02*
X141989866Y-59698095D01*
X141989866Y-59698095D02*
X141894628Y-59745714D01*
X141894628Y-59745714D02*
X141847009Y-59793333D01*
X141847009Y-59793333D02*
X141799390Y-59888571D01*
X142000819Y-56141904D02*
X141000819Y-56141904D01*
X142000819Y-55570476D02*
X141429390Y-55999047D01*
X141000819Y-55570476D02*
X141572247Y-56141904D01*
X100076095Y-138494819D02*
X100076095Y-137494819D01*
X100076095Y-137971009D02*
X100647523Y-137971009D01*
X100647523Y-138494819D02*
X100647523Y-137494819D01*
X101028476Y-137494819D02*
X101647523Y-137494819D01*
X101647523Y-137494819D02*
X101314190Y-137875771D01*
X101314190Y-137875771D02*
X101457047Y-137875771D01*
X101457047Y-137875771D02*
X101552285Y-137923390D01*
X101552285Y-137923390D02*
X101599904Y-137971009D01*
X101599904Y-137971009D02*
X101647523Y-138066247D01*
X101647523Y-138066247D02*
X101647523Y-138304342D01*
X101647523Y-138304342D02*
X101599904Y-138399580D01*
X101599904Y-138399580D02*
X101552285Y-138447200D01*
X101552285Y-138447200D02*
X101457047Y-138494819D01*
X101457047Y-138494819D02*
X101171333Y-138494819D01*
X101171333Y-138494819D02*
X101076095Y-138447200D01*
X101076095Y-138447200D02*
X101028476Y-138399580D01*
X131183142Y-91037580D02*
X131135523Y-91085200D01*
X131135523Y-91085200D02*
X130992666Y-91132819D01*
X130992666Y-91132819D02*
X130897428Y-91132819D01*
X130897428Y-91132819D02*
X130754571Y-91085200D01*
X130754571Y-91085200D02*
X130659333Y-90989961D01*
X130659333Y-90989961D02*
X130611714Y-90894723D01*
X130611714Y-90894723D02*
X130564095Y-90704247D01*
X130564095Y-90704247D02*
X130564095Y-90561390D01*
X130564095Y-90561390D02*
X130611714Y-90370914D01*
X130611714Y-90370914D02*
X130659333Y-90275676D01*
X130659333Y-90275676D02*
X130754571Y-90180438D01*
X130754571Y-90180438D02*
X130897428Y-90132819D01*
X130897428Y-90132819D02*
X130992666Y-90132819D01*
X130992666Y-90132819D02*
X131135523Y-90180438D01*
X131135523Y-90180438D02*
X131183142Y-90228057D01*
X132135523Y-91132819D02*
X131564095Y-91132819D01*
X131849809Y-91132819D02*
X131849809Y-90132819D01*
X131849809Y-90132819D02*
X131754571Y-90275676D01*
X131754571Y-90275676D02*
X131659333Y-90370914D01*
X131659333Y-90370914D02*
X131564095Y-90418533D01*
X132992666Y-90132819D02*
X132802190Y-90132819D01*
X132802190Y-90132819D02*
X132706952Y-90180438D01*
X132706952Y-90180438D02*
X132659333Y-90228057D01*
X132659333Y-90228057D02*
X132564095Y-90370914D01*
X132564095Y-90370914D02*
X132516476Y-90561390D01*
X132516476Y-90561390D02*
X132516476Y-90942342D01*
X132516476Y-90942342D02*
X132564095Y-91037580D01*
X132564095Y-91037580D02*
X132611714Y-91085200D01*
X132611714Y-91085200D02*
X132706952Y-91132819D01*
X132706952Y-91132819D02*
X132897428Y-91132819D01*
X132897428Y-91132819D02*
X132992666Y-91085200D01*
X132992666Y-91085200D02*
X133040285Y-91037580D01*
X133040285Y-91037580D02*
X133087904Y-90942342D01*
X133087904Y-90942342D02*
X133087904Y-90704247D01*
X133087904Y-90704247D02*
X133040285Y-90609009D01*
X133040285Y-90609009D02*
X132992666Y-90561390D01*
X132992666Y-90561390D02*
X132897428Y-90513771D01*
X132897428Y-90513771D02*
X132706952Y-90513771D01*
X132706952Y-90513771D02*
X132611714Y-90561390D01*
X132611714Y-90561390D02*
X132564095Y-90609009D01*
X132564095Y-90609009D02*
X132516476Y-90704247D01*
X168532819Y-45696094D02*
X167532819Y-45696094D01*
X167532819Y-45696094D02*
X167532819Y-45457999D01*
X167532819Y-45457999D02*
X167580438Y-45315142D01*
X167580438Y-45315142D02*
X167675676Y-45219904D01*
X167675676Y-45219904D02*
X167770914Y-45172285D01*
X167770914Y-45172285D02*
X167961390Y-45124666D01*
X167961390Y-45124666D02*
X168104247Y-45124666D01*
X168104247Y-45124666D02*
X168294723Y-45172285D01*
X168294723Y-45172285D02*
X168389961Y-45219904D01*
X168389961Y-45219904D02*
X168485200Y-45315142D01*
X168485200Y-45315142D02*
X168532819Y-45457999D01*
X168532819Y-45457999D02*
X168532819Y-45696094D01*
X168532819Y-44648475D02*
X168532819Y-44457999D01*
X168532819Y-44457999D02*
X168485200Y-44362761D01*
X168485200Y-44362761D02*
X168437580Y-44315142D01*
X168437580Y-44315142D02*
X168294723Y-44219904D01*
X168294723Y-44219904D02*
X168104247Y-44172285D01*
X168104247Y-44172285D02*
X167723295Y-44172285D01*
X167723295Y-44172285D02*
X167628057Y-44219904D01*
X167628057Y-44219904D02*
X167580438Y-44267523D01*
X167580438Y-44267523D02*
X167532819Y-44362761D01*
X167532819Y-44362761D02*
X167532819Y-44553237D01*
X167532819Y-44553237D02*
X167580438Y-44648475D01*
X167580438Y-44648475D02*
X167628057Y-44696094D01*
X167628057Y-44696094D02*
X167723295Y-44743713D01*
X167723295Y-44743713D02*
X167961390Y-44743713D01*
X167961390Y-44743713D02*
X168056628Y-44696094D01*
X168056628Y-44696094D02*
X168104247Y-44648475D01*
X168104247Y-44648475D02*
X168151866Y-44553237D01*
X168151866Y-44553237D02*
X168151866Y-44362761D01*
X168151866Y-44362761D02*
X168104247Y-44267523D01*
X168104247Y-44267523D02*
X168056628Y-44219904D01*
X168056628Y-44219904D02*
X167961390Y-44172285D01*
X168162819Y-40139904D02*
X167162819Y-40139904D01*
X168162819Y-39568476D02*
X167591390Y-39997047D01*
X167162819Y-39568476D02*
X167734247Y-40139904D01*
X160663095Y-128232819D02*
X161234523Y-128232819D01*
X160948809Y-129232819D02*
X160948809Y-128232819D01*
X161567857Y-129232819D02*
X161567857Y-128232819D01*
X161567857Y-128232819D02*
X161948809Y-128232819D01*
X161948809Y-128232819D02*
X162044047Y-128280438D01*
X162044047Y-128280438D02*
X162091666Y-128328057D01*
X162091666Y-128328057D02*
X162139285Y-128423295D01*
X162139285Y-128423295D02*
X162139285Y-128566152D01*
X162139285Y-128566152D02*
X162091666Y-128661390D01*
X162091666Y-128661390D02*
X162044047Y-128709009D01*
X162044047Y-128709009D02*
X161948809Y-128756628D01*
X161948809Y-128756628D02*
X161567857Y-128756628D01*
X162472619Y-128232819D02*
X163091666Y-128232819D01*
X163091666Y-128232819D02*
X162758333Y-128613771D01*
X162758333Y-128613771D02*
X162901190Y-128613771D01*
X162901190Y-128613771D02*
X162996428Y-128661390D01*
X162996428Y-128661390D02*
X163044047Y-128709009D01*
X163044047Y-128709009D02*
X163091666Y-128804247D01*
X163091666Y-128804247D02*
X163091666Y-129042342D01*
X163091666Y-129042342D02*
X163044047Y-129137580D01*
X163044047Y-129137580D02*
X162996428Y-129185200D01*
X162996428Y-129185200D02*
X162901190Y-129232819D01*
X162901190Y-129232819D02*
X162615476Y-129232819D01*
X162615476Y-129232819D02*
X162520238Y-129185200D01*
X162520238Y-129185200D02*
X162472619Y-129137580D01*
X144120503Y-82898049D02*
X144072884Y-82945669D01*
X144072884Y-82945669D02*
X143930027Y-82993288D01*
X143930027Y-82993288D02*
X143834789Y-82993288D01*
X143834789Y-82993288D02*
X143691932Y-82945669D01*
X143691932Y-82945669D02*
X143596694Y-82850430D01*
X143596694Y-82850430D02*
X143549075Y-82755192D01*
X143549075Y-82755192D02*
X143501456Y-82564716D01*
X143501456Y-82564716D02*
X143501456Y-82421859D01*
X143501456Y-82421859D02*
X143549075Y-82231383D01*
X143549075Y-82231383D02*
X143596694Y-82136145D01*
X143596694Y-82136145D02*
X143691932Y-82040907D01*
X143691932Y-82040907D02*
X143834789Y-81993288D01*
X143834789Y-81993288D02*
X143930027Y-81993288D01*
X143930027Y-81993288D02*
X144072884Y-82040907D01*
X144072884Y-82040907D02*
X144120503Y-82088526D01*
X145072884Y-82993288D02*
X144501456Y-82993288D01*
X144787170Y-82993288D02*
X144787170Y-81993288D01*
X144787170Y-81993288D02*
X144691932Y-82136145D01*
X144691932Y-82136145D02*
X144596694Y-82231383D01*
X144596694Y-82231383D02*
X144501456Y-82279002D01*
X145406218Y-81993288D02*
X146025265Y-81993288D01*
X146025265Y-81993288D02*
X145691932Y-82374240D01*
X145691932Y-82374240D02*
X145834789Y-82374240D01*
X145834789Y-82374240D02*
X145930027Y-82421859D01*
X145930027Y-82421859D02*
X145977646Y-82469478D01*
X145977646Y-82469478D02*
X146025265Y-82564716D01*
X146025265Y-82564716D02*
X146025265Y-82802811D01*
X146025265Y-82802811D02*
X145977646Y-82898049D01*
X145977646Y-82898049D02*
X145930027Y-82945669D01*
X145930027Y-82945669D02*
X145834789Y-82993288D01*
X145834789Y-82993288D02*
X145549075Y-82993288D01*
X145549075Y-82993288D02*
X145453837Y-82945669D01*
X145453837Y-82945669D02*
X145406218Y-82898049D01*
X183761142Y-132026819D02*
X183427809Y-131550628D01*
X183189714Y-132026819D02*
X183189714Y-131026819D01*
X183189714Y-131026819D02*
X183570666Y-131026819D01*
X183570666Y-131026819D02*
X183665904Y-131074438D01*
X183665904Y-131074438D02*
X183713523Y-131122057D01*
X183713523Y-131122057D02*
X183761142Y-131217295D01*
X183761142Y-131217295D02*
X183761142Y-131360152D01*
X183761142Y-131360152D02*
X183713523Y-131455390D01*
X183713523Y-131455390D02*
X183665904Y-131503009D01*
X183665904Y-131503009D02*
X183570666Y-131550628D01*
X183570666Y-131550628D02*
X183189714Y-131550628D01*
X184713523Y-132026819D02*
X184142095Y-132026819D01*
X184427809Y-132026819D02*
X184427809Y-131026819D01*
X184427809Y-131026819D02*
X184332571Y-131169676D01*
X184332571Y-131169676D02*
X184237333Y-131264914D01*
X184237333Y-131264914D02*
X184142095Y-131312533D01*
X185665904Y-132026819D02*
X185094476Y-132026819D01*
X185380190Y-132026819D02*
X185380190Y-131026819D01*
X185380190Y-131026819D02*
X185284952Y-131169676D01*
X185284952Y-131169676D02*
X185189714Y-131264914D01*
X185189714Y-131264914D02*
X185094476Y-131312533D01*
X141296819Y-130960666D02*
X140820628Y-131293999D01*
X141296819Y-131532094D02*
X140296819Y-131532094D01*
X140296819Y-131532094D02*
X140296819Y-131151142D01*
X140296819Y-131151142D02*
X140344438Y-131055904D01*
X140344438Y-131055904D02*
X140392057Y-131008285D01*
X140392057Y-131008285D02*
X140487295Y-130960666D01*
X140487295Y-130960666D02*
X140630152Y-130960666D01*
X140630152Y-130960666D02*
X140725390Y-131008285D01*
X140725390Y-131008285D02*
X140773009Y-131055904D01*
X140773009Y-131055904D02*
X140820628Y-131151142D01*
X140820628Y-131151142D02*
X140820628Y-131532094D01*
X140296819Y-130627332D02*
X140296819Y-130008285D01*
X140296819Y-130008285D02*
X140677771Y-130341618D01*
X140677771Y-130341618D02*
X140677771Y-130198761D01*
X140677771Y-130198761D02*
X140725390Y-130103523D01*
X140725390Y-130103523D02*
X140773009Y-130055904D01*
X140773009Y-130055904D02*
X140868247Y-130008285D01*
X140868247Y-130008285D02*
X141106342Y-130008285D01*
X141106342Y-130008285D02*
X141201580Y-130055904D01*
X141201580Y-130055904D02*
X141249200Y-130103523D01*
X141249200Y-130103523D02*
X141296819Y-130198761D01*
X141296819Y-130198761D02*
X141296819Y-130484475D01*
X141296819Y-130484475D02*
X141249200Y-130579713D01*
X141249200Y-130579713D02*
X141201580Y-130627332D01*
X130686819Y-62682285D02*
X129686819Y-62682285D01*
X129686819Y-62682285D02*
X129686819Y-62444190D01*
X129686819Y-62444190D02*
X129734438Y-62301333D01*
X129734438Y-62301333D02*
X129829676Y-62206095D01*
X129829676Y-62206095D02*
X129924914Y-62158476D01*
X129924914Y-62158476D02*
X130115390Y-62110857D01*
X130115390Y-62110857D02*
X130258247Y-62110857D01*
X130258247Y-62110857D02*
X130448723Y-62158476D01*
X130448723Y-62158476D02*
X130543961Y-62206095D01*
X130543961Y-62206095D02*
X130639200Y-62301333D01*
X130639200Y-62301333D02*
X130686819Y-62444190D01*
X130686819Y-62444190D02*
X130686819Y-62682285D01*
X129782057Y-61729904D02*
X129734438Y-61682285D01*
X129734438Y-61682285D02*
X129686819Y-61587047D01*
X129686819Y-61587047D02*
X129686819Y-61348952D01*
X129686819Y-61348952D02*
X129734438Y-61253714D01*
X129734438Y-61253714D02*
X129782057Y-61206095D01*
X129782057Y-61206095D02*
X129877295Y-61158476D01*
X129877295Y-61158476D02*
X129972533Y-61158476D01*
X129972533Y-61158476D02*
X130115390Y-61206095D01*
X130115390Y-61206095D02*
X130686819Y-61777523D01*
X130686819Y-61777523D02*
X130686819Y-61158476D01*
X129686819Y-60301333D02*
X129686819Y-60491809D01*
X129686819Y-60491809D02*
X129734438Y-60587047D01*
X129734438Y-60587047D02*
X129782057Y-60634666D01*
X129782057Y-60634666D02*
X129924914Y-60729904D01*
X129924914Y-60729904D02*
X130115390Y-60777523D01*
X130115390Y-60777523D02*
X130496342Y-60777523D01*
X130496342Y-60777523D02*
X130591580Y-60729904D01*
X130591580Y-60729904D02*
X130639200Y-60682285D01*
X130639200Y-60682285D02*
X130686819Y-60587047D01*
X130686819Y-60587047D02*
X130686819Y-60396571D01*
X130686819Y-60396571D02*
X130639200Y-60301333D01*
X130639200Y-60301333D02*
X130591580Y-60253714D01*
X130591580Y-60253714D02*
X130496342Y-60206095D01*
X130496342Y-60206095D02*
X130258247Y-60206095D01*
X130258247Y-60206095D02*
X130163009Y-60253714D01*
X130163009Y-60253714D02*
X130115390Y-60301333D01*
X130115390Y-60301333D02*
X130067771Y-60396571D01*
X130067771Y-60396571D02*
X130067771Y-60587047D01*
X130067771Y-60587047D02*
X130115390Y-60682285D01*
X130115390Y-60682285D02*
X130163009Y-60729904D01*
X130163009Y-60729904D02*
X130258247Y-60777523D01*
X130316819Y-56649904D02*
X129316819Y-56649904D01*
X130316819Y-56078476D02*
X129745390Y-56507047D01*
X129316819Y-56078476D02*
X129888247Y-56649904D01*
X175108503Y-83914049D02*
X175060884Y-83961669D01*
X175060884Y-83961669D02*
X174918027Y-84009288D01*
X174918027Y-84009288D02*
X174822789Y-84009288D01*
X174822789Y-84009288D02*
X174679932Y-83961669D01*
X174679932Y-83961669D02*
X174584694Y-83866430D01*
X174584694Y-83866430D02*
X174537075Y-83771192D01*
X174537075Y-83771192D02*
X174489456Y-83580716D01*
X174489456Y-83580716D02*
X174489456Y-83437859D01*
X174489456Y-83437859D02*
X174537075Y-83247383D01*
X174537075Y-83247383D02*
X174584694Y-83152145D01*
X174584694Y-83152145D02*
X174679932Y-83056907D01*
X174679932Y-83056907D02*
X174822789Y-83009288D01*
X174822789Y-83009288D02*
X174918027Y-83009288D01*
X174918027Y-83009288D02*
X175060884Y-83056907D01*
X175060884Y-83056907D02*
X175108503Y-83104526D01*
X176060884Y-84009288D02*
X175489456Y-84009288D01*
X175775170Y-84009288D02*
X175775170Y-83009288D01*
X175775170Y-83009288D02*
X175679932Y-83152145D01*
X175679932Y-83152145D02*
X175584694Y-83247383D01*
X175584694Y-83247383D02*
X175489456Y-83295002D01*
X176918027Y-83342621D02*
X176918027Y-84009288D01*
X176679932Y-82961669D02*
X176441837Y-83675954D01*
X176441837Y-83675954D02*
X177060884Y-83675954D01*
X191016095Y-130394819D02*
X191587523Y-130394819D01*
X191301809Y-131394819D02*
X191301809Y-130394819D01*
X191920857Y-131394819D02*
X191920857Y-130394819D01*
X191920857Y-130394819D02*
X192301809Y-130394819D01*
X192301809Y-130394819D02*
X192397047Y-130442438D01*
X192397047Y-130442438D02*
X192444666Y-130490057D01*
X192444666Y-130490057D02*
X192492285Y-130585295D01*
X192492285Y-130585295D02*
X192492285Y-130728152D01*
X192492285Y-130728152D02*
X192444666Y-130823390D01*
X192444666Y-130823390D02*
X192397047Y-130871009D01*
X192397047Y-130871009D02*
X192301809Y-130918628D01*
X192301809Y-130918628D02*
X191920857Y-130918628D01*
X193444666Y-131394819D02*
X192873238Y-131394819D01*
X193158952Y-131394819D02*
X193158952Y-130394819D01*
X193158952Y-130394819D02*
X193063714Y-130537676D01*
X193063714Y-130537676D02*
X192968476Y-130632914D01*
X192968476Y-130632914D02*
X192873238Y-130680533D01*
X172790694Y-112108049D02*
X172743075Y-112155669D01*
X172743075Y-112155669D02*
X172600218Y-112203288D01*
X172600218Y-112203288D02*
X172504980Y-112203288D01*
X172504980Y-112203288D02*
X172362123Y-112155669D01*
X172362123Y-112155669D02*
X172266885Y-112060430D01*
X172266885Y-112060430D02*
X172219266Y-111965192D01*
X172219266Y-111965192D02*
X172171647Y-111774716D01*
X172171647Y-111774716D02*
X172171647Y-111631859D01*
X172171647Y-111631859D02*
X172219266Y-111441383D01*
X172219266Y-111441383D02*
X172266885Y-111346145D01*
X172266885Y-111346145D02*
X172362123Y-111250907D01*
X172362123Y-111250907D02*
X172504980Y-111203288D01*
X172504980Y-111203288D02*
X172600218Y-111203288D01*
X172600218Y-111203288D02*
X172743075Y-111250907D01*
X172743075Y-111250907D02*
X172790694Y-111298526D01*
X173124028Y-111203288D02*
X173790694Y-111203288D01*
X173790694Y-111203288D02*
X173362123Y-112203288D01*
X176061857Y-125391104D02*
X176538047Y-125391104D01*
X175966619Y-125676819D02*
X176299952Y-124676819D01*
X176299952Y-124676819D02*
X176633285Y-125676819D01*
X176966619Y-125676819D02*
X176966619Y-125010152D01*
X176966619Y-125105390D02*
X177014238Y-125057771D01*
X177014238Y-125057771D02*
X177109476Y-125010152D01*
X177109476Y-125010152D02*
X177252333Y-125010152D01*
X177252333Y-125010152D02*
X177347571Y-125057771D01*
X177347571Y-125057771D02*
X177395190Y-125153009D01*
X177395190Y-125153009D02*
X177395190Y-125676819D01*
X177395190Y-125153009D02*
X177442809Y-125057771D01*
X177442809Y-125057771D02*
X177538047Y-125010152D01*
X177538047Y-125010152D02*
X177680904Y-125010152D01*
X177680904Y-125010152D02*
X177776143Y-125057771D01*
X177776143Y-125057771D02*
X177823762Y-125153009D01*
X177823762Y-125153009D02*
X177823762Y-125676819D01*
X178299952Y-125010152D02*
X178299952Y-126010152D01*
X178299952Y-125057771D02*
X178395190Y-125010152D01*
X178395190Y-125010152D02*
X178585666Y-125010152D01*
X178585666Y-125010152D02*
X178680904Y-125057771D01*
X178680904Y-125057771D02*
X178728523Y-125105390D01*
X178728523Y-125105390D02*
X178776142Y-125200628D01*
X178776142Y-125200628D02*
X178776142Y-125486342D01*
X178776142Y-125486342D02*
X178728523Y-125581580D01*
X178728523Y-125581580D02*
X178680904Y-125629200D01*
X178680904Y-125629200D02*
X178585666Y-125676819D01*
X178585666Y-125676819D02*
X178395190Y-125676819D01*
X178395190Y-125676819D02*
X178299952Y-125629200D01*
X149990819Y-61698094D02*
X148990819Y-61698094D01*
X148990819Y-61698094D02*
X148990819Y-61459999D01*
X148990819Y-61459999D02*
X149038438Y-61317142D01*
X149038438Y-61317142D02*
X149133676Y-61221904D01*
X149133676Y-61221904D02*
X149228914Y-61174285D01*
X149228914Y-61174285D02*
X149419390Y-61126666D01*
X149419390Y-61126666D02*
X149562247Y-61126666D01*
X149562247Y-61126666D02*
X149752723Y-61174285D01*
X149752723Y-61174285D02*
X149847961Y-61221904D01*
X149847961Y-61221904D02*
X149943200Y-61317142D01*
X149943200Y-61317142D02*
X149990819Y-61459999D01*
X149990819Y-61459999D02*
X149990819Y-61698094D01*
X148990819Y-60221904D02*
X148990819Y-60698094D01*
X148990819Y-60698094D02*
X149467009Y-60745713D01*
X149467009Y-60745713D02*
X149419390Y-60698094D01*
X149419390Y-60698094D02*
X149371771Y-60602856D01*
X149371771Y-60602856D02*
X149371771Y-60364761D01*
X149371771Y-60364761D02*
X149419390Y-60269523D01*
X149419390Y-60269523D02*
X149467009Y-60221904D01*
X149467009Y-60221904D02*
X149562247Y-60174285D01*
X149562247Y-60174285D02*
X149800342Y-60174285D01*
X149800342Y-60174285D02*
X149895580Y-60221904D01*
X149895580Y-60221904D02*
X149943200Y-60269523D01*
X149943200Y-60269523D02*
X149990819Y-60364761D01*
X149990819Y-60364761D02*
X149990819Y-60602856D01*
X149990819Y-60602856D02*
X149943200Y-60698094D01*
X149943200Y-60698094D02*
X149895580Y-60745713D01*
X149620819Y-56141904D02*
X148620819Y-56141904D01*
X149620819Y-55570476D02*
X149049390Y-55999047D01*
X148620819Y-55570476D02*
X149192247Y-56141904D01*
X182826180Y-56804850D02*
X182826180Y-57281040D01*
X182826180Y-57281040D02*
X183302370Y-57328659D01*
X183302370Y-57328659D02*
X183254751Y-57281040D01*
X183254751Y-57281040D02*
X183207132Y-57185802D01*
X183207132Y-57185802D02*
X183207132Y-56947707D01*
X183207132Y-56947707D02*
X183254751Y-56852469D01*
X183254751Y-56852469D02*
X183302370Y-56804850D01*
X183302370Y-56804850D02*
X183397608Y-56757231D01*
X183397608Y-56757231D02*
X183635703Y-56757231D01*
X183635703Y-56757231D02*
X183730941Y-56804850D01*
X183730941Y-56804850D02*
X183778561Y-56852469D01*
X183778561Y-56852469D02*
X183826180Y-56947707D01*
X183826180Y-56947707D02*
X183826180Y-57185802D01*
X183826180Y-57185802D02*
X183778561Y-57281040D01*
X183778561Y-57281040D02*
X183730941Y-57328659D01*
X182826180Y-56471516D02*
X183826180Y-56138183D01*
X183826180Y-56138183D02*
X182826180Y-55804850D01*
X183826180Y-54138183D02*
X183349989Y-54471516D01*
X183826180Y-54709611D02*
X182826180Y-54709611D01*
X182826180Y-54709611D02*
X182826180Y-54328659D01*
X182826180Y-54328659D02*
X182873799Y-54233421D01*
X182873799Y-54233421D02*
X182921418Y-54185802D01*
X182921418Y-54185802D02*
X183016656Y-54138183D01*
X183016656Y-54138183D02*
X183159513Y-54138183D01*
X183159513Y-54138183D02*
X183254751Y-54185802D01*
X183254751Y-54185802D02*
X183302370Y-54233421D01*
X183302370Y-54233421D02*
X183349989Y-54328659D01*
X183349989Y-54328659D02*
X183349989Y-54709611D01*
X183778561Y-53328659D02*
X183826180Y-53423897D01*
X183826180Y-53423897D02*
X183826180Y-53614373D01*
X183826180Y-53614373D02*
X183778561Y-53709611D01*
X183778561Y-53709611D02*
X183683322Y-53757230D01*
X183683322Y-53757230D02*
X183302370Y-53757230D01*
X183302370Y-53757230D02*
X183207132Y-53709611D01*
X183207132Y-53709611D02*
X183159513Y-53614373D01*
X183159513Y-53614373D02*
X183159513Y-53423897D01*
X183159513Y-53423897D02*
X183207132Y-53328659D01*
X183207132Y-53328659D02*
X183302370Y-53281040D01*
X183302370Y-53281040D02*
X183397608Y-53281040D01*
X183397608Y-53281040D02*
X183492846Y-53757230D01*
X183159513Y-52423897D02*
X183969037Y-52423897D01*
X183969037Y-52423897D02*
X184064275Y-52471516D01*
X184064275Y-52471516D02*
X184111894Y-52519135D01*
X184111894Y-52519135D02*
X184159513Y-52614373D01*
X184159513Y-52614373D02*
X184159513Y-52757230D01*
X184159513Y-52757230D02*
X184111894Y-52852468D01*
X183778561Y-52423897D02*
X183826180Y-52519135D01*
X183826180Y-52519135D02*
X183826180Y-52709611D01*
X183826180Y-52709611D02*
X183778561Y-52804849D01*
X183778561Y-52804849D02*
X183730941Y-52852468D01*
X183730941Y-52852468D02*
X183635703Y-52900087D01*
X183635703Y-52900087D02*
X183349989Y-52900087D01*
X183349989Y-52900087D02*
X183254751Y-52852468D01*
X183254751Y-52852468D02*
X183207132Y-52804849D01*
X183207132Y-52804849D02*
X183159513Y-52709611D01*
X183159513Y-52709611D02*
X183159513Y-52519135D01*
X183159513Y-52519135D02*
X183207132Y-52423897D01*
X137446190Y-93926819D02*
X137446190Y-92926819D01*
X137446190Y-93403009D02*
X138017618Y-93403009D01*
X138017618Y-93926819D02*
X138017618Y-92926819D01*
X138827142Y-93403009D02*
X138969999Y-93450628D01*
X138969999Y-93450628D02*
X139017618Y-93498247D01*
X139017618Y-93498247D02*
X139065237Y-93593485D01*
X139065237Y-93593485D02*
X139065237Y-93736342D01*
X139065237Y-93736342D02*
X139017618Y-93831580D01*
X139017618Y-93831580D02*
X138969999Y-93879200D01*
X138969999Y-93879200D02*
X138874761Y-93926819D01*
X138874761Y-93926819D02*
X138493809Y-93926819D01*
X138493809Y-93926819D02*
X138493809Y-92926819D01*
X138493809Y-92926819D02*
X138827142Y-92926819D01*
X138827142Y-92926819D02*
X138922380Y-92974438D01*
X138922380Y-92974438D02*
X138969999Y-93022057D01*
X138969999Y-93022057D02*
X139017618Y-93117295D01*
X139017618Y-93117295D02*
X139017618Y-93212533D01*
X139017618Y-93212533D02*
X138969999Y-93307771D01*
X138969999Y-93307771D02*
X138922380Y-93355390D01*
X138922380Y-93355390D02*
X138827142Y-93403009D01*
X138827142Y-93403009D02*
X138493809Y-93403009D01*
X139493809Y-93926819D02*
X139493809Y-93260152D01*
X139493809Y-93450628D02*
X139541428Y-93355390D01*
X139541428Y-93355390D02*
X139589047Y-93307771D01*
X139589047Y-93307771D02*
X139684285Y-93260152D01*
X139684285Y-93260152D02*
X139779523Y-93260152D01*
X140112857Y-93926819D02*
X140112857Y-93260152D01*
X140112857Y-92926819D02*
X140065238Y-92974438D01*
X140065238Y-92974438D02*
X140112857Y-93022057D01*
X140112857Y-93022057D02*
X140160476Y-92974438D01*
X140160476Y-92974438D02*
X140112857Y-92926819D01*
X140112857Y-92926819D02*
X140112857Y-93022057D01*
X141017618Y-93926819D02*
X141017618Y-92926819D01*
X141017618Y-93879200D02*
X140922380Y-93926819D01*
X140922380Y-93926819D02*
X140731904Y-93926819D01*
X140731904Y-93926819D02*
X140636666Y-93879200D01*
X140636666Y-93879200D02*
X140589047Y-93831580D01*
X140589047Y-93831580D02*
X140541428Y-93736342D01*
X140541428Y-93736342D02*
X140541428Y-93450628D01*
X140541428Y-93450628D02*
X140589047Y-93355390D01*
X140589047Y-93355390D02*
X140636666Y-93307771D01*
X140636666Y-93307771D02*
X140731904Y-93260152D01*
X140731904Y-93260152D02*
X140922380Y-93260152D01*
X140922380Y-93260152D02*
X141017618Y-93307771D01*
X141922380Y-93260152D02*
X141922380Y-94069676D01*
X141922380Y-94069676D02*
X141874761Y-94164914D01*
X141874761Y-94164914D02*
X141827142Y-94212533D01*
X141827142Y-94212533D02*
X141731904Y-94260152D01*
X141731904Y-94260152D02*
X141589047Y-94260152D01*
X141589047Y-94260152D02*
X141493809Y-94212533D01*
X141922380Y-93879200D02*
X141827142Y-93926819D01*
X141827142Y-93926819D02*
X141636666Y-93926819D01*
X141636666Y-93926819D02*
X141541428Y-93879200D01*
X141541428Y-93879200D02*
X141493809Y-93831580D01*
X141493809Y-93831580D02*
X141446190Y-93736342D01*
X141446190Y-93736342D02*
X141446190Y-93450628D01*
X141446190Y-93450628D02*
X141493809Y-93355390D01*
X141493809Y-93355390D02*
X141541428Y-93307771D01*
X141541428Y-93307771D02*
X141636666Y-93260152D01*
X141636666Y-93260152D02*
X141827142Y-93260152D01*
X141827142Y-93260152D02*
X141922380Y-93307771D01*
X142779523Y-93879200D02*
X142684285Y-93926819D01*
X142684285Y-93926819D02*
X142493809Y-93926819D01*
X142493809Y-93926819D02*
X142398571Y-93879200D01*
X142398571Y-93879200D02*
X142350952Y-93783961D01*
X142350952Y-93783961D02*
X142350952Y-93403009D01*
X142350952Y-93403009D02*
X142398571Y-93307771D01*
X142398571Y-93307771D02*
X142493809Y-93260152D01*
X142493809Y-93260152D02*
X142684285Y-93260152D01*
X142684285Y-93260152D02*
X142779523Y-93307771D01*
X142779523Y-93307771D02*
X142827142Y-93403009D01*
X142827142Y-93403009D02*
X142827142Y-93498247D01*
X142827142Y-93498247D02*
X142350952Y-93593485D01*
X143970000Y-93022057D02*
X144017619Y-92974438D01*
X144017619Y-92974438D02*
X144112857Y-92926819D01*
X144112857Y-92926819D02*
X144350952Y-92926819D01*
X144350952Y-92926819D02*
X144446190Y-92974438D01*
X144446190Y-92974438D02*
X144493809Y-93022057D01*
X144493809Y-93022057D02*
X144541428Y-93117295D01*
X144541428Y-93117295D02*
X144541428Y-93212533D01*
X144541428Y-93212533D02*
X144493809Y-93355390D01*
X144493809Y-93355390D02*
X143922381Y-93926819D01*
X143922381Y-93926819D02*
X144541428Y-93926819D01*
X133048476Y-58890819D02*
X133048476Y-57890819D01*
X133048476Y-57890819D02*
X133381809Y-58605104D01*
X133381809Y-58605104D02*
X133715142Y-57890819D01*
X133715142Y-57890819D02*
X133715142Y-58890819D01*
X134619904Y-57890819D02*
X134429428Y-57890819D01*
X134429428Y-57890819D02*
X134334190Y-57938438D01*
X134334190Y-57938438D02*
X134286571Y-57986057D01*
X134286571Y-57986057D02*
X134191333Y-58128914D01*
X134191333Y-58128914D02*
X134143714Y-58319390D01*
X134143714Y-58319390D02*
X134143714Y-58700342D01*
X134143714Y-58700342D02*
X134191333Y-58795580D01*
X134191333Y-58795580D02*
X134238952Y-58843200D01*
X134238952Y-58843200D02*
X134334190Y-58890819D01*
X134334190Y-58890819D02*
X134524666Y-58890819D01*
X134524666Y-58890819D02*
X134619904Y-58843200D01*
X134619904Y-58843200D02*
X134667523Y-58795580D01*
X134667523Y-58795580D02*
X134715142Y-58700342D01*
X134715142Y-58700342D02*
X134715142Y-58462247D01*
X134715142Y-58462247D02*
X134667523Y-58367009D01*
X134667523Y-58367009D02*
X134619904Y-58319390D01*
X134619904Y-58319390D02*
X134524666Y-58271771D01*
X134524666Y-58271771D02*
X134334190Y-58271771D01*
X134334190Y-58271771D02*
X134238952Y-58319390D01*
X134238952Y-58319390D02*
X134191333Y-58367009D01*
X134191333Y-58367009D02*
X134143714Y-58462247D01*
X122599819Y-46680285D02*
X121599819Y-46680285D01*
X121599819Y-46680285D02*
X121599819Y-46442190D01*
X121599819Y-46442190D02*
X121647438Y-46299333D01*
X121647438Y-46299333D02*
X121742676Y-46204095D01*
X121742676Y-46204095D02*
X121837914Y-46156476D01*
X121837914Y-46156476D02*
X122028390Y-46108857D01*
X122028390Y-46108857D02*
X122171247Y-46108857D01*
X122171247Y-46108857D02*
X122361723Y-46156476D01*
X122361723Y-46156476D02*
X122456961Y-46204095D01*
X122456961Y-46204095D02*
X122552200Y-46299333D01*
X122552200Y-46299333D02*
X122599819Y-46442190D01*
X122599819Y-46442190D02*
X122599819Y-46680285D01*
X121695057Y-45727904D02*
X121647438Y-45680285D01*
X121647438Y-45680285D02*
X121599819Y-45585047D01*
X121599819Y-45585047D02*
X121599819Y-45346952D01*
X121599819Y-45346952D02*
X121647438Y-45251714D01*
X121647438Y-45251714D02*
X121695057Y-45204095D01*
X121695057Y-45204095D02*
X121790295Y-45156476D01*
X121790295Y-45156476D02*
X121885533Y-45156476D01*
X121885533Y-45156476D02*
X122028390Y-45204095D01*
X122028390Y-45204095D02*
X122599819Y-45775523D01*
X122599819Y-45775523D02*
X122599819Y-45156476D01*
X121599819Y-44823142D02*
X121599819Y-44204095D01*
X121599819Y-44204095D02*
X121980771Y-44537428D01*
X121980771Y-44537428D02*
X121980771Y-44394571D01*
X121980771Y-44394571D02*
X122028390Y-44299333D01*
X122028390Y-44299333D02*
X122076009Y-44251714D01*
X122076009Y-44251714D02*
X122171247Y-44204095D01*
X122171247Y-44204095D02*
X122409342Y-44204095D01*
X122409342Y-44204095D02*
X122504580Y-44251714D01*
X122504580Y-44251714D02*
X122552200Y-44299333D01*
X122552200Y-44299333D02*
X122599819Y-44394571D01*
X122599819Y-44394571D02*
X122599819Y-44680285D01*
X122599819Y-44680285D02*
X122552200Y-44775523D01*
X122552200Y-44775523D02*
X122504580Y-44823142D01*
X122229819Y-40647904D02*
X121229819Y-40647904D01*
X122229819Y-40076476D02*
X121658390Y-40505047D01*
X121229819Y-40076476D02*
X121801247Y-40647904D01*
X150044819Y-52879523D02*
X149044819Y-52879523D01*
X149044819Y-52879523D02*
X149759104Y-52546190D01*
X149759104Y-52546190D02*
X149044819Y-52212857D01*
X149044819Y-52212857D02*
X150044819Y-52212857D01*
X150044819Y-51212857D02*
X150044819Y-51784285D01*
X150044819Y-51498571D02*
X149044819Y-51498571D01*
X149044819Y-51498571D02*
X149187676Y-51593809D01*
X149187676Y-51593809D02*
X149282914Y-51689047D01*
X149282914Y-51689047D02*
X149330533Y-51784285D01*
X158598503Y-115156049D02*
X158550884Y-115203669D01*
X158550884Y-115203669D02*
X158408027Y-115251288D01*
X158408027Y-115251288D02*
X158312789Y-115251288D01*
X158312789Y-115251288D02*
X158169932Y-115203669D01*
X158169932Y-115203669D02*
X158074694Y-115108430D01*
X158074694Y-115108430D02*
X158027075Y-115013192D01*
X158027075Y-115013192D02*
X157979456Y-114822716D01*
X157979456Y-114822716D02*
X157979456Y-114679859D01*
X157979456Y-114679859D02*
X158027075Y-114489383D01*
X158027075Y-114489383D02*
X158074694Y-114394145D01*
X158074694Y-114394145D02*
X158169932Y-114298907D01*
X158169932Y-114298907D02*
X158312789Y-114251288D01*
X158312789Y-114251288D02*
X158408027Y-114251288D01*
X158408027Y-114251288D02*
X158550884Y-114298907D01*
X158550884Y-114298907D02*
X158598503Y-114346526D01*
X159550884Y-115251288D02*
X158979456Y-115251288D01*
X159265170Y-115251288D02*
X159265170Y-114251288D01*
X159265170Y-114251288D02*
X159169932Y-114394145D01*
X159169932Y-114394145D02*
X159074694Y-114489383D01*
X159074694Y-114489383D02*
X158979456Y-114537002D01*
X160169932Y-114251288D02*
X160265170Y-114251288D01*
X160265170Y-114251288D02*
X160360408Y-114298907D01*
X160360408Y-114298907D02*
X160408027Y-114346526D01*
X160408027Y-114346526D02*
X160455646Y-114441764D01*
X160455646Y-114441764D02*
X160503265Y-114632240D01*
X160503265Y-114632240D02*
X160503265Y-114870335D01*
X160503265Y-114870335D02*
X160455646Y-115060811D01*
X160455646Y-115060811D02*
X160408027Y-115156049D01*
X160408027Y-115156049D02*
X160360408Y-115203669D01*
X160360408Y-115203669D02*
X160265170Y-115251288D01*
X160265170Y-115251288D02*
X160169932Y-115251288D01*
X160169932Y-115251288D02*
X160074694Y-115203669D01*
X160074694Y-115203669D02*
X160027075Y-115156049D01*
X160027075Y-115156049D02*
X159979456Y-115060811D01*
X159979456Y-115060811D02*
X159931837Y-114870335D01*
X159931837Y-114870335D02*
X159931837Y-114632240D01*
X159931837Y-114632240D02*
X159979456Y-114441764D01*
X159979456Y-114441764D02*
X160027075Y-114346526D01*
X160027075Y-114346526D02*
X160074694Y-114298907D01*
X160074694Y-114298907D02*
X160169932Y-114251288D01*
X107582642Y-83925580D02*
X107535023Y-83973200D01*
X107535023Y-83973200D02*
X107392166Y-84020819D01*
X107392166Y-84020819D02*
X107296928Y-84020819D01*
X107296928Y-84020819D02*
X107154071Y-83973200D01*
X107154071Y-83973200D02*
X107058833Y-83877961D01*
X107058833Y-83877961D02*
X107011214Y-83782723D01*
X107011214Y-83782723D02*
X106963595Y-83592247D01*
X106963595Y-83592247D02*
X106963595Y-83449390D01*
X106963595Y-83449390D02*
X107011214Y-83258914D01*
X107011214Y-83258914D02*
X107058833Y-83163676D01*
X107058833Y-83163676D02*
X107154071Y-83068438D01*
X107154071Y-83068438D02*
X107296928Y-83020819D01*
X107296928Y-83020819D02*
X107392166Y-83020819D01*
X107392166Y-83020819D02*
X107535023Y-83068438D01*
X107535023Y-83068438D02*
X107582642Y-83116057D01*
X108535023Y-84020819D02*
X107963595Y-84020819D01*
X108249309Y-84020819D02*
X108249309Y-83020819D01*
X108249309Y-83020819D02*
X108154071Y-83163676D01*
X108154071Y-83163676D02*
X108058833Y-83258914D01*
X108058833Y-83258914D02*
X107963595Y-83306533D01*
X108868357Y-83020819D02*
X109535023Y-83020819D01*
X109535023Y-83020819D02*
X109106452Y-84020819D01*
X198574180Y-73076563D02*
X198574180Y-72457516D01*
X198574180Y-72457516D02*
X198955132Y-72790849D01*
X198955132Y-72790849D02*
X198955132Y-72647992D01*
X198955132Y-72647992D02*
X199002751Y-72552754D01*
X199002751Y-72552754D02*
X199050370Y-72505135D01*
X199050370Y-72505135D02*
X199145608Y-72457516D01*
X199145608Y-72457516D02*
X199383703Y-72457516D01*
X199383703Y-72457516D02*
X199478941Y-72505135D01*
X199478941Y-72505135D02*
X199526561Y-72552754D01*
X199526561Y-72552754D02*
X199574180Y-72647992D01*
X199574180Y-72647992D02*
X199574180Y-72933706D01*
X199574180Y-72933706D02*
X199526561Y-73028944D01*
X199526561Y-73028944D02*
X199478941Y-73076563D01*
X199478941Y-72028944D02*
X199526561Y-71981325D01*
X199526561Y-71981325D02*
X199574180Y-72028944D01*
X199574180Y-72028944D02*
X199526561Y-72076563D01*
X199526561Y-72076563D02*
X199478941Y-72028944D01*
X199478941Y-72028944D02*
X199574180Y-72028944D01*
X198574180Y-71647992D02*
X198574180Y-71028945D01*
X198574180Y-71028945D02*
X198955132Y-71362278D01*
X198955132Y-71362278D02*
X198955132Y-71219421D01*
X198955132Y-71219421D02*
X199002751Y-71124183D01*
X199002751Y-71124183D02*
X199050370Y-71076564D01*
X199050370Y-71076564D02*
X199145608Y-71028945D01*
X199145608Y-71028945D02*
X199383703Y-71028945D01*
X199383703Y-71028945D02*
X199478941Y-71076564D01*
X199478941Y-71076564D02*
X199526561Y-71124183D01*
X199526561Y-71124183D02*
X199574180Y-71219421D01*
X199574180Y-71219421D02*
X199574180Y-71505135D01*
X199574180Y-71505135D02*
X199526561Y-71600373D01*
X199526561Y-71600373D02*
X199478941Y-71647992D01*
X198574180Y-70743230D02*
X199574180Y-70409897D01*
X199574180Y-70409897D02*
X198574180Y-70076564D01*
X199574180Y-68409897D02*
X199097989Y-68743230D01*
X199574180Y-68981325D02*
X198574180Y-68981325D01*
X198574180Y-68981325D02*
X198574180Y-68600373D01*
X198574180Y-68600373D02*
X198621799Y-68505135D01*
X198621799Y-68505135D02*
X198669418Y-68457516D01*
X198669418Y-68457516D02*
X198764656Y-68409897D01*
X198764656Y-68409897D02*
X198907513Y-68409897D01*
X198907513Y-68409897D02*
X199002751Y-68457516D01*
X199002751Y-68457516D02*
X199050370Y-68505135D01*
X199050370Y-68505135D02*
X199097989Y-68600373D01*
X199097989Y-68600373D02*
X199097989Y-68981325D01*
X199526561Y-67600373D02*
X199574180Y-67695611D01*
X199574180Y-67695611D02*
X199574180Y-67886087D01*
X199574180Y-67886087D02*
X199526561Y-67981325D01*
X199526561Y-67981325D02*
X199431322Y-68028944D01*
X199431322Y-68028944D02*
X199050370Y-68028944D01*
X199050370Y-68028944D02*
X198955132Y-67981325D01*
X198955132Y-67981325D02*
X198907513Y-67886087D01*
X198907513Y-67886087D02*
X198907513Y-67695611D01*
X198907513Y-67695611D02*
X198955132Y-67600373D01*
X198955132Y-67600373D02*
X199050370Y-67552754D01*
X199050370Y-67552754D02*
X199145608Y-67552754D01*
X199145608Y-67552754D02*
X199240846Y-68028944D01*
X198907513Y-66695611D02*
X199717037Y-66695611D01*
X199717037Y-66695611D02*
X199812275Y-66743230D01*
X199812275Y-66743230D02*
X199859894Y-66790849D01*
X199859894Y-66790849D02*
X199907513Y-66886087D01*
X199907513Y-66886087D02*
X199907513Y-67028944D01*
X199907513Y-67028944D02*
X199859894Y-67124182D01*
X199526561Y-66695611D02*
X199574180Y-66790849D01*
X199574180Y-66790849D02*
X199574180Y-66981325D01*
X199574180Y-66981325D02*
X199526561Y-67076563D01*
X199526561Y-67076563D02*
X199478941Y-67124182D01*
X199478941Y-67124182D02*
X199383703Y-67171801D01*
X199383703Y-67171801D02*
X199097989Y-67171801D01*
X199097989Y-67171801D02*
X199002751Y-67124182D01*
X199002751Y-67124182D02*
X198955132Y-67076563D01*
X198955132Y-67076563D02*
X198907513Y-66981325D01*
X198907513Y-66981325D02*
X198907513Y-66790849D01*
X198907513Y-66790849D02*
X198955132Y-66695611D01*
X172981266Y-103369288D02*
X172981266Y-102369288D01*
X172981266Y-102369288D02*
X173219361Y-102369288D01*
X173219361Y-102369288D02*
X173362218Y-102416907D01*
X173362218Y-102416907D02*
X173457456Y-102512145D01*
X173457456Y-102512145D02*
X173505075Y-102607383D01*
X173505075Y-102607383D02*
X173552694Y-102797859D01*
X173552694Y-102797859D02*
X173552694Y-102940716D01*
X173552694Y-102940716D02*
X173505075Y-103131192D01*
X173505075Y-103131192D02*
X173457456Y-103226430D01*
X173457456Y-103226430D02*
X173362218Y-103321669D01*
X173362218Y-103321669D02*
X173219361Y-103369288D01*
X173219361Y-103369288D02*
X172981266Y-103369288D01*
X173933647Y-102464526D02*
X173981266Y-102416907D01*
X173981266Y-102416907D02*
X174076504Y-102369288D01*
X174076504Y-102369288D02*
X174314599Y-102369288D01*
X174314599Y-102369288D02*
X174409837Y-102416907D01*
X174409837Y-102416907D02*
X174457456Y-102464526D01*
X174457456Y-102464526D02*
X174505075Y-102559764D01*
X174505075Y-102559764D02*
X174505075Y-102655002D01*
X174505075Y-102655002D02*
X174457456Y-102797859D01*
X174457456Y-102797859D02*
X173886028Y-103369288D01*
X173886028Y-103369288D02*
X174505075Y-103369288D01*
X159769819Y-131675094D02*
X158769819Y-131675094D01*
X158769819Y-131675094D02*
X158769819Y-131436999D01*
X158769819Y-131436999D02*
X158817438Y-131294142D01*
X158817438Y-131294142D02*
X158912676Y-131198904D01*
X158912676Y-131198904D02*
X159007914Y-131151285D01*
X159007914Y-131151285D02*
X159198390Y-131103666D01*
X159198390Y-131103666D02*
X159341247Y-131103666D01*
X159341247Y-131103666D02*
X159531723Y-131151285D01*
X159531723Y-131151285D02*
X159626961Y-131198904D01*
X159626961Y-131198904D02*
X159722200Y-131294142D01*
X159722200Y-131294142D02*
X159769819Y-131436999D01*
X159769819Y-131436999D02*
X159769819Y-131675094D01*
X158769819Y-130770332D02*
X158769819Y-130151285D01*
X158769819Y-130151285D02*
X159150771Y-130484618D01*
X159150771Y-130484618D02*
X159150771Y-130341761D01*
X159150771Y-130341761D02*
X159198390Y-130246523D01*
X159198390Y-130246523D02*
X159246009Y-130198904D01*
X159246009Y-130198904D02*
X159341247Y-130151285D01*
X159341247Y-130151285D02*
X159579342Y-130151285D01*
X159579342Y-130151285D02*
X159674580Y-130198904D01*
X159674580Y-130198904D02*
X159722200Y-130246523D01*
X159722200Y-130246523D02*
X159769819Y-130341761D01*
X159769819Y-130341761D02*
X159769819Y-130627475D01*
X159769819Y-130627475D02*
X159722200Y-130722713D01*
X159722200Y-130722713D02*
X159674580Y-130770332D01*
X159399819Y-126118904D02*
X158399819Y-126118904D01*
X159399819Y-125547476D02*
X158828390Y-125976047D01*
X158399819Y-125547476D02*
X158971247Y-126118904D01*
X120197714Y-106685288D02*
X120197714Y-105685288D01*
X120197714Y-105685288D02*
X120435809Y-105685288D01*
X120435809Y-105685288D02*
X120578666Y-105732907D01*
X120578666Y-105732907D02*
X120673904Y-105828145D01*
X120673904Y-105828145D02*
X120721523Y-105923383D01*
X120721523Y-105923383D02*
X120769142Y-106113859D01*
X120769142Y-106113859D02*
X120769142Y-106256716D01*
X120769142Y-106256716D02*
X120721523Y-106447192D01*
X120721523Y-106447192D02*
X120673904Y-106542430D01*
X120673904Y-106542430D02*
X120578666Y-106637669D01*
X120578666Y-106637669D02*
X120435809Y-106685288D01*
X120435809Y-106685288D02*
X120197714Y-106685288D01*
X121721523Y-106685288D02*
X121150095Y-106685288D01*
X121435809Y-106685288D02*
X121435809Y-105685288D01*
X121435809Y-105685288D02*
X121340571Y-105828145D01*
X121340571Y-105828145D02*
X121245333Y-105923383D01*
X121245333Y-105923383D02*
X121150095Y-105971002D01*
X122292952Y-106113859D02*
X122197714Y-106066240D01*
X122197714Y-106066240D02*
X122150095Y-106018621D01*
X122150095Y-106018621D02*
X122102476Y-105923383D01*
X122102476Y-105923383D02*
X122102476Y-105875764D01*
X122102476Y-105875764D02*
X122150095Y-105780526D01*
X122150095Y-105780526D02*
X122197714Y-105732907D01*
X122197714Y-105732907D02*
X122292952Y-105685288D01*
X122292952Y-105685288D02*
X122483428Y-105685288D01*
X122483428Y-105685288D02*
X122578666Y-105732907D01*
X122578666Y-105732907D02*
X122626285Y-105780526D01*
X122626285Y-105780526D02*
X122673904Y-105875764D01*
X122673904Y-105875764D02*
X122673904Y-105923383D01*
X122673904Y-105923383D02*
X122626285Y-106018621D01*
X122626285Y-106018621D02*
X122578666Y-106066240D01*
X122578666Y-106066240D02*
X122483428Y-106113859D01*
X122483428Y-106113859D02*
X122292952Y-106113859D01*
X122292952Y-106113859D02*
X122197714Y-106161478D01*
X122197714Y-106161478D02*
X122150095Y-106209097D01*
X122150095Y-106209097D02*
X122102476Y-106304335D01*
X122102476Y-106304335D02*
X122102476Y-106494811D01*
X122102476Y-106494811D02*
X122150095Y-106590049D01*
X122150095Y-106590049D02*
X122197714Y-106637669D01*
X122197714Y-106637669D02*
X122292952Y-106685288D01*
X122292952Y-106685288D02*
X122483428Y-106685288D01*
X122483428Y-106685288D02*
X122578666Y-106637669D01*
X122578666Y-106637669D02*
X122626285Y-106590049D01*
X122626285Y-106590049D02*
X122673904Y-106494811D01*
X122673904Y-106494811D02*
X122673904Y-106304335D01*
X122673904Y-106304335D02*
X122626285Y-106209097D01*
X122626285Y-106209097D02*
X122578666Y-106161478D01*
X122578666Y-106161478D02*
X122483428Y-106113859D01*
X116070095Y-107055288D02*
X116070095Y-106055288D01*
X116641523Y-107055288D02*
X116212952Y-106483859D01*
X116641523Y-106055288D02*
X116070095Y-106626716D01*
X130686819Y-46680285D02*
X129686819Y-46680285D01*
X129686819Y-46680285D02*
X129686819Y-46442190D01*
X129686819Y-46442190D02*
X129734438Y-46299333D01*
X129734438Y-46299333D02*
X129829676Y-46204095D01*
X129829676Y-46204095D02*
X129924914Y-46156476D01*
X129924914Y-46156476D02*
X130115390Y-46108857D01*
X130115390Y-46108857D02*
X130258247Y-46108857D01*
X130258247Y-46108857D02*
X130448723Y-46156476D01*
X130448723Y-46156476D02*
X130543961Y-46204095D01*
X130543961Y-46204095D02*
X130639200Y-46299333D01*
X130639200Y-46299333D02*
X130686819Y-46442190D01*
X130686819Y-46442190D02*
X130686819Y-46680285D01*
X129782057Y-45727904D02*
X129734438Y-45680285D01*
X129734438Y-45680285D02*
X129686819Y-45585047D01*
X129686819Y-45585047D02*
X129686819Y-45346952D01*
X129686819Y-45346952D02*
X129734438Y-45251714D01*
X129734438Y-45251714D02*
X129782057Y-45204095D01*
X129782057Y-45204095D02*
X129877295Y-45156476D01*
X129877295Y-45156476D02*
X129972533Y-45156476D01*
X129972533Y-45156476D02*
X130115390Y-45204095D01*
X130115390Y-45204095D02*
X130686819Y-45775523D01*
X130686819Y-45775523D02*
X130686819Y-45156476D01*
X129686819Y-44251714D02*
X129686819Y-44727904D01*
X129686819Y-44727904D02*
X130163009Y-44775523D01*
X130163009Y-44775523D02*
X130115390Y-44727904D01*
X130115390Y-44727904D02*
X130067771Y-44632666D01*
X130067771Y-44632666D02*
X130067771Y-44394571D01*
X130067771Y-44394571D02*
X130115390Y-44299333D01*
X130115390Y-44299333D02*
X130163009Y-44251714D01*
X130163009Y-44251714D02*
X130258247Y-44204095D01*
X130258247Y-44204095D02*
X130496342Y-44204095D01*
X130496342Y-44204095D02*
X130591580Y-44251714D01*
X130591580Y-44251714D02*
X130639200Y-44299333D01*
X130639200Y-44299333D02*
X130686819Y-44394571D01*
X130686819Y-44394571D02*
X130686819Y-44632666D01*
X130686819Y-44632666D02*
X130639200Y-44727904D01*
X130639200Y-44727904D02*
X130591580Y-44775523D01*
X130316819Y-40647904D02*
X129316819Y-40647904D01*
X130316819Y-40076476D02*
X129745390Y-40505047D01*
X129316819Y-40076476D02*
X129888247Y-40647904D01*
X189573819Y-43616381D02*
X189573819Y-44092571D01*
X189573819Y-44092571D02*
X190050009Y-44140190D01*
X190050009Y-44140190D02*
X190002390Y-44092571D01*
X190002390Y-44092571D02*
X189954771Y-43997333D01*
X189954771Y-43997333D02*
X189954771Y-43759238D01*
X189954771Y-43759238D02*
X190002390Y-43664000D01*
X190002390Y-43664000D02*
X190050009Y-43616381D01*
X190050009Y-43616381D02*
X190145247Y-43568762D01*
X190145247Y-43568762D02*
X190383342Y-43568762D01*
X190383342Y-43568762D02*
X190478580Y-43616381D01*
X190478580Y-43616381D02*
X190526200Y-43664000D01*
X190526200Y-43664000D02*
X190573819Y-43759238D01*
X190573819Y-43759238D02*
X190573819Y-43997333D01*
X190573819Y-43997333D02*
X190526200Y-44092571D01*
X190526200Y-44092571D02*
X190478580Y-44140190D01*
X189573819Y-43283047D02*
X190573819Y-42949714D01*
X190573819Y-42949714D02*
X189573819Y-42616381D01*
X189573819Y-41663999D02*
X189573819Y-41092571D01*
X190573819Y-41378285D02*
X189573819Y-41378285D01*
X190573819Y-40759237D02*
X189573819Y-40759237D01*
X189573819Y-40759237D02*
X189573819Y-40378285D01*
X189573819Y-40378285D02*
X189621438Y-40283047D01*
X189621438Y-40283047D02*
X189669057Y-40235428D01*
X189669057Y-40235428D02*
X189764295Y-40187809D01*
X189764295Y-40187809D02*
X189907152Y-40187809D01*
X189907152Y-40187809D02*
X190002390Y-40235428D01*
X190002390Y-40235428D02*
X190050009Y-40283047D01*
X190050009Y-40283047D02*
X190097628Y-40378285D01*
X190097628Y-40378285D02*
X190097628Y-40759237D01*
X183475333Y-47349580D02*
X183427714Y-47397200D01*
X183427714Y-47397200D02*
X183284857Y-47444819D01*
X183284857Y-47444819D02*
X183189619Y-47444819D01*
X183189619Y-47444819D02*
X183046762Y-47397200D01*
X183046762Y-47397200D02*
X182951524Y-47301961D01*
X182951524Y-47301961D02*
X182903905Y-47206723D01*
X182903905Y-47206723D02*
X182856286Y-47016247D01*
X182856286Y-47016247D02*
X182856286Y-46873390D01*
X182856286Y-46873390D02*
X182903905Y-46682914D01*
X182903905Y-46682914D02*
X182951524Y-46587676D01*
X182951524Y-46587676D02*
X183046762Y-46492438D01*
X183046762Y-46492438D02*
X183189619Y-46444819D01*
X183189619Y-46444819D02*
X183284857Y-46444819D01*
X183284857Y-46444819D02*
X183427714Y-46492438D01*
X183427714Y-46492438D02*
X183475333Y-46540057D01*
X183856286Y-46540057D02*
X183903905Y-46492438D01*
X183903905Y-46492438D02*
X183999143Y-46444819D01*
X183999143Y-46444819D02*
X184237238Y-46444819D01*
X184237238Y-46444819D02*
X184332476Y-46492438D01*
X184332476Y-46492438D02*
X184380095Y-46540057D01*
X184380095Y-46540057D02*
X184427714Y-46635295D01*
X184427714Y-46635295D02*
X184427714Y-46730533D01*
X184427714Y-46730533D02*
X184380095Y-46873390D01*
X184380095Y-46873390D02*
X183808667Y-47444819D01*
X183808667Y-47444819D02*
X184427714Y-47444819D01*
X120866819Y-121713523D02*
X119866819Y-121713523D01*
X119866819Y-121713523D02*
X120581104Y-121380190D01*
X120581104Y-121380190D02*
X119866819Y-121046857D01*
X119866819Y-121046857D02*
X120866819Y-121046857D01*
X119866819Y-120665904D02*
X119866819Y-120046857D01*
X119866819Y-120046857D02*
X120247771Y-120380190D01*
X120247771Y-120380190D02*
X120247771Y-120237333D01*
X120247771Y-120237333D02*
X120295390Y-120142095D01*
X120295390Y-120142095D02*
X120343009Y-120094476D01*
X120343009Y-120094476D02*
X120438247Y-120046857D01*
X120438247Y-120046857D02*
X120676342Y-120046857D01*
X120676342Y-120046857D02*
X120771580Y-120094476D01*
X120771580Y-120094476D02*
X120819200Y-120142095D01*
X120819200Y-120142095D02*
X120866819Y-120237333D01*
X120866819Y-120237333D02*
X120866819Y-120523047D01*
X120866819Y-120523047D02*
X120819200Y-120618285D01*
X120819200Y-120618285D02*
X120771580Y-120665904D01*
X117149714Y-89932819D02*
X117149714Y-88932819D01*
X117149714Y-88932819D02*
X117387809Y-88932819D01*
X117387809Y-88932819D02*
X117530666Y-88980438D01*
X117530666Y-88980438D02*
X117625904Y-89075676D01*
X117625904Y-89075676D02*
X117673523Y-89170914D01*
X117673523Y-89170914D02*
X117721142Y-89361390D01*
X117721142Y-89361390D02*
X117721142Y-89504247D01*
X117721142Y-89504247D02*
X117673523Y-89694723D01*
X117673523Y-89694723D02*
X117625904Y-89789961D01*
X117625904Y-89789961D02*
X117530666Y-89885200D01*
X117530666Y-89885200D02*
X117387809Y-89932819D01*
X117387809Y-89932819D02*
X117149714Y-89932819D01*
X118102095Y-89028057D02*
X118149714Y-88980438D01*
X118149714Y-88980438D02*
X118244952Y-88932819D01*
X118244952Y-88932819D02*
X118483047Y-88932819D01*
X118483047Y-88932819D02*
X118578285Y-88980438D01*
X118578285Y-88980438D02*
X118625904Y-89028057D01*
X118625904Y-89028057D02*
X118673523Y-89123295D01*
X118673523Y-89123295D02*
X118673523Y-89218533D01*
X118673523Y-89218533D02*
X118625904Y-89361390D01*
X118625904Y-89361390D02*
X118054476Y-89932819D01*
X118054476Y-89932819D02*
X118673523Y-89932819D01*
X119292571Y-88932819D02*
X119387809Y-88932819D01*
X119387809Y-88932819D02*
X119483047Y-88980438D01*
X119483047Y-88980438D02*
X119530666Y-89028057D01*
X119530666Y-89028057D02*
X119578285Y-89123295D01*
X119578285Y-89123295D02*
X119625904Y-89313771D01*
X119625904Y-89313771D02*
X119625904Y-89551866D01*
X119625904Y-89551866D02*
X119578285Y-89742342D01*
X119578285Y-89742342D02*
X119530666Y-89837580D01*
X119530666Y-89837580D02*
X119483047Y-89885200D01*
X119483047Y-89885200D02*
X119387809Y-89932819D01*
X119387809Y-89932819D02*
X119292571Y-89932819D01*
X119292571Y-89932819D02*
X119197333Y-89885200D01*
X119197333Y-89885200D02*
X119149714Y-89837580D01*
X119149714Y-89837580D02*
X119102095Y-89742342D01*
X119102095Y-89742342D02*
X119054476Y-89551866D01*
X119054476Y-89551866D02*
X119054476Y-89313771D01*
X119054476Y-89313771D02*
X119102095Y-89123295D01*
X119102095Y-89123295D02*
X119149714Y-89028057D01*
X119149714Y-89028057D02*
X119197333Y-88980438D01*
X119197333Y-88980438D02*
X119292571Y-88932819D01*
X113022095Y-90302819D02*
X113022095Y-89302819D01*
X113593523Y-90302819D02*
X113164952Y-89731390D01*
X113593523Y-89302819D02*
X113022095Y-89874247D01*
X126293714Y-125238819D02*
X126293714Y-124238819D01*
X126293714Y-124238819D02*
X126531809Y-124238819D01*
X126531809Y-124238819D02*
X126674666Y-124286438D01*
X126674666Y-124286438D02*
X126769904Y-124381676D01*
X126769904Y-124381676D02*
X126817523Y-124476914D01*
X126817523Y-124476914D02*
X126865142Y-124667390D01*
X126865142Y-124667390D02*
X126865142Y-124810247D01*
X126865142Y-124810247D02*
X126817523Y-125000723D01*
X126817523Y-125000723D02*
X126769904Y-125095961D01*
X126769904Y-125095961D02*
X126674666Y-125191200D01*
X126674666Y-125191200D02*
X126531809Y-125238819D01*
X126531809Y-125238819D02*
X126293714Y-125238819D01*
X127817523Y-125238819D02*
X127246095Y-125238819D01*
X127531809Y-125238819D02*
X127531809Y-124238819D01*
X127531809Y-124238819D02*
X127436571Y-124381676D01*
X127436571Y-124381676D02*
X127341333Y-124476914D01*
X127341333Y-124476914D02*
X127246095Y-124524533D01*
X128674666Y-124572152D02*
X128674666Y-125238819D01*
X128436571Y-124191200D02*
X128198476Y-124905485D01*
X128198476Y-124905485D02*
X128817523Y-124905485D01*
X122166095Y-125608819D02*
X122166095Y-124608819D01*
X122737523Y-125608819D02*
X122308952Y-125037390D01*
X122737523Y-124608819D02*
X122166095Y-125180247D01*
X187063142Y-132026819D02*
X186729809Y-131550628D01*
X186491714Y-132026819D02*
X186491714Y-131026819D01*
X186491714Y-131026819D02*
X186872666Y-131026819D01*
X186872666Y-131026819D02*
X186967904Y-131074438D01*
X186967904Y-131074438D02*
X187015523Y-131122057D01*
X187015523Y-131122057D02*
X187063142Y-131217295D01*
X187063142Y-131217295D02*
X187063142Y-131360152D01*
X187063142Y-131360152D02*
X187015523Y-131455390D01*
X187015523Y-131455390D02*
X186967904Y-131503009D01*
X186967904Y-131503009D02*
X186872666Y-131550628D01*
X186872666Y-131550628D02*
X186491714Y-131550628D01*
X188015523Y-132026819D02*
X187444095Y-132026819D01*
X187729809Y-132026819D02*
X187729809Y-131026819D01*
X187729809Y-131026819D02*
X187634571Y-131169676D01*
X187634571Y-131169676D02*
X187539333Y-131264914D01*
X187539333Y-131264914D02*
X187444095Y-131312533D01*
X188396476Y-131122057D02*
X188444095Y-131074438D01*
X188444095Y-131074438D02*
X188539333Y-131026819D01*
X188539333Y-131026819D02*
X188777428Y-131026819D01*
X188777428Y-131026819D02*
X188872666Y-131074438D01*
X188872666Y-131074438D02*
X188920285Y-131122057D01*
X188920285Y-131122057D02*
X188967904Y-131217295D01*
X188967904Y-131217295D02*
X188967904Y-131312533D01*
X188967904Y-131312533D02*
X188920285Y-131455390D01*
X188920285Y-131455390D02*
X188348857Y-132026819D01*
X188348857Y-132026819D02*
X188967904Y-132026819D01*
X168155580Y-128669166D02*
X168203200Y-128716785D01*
X168203200Y-128716785D02*
X168250819Y-128859642D01*
X168250819Y-128859642D02*
X168250819Y-128954880D01*
X168250819Y-128954880D02*
X168203200Y-129097737D01*
X168203200Y-129097737D02*
X168107961Y-129192975D01*
X168107961Y-129192975D02*
X168012723Y-129240594D01*
X168012723Y-129240594D02*
X167822247Y-129288213D01*
X167822247Y-129288213D02*
X167679390Y-129288213D01*
X167679390Y-129288213D02*
X167488914Y-129240594D01*
X167488914Y-129240594D02*
X167393676Y-129192975D01*
X167393676Y-129192975D02*
X167298438Y-129097737D01*
X167298438Y-129097737D02*
X167250819Y-128954880D01*
X167250819Y-128954880D02*
X167250819Y-128859642D01*
X167250819Y-128859642D02*
X167298438Y-128716785D01*
X167298438Y-128716785D02*
X167346057Y-128669166D01*
X167250819Y-127812023D02*
X167250819Y-128002499D01*
X167250819Y-128002499D02*
X167298438Y-128097737D01*
X167298438Y-128097737D02*
X167346057Y-128145356D01*
X167346057Y-128145356D02*
X167488914Y-128240594D01*
X167488914Y-128240594D02*
X167679390Y-128288213D01*
X167679390Y-128288213D02*
X168060342Y-128288213D01*
X168060342Y-128288213D02*
X168155580Y-128240594D01*
X168155580Y-128240594D02*
X168203200Y-128192975D01*
X168203200Y-128192975D02*
X168250819Y-128097737D01*
X168250819Y-128097737D02*
X168250819Y-127907261D01*
X168250819Y-127907261D02*
X168203200Y-127812023D01*
X168203200Y-127812023D02*
X168155580Y-127764404D01*
X168155580Y-127764404D02*
X168060342Y-127716785D01*
X168060342Y-127716785D02*
X167822247Y-127716785D01*
X167822247Y-127716785D02*
X167727009Y-127764404D01*
X167727009Y-127764404D02*
X167679390Y-127812023D01*
X167679390Y-127812023D02*
X167631771Y-127907261D01*
X167631771Y-127907261D02*
X167631771Y-128097737D01*
X167631771Y-128097737D02*
X167679390Y-128192975D01*
X167679390Y-128192975D02*
X167727009Y-128240594D01*
X167727009Y-128240594D02*
X167822247Y-128288213D01*
X162182819Y-61444094D02*
X161182819Y-61444094D01*
X161182819Y-61444094D02*
X161182819Y-61205999D01*
X161182819Y-61205999D02*
X161230438Y-61063142D01*
X161230438Y-61063142D02*
X161325676Y-60967904D01*
X161325676Y-60967904D02*
X161420914Y-60920285D01*
X161420914Y-60920285D02*
X161611390Y-60872666D01*
X161611390Y-60872666D02*
X161754247Y-60872666D01*
X161754247Y-60872666D02*
X161944723Y-60920285D01*
X161944723Y-60920285D02*
X162039961Y-60967904D01*
X162039961Y-60967904D02*
X162135200Y-61063142D01*
X162135200Y-61063142D02*
X162182819Y-61205999D01*
X162182819Y-61205999D02*
X162182819Y-61444094D01*
X161182819Y-60015523D02*
X161182819Y-60205999D01*
X161182819Y-60205999D02*
X161230438Y-60301237D01*
X161230438Y-60301237D02*
X161278057Y-60348856D01*
X161278057Y-60348856D02*
X161420914Y-60444094D01*
X161420914Y-60444094D02*
X161611390Y-60491713D01*
X161611390Y-60491713D02*
X161992342Y-60491713D01*
X161992342Y-60491713D02*
X162087580Y-60444094D01*
X162087580Y-60444094D02*
X162135200Y-60396475D01*
X162135200Y-60396475D02*
X162182819Y-60301237D01*
X162182819Y-60301237D02*
X162182819Y-60110761D01*
X162182819Y-60110761D02*
X162135200Y-60015523D01*
X162135200Y-60015523D02*
X162087580Y-59967904D01*
X162087580Y-59967904D02*
X161992342Y-59920285D01*
X161992342Y-59920285D02*
X161754247Y-59920285D01*
X161754247Y-59920285D02*
X161659009Y-59967904D01*
X161659009Y-59967904D02*
X161611390Y-60015523D01*
X161611390Y-60015523D02*
X161563771Y-60110761D01*
X161563771Y-60110761D02*
X161563771Y-60301237D01*
X161563771Y-60301237D02*
X161611390Y-60396475D01*
X161611390Y-60396475D02*
X161659009Y-60444094D01*
X161659009Y-60444094D02*
X161754247Y-60491713D01*
X161812819Y-55887904D02*
X160812819Y-55887904D01*
X161812819Y-55316476D02*
X161241390Y-55745047D01*
X160812819Y-55316476D02*
X161384247Y-55887904D01*
X201676095Y-40214819D02*
X201676095Y-39214819D01*
X201676095Y-39691009D02*
X202247523Y-39691009D01*
X202247523Y-40214819D02*
X202247523Y-39214819D01*
X202676095Y-39310057D02*
X202723714Y-39262438D01*
X202723714Y-39262438D02*
X202818952Y-39214819D01*
X202818952Y-39214819D02*
X203057047Y-39214819D01*
X203057047Y-39214819D02*
X203152285Y-39262438D01*
X203152285Y-39262438D02*
X203199904Y-39310057D01*
X203199904Y-39310057D02*
X203247523Y-39405295D01*
X203247523Y-39405295D02*
X203247523Y-39500533D01*
X203247523Y-39500533D02*
X203199904Y-39643390D01*
X203199904Y-39643390D02*
X202628476Y-40214819D01*
X202628476Y-40214819D02*
X203247523Y-40214819D01*
X174314694Y-90359288D02*
X173981361Y-89883097D01*
X173743266Y-90359288D02*
X173743266Y-89359288D01*
X173743266Y-89359288D02*
X174124218Y-89359288D01*
X174124218Y-89359288D02*
X174219456Y-89406907D01*
X174219456Y-89406907D02*
X174267075Y-89454526D01*
X174267075Y-89454526D02*
X174314694Y-89549764D01*
X174314694Y-89549764D02*
X174314694Y-89692621D01*
X174314694Y-89692621D02*
X174267075Y-89787859D01*
X174267075Y-89787859D02*
X174219456Y-89835478D01*
X174219456Y-89835478D02*
X174124218Y-89883097D01*
X174124218Y-89883097D02*
X173743266Y-89883097D01*
X175219456Y-89359288D02*
X174743266Y-89359288D01*
X174743266Y-89359288D02*
X174695647Y-89835478D01*
X174695647Y-89835478D02*
X174743266Y-89787859D01*
X174743266Y-89787859D02*
X174838504Y-89740240D01*
X174838504Y-89740240D02*
X175076599Y-89740240D01*
X175076599Y-89740240D02*
X175171837Y-89787859D01*
X175171837Y-89787859D02*
X175219456Y-89835478D01*
X175219456Y-89835478D02*
X175267075Y-89930716D01*
X175267075Y-89930716D02*
X175267075Y-90168811D01*
X175267075Y-90168811D02*
X175219456Y-90264049D01*
X175219456Y-90264049D02*
X175171837Y-90311669D01*
X175171837Y-90311669D02*
X175076599Y-90359288D01*
X175076599Y-90359288D02*
X174838504Y-90359288D01*
X174838504Y-90359288D02*
X174743266Y-90311669D01*
X174743266Y-90311669D02*
X174695647Y-90264049D01*
X198207333Y-77321580D02*
X198159714Y-77369200D01*
X198159714Y-77369200D02*
X198016857Y-77416819D01*
X198016857Y-77416819D02*
X197921619Y-77416819D01*
X197921619Y-77416819D02*
X197778762Y-77369200D01*
X197778762Y-77369200D02*
X197683524Y-77273961D01*
X197683524Y-77273961D02*
X197635905Y-77178723D01*
X197635905Y-77178723D02*
X197588286Y-76988247D01*
X197588286Y-76988247D02*
X197588286Y-76845390D01*
X197588286Y-76845390D02*
X197635905Y-76654914D01*
X197635905Y-76654914D02*
X197683524Y-76559676D01*
X197683524Y-76559676D02*
X197778762Y-76464438D01*
X197778762Y-76464438D02*
X197921619Y-76416819D01*
X197921619Y-76416819D02*
X198016857Y-76416819D01*
X198016857Y-76416819D02*
X198159714Y-76464438D01*
X198159714Y-76464438D02*
X198207333Y-76512057D01*
X199064476Y-76750152D02*
X199064476Y-77416819D01*
X198826381Y-76369200D02*
X198588286Y-77083485D01*
X198588286Y-77083485D02*
X199207333Y-77083485D01*
X178378694Y-120585288D02*
X178045361Y-120109097D01*
X177807266Y-120585288D02*
X177807266Y-119585288D01*
X177807266Y-119585288D02*
X178188218Y-119585288D01*
X178188218Y-119585288D02*
X178283456Y-119632907D01*
X178283456Y-119632907D02*
X178331075Y-119680526D01*
X178331075Y-119680526D02*
X178378694Y-119775764D01*
X178378694Y-119775764D02*
X178378694Y-119918621D01*
X178378694Y-119918621D02*
X178331075Y-120013859D01*
X178331075Y-120013859D02*
X178283456Y-120061478D01*
X178283456Y-120061478D02*
X178188218Y-120109097D01*
X178188218Y-120109097D02*
X177807266Y-120109097D01*
X178854885Y-120585288D02*
X179045361Y-120585288D01*
X179045361Y-120585288D02*
X179140599Y-120537669D01*
X179140599Y-120537669D02*
X179188218Y-120490049D01*
X179188218Y-120490049D02*
X179283456Y-120347192D01*
X179283456Y-120347192D02*
X179331075Y-120156716D01*
X179331075Y-120156716D02*
X179331075Y-119775764D01*
X179331075Y-119775764D02*
X179283456Y-119680526D01*
X179283456Y-119680526D02*
X179235837Y-119632907D01*
X179235837Y-119632907D02*
X179140599Y-119585288D01*
X179140599Y-119585288D02*
X178950123Y-119585288D01*
X178950123Y-119585288D02*
X178854885Y-119632907D01*
X178854885Y-119632907D02*
X178807266Y-119680526D01*
X178807266Y-119680526D02*
X178759647Y-119775764D01*
X178759647Y-119775764D02*
X178759647Y-120013859D01*
X178759647Y-120013859D02*
X178807266Y-120109097D01*
X178807266Y-120109097D02*
X178854885Y-120156716D01*
X178854885Y-120156716D02*
X178950123Y-120204335D01*
X178950123Y-120204335D02*
X179140599Y-120204335D01*
X179140599Y-120204335D02*
X179235837Y-120156716D01*
X179235837Y-120156716D02*
X179283456Y-120109097D01*
X179283456Y-120109097D02*
X179331075Y-120013859D01*
X149990819Y-46204094D02*
X148990819Y-46204094D01*
X148990819Y-46204094D02*
X148990819Y-45965999D01*
X148990819Y-45965999D02*
X149038438Y-45823142D01*
X149038438Y-45823142D02*
X149133676Y-45727904D01*
X149133676Y-45727904D02*
X149228914Y-45680285D01*
X149228914Y-45680285D02*
X149419390Y-45632666D01*
X149419390Y-45632666D02*
X149562247Y-45632666D01*
X149562247Y-45632666D02*
X149752723Y-45680285D01*
X149752723Y-45680285D02*
X149847961Y-45727904D01*
X149847961Y-45727904D02*
X149943200Y-45823142D01*
X149943200Y-45823142D02*
X149990819Y-45965999D01*
X149990819Y-45965999D02*
X149990819Y-46204094D01*
X148990819Y-45299332D02*
X148990819Y-44632666D01*
X148990819Y-44632666D02*
X149990819Y-45061237D01*
X149620819Y-40647904D02*
X148620819Y-40647904D01*
X149620819Y-40076476D02*
X149049390Y-40505047D01*
X148620819Y-40076476D02*
X149192247Y-40647904D01*
X142370819Y-46680285D02*
X141370819Y-46680285D01*
X141370819Y-46680285D02*
X141370819Y-46442190D01*
X141370819Y-46442190D02*
X141418438Y-46299333D01*
X141418438Y-46299333D02*
X141513676Y-46204095D01*
X141513676Y-46204095D02*
X141608914Y-46156476D01*
X141608914Y-46156476D02*
X141799390Y-46108857D01*
X141799390Y-46108857D02*
X141942247Y-46108857D01*
X141942247Y-46108857D02*
X142132723Y-46156476D01*
X142132723Y-46156476D02*
X142227961Y-46204095D01*
X142227961Y-46204095D02*
X142323200Y-46299333D01*
X142323200Y-46299333D02*
X142370819Y-46442190D01*
X142370819Y-46442190D02*
X142370819Y-46680285D01*
X141466057Y-45727904D02*
X141418438Y-45680285D01*
X141418438Y-45680285D02*
X141370819Y-45585047D01*
X141370819Y-45585047D02*
X141370819Y-45346952D01*
X141370819Y-45346952D02*
X141418438Y-45251714D01*
X141418438Y-45251714D02*
X141466057Y-45204095D01*
X141466057Y-45204095D02*
X141561295Y-45156476D01*
X141561295Y-45156476D02*
X141656533Y-45156476D01*
X141656533Y-45156476D02*
X141799390Y-45204095D01*
X141799390Y-45204095D02*
X142370819Y-45775523D01*
X142370819Y-45775523D02*
X142370819Y-45156476D01*
X141370819Y-44823142D02*
X141370819Y-44156476D01*
X141370819Y-44156476D02*
X142370819Y-44585047D01*
X142000819Y-40647904D02*
X141000819Y-40647904D01*
X142000819Y-40076476D02*
X141429390Y-40505047D01*
X141000819Y-40076476D02*
X141572247Y-40647904D01*
X121120819Y-100885523D02*
X120120819Y-100885523D01*
X120120819Y-100885523D02*
X120835104Y-100552190D01*
X120835104Y-100552190D02*
X120120819Y-100218857D01*
X120120819Y-100218857D02*
X121120819Y-100218857D01*
X120454152Y-99314095D02*
X121120819Y-99314095D01*
X120073200Y-99552190D02*
X120787485Y-99790285D01*
X120787485Y-99790285D02*
X120787485Y-99171238D01*
X133706503Y-70960049D02*
X133658884Y-71007669D01*
X133658884Y-71007669D02*
X133516027Y-71055288D01*
X133516027Y-71055288D02*
X133420789Y-71055288D01*
X133420789Y-71055288D02*
X133277932Y-71007669D01*
X133277932Y-71007669D02*
X133182694Y-70912430D01*
X133182694Y-70912430D02*
X133135075Y-70817192D01*
X133135075Y-70817192D02*
X133087456Y-70626716D01*
X133087456Y-70626716D02*
X133087456Y-70483859D01*
X133087456Y-70483859D02*
X133135075Y-70293383D01*
X133135075Y-70293383D02*
X133182694Y-70198145D01*
X133182694Y-70198145D02*
X133277932Y-70102907D01*
X133277932Y-70102907D02*
X133420789Y-70055288D01*
X133420789Y-70055288D02*
X133516027Y-70055288D01*
X133516027Y-70055288D02*
X133658884Y-70102907D01*
X133658884Y-70102907D02*
X133706503Y-70150526D01*
X134658884Y-71055288D02*
X134087456Y-71055288D01*
X134373170Y-71055288D02*
X134373170Y-70055288D01*
X134373170Y-70055288D02*
X134277932Y-70198145D01*
X134277932Y-70198145D02*
X134182694Y-70293383D01*
X134182694Y-70293383D02*
X134087456Y-70341002D01*
X135230313Y-70483859D02*
X135135075Y-70436240D01*
X135135075Y-70436240D02*
X135087456Y-70388621D01*
X135087456Y-70388621D02*
X135039837Y-70293383D01*
X135039837Y-70293383D02*
X135039837Y-70245764D01*
X135039837Y-70245764D02*
X135087456Y-70150526D01*
X135087456Y-70150526D02*
X135135075Y-70102907D01*
X135135075Y-70102907D02*
X135230313Y-70055288D01*
X135230313Y-70055288D02*
X135420789Y-70055288D01*
X135420789Y-70055288D02*
X135516027Y-70102907D01*
X135516027Y-70102907D02*
X135563646Y-70150526D01*
X135563646Y-70150526D02*
X135611265Y-70245764D01*
X135611265Y-70245764D02*
X135611265Y-70293383D01*
X135611265Y-70293383D02*
X135563646Y-70388621D01*
X135563646Y-70388621D02*
X135516027Y-70436240D01*
X135516027Y-70436240D02*
X135420789Y-70483859D01*
X135420789Y-70483859D02*
X135230313Y-70483859D01*
X135230313Y-70483859D02*
X135135075Y-70531478D01*
X135135075Y-70531478D02*
X135087456Y-70579097D01*
X135087456Y-70579097D02*
X135039837Y-70674335D01*
X135039837Y-70674335D02*
X135039837Y-70864811D01*
X135039837Y-70864811D02*
X135087456Y-70960049D01*
X135087456Y-70960049D02*
X135135075Y-71007669D01*
X135135075Y-71007669D02*
X135230313Y-71055288D01*
X135230313Y-71055288D02*
X135420789Y-71055288D01*
X135420789Y-71055288D02*
X135516027Y-71007669D01*
X135516027Y-71007669D02*
X135563646Y-70960049D01*
X135563646Y-70960049D02*
X135611265Y-70864811D01*
X135611265Y-70864811D02*
X135611265Y-70674335D01*
X135611265Y-70674335D02*
X135563646Y-70579097D01*
X135563646Y-70579097D02*
X135516027Y-70531478D01*
X135516027Y-70531478D02*
X135420789Y-70483859D01*
X126039714Y-113046819D02*
X126039714Y-112046819D01*
X126039714Y-112046819D02*
X126277809Y-112046819D01*
X126277809Y-112046819D02*
X126420666Y-112094438D01*
X126420666Y-112094438D02*
X126515904Y-112189676D01*
X126515904Y-112189676D02*
X126563523Y-112284914D01*
X126563523Y-112284914D02*
X126611142Y-112475390D01*
X126611142Y-112475390D02*
X126611142Y-112618247D01*
X126611142Y-112618247D02*
X126563523Y-112808723D01*
X126563523Y-112808723D02*
X126515904Y-112903961D01*
X126515904Y-112903961D02*
X126420666Y-112999200D01*
X126420666Y-112999200D02*
X126277809Y-113046819D01*
X126277809Y-113046819D02*
X126039714Y-113046819D01*
X127563523Y-113046819D02*
X126992095Y-113046819D01*
X127277809Y-113046819D02*
X127277809Y-112046819D01*
X127277809Y-112046819D02*
X127182571Y-112189676D01*
X127182571Y-112189676D02*
X127087333Y-112284914D01*
X127087333Y-112284914D02*
X126992095Y-112332533D01*
X128420666Y-112046819D02*
X128230190Y-112046819D01*
X128230190Y-112046819D02*
X128134952Y-112094438D01*
X128134952Y-112094438D02*
X128087333Y-112142057D01*
X128087333Y-112142057D02*
X127992095Y-112284914D01*
X127992095Y-112284914D02*
X127944476Y-112475390D01*
X127944476Y-112475390D02*
X127944476Y-112856342D01*
X127944476Y-112856342D02*
X127992095Y-112951580D01*
X127992095Y-112951580D02*
X128039714Y-112999200D01*
X128039714Y-112999200D02*
X128134952Y-113046819D01*
X128134952Y-113046819D02*
X128325428Y-113046819D01*
X128325428Y-113046819D02*
X128420666Y-112999200D01*
X128420666Y-112999200D02*
X128468285Y-112951580D01*
X128468285Y-112951580D02*
X128515904Y-112856342D01*
X128515904Y-112856342D02*
X128515904Y-112618247D01*
X128515904Y-112618247D02*
X128468285Y-112523009D01*
X128468285Y-112523009D02*
X128420666Y-112475390D01*
X128420666Y-112475390D02*
X128325428Y-112427771D01*
X128325428Y-112427771D02*
X128134952Y-112427771D01*
X128134952Y-112427771D02*
X128039714Y-112475390D01*
X128039714Y-112475390D02*
X127992095Y-112523009D01*
X127992095Y-112523009D02*
X127944476Y-112618247D01*
X121912095Y-113416819D02*
X121912095Y-112416819D01*
X122483523Y-113416819D02*
X122054952Y-112845390D01*
X122483523Y-112416819D02*
X121912095Y-112988247D01*
X202000694Y-107123288D02*
X201667361Y-106647097D01*
X201429266Y-107123288D02*
X201429266Y-106123288D01*
X201429266Y-106123288D02*
X201810218Y-106123288D01*
X201810218Y-106123288D02*
X201905456Y-106170907D01*
X201905456Y-106170907D02*
X201953075Y-106218526D01*
X201953075Y-106218526D02*
X202000694Y-106313764D01*
X202000694Y-106313764D02*
X202000694Y-106456621D01*
X202000694Y-106456621D02*
X201953075Y-106551859D01*
X201953075Y-106551859D02*
X201905456Y-106599478D01*
X201905456Y-106599478D02*
X201810218Y-106647097D01*
X201810218Y-106647097D02*
X201429266Y-106647097D01*
X202857837Y-106123288D02*
X202667361Y-106123288D01*
X202667361Y-106123288D02*
X202572123Y-106170907D01*
X202572123Y-106170907D02*
X202524504Y-106218526D01*
X202524504Y-106218526D02*
X202429266Y-106361383D01*
X202429266Y-106361383D02*
X202381647Y-106551859D01*
X202381647Y-106551859D02*
X202381647Y-106932811D01*
X202381647Y-106932811D02*
X202429266Y-107028049D01*
X202429266Y-107028049D02*
X202476885Y-107075669D01*
X202476885Y-107075669D02*
X202572123Y-107123288D01*
X202572123Y-107123288D02*
X202762599Y-107123288D01*
X202762599Y-107123288D02*
X202857837Y-107075669D01*
X202857837Y-107075669D02*
X202905456Y-107028049D01*
X202905456Y-107028049D02*
X202953075Y-106932811D01*
X202953075Y-106932811D02*
X202953075Y-106694716D01*
X202953075Y-106694716D02*
X202905456Y-106599478D01*
X202905456Y-106599478D02*
X202857837Y-106551859D01*
X202857837Y-106551859D02*
X202762599Y-106504240D01*
X202762599Y-106504240D02*
X202572123Y-106504240D01*
X202572123Y-106504240D02*
X202476885Y-106551859D01*
X202476885Y-106551859D02*
X202429266Y-106599478D01*
X202429266Y-106599478D02*
X202381647Y-106694716D01*
X109563819Y-46680285D02*
X108563819Y-46680285D01*
X108563819Y-46680285D02*
X108563819Y-46442190D01*
X108563819Y-46442190D02*
X108611438Y-46299333D01*
X108611438Y-46299333D02*
X108706676Y-46204095D01*
X108706676Y-46204095D02*
X108801914Y-46156476D01*
X108801914Y-46156476D02*
X108992390Y-46108857D01*
X108992390Y-46108857D02*
X109135247Y-46108857D01*
X109135247Y-46108857D02*
X109325723Y-46156476D01*
X109325723Y-46156476D02*
X109420961Y-46204095D01*
X109420961Y-46204095D02*
X109516200Y-46299333D01*
X109516200Y-46299333D02*
X109563819Y-46442190D01*
X109563819Y-46442190D02*
X109563819Y-46680285D01*
X108659057Y-45727904D02*
X108611438Y-45680285D01*
X108611438Y-45680285D02*
X108563819Y-45585047D01*
X108563819Y-45585047D02*
X108563819Y-45346952D01*
X108563819Y-45346952D02*
X108611438Y-45251714D01*
X108611438Y-45251714D02*
X108659057Y-45204095D01*
X108659057Y-45204095D02*
X108754295Y-45156476D01*
X108754295Y-45156476D02*
X108849533Y-45156476D01*
X108849533Y-45156476D02*
X108992390Y-45204095D01*
X108992390Y-45204095D02*
X109563819Y-45775523D01*
X109563819Y-45775523D02*
X109563819Y-45156476D01*
X109563819Y-44204095D02*
X109563819Y-44775523D01*
X109563819Y-44489809D02*
X108563819Y-44489809D01*
X108563819Y-44489809D02*
X108706676Y-44585047D01*
X108706676Y-44585047D02*
X108801914Y-44680285D01*
X108801914Y-44680285D02*
X108849533Y-44775523D01*
X109193819Y-40647904D02*
X108193819Y-40647904D01*
X109193819Y-40076476D02*
X108622390Y-40505047D01*
X108193819Y-40076476D02*
X108765247Y-40647904D01*
X198209819Y-40901808D02*
X199209819Y-40568475D01*
X199209819Y-40568475D02*
X198209819Y-40235142D01*
X199209819Y-39901808D02*
X198543152Y-39901808D01*
X198209819Y-39901808D02*
X198257438Y-39949427D01*
X198257438Y-39949427D02*
X198305057Y-39901808D01*
X198305057Y-39901808D02*
X198257438Y-39854189D01*
X198257438Y-39854189D02*
X198209819Y-39901808D01*
X198209819Y-39901808D02*
X198305057Y-39901808D01*
X198543152Y-39425618D02*
X199209819Y-39425618D01*
X198638390Y-39425618D02*
X198590771Y-39377999D01*
X198590771Y-39377999D02*
X198543152Y-39282761D01*
X198543152Y-39282761D02*
X198543152Y-39139904D01*
X198543152Y-39139904D02*
X198590771Y-39044666D01*
X198590771Y-39044666D02*
X198686009Y-38997047D01*
X198686009Y-38997047D02*
X199209819Y-38997047D01*
X179196789Y-77659288D02*
X179196789Y-76659288D01*
X179196789Y-76659288D02*
X179768217Y-77659288D01*
X179768217Y-77659288D02*
X179768217Y-76659288D01*
X180815836Y-77659288D02*
X180482503Y-77183097D01*
X180244408Y-77659288D02*
X180244408Y-76659288D01*
X180244408Y-76659288D02*
X180625360Y-76659288D01*
X180625360Y-76659288D02*
X180720598Y-76706907D01*
X180720598Y-76706907D02*
X180768217Y-76754526D01*
X180768217Y-76754526D02*
X180815836Y-76849764D01*
X180815836Y-76849764D02*
X180815836Y-76992621D01*
X180815836Y-76992621D02*
X180768217Y-77087859D01*
X180768217Y-77087859D02*
X180720598Y-77135478D01*
X180720598Y-77135478D02*
X180625360Y-77183097D01*
X180625360Y-77183097D02*
X180244408Y-77183097D01*
X181196789Y-77611669D02*
X181339646Y-77659288D01*
X181339646Y-77659288D02*
X181577741Y-77659288D01*
X181577741Y-77659288D02*
X181672979Y-77611669D01*
X181672979Y-77611669D02*
X181720598Y-77564049D01*
X181720598Y-77564049D02*
X181768217Y-77468811D01*
X181768217Y-77468811D02*
X181768217Y-77373573D01*
X181768217Y-77373573D02*
X181720598Y-77278335D01*
X181720598Y-77278335D02*
X181672979Y-77230716D01*
X181672979Y-77230716D02*
X181577741Y-77183097D01*
X181577741Y-77183097D02*
X181387265Y-77135478D01*
X181387265Y-77135478D02*
X181292027Y-77087859D01*
X181292027Y-77087859D02*
X181244408Y-77040240D01*
X181244408Y-77040240D02*
X181196789Y-76945002D01*
X181196789Y-76945002D02*
X181196789Y-76849764D01*
X181196789Y-76849764D02*
X181244408Y-76754526D01*
X181244408Y-76754526D02*
X181292027Y-76706907D01*
X181292027Y-76706907D02*
X181387265Y-76659288D01*
X181387265Y-76659288D02*
X181625360Y-76659288D01*
X181625360Y-76659288D02*
X181768217Y-76706907D01*
X182053932Y-76659288D02*
X182625360Y-76659288D01*
X182339646Y-77659288D02*
X182339646Y-76659288D01*
X183672980Y-77611669D02*
X183815837Y-77659288D01*
X183815837Y-77659288D02*
X184053932Y-77659288D01*
X184053932Y-77659288D02*
X184149170Y-77611669D01*
X184149170Y-77611669D02*
X184196789Y-77564049D01*
X184196789Y-77564049D02*
X184244408Y-77468811D01*
X184244408Y-77468811D02*
X184244408Y-77373573D01*
X184244408Y-77373573D02*
X184196789Y-77278335D01*
X184196789Y-77278335D02*
X184149170Y-77230716D01*
X184149170Y-77230716D02*
X184053932Y-77183097D01*
X184053932Y-77183097D02*
X183863456Y-77135478D01*
X183863456Y-77135478D02*
X183768218Y-77087859D01*
X183768218Y-77087859D02*
X183720599Y-77040240D01*
X183720599Y-77040240D02*
X183672980Y-76945002D01*
X183672980Y-76945002D02*
X183672980Y-76849764D01*
X183672980Y-76849764D02*
X183720599Y-76754526D01*
X183720599Y-76754526D02*
X183768218Y-76706907D01*
X183768218Y-76706907D02*
X183863456Y-76659288D01*
X183863456Y-76659288D02*
X184101551Y-76659288D01*
X184101551Y-76659288D02*
X184244408Y-76706907D01*
X184577742Y-76992621D02*
X184768218Y-77659288D01*
X184768218Y-77659288D02*
X184958694Y-77183097D01*
X184958694Y-77183097D02*
X185149170Y-77659288D01*
X185149170Y-77659288D02*
X185339646Y-76992621D01*
X185720599Y-77659288D02*
X185720599Y-76992621D01*
X185720599Y-76659288D02*
X185672980Y-76706907D01*
X185672980Y-76706907D02*
X185720599Y-76754526D01*
X185720599Y-76754526D02*
X185768218Y-76706907D01*
X185768218Y-76706907D02*
X185720599Y-76659288D01*
X185720599Y-76659288D02*
X185720599Y-76754526D01*
X186053932Y-76992621D02*
X186434884Y-76992621D01*
X186196789Y-76659288D02*
X186196789Y-77516430D01*
X186196789Y-77516430D02*
X186244408Y-77611669D01*
X186244408Y-77611669D02*
X186339646Y-77659288D01*
X186339646Y-77659288D02*
X186434884Y-77659288D01*
X187196789Y-77611669D02*
X187101551Y-77659288D01*
X187101551Y-77659288D02*
X186911075Y-77659288D01*
X186911075Y-77659288D02*
X186815837Y-77611669D01*
X186815837Y-77611669D02*
X186768218Y-77564049D01*
X186768218Y-77564049D02*
X186720599Y-77468811D01*
X186720599Y-77468811D02*
X186720599Y-77183097D01*
X186720599Y-77183097D02*
X186768218Y-77087859D01*
X186768218Y-77087859D02*
X186815837Y-77040240D01*
X186815837Y-77040240D02*
X186911075Y-76992621D01*
X186911075Y-76992621D02*
X187101551Y-76992621D01*
X187101551Y-76992621D02*
X187196789Y-77040240D01*
X187625361Y-77659288D02*
X187625361Y-76659288D01*
X188053932Y-77659288D02*
X188053932Y-77135478D01*
X188053932Y-77135478D02*
X188006313Y-77040240D01*
X188006313Y-77040240D02*
X187911075Y-76992621D01*
X187911075Y-76992621D02*
X187768218Y-76992621D01*
X187768218Y-76992621D02*
X187672980Y-77040240D01*
X187672980Y-77040240D02*
X187625361Y-77087859D01*
X170531642Y-119739580D02*
X170484023Y-119787200D01*
X170484023Y-119787200D02*
X170341166Y-119834819D01*
X170341166Y-119834819D02*
X170245928Y-119834819D01*
X170245928Y-119834819D02*
X170103071Y-119787200D01*
X170103071Y-119787200D02*
X170007833Y-119691961D01*
X170007833Y-119691961D02*
X169960214Y-119596723D01*
X169960214Y-119596723D02*
X169912595Y-119406247D01*
X169912595Y-119406247D02*
X169912595Y-119263390D01*
X169912595Y-119263390D02*
X169960214Y-119072914D01*
X169960214Y-119072914D02*
X170007833Y-118977676D01*
X170007833Y-118977676D02*
X170103071Y-118882438D01*
X170103071Y-118882438D02*
X170245928Y-118834819D01*
X170245928Y-118834819D02*
X170341166Y-118834819D01*
X170341166Y-118834819D02*
X170484023Y-118882438D01*
X170484023Y-118882438D02*
X170531642Y-118930057D01*
X171484023Y-119834819D02*
X170912595Y-119834819D01*
X171198309Y-119834819D02*
X171198309Y-118834819D01*
X171198309Y-118834819D02*
X171103071Y-118977676D01*
X171103071Y-118977676D02*
X171007833Y-119072914D01*
X171007833Y-119072914D02*
X170912595Y-119120533D01*
X171960214Y-119834819D02*
X172150690Y-119834819D01*
X172150690Y-119834819D02*
X172245928Y-119787200D01*
X172245928Y-119787200D02*
X172293547Y-119739580D01*
X172293547Y-119739580D02*
X172388785Y-119596723D01*
X172388785Y-119596723D02*
X172436404Y-119406247D01*
X172436404Y-119406247D02*
X172436404Y-119025295D01*
X172436404Y-119025295D02*
X172388785Y-118930057D01*
X172388785Y-118930057D02*
X172341166Y-118882438D01*
X172341166Y-118882438D02*
X172245928Y-118834819D01*
X172245928Y-118834819D02*
X172055452Y-118834819D01*
X172055452Y-118834819D02*
X171960214Y-118882438D01*
X171960214Y-118882438D02*
X171912595Y-118930057D01*
X171912595Y-118930057D02*
X171864976Y-119025295D01*
X171864976Y-119025295D02*
X171864976Y-119263390D01*
X171864976Y-119263390D02*
X171912595Y-119358628D01*
X171912595Y-119358628D02*
X171960214Y-119406247D01*
X171960214Y-119406247D02*
X172055452Y-119453866D01*
X172055452Y-119453866D02*
X172245928Y-119453866D01*
X172245928Y-119453866D02*
X172341166Y-119406247D01*
X172341166Y-119406247D02*
X172388785Y-119358628D01*
X172388785Y-119358628D02*
X172436404Y-119263390D01*
X167219333Y-132027819D02*
X166886000Y-131551628D01*
X166647905Y-132027819D02*
X166647905Y-131027819D01*
X166647905Y-131027819D02*
X167028857Y-131027819D01*
X167028857Y-131027819D02*
X167124095Y-131075438D01*
X167124095Y-131075438D02*
X167171714Y-131123057D01*
X167171714Y-131123057D02*
X167219333Y-131218295D01*
X167219333Y-131218295D02*
X167219333Y-131361152D01*
X167219333Y-131361152D02*
X167171714Y-131456390D01*
X167171714Y-131456390D02*
X167124095Y-131504009D01*
X167124095Y-131504009D02*
X167028857Y-131551628D01*
X167028857Y-131551628D02*
X166647905Y-131551628D01*
X168076476Y-131361152D02*
X168076476Y-132027819D01*
X167838381Y-130980200D02*
X167600286Y-131694485D01*
X167600286Y-131694485D02*
X168219333Y-131694485D01*
X158598503Y-113124049D02*
X158550884Y-113171669D01*
X158550884Y-113171669D02*
X158408027Y-113219288D01*
X158408027Y-113219288D02*
X158312789Y-113219288D01*
X158312789Y-113219288D02*
X158169932Y-113171669D01*
X158169932Y-113171669D02*
X158074694Y-113076430D01*
X158074694Y-113076430D02*
X158027075Y-112981192D01*
X158027075Y-112981192D02*
X157979456Y-112790716D01*
X157979456Y-112790716D02*
X157979456Y-112647859D01*
X157979456Y-112647859D02*
X158027075Y-112457383D01*
X158027075Y-112457383D02*
X158074694Y-112362145D01*
X158074694Y-112362145D02*
X158169932Y-112266907D01*
X158169932Y-112266907D02*
X158312789Y-112219288D01*
X158312789Y-112219288D02*
X158408027Y-112219288D01*
X158408027Y-112219288D02*
X158550884Y-112266907D01*
X158550884Y-112266907D02*
X158598503Y-112314526D01*
X159550884Y-113219288D02*
X158979456Y-113219288D01*
X159265170Y-113219288D02*
X159265170Y-112219288D01*
X159265170Y-112219288D02*
X159169932Y-112362145D01*
X159169932Y-112362145D02*
X159074694Y-112457383D01*
X159074694Y-112457383D02*
X158979456Y-112505002D01*
X160503265Y-113219288D02*
X159931837Y-113219288D01*
X160217551Y-113219288D02*
X160217551Y-112219288D01*
X160217551Y-112219288D02*
X160122313Y-112362145D01*
X160122313Y-112362145D02*
X160027075Y-112457383D01*
X160027075Y-112457383D02*
X159931837Y-112505002D01*
X160098885Y-101487669D02*
X160241742Y-101535288D01*
X160241742Y-101535288D02*
X160479837Y-101535288D01*
X160479837Y-101535288D02*
X160575075Y-101487669D01*
X160575075Y-101487669D02*
X160622694Y-101440049D01*
X160622694Y-101440049D02*
X160670313Y-101344811D01*
X160670313Y-101344811D02*
X160670313Y-101249573D01*
X160670313Y-101249573D02*
X160622694Y-101154335D01*
X160622694Y-101154335D02*
X160575075Y-101106716D01*
X160575075Y-101106716D02*
X160479837Y-101059097D01*
X160479837Y-101059097D02*
X160289361Y-101011478D01*
X160289361Y-101011478D02*
X160194123Y-100963859D01*
X160194123Y-100963859D02*
X160146504Y-100916240D01*
X160146504Y-100916240D02*
X160098885Y-100821002D01*
X160098885Y-100821002D02*
X160098885Y-100725764D01*
X160098885Y-100725764D02*
X160146504Y-100630526D01*
X160146504Y-100630526D02*
X160194123Y-100582907D01*
X160194123Y-100582907D02*
X160289361Y-100535288D01*
X160289361Y-100535288D02*
X160527456Y-100535288D01*
X160527456Y-100535288D02*
X160670313Y-100582907D01*
X160956028Y-100535288D02*
X161527456Y-100535288D01*
X161241742Y-101535288D02*
X161241742Y-100535288D01*
X161860790Y-101535288D02*
X161860790Y-100535288D01*
X161860790Y-100535288D02*
X162194123Y-101249573D01*
X162194123Y-101249573D02*
X162527456Y-100535288D01*
X162527456Y-100535288D02*
X162527456Y-101535288D01*
X162908409Y-100535288D02*
X163527456Y-100535288D01*
X163527456Y-100535288D02*
X163194123Y-100916240D01*
X163194123Y-100916240D02*
X163336980Y-100916240D01*
X163336980Y-100916240D02*
X163432218Y-100963859D01*
X163432218Y-100963859D02*
X163479837Y-101011478D01*
X163479837Y-101011478D02*
X163527456Y-101106716D01*
X163527456Y-101106716D02*
X163527456Y-101344811D01*
X163527456Y-101344811D02*
X163479837Y-101440049D01*
X163479837Y-101440049D02*
X163432218Y-101487669D01*
X163432218Y-101487669D02*
X163336980Y-101535288D01*
X163336980Y-101535288D02*
X163051266Y-101535288D01*
X163051266Y-101535288D02*
X162956028Y-101487669D01*
X162956028Y-101487669D02*
X162908409Y-101440049D01*
X163908409Y-100630526D02*
X163956028Y-100582907D01*
X163956028Y-100582907D02*
X164051266Y-100535288D01*
X164051266Y-100535288D02*
X164289361Y-100535288D01*
X164289361Y-100535288D02*
X164384599Y-100582907D01*
X164384599Y-100582907D02*
X164432218Y-100630526D01*
X164432218Y-100630526D02*
X164479837Y-100725764D01*
X164479837Y-100725764D02*
X164479837Y-100821002D01*
X164479837Y-100821002D02*
X164432218Y-100963859D01*
X164432218Y-100963859D02*
X163860790Y-101535288D01*
X163860790Y-101535288D02*
X164479837Y-101535288D01*
X168566819Y-53133523D02*
X167566819Y-53133523D01*
X167566819Y-53133523D02*
X168281104Y-52800190D01*
X168281104Y-52800190D02*
X167566819Y-52466857D01*
X167566819Y-52466857D02*
X168566819Y-52466857D01*
X167662057Y-52038285D02*
X167614438Y-51990666D01*
X167614438Y-51990666D02*
X167566819Y-51895428D01*
X167566819Y-51895428D02*
X167566819Y-51657333D01*
X167566819Y-51657333D02*
X167614438Y-51562095D01*
X167614438Y-51562095D02*
X167662057Y-51514476D01*
X167662057Y-51514476D02*
X167757295Y-51466857D01*
X167757295Y-51466857D02*
X167852533Y-51466857D01*
X167852533Y-51466857D02*
X167995390Y-51514476D01*
X167995390Y-51514476D02*
X168566819Y-52085904D01*
X168566819Y-52085904D02*
X168566819Y-51466857D01*
X165424694Y-112108049D02*
X165377075Y-112155669D01*
X165377075Y-112155669D02*
X165234218Y-112203288D01*
X165234218Y-112203288D02*
X165138980Y-112203288D01*
X165138980Y-112203288D02*
X164996123Y-112155669D01*
X164996123Y-112155669D02*
X164900885Y-112060430D01*
X164900885Y-112060430D02*
X164853266Y-111965192D01*
X164853266Y-111965192D02*
X164805647Y-111774716D01*
X164805647Y-111774716D02*
X164805647Y-111631859D01*
X164805647Y-111631859D02*
X164853266Y-111441383D01*
X164853266Y-111441383D02*
X164900885Y-111346145D01*
X164900885Y-111346145D02*
X164996123Y-111250907D01*
X164996123Y-111250907D02*
X165138980Y-111203288D01*
X165138980Y-111203288D02*
X165234218Y-111203288D01*
X165234218Y-111203288D02*
X165377075Y-111250907D01*
X165377075Y-111250907D02*
X165424694Y-111298526D01*
X165900885Y-112203288D02*
X166091361Y-112203288D01*
X166091361Y-112203288D02*
X166186599Y-112155669D01*
X166186599Y-112155669D02*
X166234218Y-112108049D01*
X166234218Y-112108049D02*
X166329456Y-111965192D01*
X166329456Y-111965192D02*
X166377075Y-111774716D01*
X166377075Y-111774716D02*
X166377075Y-111393764D01*
X166377075Y-111393764D02*
X166329456Y-111298526D01*
X166329456Y-111298526D02*
X166281837Y-111250907D01*
X166281837Y-111250907D02*
X166186599Y-111203288D01*
X166186599Y-111203288D02*
X165996123Y-111203288D01*
X165996123Y-111203288D02*
X165900885Y-111250907D01*
X165900885Y-111250907D02*
X165853266Y-111298526D01*
X165853266Y-111298526D02*
X165805647Y-111393764D01*
X165805647Y-111393764D02*
X165805647Y-111631859D01*
X165805647Y-111631859D02*
X165853266Y-111727097D01*
X165853266Y-111727097D02*
X165900885Y-111774716D01*
X165900885Y-111774716D02*
X165996123Y-111822335D01*
X165996123Y-111822335D02*
X166186599Y-111822335D01*
X166186599Y-111822335D02*
X166281837Y-111774716D01*
X166281837Y-111774716D02*
X166329456Y-111727097D01*
X166329456Y-111727097D02*
X166377075Y-111631859D01*
X112837476Y-59144819D02*
X112837476Y-58144819D01*
X112837476Y-58144819D02*
X113170809Y-58859104D01*
X113170809Y-58859104D02*
X113504142Y-58144819D01*
X113504142Y-58144819D02*
X113504142Y-59144819D01*
X114456523Y-58144819D02*
X113980333Y-58144819D01*
X113980333Y-58144819D02*
X113932714Y-58621009D01*
X113932714Y-58621009D02*
X113980333Y-58573390D01*
X113980333Y-58573390D02*
X114075571Y-58525771D01*
X114075571Y-58525771D02*
X114313666Y-58525771D01*
X114313666Y-58525771D02*
X114408904Y-58573390D01*
X114408904Y-58573390D02*
X114456523Y-58621009D01*
X114456523Y-58621009D02*
X114504142Y-58716247D01*
X114504142Y-58716247D02*
X114504142Y-58954342D01*
X114504142Y-58954342D02*
X114456523Y-59049580D01*
X114456523Y-59049580D02*
X114408904Y-59097200D01*
X114408904Y-59097200D02*
X114313666Y-59144819D01*
X114313666Y-59144819D02*
X114075571Y-59144819D01*
X114075571Y-59144819D02*
X113980333Y-59097200D01*
X113980333Y-59097200D02*
X113932714Y-59049580D01*
X109368819Y-64460285D02*
X108368819Y-64460285D01*
X108368819Y-64460285D02*
X108368819Y-64222190D01*
X108368819Y-64222190D02*
X108416438Y-64079333D01*
X108416438Y-64079333D02*
X108511676Y-63984095D01*
X108511676Y-63984095D02*
X108606914Y-63936476D01*
X108606914Y-63936476D02*
X108797390Y-63888857D01*
X108797390Y-63888857D02*
X108940247Y-63888857D01*
X108940247Y-63888857D02*
X109130723Y-63936476D01*
X109130723Y-63936476D02*
X109225961Y-63984095D01*
X109225961Y-63984095D02*
X109321200Y-64079333D01*
X109321200Y-64079333D02*
X109368819Y-64222190D01*
X109368819Y-64222190D02*
X109368819Y-64460285D01*
X108464057Y-63507904D02*
X108416438Y-63460285D01*
X108416438Y-63460285D02*
X108368819Y-63365047D01*
X108368819Y-63365047D02*
X108368819Y-63126952D01*
X108368819Y-63126952D02*
X108416438Y-63031714D01*
X108416438Y-63031714D02*
X108464057Y-62984095D01*
X108464057Y-62984095D02*
X108559295Y-62936476D01*
X108559295Y-62936476D02*
X108654533Y-62936476D01*
X108654533Y-62936476D02*
X108797390Y-62984095D01*
X108797390Y-62984095D02*
X109368819Y-63555523D01*
X109368819Y-63555523D02*
X109368819Y-62936476D01*
X108464057Y-62555523D02*
X108416438Y-62507904D01*
X108416438Y-62507904D02*
X108368819Y-62412666D01*
X108368819Y-62412666D02*
X108368819Y-62174571D01*
X108368819Y-62174571D02*
X108416438Y-62079333D01*
X108416438Y-62079333D02*
X108464057Y-62031714D01*
X108464057Y-62031714D02*
X108559295Y-61984095D01*
X108559295Y-61984095D02*
X108654533Y-61984095D01*
X108654533Y-61984095D02*
X108797390Y-62031714D01*
X108797390Y-62031714D02*
X109368819Y-62603142D01*
X109368819Y-62603142D02*
X109368819Y-61984095D01*
X108998819Y-58427904D02*
X107998819Y-58427904D01*
X108998819Y-57856476D02*
X108427390Y-58285047D01*
X107998819Y-57856476D02*
X108570247Y-58427904D01*
X148297941Y-106041326D02*
X148345561Y-106088945D01*
X148345561Y-106088945D02*
X148393180Y-106231802D01*
X148393180Y-106231802D02*
X148393180Y-106327040D01*
X148393180Y-106327040D02*
X148345561Y-106469897D01*
X148345561Y-106469897D02*
X148250322Y-106565135D01*
X148250322Y-106565135D02*
X148155084Y-106612754D01*
X148155084Y-106612754D02*
X147964608Y-106660373D01*
X147964608Y-106660373D02*
X147821751Y-106660373D01*
X147821751Y-106660373D02*
X147631275Y-106612754D01*
X147631275Y-106612754D02*
X147536037Y-106565135D01*
X147536037Y-106565135D02*
X147440799Y-106469897D01*
X147440799Y-106469897D02*
X147393180Y-106327040D01*
X147393180Y-106327040D02*
X147393180Y-106231802D01*
X147393180Y-106231802D02*
X147440799Y-106088945D01*
X147440799Y-106088945D02*
X147488418Y-106041326D01*
X148393180Y-105088945D02*
X148393180Y-105660373D01*
X148393180Y-105374659D02*
X147393180Y-105374659D01*
X147393180Y-105374659D02*
X147536037Y-105469897D01*
X147536037Y-105469897D02*
X147631275Y-105565135D01*
X147631275Y-105565135D02*
X147678894Y-105660373D01*
X147393180Y-104184183D02*
X147393180Y-104660373D01*
X147393180Y-104660373D02*
X147869370Y-104707992D01*
X147869370Y-104707992D02*
X147821751Y-104660373D01*
X147821751Y-104660373D02*
X147774132Y-104565135D01*
X147774132Y-104565135D02*
X147774132Y-104327040D01*
X147774132Y-104327040D02*
X147821751Y-104231802D01*
X147821751Y-104231802D02*
X147869370Y-104184183D01*
X147869370Y-104184183D02*
X147964608Y-104136564D01*
X147964608Y-104136564D02*
X148202703Y-104136564D01*
X148202703Y-104136564D02*
X148297941Y-104184183D01*
X148297941Y-104184183D02*
X148345561Y-104231802D01*
X148345561Y-104231802D02*
X148393180Y-104327040D01*
X148393180Y-104327040D02*
X148393180Y-104565135D01*
X148393180Y-104565135D02*
X148345561Y-104660373D01*
X148345561Y-104660373D02*
X148297941Y-104707992D01*
X185014503Y-120585288D02*
X184681170Y-120109097D01*
X184443075Y-120585288D02*
X184443075Y-119585288D01*
X184443075Y-119585288D02*
X184824027Y-119585288D01*
X184824027Y-119585288D02*
X184919265Y-119632907D01*
X184919265Y-119632907D02*
X184966884Y-119680526D01*
X184966884Y-119680526D02*
X185014503Y-119775764D01*
X185014503Y-119775764D02*
X185014503Y-119918621D01*
X185014503Y-119918621D02*
X184966884Y-120013859D01*
X184966884Y-120013859D02*
X184919265Y-120061478D01*
X184919265Y-120061478D02*
X184824027Y-120109097D01*
X184824027Y-120109097D02*
X184443075Y-120109097D01*
X185966884Y-120585288D02*
X185395456Y-120585288D01*
X185681170Y-120585288D02*
X185681170Y-119585288D01*
X185681170Y-119585288D02*
X185585932Y-119728145D01*
X185585932Y-119728145D02*
X185490694Y-119823383D01*
X185490694Y-119823383D02*
X185395456Y-119871002D01*
X186585932Y-119585288D02*
X186681170Y-119585288D01*
X186681170Y-119585288D02*
X186776408Y-119632907D01*
X186776408Y-119632907D02*
X186824027Y-119680526D01*
X186824027Y-119680526D02*
X186871646Y-119775764D01*
X186871646Y-119775764D02*
X186919265Y-119966240D01*
X186919265Y-119966240D02*
X186919265Y-120204335D01*
X186919265Y-120204335D02*
X186871646Y-120394811D01*
X186871646Y-120394811D02*
X186824027Y-120490049D01*
X186824027Y-120490049D02*
X186776408Y-120537669D01*
X186776408Y-120537669D02*
X186681170Y-120585288D01*
X186681170Y-120585288D02*
X186585932Y-120585288D01*
X186585932Y-120585288D02*
X186490694Y-120537669D01*
X186490694Y-120537669D02*
X186443075Y-120490049D01*
X186443075Y-120490049D02*
X186395456Y-120394811D01*
X186395456Y-120394811D02*
X186347837Y-120204335D01*
X186347837Y-120204335D02*
X186347837Y-119966240D01*
X186347837Y-119966240D02*
X186395456Y-119775764D01*
X186395456Y-119775764D02*
X186443075Y-119680526D01*
X186443075Y-119680526D02*
X186490694Y-119632907D01*
X186490694Y-119632907D02*
X186585932Y-119585288D01*
X201509333Y-62081580D02*
X201461714Y-62129200D01*
X201461714Y-62129200D02*
X201318857Y-62176819D01*
X201318857Y-62176819D02*
X201223619Y-62176819D01*
X201223619Y-62176819D02*
X201080762Y-62129200D01*
X201080762Y-62129200D02*
X200985524Y-62033961D01*
X200985524Y-62033961D02*
X200937905Y-61938723D01*
X200937905Y-61938723D02*
X200890286Y-61748247D01*
X200890286Y-61748247D02*
X200890286Y-61605390D01*
X200890286Y-61605390D02*
X200937905Y-61414914D01*
X200937905Y-61414914D02*
X200985524Y-61319676D01*
X200985524Y-61319676D02*
X201080762Y-61224438D01*
X201080762Y-61224438D02*
X201223619Y-61176819D01*
X201223619Y-61176819D02*
X201318857Y-61176819D01*
X201318857Y-61176819D02*
X201461714Y-61224438D01*
X201461714Y-61224438D02*
X201509333Y-61272057D01*
X201842667Y-61176819D02*
X202461714Y-61176819D01*
X202461714Y-61176819D02*
X202128381Y-61557771D01*
X202128381Y-61557771D02*
X202271238Y-61557771D01*
X202271238Y-61557771D02*
X202366476Y-61605390D01*
X202366476Y-61605390D02*
X202414095Y-61653009D01*
X202414095Y-61653009D02*
X202461714Y-61748247D01*
X202461714Y-61748247D02*
X202461714Y-61986342D01*
X202461714Y-61986342D02*
X202414095Y-62081580D01*
X202414095Y-62081580D02*
X202366476Y-62129200D01*
X202366476Y-62129200D02*
X202271238Y-62176819D01*
X202271238Y-62176819D02*
X201985524Y-62176819D01*
X201985524Y-62176819D02*
X201890286Y-62129200D01*
X201890286Y-62129200D02*
X201842667Y-62081580D01*
X168532819Y-61666285D02*
X167532819Y-61666285D01*
X167532819Y-61666285D02*
X167532819Y-61428190D01*
X167532819Y-61428190D02*
X167580438Y-61285333D01*
X167580438Y-61285333D02*
X167675676Y-61190095D01*
X167675676Y-61190095D02*
X167770914Y-61142476D01*
X167770914Y-61142476D02*
X167961390Y-61094857D01*
X167961390Y-61094857D02*
X168104247Y-61094857D01*
X168104247Y-61094857D02*
X168294723Y-61142476D01*
X168294723Y-61142476D02*
X168389961Y-61190095D01*
X168389961Y-61190095D02*
X168485200Y-61285333D01*
X168485200Y-61285333D02*
X168532819Y-61428190D01*
X168532819Y-61428190D02*
X168532819Y-61666285D01*
X168532819Y-60142476D02*
X168532819Y-60713904D01*
X168532819Y-60428190D02*
X167532819Y-60428190D01*
X167532819Y-60428190D02*
X167675676Y-60523428D01*
X167675676Y-60523428D02*
X167770914Y-60618666D01*
X167770914Y-60618666D02*
X167818533Y-60713904D01*
X167532819Y-59523428D02*
X167532819Y-59428190D01*
X167532819Y-59428190D02*
X167580438Y-59332952D01*
X167580438Y-59332952D02*
X167628057Y-59285333D01*
X167628057Y-59285333D02*
X167723295Y-59237714D01*
X167723295Y-59237714D02*
X167913771Y-59190095D01*
X167913771Y-59190095D02*
X168151866Y-59190095D01*
X168151866Y-59190095D02*
X168342342Y-59237714D01*
X168342342Y-59237714D02*
X168437580Y-59285333D01*
X168437580Y-59285333D02*
X168485200Y-59332952D01*
X168485200Y-59332952D02*
X168532819Y-59428190D01*
X168532819Y-59428190D02*
X168532819Y-59523428D01*
X168532819Y-59523428D02*
X168485200Y-59618666D01*
X168485200Y-59618666D02*
X168437580Y-59666285D01*
X168437580Y-59666285D02*
X168342342Y-59713904D01*
X168342342Y-59713904D02*
X168151866Y-59761523D01*
X168151866Y-59761523D02*
X167913771Y-59761523D01*
X167913771Y-59761523D02*
X167723295Y-59713904D01*
X167723295Y-59713904D02*
X167628057Y-59666285D01*
X167628057Y-59666285D02*
X167580438Y-59618666D01*
X167580438Y-59618666D02*
X167532819Y-59523428D01*
X168162819Y-55633904D02*
X167162819Y-55633904D01*
X168162819Y-55062476D02*
X167591390Y-55491047D01*
X167162819Y-55062476D02*
X167734247Y-55633904D01*
X174314694Y-94931288D02*
X173981361Y-94455097D01*
X173743266Y-94931288D02*
X173743266Y-93931288D01*
X173743266Y-93931288D02*
X174124218Y-93931288D01*
X174124218Y-93931288D02*
X174219456Y-93978907D01*
X174219456Y-93978907D02*
X174267075Y-94026526D01*
X174267075Y-94026526D02*
X174314694Y-94121764D01*
X174314694Y-94121764D02*
X174314694Y-94264621D01*
X174314694Y-94264621D02*
X174267075Y-94359859D01*
X174267075Y-94359859D02*
X174219456Y-94407478D01*
X174219456Y-94407478D02*
X174124218Y-94455097D01*
X174124218Y-94455097D02*
X173743266Y-94455097D01*
X174695647Y-94026526D02*
X174743266Y-93978907D01*
X174743266Y-93978907D02*
X174838504Y-93931288D01*
X174838504Y-93931288D02*
X175076599Y-93931288D01*
X175076599Y-93931288D02*
X175171837Y-93978907D01*
X175171837Y-93978907D02*
X175219456Y-94026526D01*
X175219456Y-94026526D02*
X175267075Y-94121764D01*
X175267075Y-94121764D02*
X175267075Y-94217002D01*
X175267075Y-94217002D02*
X175219456Y-94359859D01*
X175219456Y-94359859D02*
X174648028Y-94931288D01*
X174648028Y-94931288D02*
X175267075Y-94931288D01*
X195365122Y-92248478D02*
X195507979Y-92296097D01*
X195507979Y-92296097D02*
X195555598Y-92343716D01*
X195555598Y-92343716D02*
X195603217Y-92438954D01*
X195603217Y-92438954D02*
X195603217Y-92581811D01*
X195603217Y-92581811D02*
X195555598Y-92677049D01*
X195555598Y-92677049D02*
X195507979Y-92724669D01*
X195507979Y-92724669D02*
X195412741Y-92772288D01*
X195412741Y-92772288D02*
X195031789Y-92772288D01*
X195031789Y-92772288D02*
X195031789Y-91772288D01*
X195031789Y-91772288D02*
X195365122Y-91772288D01*
X195365122Y-91772288D02*
X195460360Y-91819907D01*
X195460360Y-91819907D02*
X195507979Y-91867526D01*
X195507979Y-91867526D02*
X195555598Y-91962764D01*
X195555598Y-91962764D02*
X195555598Y-92058002D01*
X195555598Y-92058002D02*
X195507979Y-92153240D01*
X195507979Y-92153240D02*
X195460360Y-92200859D01*
X195460360Y-92200859D02*
X195365122Y-92248478D01*
X195365122Y-92248478D02*
X195031789Y-92248478D01*
X196174646Y-92772288D02*
X196079408Y-92724669D01*
X196079408Y-92724669D02*
X196031789Y-92677049D01*
X196031789Y-92677049D02*
X195984170Y-92581811D01*
X195984170Y-92581811D02*
X195984170Y-92296097D01*
X195984170Y-92296097D02*
X196031789Y-92200859D01*
X196031789Y-92200859D02*
X196079408Y-92153240D01*
X196079408Y-92153240D02*
X196174646Y-92105621D01*
X196174646Y-92105621D02*
X196317503Y-92105621D01*
X196317503Y-92105621D02*
X196412741Y-92153240D01*
X196412741Y-92153240D02*
X196460360Y-92200859D01*
X196460360Y-92200859D02*
X196507979Y-92296097D01*
X196507979Y-92296097D02*
X196507979Y-92581811D01*
X196507979Y-92581811D02*
X196460360Y-92677049D01*
X196460360Y-92677049D02*
X196412741Y-92724669D01*
X196412741Y-92724669D02*
X196317503Y-92772288D01*
X196317503Y-92772288D02*
X196174646Y-92772288D01*
X197079408Y-92772288D02*
X196984170Y-92724669D01*
X196984170Y-92724669D02*
X196936551Y-92677049D01*
X196936551Y-92677049D02*
X196888932Y-92581811D01*
X196888932Y-92581811D02*
X196888932Y-92296097D01*
X196888932Y-92296097D02*
X196936551Y-92200859D01*
X196936551Y-92200859D02*
X196984170Y-92153240D01*
X196984170Y-92153240D02*
X197079408Y-92105621D01*
X197079408Y-92105621D02*
X197222265Y-92105621D01*
X197222265Y-92105621D02*
X197317503Y-92153240D01*
X197317503Y-92153240D02*
X197365122Y-92200859D01*
X197365122Y-92200859D02*
X197412741Y-92296097D01*
X197412741Y-92296097D02*
X197412741Y-92581811D01*
X197412741Y-92581811D02*
X197365122Y-92677049D01*
X197365122Y-92677049D02*
X197317503Y-92724669D01*
X197317503Y-92724669D02*
X197222265Y-92772288D01*
X197222265Y-92772288D02*
X197079408Y-92772288D01*
X197698456Y-92105621D02*
X198079408Y-92105621D01*
X197841313Y-91772288D02*
X197841313Y-92629430D01*
X197841313Y-92629430D02*
X197888932Y-92724669D01*
X197888932Y-92724669D02*
X197984170Y-92772288D01*
X197984170Y-92772288D02*
X198079408Y-92772288D01*
X198603218Y-91772288D02*
X198698456Y-91772288D01*
X198698456Y-91772288D02*
X198793694Y-91819907D01*
X198793694Y-91819907D02*
X198841313Y-91867526D01*
X198841313Y-91867526D02*
X198888932Y-91962764D01*
X198888932Y-91962764D02*
X198936551Y-92153240D01*
X198936551Y-92153240D02*
X198936551Y-92391335D01*
X198936551Y-92391335D02*
X198888932Y-92581811D01*
X198888932Y-92581811D02*
X198841313Y-92677049D01*
X198841313Y-92677049D02*
X198793694Y-92724669D01*
X198793694Y-92724669D02*
X198698456Y-92772288D01*
X198698456Y-92772288D02*
X198603218Y-92772288D01*
X198603218Y-92772288D02*
X198507980Y-92724669D01*
X198507980Y-92724669D02*
X198460361Y-92677049D01*
X198460361Y-92677049D02*
X198412742Y-92581811D01*
X198412742Y-92581811D02*
X198365123Y-92391335D01*
X198365123Y-92391335D02*
X198365123Y-92153240D01*
X198365123Y-92153240D02*
X198412742Y-91962764D01*
X198412742Y-91962764D02*
X198460361Y-91867526D01*
X198460361Y-91867526D02*
X198507980Y-91819907D01*
X198507980Y-91819907D02*
X198603218Y-91772288D01*
X111890819Y-106370285D02*
X110890819Y-106370285D01*
X110890819Y-106370285D02*
X110890819Y-106132190D01*
X110890819Y-106132190D02*
X110938438Y-105989333D01*
X110938438Y-105989333D02*
X111033676Y-105894095D01*
X111033676Y-105894095D02*
X111128914Y-105846476D01*
X111128914Y-105846476D02*
X111319390Y-105798857D01*
X111319390Y-105798857D02*
X111462247Y-105798857D01*
X111462247Y-105798857D02*
X111652723Y-105846476D01*
X111652723Y-105846476D02*
X111747961Y-105894095D01*
X111747961Y-105894095D02*
X111843200Y-105989333D01*
X111843200Y-105989333D02*
X111890819Y-106132190D01*
X111890819Y-106132190D02*
X111890819Y-106370285D01*
X111890819Y-104846476D02*
X111890819Y-105417904D01*
X111890819Y-105132190D02*
X110890819Y-105132190D01*
X110890819Y-105132190D02*
X111033676Y-105227428D01*
X111033676Y-105227428D02*
X111128914Y-105322666D01*
X111128914Y-105322666D02*
X111176533Y-105417904D01*
X110890819Y-104513142D02*
X110890819Y-103846476D01*
X110890819Y-103846476D02*
X111890819Y-104275047D01*
X111520819Y-100337904D02*
X110520819Y-100337904D01*
X111520819Y-99766476D02*
X110949390Y-100195047D01*
X110520819Y-99766476D02*
X111092247Y-100337904D01*
X195836080Y-59073166D02*
X195883700Y-59120785D01*
X195883700Y-59120785D02*
X195931319Y-59263642D01*
X195931319Y-59263642D02*
X195931319Y-59358880D01*
X195931319Y-59358880D02*
X195883700Y-59501737D01*
X195883700Y-59501737D02*
X195788461Y-59596975D01*
X195788461Y-59596975D02*
X195693223Y-59644594D01*
X195693223Y-59644594D02*
X195502747Y-59692213D01*
X195502747Y-59692213D02*
X195359890Y-59692213D01*
X195359890Y-59692213D02*
X195169414Y-59644594D01*
X195169414Y-59644594D02*
X195074176Y-59596975D01*
X195074176Y-59596975D02*
X194978938Y-59501737D01*
X194978938Y-59501737D02*
X194931319Y-59358880D01*
X194931319Y-59358880D02*
X194931319Y-59263642D01*
X194931319Y-59263642D02*
X194978938Y-59120785D01*
X194978938Y-59120785D02*
X195026557Y-59073166D01*
X195931319Y-58120785D02*
X195931319Y-58692213D01*
X195931319Y-58406499D02*
X194931319Y-58406499D01*
X194931319Y-58406499D02*
X195074176Y-58501737D01*
X195074176Y-58501737D02*
X195169414Y-58596975D01*
X195169414Y-58596975D02*
X195217033Y-58692213D01*
X169234694Y-112108049D02*
X169187075Y-112155669D01*
X169187075Y-112155669D02*
X169044218Y-112203288D01*
X169044218Y-112203288D02*
X168948980Y-112203288D01*
X168948980Y-112203288D02*
X168806123Y-112155669D01*
X168806123Y-112155669D02*
X168710885Y-112060430D01*
X168710885Y-112060430D02*
X168663266Y-111965192D01*
X168663266Y-111965192D02*
X168615647Y-111774716D01*
X168615647Y-111774716D02*
X168615647Y-111631859D01*
X168615647Y-111631859D02*
X168663266Y-111441383D01*
X168663266Y-111441383D02*
X168710885Y-111346145D01*
X168710885Y-111346145D02*
X168806123Y-111250907D01*
X168806123Y-111250907D02*
X168948980Y-111203288D01*
X168948980Y-111203288D02*
X169044218Y-111203288D01*
X169044218Y-111203288D02*
X169187075Y-111250907D01*
X169187075Y-111250907D02*
X169234694Y-111298526D01*
X169806123Y-111631859D02*
X169710885Y-111584240D01*
X169710885Y-111584240D02*
X169663266Y-111536621D01*
X169663266Y-111536621D02*
X169615647Y-111441383D01*
X169615647Y-111441383D02*
X169615647Y-111393764D01*
X169615647Y-111393764D02*
X169663266Y-111298526D01*
X169663266Y-111298526D02*
X169710885Y-111250907D01*
X169710885Y-111250907D02*
X169806123Y-111203288D01*
X169806123Y-111203288D02*
X169996599Y-111203288D01*
X169996599Y-111203288D02*
X170091837Y-111250907D01*
X170091837Y-111250907D02*
X170139456Y-111298526D01*
X170139456Y-111298526D02*
X170187075Y-111393764D01*
X170187075Y-111393764D02*
X170187075Y-111441383D01*
X170187075Y-111441383D02*
X170139456Y-111536621D01*
X170139456Y-111536621D02*
X170091837Y-111584240D01*
X170091837Y-111584240D02*
X169996599Y-111631859D01*
X169996599Y-111631859D02*
X169806123Y-111631859D01*
X169806123Y-111631859D02*
X169710885Y-111679478D01*
X169710885Y-111679478D02*
X169663266Y-111727097D01*
X169663266Y-111727097D02*
X169615647Y-111822335D01*
X169615647Y-111822335D02*
X169615647Y-112012811D01*
X169615647Y-112012811D02*
X169663266Y-112108049D01*
X169663266Y-112108049D02*
X169710885Y-112155669D01*
X169710885Y-112155669D02*
X169806123Y-112203288D01*
X169806123Y-112203288D02*
X169996599Y-112203288D01*
X169996599Y-112203288D02*
X170091837Y-112155669D01*
X170091837Y-112155669D02*
X170139456Y-112108049D01*
X170139456Y-112108049D02*
X170187075Y-112012811D01*
X170187075Y-112012811D02*
X170187075Y-111822335D01*
X170187075Y-111822335D02*
X170139456Y-111727097D01*
X170139456Y-111727097D02*
X170091837Y-111679478D01*
X170091837Y-111679478D02*
X169996599Y-111631859D01*
X195288819Y-84907047D02*
X195288819Y-84288000D01*
X195288819Y-84288000D02*
X195669771Y-84621333D01*
X195669771Y-84621333D02*
X195669771Y-84478476D01*
X195669771Y-84478476D02*
X195717390Y-84383238D01*
X195717390Y-84383238D02*
X195765009Y-84335619D01*
X195765009Y-84335619D02*
X195860247Y-84288000D01*
X195860247Y-84288000D02*
X196098342Y-84288000D01*
X196098342Y-84288000D02*
X196193580Y-84335619D01*
X196193580Y-84335619D02*
X196241200Y-84383238D01*
X196241200Y-84383238D02*
X196288819Y-84478476D01*
X196288819Y-84478476D02*
X196288819Y-84764190D01*
X196288819Y-84764190D02*
X196241200Y-84859428D01*
X196241200Y-84859428D02*
X196193580Y-84907047D01*
X196193580Y-83859428D02*
X196241200Y-83811809D01*
X196241200Y-83811809D02*
X196288819Y-83859428D01*
X196288819Y-83859428D02*
X196241200Y-83907047D01*
X196241200Y-83907047D02*
X196193580Y-83859428D01*
X196193580Y-83859428D02*
X196288819Y-83859428D01*
X195288819Y-83478476D02*
X195288819Y-82859429D01*
X195288819Y-82859429D02*
X195669771Y-83192762D01*
X195669771Y-83192762D02*
X195669771Y-83049905D01*
X195669771Y-83049905D02*
X195717390Y-82954667D01*
X195717390Y-82954667D02*
X195765009Y-82907048D01*
X195765009Y-82907048D02*
X195860247Y-82859429D01*
X195860247Y-82859429D02*
X196098342Y-82859429D01*
X196098342Y-82859429D02*
X196193580Y-82907048D01*
X196193580Y-82907048D02*
X196241200Y-82954667D01*
X196241200Y-82954667D02*
X196288819Y-83049905D01*
X196288819Y-83049905D02*
X196288819Y-83335619D01*
X196288819Y-83335619D02*
X196241200Y-83430857D01*
X196241200Y-83430857D02*
X196193580Y-83478476D01*
X195288819Y-81811809D02*
X196288819Y-81478476D01*
X196288819Y-81478476D02*
X195288819Y-81145143D01*
X195288819Y-80192761D02*
X195288819Y-79621333D01*
X196288819Y-79907047D02*
X195288819Y-79907047D01*
X196288819Y-79287999D02*
X195288819Y-79287999D01*
X195288819Y-79287999D02*
X195288819Y-78907047D01*
X195288819Y-78907047D02*
X195336438Y-78811809D01*
X195336438Y-78811809D02*
X195384057Y-78764190D01*
X195384057Y-78764190D02*
X195479295Y-78716571D01*
X195479295Y-78716571D02*
X195622152Y-78716571D01*
X195622152Y-78716571D02*
X195717390Y-78764190D01*
X195717390Y-78764190D02*
X195765009Y-78811809D01*
X195765009Y-78811809D02*
X195812628Y-78907047D01*
X195812628Y-78907047D02*
X195812628Y-79287999D01*
X162884694Y-112108049D02*
X162837075Y-112155669D01*
X162837075Y-112155669D02*
X162694218Y-112203288D01*
X162694218Y-112203288D02*
X162598980Y-112203288D01*
X162598980Y-112203288D02*
X162456123Y-112155669D01*
X162456123Y-112155669D02*
X162360885Y-112060430D01*
X162360885Y-112060430D02*
X162313266Y-111965192D01*
X162313266Y-111965192D02*
X162265647Y-111774716D01*
X162265647Y-111774716D02*
X162265647Y-111631859D01*
X162265647Y-111631859D02*
X162313266Y-111441383D01*
X162313266Y-111441383D02*
X162360885Y-111346145D01*
X162360885Y-111346145D02*
X162456123Y-111250907D01*
X162456123Y-111250907D02*
X162598980Y-111203288D01*
X162598980Y-111203288D02*
X162694218Y-111203288D01*
X162694218Y-111203288D02*
X162837075Y-111250907D01*
X162837075Y-111250907D02*
X162884694Y-111298526D01*
X163789456Y-111203288D02*
X163313266Y-111203288D01*
X163313266Y-111203288D02*
X163265647Y-111679478D01*
X163265647Y-111679478D02*
X163313266Y-111631859D01*
X163313266Y-111631859D02*
X163408504Y-111584240D01*
X163408504Y-111584240D02*
X163646599Y-111584240D01*
X163646599Y-111584240D02*
X163741837Y-111631859D01*
X163741837Y-111631859D02*
X163789456Y-111679478D01*
X163789456Y-111679478D02*
X163837075Y-111774716D01*
X163837075Y-111774716D02*
X163837075Y-112012811D01*
X163837075Y-112012811D02*
X163789456Y-112108049D01*
X163789456Y-112108049D02*
X163741837Y-112155669D01*
X163741837Y-112155669D02*
X163646599Y-112203288D01*
X163646599Y-112203288D02*
X163408504Y-112203288D01*
X163408504Y-112203288D02*
X163313266Y-112155669D01*
X163313266Y-112155669D02*
X163265647Y-112108049D01*
X196793694Y-106869288D02*
X196460361Y-106393097D01*
X196222266Y-106869288D02*
X196222266Y-105869288D01*
X196222266Y-105869288D02*
X196603218Y-105869288D01*
X196603218Y-105869288D02*
X196698456Y-105916907D01*
X196698456Y-105916907D02*
X196746075Y-105964526D01*
X196746075Y-105964526D02*
X196793694Y-106059764D01*
X196793694Y-106059764D02*
X196793694Y-106202621D01*
X196793694Y-106202621D02*
X196746075Y-106297859D01*
X196746075Y-106297859D02*
X196698456Y-106345478D01*
X196698456Y-106345478D02*
X196603218Y-106393097D01*
X196603218Y-106393097D02*
X196222266Y-106393097D01*
X197127028Y-105869288D02*
X197793694Y-105869288D01*
X197793694Y-105869288D02*
X197365123Y-106869288D01*
X122558819Y-64714285D02*
X121558819Y-64714285D01*
X121558819Y-64714285D02*
X121558819Y-64476190D01*
X121558819Y-64476190D02*
X121606438Y-64333333D01*
X121606438Y-64333333D02*
X121701676Y-64238095D01*
X121701676Y-64238095D02*
X121796914Y-64190476D01*
X121796914Y-64190476D02*
X121987390Y-64142857D01*
X121987390Y-64142857D02*
X122130247Y-64142857D01*
X122130247Y-64142857D02*
X122320723Y-64190476D01*
X122320723Y-64190476D02*
X122415961Y-64238095D01*
X122415961Y-64238095D02*
X122511200Y-64333333D01*
X122511200Y-64333333D02*
X122558819Y-64476190D01*
X122558819Y-64476190D02*
X122558819Y-64714285D01*
X121654057Y-63761904D02*
X121606438Y-63714285D01*
X121606438Y-63714285D02*
X121558819Y-63619047D01*
X121558819Y-63619047D02*
X121558819Y-63380952D01*
X121558819Y-63380952D02*
X121606438Y-63285714D01*
X121606438Y-63285714D02*
X121654057Y-63238095D01*
X121654057Y-63238095D02*
X121749295Y-63190476D01*
X121749295Y-63190476D02*
X121844533Y-63190476D01*
X121844533Y-63190476D02*
X121987390Y-63238095D01*
X121987390Y-63238095D02*
X122558819Y-63809523D01*
X122558819Y-63809523D02*
X122558819Y-63190476D01*
X121892152Y-62333333D02*
X122558819Y-62333333D01*
X121511200Y-62571428D02*
X122225485Y-62809523D01*
X122225485Y-62809523D02*
X122225485Y-62190476D01*
X122188819Y-58681904D02*
X121188819Y-58681904D01*
X122188819Y-58110476D02*
X121617390Y-58539047D01*
X121188819Y-58110476D02*
X121760247Y-58681904D01*
X180434742Y-91756288D02*
X180434742Y-90756288D01*
X180434742Y-90756288D02*
X180672837Y-90756288D01*
X180672837Y-90756288D02*
X180815694Y-90803907D01*
X180815694Y-90803907D02*
X180910932Y-90899145D01*
X180910932Y-90899145D02*
X180958551Y-90994383D01*
X180958551Y-90994383D02*
X181006170Y-91184859D01*
X181006170Y-91184859D02*
X181006170Y-91327716D01*
X181006170Y-91327716D02*
X180958551Y-91518192D01*
X180958551Y-91518192D02*
X180910932Y-91613430D01*
X180910932Y-91613430D02*
X180815694Y-91708669D01*
X180815694Y-91708669D02*
X180672837Y-91756288D01*
X180672837Y-91756288D02*
X180434742Y-91756288D01*
X181815694Y-91708669D02*
X181720456Y-91756288D01*
X181720456Y-91756288D02*
X181529980Y-91756288D01*
X181529980Y-91756288D02*
X181434742Y-91708669D01*
X181434742Y-91708669D02*
X181387123Y-91613430D01*
X181387123Y-91613430D02*
X181387123Y-91232478D01*
X181387123Y-91232478D02*
X181434742Y-91137240D01*
X181434742Y-91137240D02*
X181529980Y-91089621D01*
X181529980Y-91089621D02*
X181720456Y-91089621D01*
X181720456Y-91089621D02*
X181815694Y-91137240D01*
X181815694Y-91137240D02*
X181863313Y-91232478D01*
X181863313Y-91232478D02*
X181863313Y-91327716D01*
X181863313Y-91327716D02*
X181387123Y-91422954D01*
X182291885Y-91756288D02*
X182291885Y-90756288D01*
X182291885Y-91137240D02*
X182387123Y-91089621D01*
X182387123Y-91089621D02*
X182577599Y-91089621D01*
X182577599Y-91089621D02*
X182672837Y-91137240D01*
X182672837Y-91137240D02*
X182720456Y-91184859D01*
X182720456Y-91184859D02*
X182768075Y-91280097D01*
X182768075Y-91280097D02*
X182768075Y-91565811D01*
X182768075Y-91565811D02*
X182720456Y-91661049D01*
X182720456Y-91661049D02*
X182672837Y-91708669D01*
X182672837Y-91708669D02*
X182577599Y-91756288D01*
X182577599Y-91756288D02*
X182387123Y-91756288D01*
X182387123Y-91756288D02*
X182291885Y-91708669D01*
X183625218Y-91089621D02*
X183625218Y-91756288D01*
X183196647Y-91089621D02*
X183196647Y-91613430D01*
X183196647Y-91613430D02*
X183244266Y-91708669D01*
X183244266Y-91708669D02*
X183339504Y-91756288D01*
X183339504Y-91756288D02*
X183482361Y-91756288D01*
X183482361Y-91756288D02*
X183577599Y-91708669D01*
X183577599Y-91708669D02*
X183625218Y-91661049D01*
X184529980Y-91089621D02*
X184529980Y-91899145D01*
X184529980Y-91899145D02*
X184482361Y-91994383D01*
X184482361Y-91994383D02*
X184434742Y-92042002D01*
X184434742Y-92042002D02*
X184339504Y-92089621D01*
X184339504Y-92089621D02*
X184196647Y-92089621D01*
X184196647Y-92089621D02*
X184101409Y-92042002D01*
X184529980Y-91708669D02*
X184434742Y-91756288D01*
X184434742Y-91756288D02*
X184244266Y-91756288D01*
X184244266Y-91756288D02*
X184149028Y-91708669D01*
X184149028Y-91708669D02*
X184101409Y-91661049D01*
X184101409Y-91661049D02*
X184053790Y-91565811D01*
X184053790Y-91565811D02*
X184053790Y-91280097D01*
X184053790Y-91280097D02*
X184101409Y-91184859D01*
X184101409Y-91184859D02*
X184149028Y-91137240D01*
X184149028Y-91137240D02*
X184244266Y-91089621D01*
X184244266Y-91089621D02*
X184434742Y-91089621D01*
X184434742Y-91089621D02*
X184529980Y-91137240D01*
X146423286Y-127327819D02*
X146423286Y-126327819D01*
X146423286Y-126327819D02*
X146804238Y-126327819D01*
X146804238Y-126327819D02*
X146899476Y-126375438D01*
X146899476Y-126375438D02*
X146947095Y-126423057D01*
X146947095Y-126423057D02*
X146994714Y-126518295D01*
X146994714Y-126518295D02*
X146994714Y-126661152D01*
X146994714Y-126661152D02*
X146947095Y-126756390D01*
X146947095Y-126756390D02*
X146899476Y-126804009D01*
X146899476Y-126804009D02*
X146804238Y-126851628D01*
X146804238Y-126851628D02*
X146423286Y-126851628D01*
X147423286Y-127327819D02*
X147423286Y-126661152D01*
X147423286Y-126327819D02*
X147375667Y-126375438D01*
X147375667Y-126375438D02*
X147423286Y-126423057D01*
X147423286Y-126423057D02*
X147470905Y-126375438D01*
X147470905Y-126375438D02*
X147423286Y-126327819D01*
X147423286Y-126327819D02*
X147423286Y-126423057D01*
X148280428Y-127280200D02*
X148185190Y-127327819D01*
X148185190Y-127327819D02*
X147994714Y-127327819D01*
X147994714Y-127327819D02*
X147899476Y-127280200D01*
X147899476Y-127280200D02*
X147851857Y-127184961D01*
X147851857Y-127184961D02*
X147851857Y-126804009D01*
X147851857Y-126804009D02*
X147899476Y-126708771D01*
X147899476Y-126708771D02*
X147994714Y-126661152D01*
X147994714Y-126661152D02*
X148185190Y-126661152D01*
X148185190Y-126661152D02*
X148280428Y-126708771D01*
X148280428Y-126708771D02*
X148328047Y-126804009D01*
X148328047Y-126804009D02*
X148328047Y-126899247D01*
X148328047Y-126899247D02*
X147851857Y-126994485D01*
X148661381Y-126661152D02*
X149185190Y-126661152D01*
X149185190Y-126661152D02*
X148661381Y-127327819D01*
X148661381Y-127327819D02*
X149185190Y-127327819D01*
X149709000Y-127327819D02*
X149613762Y-127280200D01*
X149613762Y-127280200D02*
X149566143Y-127232580D01*
X149566143Y-127232580D02*
X149518524Y-127137342D01*
X149518524Y-127137342D02*
X149518524Y-126851628D01*
X149518524Y-126851628D02*
X149566143Y-126756390D01*
X149566143Y-126756390D02*
X149613762Y-126708771D01*
X149613762Y-126708771D02*
X149709000Y-126661152D01*
X149709000Y-126661152D02*
X149851857Y-126661152D01*
X149851857Y-126661152D02*
X149947095Y-126708771D01*
X149947095Y-126708771D02*
X149994714Y-126756390D01*
X149994714Y-126756390D02*
X150042333Y-126851628D01*
X150042333Y-126851628D02*
X150042333Y-127137342D01*
X150042333Y-127137342D02*
X149994714Y-127232580D01*
X149994714Y-127232580D02*
X149947095Y-127280200D01*
X149947095Y-127280200D02*
X149851857Y-127327819D01*
X149851857Y-127327819D02*
X149709000Y-127327819D01*
X100076095Y-40214819D02*
X100076095Y-39214819D01*
X100076095Y-39691009D02*
X100647523Y-39691009D01*
X100647523Y-40214819D02*
X100647523Y-39214819D01*
X101647523Y-40214819D02*
X101076095Y-40214819D01*
X101361809Y-40214819D02*
X101361809Y-39214819D01*
X101361809Y-39214819D02*
X101266571Y-39357676D01*
X101266571Y-39357676D02*
X101171333Y-39452914D01*
X101171333Y-39452914D02*
X101076095Y-39500533D01*
X180188503Y-87724049D02*
X180140884Y-87771669D01*
X180140884Y-87771669D02*
X179998027Y-87819288D01*
X179998027Y-87819288D02*
X179902789Y-87819288D01*
X179902789Y-87819288D02*
X179759932Y-87771669D01*
X179759932Y-87771669D02*
X179664694Y-87676430D01*
X179664694Y-87676430D02*
X179617075Y-87581192D01*
X179617075Y-87581192D02*
X179569456Y-87390716D01*
X179569456Y-87390716D02*
X179569456Y-87247859D01*
X179569456Y-87247859D02*
X179617075Y-87057383D01*
X179617075Y-87057383D02*
X179664694Y-86962145D01*
X179664694Y-86962145D02*
X179759932Y-86866907D01*
X179759932Y-86866907D02*
X179902789Y-86819288D01*
X179902789Y-86819288D02*
X179998027Y-86819288D01*
X179998027Y-86819288D02*
X180140884Y-86866907D01*
X180140884Y-86866907D02*
X180188503Y-86914526D01*
X181140884Y-87819288D02*
X180569456Y-87819288D01*
X180855170Y-87819288D02*
X180855170Y-86819288D01*
X180855170Y-86819288D02*
X180759932Y-86962145D01*
X180759932Y-86962145D02*
X180664694Y-87057383D01*
X180664694Y-87057383D02*
X180569456Y-87105002D01*
X181521837Y-86914526D02*
X181569456Y-86866907D01*
X181569456Y-86866907D02*
X181664694Y-86819288D01*
X181664694Y-86819288D02*
X181902789Y-86819288D01*
X181902789Y-86819288D02*
X181998027Y-86866907D01*
X181998027Y-86866907D02*
X182045646Y-86914526D01*
X182045646Y-86914526D02*
X182093265Y-87009764D01*
X182093265Y-87009764D02*
X182093265Y-87105002D01*
X182093265Y-87105002D02*
X182045646Y-87247859D01*
X182045646Y-87247859D02*
X181474218Y-87819288D01*
X181474218Y-87819288D02*
X182093265Y-87819288D01*
X201676095Y-138494819D02*
X201676095Y-137494819D01*
X201676095Y-137971009D02*
X202247523Y-137971009D01*
X202247523Y-138494819D02*
X202247523Y-137494819D01*
X203152285Y-137828152D02*
X203152285Y-138494819D01*
X202914190Y-137447200D02*
X202676095Y-138161485D01*
X202676095Y-138161485D02*
X203295142Y-138161485D01*
D12*
%TO.C,D4*%
X199829361Y-113415469D02*
X195819361Y-113415469D01*
X199829361Y-115415469D02*
X195819361Y-115415469D01*
X199829361Y-115415469D02*
X199829361Y-113415469D01*
%TO.C,D12*%
X176330000Y-57224000D02*
X176330000Y-62664000D01*
X176330000Y-62664000D02*
X179270000Y-62664000D01*
X177800000Y-56204000D02*
X177800000Y-57224000D01*
X177800000Y-63684000D02*
X177800000Y-62664000D01*
X179270000Y-57224000D02*
X176330000Y-57224000D01*
X179270000Y-58004000D02*
X176330000Y-58004000D01*
X179270000Y-58124000D02*
X176330000Y-58124000D01*
X179270000Y-58244000D02*
X176330000Y-58244000D01*
X179270000Y-62664000D02*
X179270000Y-57224000D01*
%TO.C,D13*%
X107004000Y-127508000D02*
X108024000Y-127508000D01*
X108024000Y-126038000D02*
X108024000Y-128978000D01*
X108024000Y-128978000D02*
X113464000Y-128978000D01*
X108804000Y-126038000D02*
X108804000Y-128978000D01*
X108924000Y-126038000D02*
X108924000Y-128978000D01*
X109044000Y-126038000D02*
X109044000Y-128978000D01*
X113464000Y-126038000D02*
X108024000Y-126038000D01*
X113464000Y-128978000D02*
X113464000Y-126038000D01*
X114484000Y-127508000D02*
X113464000Y-127508000D01*
%TO.C,U5*%
X110921361Y-74235469D02*
X110921361Y-79476469D01*
X110921361Y-74235469D02*
X131361361Y-74235469D01*
X110921361Y-76075469D02*
X131361361Y-76075469D01*
X110921361Y-79476469D02*
X112597361Y-79476469D01*
X112251361Y-79476469D02*
X112251361Y-82885469D01*
X114446361Y-79476469D02*
X115137361Y-79476469D01*
X114791361Y-79476469D02*
X114791361Y-82870469D01*
X116986361Y-79476469D02*
X117677361Y-79476469D01*
X117331361Y-79476469D02*
X117331361Y-82870469D01*
X119292361Y-74235469D02*
X119292361Y-76075469D01*
X119526361Y-79476469D02*
X120217361Y-79476469D01*
X119871361Y-79476469D02*
X119871361Y-82870469D01*
X122066361Y-79476469D02*
X122757361Y-79476469D01*
X122411361Y-79476469D02*
X122411361Y-82870469D01*
X122991361Y-74235469D02*
X122991361Y-76075469D01*
X124606361Y-79476469D02*
X125297361Y-79476469D01*
X124951361Y-79476469D02*
X124951361Y-82870469D01*
X127146361Y-79476469D02*
X127837361Y-79476469D01*
X127491361Y-79476469D02*
X127491361Y-82870469D01*
X129686361Y-79476469D02*
X131361361Y-79476469D01*
X130031361Y-79476469D02*
X130031361Y-82870469D01*
X131361361Y-74235469D02*
X131361361Y-79476469D01*
%TO.C,D11*%
X176330000Y-42492000D02*
X176330000Y-47932000D01*
X176330000Y-47932000D02*
X179270000Y-47932000D01*
X177800000Y-41472000D02*
X177800000Y-42492000D01*
X177800000Y-48952000D02*
X177800000Y-47932000D01*
X179270000Y-42492000D02*
X176330000Y-42492000D01*
X179270000Y-43272000D02*
X176330000Y-43272000D01*
X179270000Y-43392000D02*
X176330000Y-43392000D01*
X179270000Y-43512000D02*
X176330000Y-43512000D01*
X179270000Y-47932000D02*
X179270000Y-42492000D01*
%TO.C,D15*%
X107004000Y-115316000D02*
X108024000Y-115316000D01*
X108024000Y-113846000D02*
X108024000Y-116786000D01*
X108024000Y-116786000D02*
X113464000Y-116786000D01*
X108804000Y-113846000D02*
X108804000Y-116786000D01*
X108924000Y-113846000D02*
X108924000Y-116786000D01*
X109044000Y-113846000D02*
X109044000Y-116786000D01*
X113464000Y-113846000D02*
X108024000Y-113846000D01*
X113464000Y-116786000D02*
X113464000Y-113846000D01*
X114484000Y-115316000D02*
X113464000Y-115316000D01*
%TO.C,D8*%
X158296000Y-42238000D02*
X158296000Y-47678000D01*
X158296000Y-47678000D02*
X161236000Y-47678000D01*
X159766000Y-41218000D02*
X159766000Y-42238000D01*
X159766000Y-48698000D02*
X159766000Y-47678000D01*
X161236000Y-42238000D02*
X158296000Y-42238000D01*
X161236000Y-43018000D02*
X158296000Y-43018000D01*
X161236000Y-43138000D02*
X158296000Y-43138000D01*
X161236000Y-43258000D02*
X158296000Y-43258000D01*
X161236000Y-47678000D02*
X161236000Y-42238000D01*
%TO.C,U3*%
X151942361Y-72457469D02*
X151942361Y-77698469D01*
X151942361Y-72457469D02*
X172382361Y-72457469D01*
X151942361Y-74297469D02*
X172382361Y-74297469D01*
X151942361Y-77698469D02*
X153618361Y-77698469D01*
X153272361Y-77698469D02*
X153272361Y-81107469D01*
X155467361Y-77698469D02*
X156158361Y-77698469D01*
X155812361Y-77698469D02*
X155812361Y-81092469D01*
X158007361Y-77698469D02*
X158698361Y-77698469D01*
X158352361Y-77698469D02*
X158352361Y-81092469D01*
X160313361Y-72457469D02*
X160313361Y-74297469D01*
X160547361Y-77698469D02*
X161238361Y-77698469D01*
X160892361Y-77698469D02*
X160892361Y-81092469D01*
X163087361Y-77698469D02*
X163778361Y-77698469D01*
X163432361Y-77698469D02*
X163432361Y-81092469D01*
X164012361Y-72457469D02*
X164012361Y-74297469D01*
X165627361Y-77698469D02*
X166318361Y-77698469D01*
X165972361Y-77698469D02*
X165972361Y-81092469D01*
X168167361Y-77698469D02*
X168858361Y-77698469D01*
X168512361Y-77698469D02*
X168512361Y-81092469D01*
X170707361Y-77698469D02*
X172382361Y-77698469D01*
X171052361Y-77698469D02*
X171052361Y-81092469D01*
X172382361Y-72457469D02*
X172382361Y-77698469D01*
%TO.C,TP2*%
X182306000Y-138938000D02*
G75*
G02*
X180406000Y-138938000I-950000J0D01*
G01*
X180406000Y-138938000D02*
G75*
G02*
X182306000Y-138938000I950000J0D01*
G01*
%TO.C,R1*%
X163840361Y-91963405D02*
X163840361Y-92417533D01*
X165310361Y-91963405D02*
X165310361Y-92417533D01*
%TO.C,D1*%
X166243361Y-88692469D02*
X166243361Y-94712469D01*
X166243361Y-94712469D02*
X171543361Y-94712469D01*
X166823361Y-94112469D02*
X166823361Y-94712469D01*
X167623361Y-89692469D02*
X167623361Y-88692469D01*
X167873361Y-88692469D02*
X167873361Y-89692469D01*
X167873361Y-90222469D02*
X167623361Y-89692469D01*
X168423361Y-94112469D02*
X166823361Y-94112469D01*
X168423361Y-94712469D02*
X168423361Y-94112469D01*
X169363361Y-94112469D02*
X169363361Y-94712469D01*
X169913361Y-88692469D02*
X169913361Y-89692469D01*
X169913361Y-90222469D02*
X167873361Y-90222469D01*
X170163361Y-88692469D02*
X170163361Y-89692469D01*
X170163361Y-89692469D02*
X167623361Y-89692469D01*
X170163361Y-89692469D02*
X169913361Y-90222469D01*
X170963361Y-94112469D02*
X169363361Y-94112469D01*
X170963361Y-94712469D02*
X170963361Y-94112469D01*
X171543361Y-88692469D02*
X166243361Y-88692469D01*
X171543361Y-94712469D02*
X171543361Y-88692469D01*
X171833361Y-93682469D02*
X171833361Y-89682469D01*
%TO.C,R8*%
X181620361Y-117125405D02*
X181620361Y-117579533D01*
X183090361Y-117125405D02*
X183090361Y-117579533D01*
%TO.C,D19*%
X103632000Y-92018000D02*
X103632000Y-93038000D01*
X105102000Y-93038000D02*
X102162000Y-93038000D01*
X102162000Y-93038000D02*
X102162000Y-98478000D01*
X105102000Y-93818000D02*
X102162000Y-93818000D01*
X105102000Y-93938000D02*
X102162000Y-93938000D01*
X105102000Y-94058000D02*
X102162000Y-94058000D01*
X105102000Y-98478000D02*
X105102000Y-93038000D01*
X102162000Y-98478000D02*
X105102000Y-98478000D01*
X103632000Y-99498000D02*
X103632000Y-98478000D01*
%TO.C,D28*%
X137976000Y-58240000D02*
X137976000Y-63680000D01*
X137976000Y-63680000D02*
X140916000Y-63680000D01*
X139446000Y-57220000D02*
X139446000Y-58240000D01*
X139446000Y-64700000D02*
X139446000Y-63680000D01*
X140916000Y-58240000D02*
X137976000Y-58240000D01*
X140916000Y-59020000D02*
X137976000Y-59020000D01*
X140916000Y-59140000D02*
X137976000Y-59140000D01*
X140916000Y-59260000D02*
X137976000Y-59260000D01*
X140916000Y-63680000D02*
X140916000Y-58240000D01*
%TO.C,C16*%
X130510609Y-91709469D02*
X131033113Y-91709469D01*
X130510609Y-93179469D02*
X131033113Y-93179469D01*
%TO.C,D9*%
X164138000Y-42238000D02*
X164138000Y-47678000D01*
X164138000Y-47678000D02*
X167078000Y-47678000D01*
X165608000Y-41218000D02*
X165608000Y-42238000D01*
X165608000Y-48698000D02*
X165608000Y-47678000D01*
X167078000Y-42238000D02*
X164138000Y-42238000D01*
X167078000Y-43018000D02*
X164138000Y-43018000D01*
X167078000Y-43138000D02*
X164138000Y-43138000D01*
X167078000Y-43258000D02*
X164138000Y-43258000D01*
X167078000Y-47678000D02*
X167078000Y-42238000D01*
%TO.C,TP3*%
X162875000Y-130683000D02*
G75*
G02*
X160975000Y-130683000I-950000J0D01*
G01*
X160975000Y-130683000D02*
G75*
G02*
X162875000Y-130683000I950000J0D01*
G01*
%TO.C,C13*%
X148312109Y-81803469D02*
X148834613Y-81803469D01*
X148312109Y-83273469D02*
X148834613Y-83273469D01*
%TO.C,R11*%
X185139000Y-134593064D02*
X185139000Y-134138936D01*
X183669000Y-134593064D02*
X183669000Y-134138936D01*
%TO.C,R3*%
X138457000Y-130566936D02*
X138457000Y-131021064D01*
X139927000Y-130566936D02*
X139927000Y-131021064D01*
%TO.C,D26*%
X126292000Y-58748000D02*
X126292000Y-64188000D01*
X126292000Y-64188000D02*
X129232000Y-64188000D01*
X127762000Y-57728000D02*
X127762000Y-58748000D01*
X127762000Y-65208000D02*
X127762000Y-64188000D01*
X129232000Y-58748000D02*
X126292000Y-58748000D01*
X129232000Y-59528000D02*
X126292000Y-59528000D01*
X129232000Y-59648000D02*
X126292000Y-59648000D01*
X129232000Y-59768000D02*
X126292000Y-59768000D01*
X129232000Y-64188000D02*
X129232000Y-58748000D01*
%TO.C,C14*%
X175016361Y-80223717D02*
X175016361Y-80746221D01*
X176486361Y-80223717D02*
X176486361Y-80746221D01*
%TO.C,TP1*%
X193228000Y-132588000D02*
G75*
G02*
X191328000Y-132588000I-950000J0D01*
G01*
X191328000Y-132588000D02*
G75*
G02*
X193228000Y-132588000I950000J0D01*
G01*
%TO.C,C7*%
X172095361Y-114048717D02*
X172095361Y-114571221D01*
X173565361Y-114048717D02*
X173565361Y-114571221D01*
%TO.C,U2*%
X174896000Y-126432000D02*
X174896000Y-136712000D01*
X174896000Y-136712000D02*
X180196000Y-136712000D01*
X176546000Y-126432000D02*
X174896000Y-126432000D01*
X180196000Y-126432000D02*
X178546000Y-126432000D01*
X180196000Y-136712000D02*
X180196000Y-126432000D01*
X178546000Y-126432000D02*
G75*
G02*
X176546000Y-126432000I-1000000J0D01*
G01*
%TO.C,D5*%
X145596000Y-58240000D02*
X145596000Y-63680000D01*
X145596000Y-63680000D02*
X148536000Y-63680000D01*
X147066000Y-57220000D02*
X147066000Y-58240000D01*
X147066000Y-64700000D02*
X147066000Y-63680000D01*
X148536000Y-58240000D02*
X145596000Y-58240000D01*
X148536000Y-59020000D02*
X145596000Y-59020000D01*
X148536000Y-59140000D02*
X145596000Y-59140000D01*
X148536000Y-59260000D02*
X145596000Y-59260000D01*
X148536000Y-63680000D02*
X148536000Y-58240000D01*
%TO.C,U1*%
X184673361Y-50240469D02*
X189314361Y-50240469D01*
X184673361Y-53509469D02*
X186183361Y-53509469D01*
X184673361Y-57210469D02*
X186183361Y-57210469D01*
X184673361Y-60480469D02*
X184673361Y-50240469D01*
X184673361Y-60480469D02*
X189314361Y-60480469D01*
X186183361Y-60480469D02*
X186183361Y-50240469D01*
X189314361Y-60480469D02*
X189314361Y-50240469D01*
%TO.C,U4*%
X124383361Y-94428469D02*
X124383361Y-99669469D01*
X124383361Y-94428469D02*
X144823361Y-94428469D01*
X124383361Y-96268469D02*
X144823361Y-96268469D01*
X124383361Y-99669469D02*
X126059361Y-99669469D01*
X125713361Y-99669469D02*
X125713361Y-103078469D01*
X127908361Y-99669469D02*
X128599361Y-99669469D01*
X128253361Y-99669469D02*
X128253361Y-103063469D01*
X130448361Y-99669469D02*
X131139361Y-99669469D01*
X130793361Y-99669469D02*
X130793361Y-103063469D01*
X132754361Y-94428469D02*
X132754361Y-96268469D01*
X132988361Y-99669469D02*
X133679361Y-99669469D01*
X133333361Y-99669469D02*
X133333361Y-103063469D01*
X135528361Y-99669469D02*
X136219361Y-99669469D01*
X135873361Y-99669469D02*
X135873361Y-103063469D01*
X136453361Y-94428469D02*
X136453361Y-96268469D01*
X138068361Y-99669469D02*
X138759361Y-99669469D01*
X138413361Y-99669469D02*
X138413361Y-103063469D01*
X140608361Y-99669469D02*
X141299361Y-99669469D01*
X140953361Y-99669469D02*
X140953361Y-103063469D01*
X143148361Y-99669469D02*
X144823361Y-99669469D01*
X143493361Y-99669469D02*
X143493361Y-103063469D01*
X144823361Y-94428469D02*
X144823361Y-99669469D01*
%TO.C,J10*%
X130918000Y-52356000D02*
X130918000Y-56356000D01*
X131208000Y-51326000D02*
X131208000Y-57346000D01*
X131208000Y-57346000D02*
X136508000Y-57346000D01*
X131788000Y-51326000D02*
X131788000Y-51926000D01*
X131788000Y-51926000D02*
X133388000Y-51926000D01*
X132588000Y-56346000D02*
X132838000Y-55816000D01*
X132588000Y-56346000D02*
X135128000Y-56346000D01*
X132588000Y-57346000D02*
X132588000Y-56346000D01*
X132838000Y-55816000D02*
X134878000Y-55816000D01*
X132838000Y-57346000D02*
X132838000Y-56346000D01*
X133388000Y-51926000D02*
X133388000Y-51326000D01*
X134328000Y-51326000D02*
X134328000Y-51926000D01*
X134328000Y-51926000D02*
X135928000Y-51926000D01*
X134878000Y-55816000D02*
X135128000Y-56346000D01*
X134878000Y-57346000D02*
X134878000Y-56346000D01*
X135128000Y-56346000D02*
X135128000Y-57346000D01*
X135928000Y-51926000D02*
X135928000Y-51326000D01*
X136508000Y-51326000D02*
X131208000Y-51326000D01*
X136508000Y-57346000D02*
X136508000Y-51326000D01*
%TO.C,D23*%
X118205000Y-42746000D02*
X118205000Y-48186000D01*
X118205000Y-48186000D02*
X121145000Y-48186000D01*
X119675000Y-41726000D02*
X119675000Y-42746000D01*
X119675000Y-49206000D02*
X119675000Y-48186000D01*
X121145000Y-42746000D02*
X118205000Y-42746000D01*
X121145000Y-43526000D02*
X118205000Y-43526000D01*
X121145000Y-43646000D02*
X118205000Y-43646000D01*
X121145000Y-43766000D02*
X118205000Y-43766000D01*
X121145000Y-48186000D02*
X121145000Y-42746000D01*
%TO.C,J5*%
X150680000Y-49420000D02*
X150680000Y-54720000D01*
X150680000Y-50800000D02*
X151680000Y-50800000D01*
X150680000Y-51050000D02*
X151680000Y-51050000D01*
X150680000Y-53090000D02*
X151680000Y-53090000D01*
X150680000Y-54720000D02*
X156700000Y-54720000D01*
X151680000Y-50800000D02*
X151680000Y-53340000D01*
X151680000Y-50800000D02*
X152210000Y-51050000D01*
X151680000Y-53340000D02*
X150680000Y-53340000D01*
X152210000Y-51050000D02*
X152210000Y-53090000D01*
X152210000Y-53090000D02*
X151680000Y-53340000D01*
X155670000Y-49130000D02*
X151670000Y-49130000D01*
X156100000Y-50000000D02*
X156100000Y-51600000D01*
X156100000Y-51600000D02*
X156700000Y-51600000D01*
X156100000Y-52540000D02*
X156100000Y-54140000D01*
X156100000Y-54140000D02*
X156700000Y-54140000D01*
X156700000Y-49420000D02*
X150680000Y-49420000D01*
X156700000Y-50000000D02*
X156100000Y-50000000D01*
X156700000Y-52540000D02*
X156100000Y-52540000D01*
X156700000Y-54720000D02*
X156700000Y-49420000D01*
%TO.C,C10*%
X156179113Y-114061469D02*
X155656609Y-114061469D01*
X156179113Y-115531469D02*
X155656609Y-115531469D01*
%TO.C,C17*%
X107215000Y-86098748D02*
X107215000Y-86621252D01*
X108685000Y-86098748D02*
X108685000Y-86621252D01*
%TO.C,U7*%
X192922361Y-64464469D02*
X192922361Y-74704469D01*
X196053361Y-64464469D02*
X196053361Y-74704469D01*
X197563361Y-64464469D02*
X192922361Y-64464469D01*
X197563361Y-64464469D02*
X197563361Y-74704469D01*
X197563361Y-67734469D02*
X196053361Y-67734469D01*
X197563361Y-71435469D02*
X196053361Y-71435469D01*
X197563361Y-74704469D02*
X192922361Y-74704469D01*
%TO.C,D2*%
X171069361Y-95804469D02*
X171069361Y-101824469D01*
X171069361Y-101824469D02*
X176369361Y-101824469D01*
X171649361Y-101224469D02*
X171649361Y-101824469D01*
X172449361Y-96804469D02*
X172449361Y-95804469D01*
X172699361Y-95804469D02*
X172699361Y-96804469D01*
X172699361Y-97334469D02*
X172449361Y-96804469D01*
X173249361Y-101224469D02*
X171649361Y-101224469D01*
X173249361Y-101824469D02*
X173249361Y-101224469D01*
X174189361Y-101224469D02*
X174189361Y-101824469D01*
X174739361Y-95804469D02*
X174739361Y-96804469D01*
X174739361Y-97334469D02*
X172699361Y-97334469D01*
X174989361Y-95804469D02*
X174989361Y-96804469D01*
X174989361Y-96804469D02*
X172449361Y-96804469D01*
X174989361Y-96804469D02*
X174739361Y-97334469D01*
X175789361Y-101224469D02*
X174189361Y-101224469D01*
X175789361Y-101824469D02*
X175789361Y-101224469D01*
X176369361Y-95804469D02*
X171069361Y-95804469D01*
X176369361Y-101824469D02*
X176369361Y-95804469D01*
X176659361Y-100794469D02*
X176659361Y-96794469D01*
%TO.C,D3*%
X155375000Y-128217000D02*
X155375000Y-133657000D01*
X155375000Y-133657000D02*
X158315000Y-133657000D01*
X156845000Y-127197000D02*
X156845000Y-128217000D01*
X156845000Y-134677000D02*
X156845000Y-133657000D01*
X158315000Y-128217000D02*
X155375000Y-128217000D01*
X158315000Y-128997000D02*
X155375000Y-128997000D01*
X158315000Y-129117000D02*
X155375000Y-129117000D01*
X158315000Y-129237000D02*
X155375000Y-129237000D01*
X158315000Y-133657000D02*
X158315000Y-128217000D01*
%TO.C,D18*%
X117672000Y-108700469D02*
X118692000Y-108700469D01*
X118692000Y-107230469D02*
X118692000Y-110170469D01*
X118692000Y-110170469D02*
X124132000Y-110170469D01*
X119472000Y-107230469D02*
X119472000Y-110170469D01*
X119592000Y-107230469D02*
X119592000Y-110170469D01*
X119712000Y-107230469D02*
X119712000Y-110170469D01*
X124132000Y-107230469D02*
X118692000Y-107230469D01*
X124132000Y-110170469D02*
X124132000Y-107230469D01*
X125152000Y-108700469D02*
X124132000Y-108700469D01*
%TO.C,D25*%
X126292000Y-42746000D02*
X126292000Y-48186000D01*
X126292000Y-48186000D02*
X129232000Y-48186000D01*
X127762000Y-41726000D02*
X127762000Y-42746000D01*
X127762000Y-49206000D02*
X127762000Y-48186000D01*
X129232000Y-42746000D02*
X126292000Y-42746000D01*
X129232000Y-43526000D02*
X126292000Y-43526000D01*
X129232000Y-43646000D02*
X126292000Y-43646000D01*
X129232000Y-43766000D02*
X126292000Y-43766000D01*
X129232000Y-48186000D02*
X129232000Y-42746000D01*
%TO.C,TP4*%
X188910000Y-42164000D02*
G75*
G02*
X187010000Y-42164000I-950000J0D01*
G01*
X187010000Y-42164000D02*
G75*
G02*
X188910000Y-42164000I950000J0D01*
G01*
%TO.C,C2*%
X187205252Y-46255000D02*
X186682748Y-46255000D01*
X187205252Y-47725000D02*
X186682748Y-47725000D01*
%TO.C,J7*%
X113302000Y-118254000D02*
X113302000Y-123554000D01*
X113302000Y-120434000D02*
X113902000Y-120434000D01*
X113302000Y-122974000D02*
X113902000Y-122974000D01*
X113302000Y-123554000D02*
X119322000Y-123554000D01*
X113902000Y-118834000D02*
X113302000Y-118834000D01*
X113902000Y-120434000D02*
X113902000Y-118834000D01*
X113902000Y-121374000D02*
X113302000Y-121374000D01*
X113902000Y-122974000D02*
X113902000Y-121374000D01*
X114332000Y-123844000D02*
X118332000Y-123844000D01*
X117792000Y-119884000D02*
X118322000Y-119634000D01*
X117792000Y-121924000D02*
X117792000Y-119884000D01*
X118322000Y-119634000D02*
X119322000Y-119634000D01*
X118322000Y-122174000D02*
X117792000Y-121924000D01*
X118322000Y-122174000D02*
X118322000Y-119634000D01*
X119322000Y-118254000D02*
X113302000Y-118254000D01*
X119322000Y-119884000D02*
X118322000Y-119884000D01*
X119322000Y-121924000D02*
X118322000Y-121924000D01*
X119322000Y-122174000D02*
X118322000Y-122174000D01*
X119322000Y-123554000D02*
X119322000Y-118254000D01*
%TO.C,D20*%
X114624000Y-91948000D02*
X115644000Y-91948000D01*
X115644000Y-90478000D02*
X115644000Y-93418000D01*
X115644000Y-93418000D02*
X121084000Y-93418000D01*
X116424000Y-90478000D02*
X116424000Y-93418000D01*
X116544000Y-90478000D02*
X116544000Y-93418000D01*
X116664000Y-90478000D02*
X116664000Y-93418000D01*
X121084000Y-90478000D02*
X115644000Y-90478000D01*
X121084000Y-93418000D02*
X121084000Y-90478000D01*
X122104000Y-91948000D02*
X121084000Y-91948000D01*
%TO.C,D14*%
X123768000Y-127254000D02*
X124788000Y-127254000D01*
X124788000Y-125784000D02*
X124788000Y-128724000D01*
X124788000Y-128724000D02*
X130228000Y-128724000D01*
X125568000Y-125784000D02*
X125568000Y-128724000D01*
X125688000Y-125784000D02*
X125688000Y-128724000D01*
X125808000Y-125784000D02*
X125808000Y-128724000D01*
X130228000Y-125784000D02*
X124788000Y-125784000D01*
X130228000Y-128724000D02*
X130228000Y-125784000D01*
X131248000Y-127254000D02*
X130228000Y-127254000D01*
%TO.C,R12*%
X188441000Y-134593064D02*
X188441000Y-134138936D01*
X186971000Y-134593064D02*
X186971000Y-134138936D01*
%TO.C,C6*%
X165381000Y-128241248D02*
X165381000Y-128763752D01*
X166851000Y-128241248D02*
X166851000Y-128763752D01*
%TO.C,D6*%
X157788000Y-57986000D02*
X157788000Y-63426000D01*
X157788000Y-63426000D02*
X160728000Y-63426000D01*
X159258000Y-56966000D02*
X159258000Y-57986000D01*
X159258000Y-64446000D02*
X159258000Y-63426000D01*
X160728000Y-57986000D02*
X157788000Y-57986000D01*
X160728000Y-58766000D02*
X157788000Y-58766000D01*
X160728000Y-58886000D02*
X157788000Y-58886000D01*
X160728000Y-59006000D02*
X157788000Y-59006000D01*
X160728000Y-63426000D02*
X160728000Y-57986000D01*
%TO.C,R5*%
X177729425Y-89169469D02*
X177275297Y-89169469D01*
X177729425Y-90639469D02*
X177275297Y-90639469D01*
%TO.C,C4*%
X195064748Y-76227000D02*
X195587252Y-76227000D01*
X195064748Y-77697000D02*
X195587252Y-77697000D01*
%TO.C,R9*%
X177810361Y-117125405D02*
X177810361Y-117579533D01*
X179280361Y-117125405D02*
X179280361Y-117579533D01*
%TO.C,D7*%
X145596000Y-42746000D02*
X145596000Y-48186000D01*
X145596000Y-48186000D02*
X148536000Y-48186000D01*
X147066000Y-41726000D02*
X147066000Y-42746000D01*
X147066000Y-49206000D02*
X147066000Y-48186000D01*
X148536000Y-42746000D02*
X145596000Y-42746000D01*
X148536000Y-43526000D02*
X145596000Y-43526000D01*
X148536000Y-43646000D02*
X145596000Y-43646000D01*
X148536000Y-43766000D02*
X145596000Y-43766000D01*
X148536000Y-48186000D02*
X148536000Y-42746000D01*
%TO.C,D27*%
X137976000Y-42746000D02*
X137976000Y-48186000D01*
X137976000Y-48186000D02*
X140916000Y-48186000D01*
X139446000Y-41726000D02*
X139446000Y-42746000D01*
X139446000Y-49206000D02*
X139446000Y-48186000D01*
X140916000Y-42746000D02*
X137976000Y-42746000D01*
X140916000Y-43526000D02*
X137976000Y-43526000D01*
X140916000Y-43646000D02*
X137976000Y-43646000D01*
X140916000Y-43766000D02*
X137976000Y-43766000D01*
X140916000Y-48186000D02*
X140916000Y-42746000D01*
%TO.C,J8*%
X113556000Y-97426000D02*
X113556000Y-102726000D01*
X113556000Y-99606000D02*
X114156000Y-99606000D01*
X113556000Y-102146000D02*
X114156000Y-102146000D01*
X113556000Y-102726000D02*
X119576000Y-102726000D01*
X114156000Y-98006000D02*
X113556000Y-98006000D01*
X114156000Y-99606000D02*
X114156000Y-98006000D01*
X114156000Y-100546000D02*
X113556000Y-100546000D01*
X114156000Y-102146000D02*
X114156000Y-100546000D01*
X114586000Y-103016000D02*
X118586000Y-103016000D01*
X118046000Y-99056000D02*
X118576000Y-98806000D01*
X118046000Y-101096000D02*
X118046000Y-99056000D01*
X118576000Y-98806000D02*
X119576000Y-98806000D01*
X118576000Y-101346000D02*
X118046000Y-101096000D01*
X118576000Y-101346000D02*
X118576000Y-98806000D01*
X119576000Y-97426000D02*
X113556000Y-97426000D01*
X119576000Y-99056000D02*
X118576000Y-99056000D01*
X119576000Y-101096000D02*
X118576000Y-101096000D01*
X119576000Y-101346000D02*
X118576000Y-101346000D01*
X119576000Y-102726000D02*
X119576000Y-97426000D01*
%TO.C,C18*%
X134610613Y-71643469D02*
X134088109Y-71643469D01*
X134610613Y-73113469D02*
X134088109Y-73113469D01*
%TO.C,D16*%
X123514000Y-115062000D02*
X124534000Y-115062000D01*
X124534000Y-113592000D02*
X124534000Y-116532000D01*
X124534000Y-116532000D02*
X129974000Y-116532000D01*
X125314000Y-113592000D02*
X125314000Y-116532000D01*
X125434000Y-113592000D02*
X125434000Y-116532000D01*
X125554000Y-113592000D02*
X125554000Y-116532000D01*
X129974000Y-113592000D02*
X124534000Y-113592000D01*
X129974000Y-116532000D02*
X129974000Y-113592000D01*
X130994000Y-115062000D02*
X129974000Y-115062000D01*
%TO.C,R6*%
X201940297Y-103901469D02*
X202394425Y-103901469D01*
X201940297Y-105371469D02*
X202394425Y-105371469D01*
%TO.C,D21*%
X105169000Y-42746000D02*
X105169000Y-48186000D01*
X105169000Y-48186000D02*
X108109000Y-48186000D01*
X106639000Y-41726000D02*
X106639000Y-42746000D01*
X106639000Y-49206000D02*
X106639000Y-48186000D01*
X108109000Y-42746000D02*
X105169000Y-42746000D01*
X108109000Y-43526000D02*
X105169000Y-43526000D01*
X108109000Y-43646000D02*
X105169000Y-43646000D01*
X108109000Y-43766000D02*
X105169000Y-43766000D01*
X108109000Y-48186000D02*
X108109000Y-42746000D01*
%TO.C,J2*%
X195688000Y-42704000D02*
X195688000Y-46704000D01*
X195978000Y-41674000D02*
X195978000Y-47694000D01*
X195978000Y-47694000D02*
X201278000Y-47694000D01*
X196558000Y-41674000D02*
X196558000Y-42274000D01*
X196558000Y-42274000D02*
X198158000Y-42274000D01*
X197358000Y-46694000D02*
X197608000Y-46164000D01*
X197358000Y-46694000D02*
X199898000Y-46694000D01*
X197358000Y-47694000D02*
X197358000Y-46694000D01*
X197608000Y-46164000D02*
X199648000Y-46164000D01*
X197608000Y-47694000D02*
X197608000Y-46694000D01*
X198158000Y-42274000D02*
X198158000Y-41674000D01*
X199098000Y-41674000D02*
X199098000Y-42274000D01*
X199098000Y-42274000D02*
X200698000Y-42274000D01*
X199648000Y-46164000D02*
X199898000Y-46694000D01*
X199648000Y-47694000D02*
X199648000Y-46694000D01*
X199898000Y-46694000D02*
X199898000Y-47694000D01*
X200698000Y-42274000D02*
X200698000Y-41674000D01*
X201278000Y-41674000D02*
X195978000Y-41674000D01*
X201278000Y-47694000D02*
X201278000Y-41674000D01*
%TO.C,SW1*%
X179802361Y-78108469D02*
X186102361Y-78108469D01*
X179802361Y-78358469D02*
X179802361Y-78108469D01*
X179802361Y-82858469D02*
X179802361Y-80258469D01*
X179802361Y-85008469D02*
X179802361Y-84758469D01*
X186102361Y-78108469D02*
X186102361Y-78358469D01*
X186102361Y-80258469D02*
X186102361Y-82858469D01*
X186102361Y-84758469D02*
X186102361Y-85008469D01*
X186102361Y-85008469D02*
X179802361Y-85008469D01*
%TO.C,C19*%
X171457252Y-120423000D02*
X170934748Y-120423000D01*
X171457252Y-121893000D02*
X170934748Y-121893000D01*
%TO.C,R4*%
X166031936Y-132488000D02*
X166486064Y-132488000D01*
X166031936Y-133958000D02*
X166486064Y-133958000D01*
%TO.C,C11*%
X156179113Y-110505469D02*
X155656609Y-110505469D01*
X156179113Y-111975469D02*
X155656609Y-111975469D01*
%TO.C,U6*%
X157092361Y-97300469D02*
X158042361Y-97300469D01*
X157092361Y-98250469D02*
X157092361Y-97300469D01*
X157092361Y-106570469D02*
X157092361Y-107520469D01*
X157092361Y-107520469D02*
X158042361Y-107520469D01*
X167312361Y-97300469D02*
X166362361Y-97300469D01*
X167312361Y-98250469D02*
X167312361Y-97300469D01*
X167312361Y-106570469D02*
X167312361Y-107520469D01*
X167312361Y-107520469D02*
X166362361Y-107520469D01*
X166832361Y-97025469D02*
X166362361Y-96685469D01*
X166832361Y-96345469D01*
X166832361Y-97025469D01*
G36*
X166832361Y-97025469D02*
G01*
X166362361Y-96685469D01*
X166832361Y-96345469D01*
X166832361Y-97025469D01*
G37*
%TO.C,J6*%
X169202000Y-49674000D02*
X169202000Y-54974000D01*
X169202000Y-51054000D02*
X170202000Y-51054000D01*
X169202000Y-51304000D02*
X170202000Y-51304000D01*
X169202000Y-53344000D02*
X170202000Y-53344000D01*
X169202000Y-54974000D02*
X175222000Y-54974000D01*
X170202000Y-51054000D02*
X170202000Y-53594000D01*
X170202000Y-51054000D02*
X170732000Y-51304000D01*
X170202000Y-53594000D02*
X169202000Y-53594000D01*
X170732000Y-51304000D02*
X170732000Y-53344000D01*
X170732000Y-53344000D02*
X170202000Y-53594000D01*
X174192000Y-49384000D02*
X170192000Y-49384000D01*
X174622000Y-50254000D02*
X174622000Y-51854000D01*
X174622000Y-51854000D02*
X175222000Y-51854000D01*
X174622000Y-52794000D02*
X174622000Y-54394000D01*
X174622000Y-54394000D02*
X175222000Y-54394000D01*
X175222000Y-49674000D02*
X169202000Y-49674000D01*
X175222000Y-50254000D02*
X174622000Y-50254000D01*
X175222000Y-52794000D02*
X174622000Y-52794000D01*
X175222000Y-54974000D02*
X175222000Y-49674000D01*
%TO.C,C9*%
X164983361Y-114005717D02*
X164983361Y-114528221D01*
X166453361Y-114005717D02*
X166453361Y-114528221D01*
%TO.C,J9*%
X110707000Y-52610000D02*
X110707000Y-56610000D01*
X110997000Y-51580000D02*
X110997000Y-57600000D01*
X110997000Y-57600000D02*
X116297000Y-57600000D01*
X111577000Y-51580000D02*
X111577000Y-52180000D01*
X111577000Y-52180000D02*
X113177000Y-52180000D01*
X112377000Y-56600000D02*
X112627000Y-56070000D01*
X112377000Y-56600000D02*
X114917000Y-56600000D01*
X112377000Y-57600000D02*
X112377000Y-56600000D01*
X112627000Y-56070000D02*
X114667000Y-56070000D01*
X112627000Y-57600000D02*
X112627000Y-56600000D01*
X113177000Y-52180000D02*
X113177000Y-51580000D01*
X114117000Y-51580000D02*
X114117000Y-52180000D01*
X114117000Y-52180000D02*
X115717000Y-52180000D01*
X114667000Y-56070000D02*
X114917000Y-56600000D01*
X114667000Y-57600000D02*
X114667000Y-56600000D01*
X114917000Y-56600000D02*
X114917000Y-57600000D01*
X115717000Y-52180000D02*
X115717000Y-51580000D01*
X116297000Y-51580000D02*
X110997000Y-51580000D01*
X116297000Y-57600000D02*
X116297000Y-51580000D01*
%TO.C,D22*%
X104974000Y-60526000D02*
X104974000Y-65966000D01*
X104974000Y-65966000D02*
X107914000Y-65966000D01*
X106444000Y-59506000D02*
X106444000Y-60526000D01*
X106444000Y-66986000D02*
X106444000Y-65966000D01*
X107914000Y-60526000D02*
X104974000Y-60526000D01*
X107914000Y-61306000D02*
X104974000Y-61306000D01*
X107914000Y-61426000D02*
X104974000Y-61426000D01*
X107914000Y-61546000D02*
X104974000Y-61546000D01*
X107914000Y-65966000D02*
X107914000Y-60526000D01*
%TO.C,C15*%
X145552361Y-105659721D02*
X145552361Y-105137217D01*
X147022361Y-105659721D02*
X147022361Y-105137217D01*
%TO.C,R10*%
X184922361Y-117125405D02*
X184922361Y-117579533D01*
X186392361Y-117125405D02*
X186392361Y-117579533D01*
%TO.C,C3*%
X200652748Y-62765000D02*
X201175252Y-62765000D01*
X200652748Y-64235000D02*
X201175252Y-64235000D01*
%TO.C,D10*%
X164138000Y-57732000D02*
X164138000Y-63172000D01*
X164138000Y-63172000D02*
X167078000Y-63172000D01*
X165608000Y-56712000D02*
X165608000Y-57732000D01*
X165608000Y-64192000D02*
X165608000Y-63172000D01*
X167078000Y-57732000D02*
X164138000Y-57732000D01*
X167078000Y-58512000D02*
X164138000Y-58512000D01*
X167078000Y-58632000D02*
X164138000Y-58632000D01*
X167078000Y-58752000D02*
X164138000Y-58752000D01*
X167078000Y-63172000D02*
X167078000Y-57732000D01*
%TO.C,R2*%
X174016297Y-91963469D02*
X174470425Y-91963469D01*
X174016297Y-93433469D02*
X174470425Y-93433469D01*
%TO.C,J3*%
X194233361Y-93527469D02*
X194233361Y-101267469D01*
X194233361Y-93527469D02*
X196833361Y-93527469D01*
X194233361Y-101267469D02*
X199433361Y-101267469D01*
X196833361Y-93527469D02*
X196833361Y-96127469D01*
X196833361Y-96127469D02*
X199433361Y-96127469D01*
X198103361Y-93527469D02*
X199433361Y-93527469D01*
X199433361Y-93527469D02*
X199433361Y-94857469D01*
X199433361Y-96127469D02*
X199433361Y-101267469D01*
%TO.C,D17*%
X108966000Y-101416000D02*
X108966000Y-102436000D01*
X110436000Y-102436000D02*
X107496000Y-102436000D01*
X107496000Y-102436000D02*
X107496000Y-107876000D01*
X110436000Y-103216000D02*
X107496000Y-103216000D01*
X110436000Y-103336000D02*
X107496000Y-103336000D01*
X110436000Y-103456000D02*
X107496000Y-103456000D01*
X110436000Y-107876000D02*
X110436000Y-102436000D01*
X107496000Y-107876000D02*
X110436000Y-107876000D01*
X108966000Y-108896000D02*
X108966000Y-107876000D01*
%TO.C,C1*%
X192559000Y-58666748D02*
X192559000Y-59189252D01*
X194029000Y-58666748D02*
X194029000Y-59189252D01*
%TO.C,C8*%
X168539361Y-114005717D02*
X168539361Y-114528221D01*
X170009361Y-114005717D02*
X170009361Y-114528221D01*
%TO.C,TP5*%
X194752000Y-80264000D02*
G75*
G02*
X192852000Y-80264000I-950000J0D01*
G01*
X192852000Y-80264000D02*
G75*
G02*
X194752000Y-80264000I950000J0D01*
G01*
%TO.C,C5*%
X162316361Y-114027217D02*
X162316361Y-114549721D01*
X163786361Y-114027217D02*
X163786361Y-114549721D01*
%TO.C,R7*%
X196733297Y-103774469D02*
X197187425Y-103774469D01*
X196733297Y-105244469D02*
X197187425Y-105244469D01*
%TO.C,D24*%
X118164000Y-60780000D02*
X118164000Y-66220000D01*
X118164000Y-66220000D02*
X121104000Y-66220000D01*
X119634000Y-59760000D02*
X119634000Y-60780000D01*
X119634000Y-67240000D02*
X119634000Y-66220000D01*
X121104000Y-60780000D02*
X118164000Y-60780000D01*
X121104000Y-61560000D02*
X118164000Y-61560000D01*
X121104000Y-61680000D02*
X118164000Y-61680000D01*
X121104000Y-61800000D02*
X118164000Y-61800000D01*
X121104000Y-66220000D02*
X121104000Y-60780000D01*
%TO.C,J4*%
X177795361Y-92822469D02*
X186915361Y-92822469D01*
X177795361Y-113402469D02*
X177795361Y-92822469D01*
X179105361Y-94122469D02*
X185605361Y-94122469D01*
X179105361Y-112102469D02*
X179105361Y-94122469D01*
X185605361Y-94122469D02*
X185605361Y-101062469D01*
X185605361Y-101062469D02*
X185605361Y-101062469D01*
X185605361Y-101062469D02*
X186915361Y-101062469D01*
X185605361Y-105162469D02*
X185605361Y-112102469D01*
X185605361Y-112102469D02*
X179105361Y-112102469D01*
X186915361Y-92822469D02*
X186915361Y-113402469D01*
X186915361Y-105162469D02*
X185605361Y-105162469D01*
X186915361Y-113402469D02*
X177795361Y-113402469D01*
X187305361Y-108192469D02*
X188305361Y-108692469D01*
X188305361Y-107692469D02*
X187305361Y-108192469D01*
X188305361Y-108692469D02*
X188305361Y-107692469D01*
%TO.C,J1*%
X145052000Y-128160000D02*
X145052000Y-133460000D01*
X145052000Y-130340000D02*
X145652000Y-130340000D01*
X145052000Y-132880000D02*
X145652000Y-132880000D01*
X145052000Y-133460000D02*
X151072000Y-133460000D01*
X145652000Y-128740000D02*
X145052000Y-128740000D01*
X145652000Y-130340000D02*
X145652000Y-128740000D01*
X145652000Y-131280000D02*
X145052000Y-131280000D01*
X145652000Y-132880000D02*
X145652000Y-131280000D01*
X146082000Y-133750000D02*
X150082000Y-133750000D01*
X149542000Y-129790000D02*
X150072000Y-129540000D01*
X149542000Y-131830000D02*
X149542000Y-129790000D01*
X150072000Y-129540000D02*
X151072000Y-129540000D01*
X150072000Y-132080000D02*
X149542000Y-131830000D01*
X150072000Y-132080000D02*
X150072000Y-129540000D01*
X151072000Y-128160000D02*
X145052000Y-128160000D01*
X151072000Y-129790000D02*
X150072000Y-129790000D01*
X151072000Y-131830000D02*
X150072000Y-131830000D01*
X151072000Y-132080000D02*
X150072000Y-132080000D01*
X151072000Y-133460000D02*
X151072000Y-128160000D01*
%TO.C,C12*%
X177246609Y-86629469D02*
X177769113Y-86629469D01*
X177246609Y-88099469D02*
X177769113Y-88099469D01*
%TD*%
M02*
