M48
; DRILL file {KiCad 8.0.8} date 2025-04-07T19:10:45-0500
; FORMAT={-:-/ absolute / inch / decimal}
; #@! TF.CreationDate,2025-04-07T19:10:45-05:00
; #@! TF.GenerationSoftware,Kicad,Pcbnew,8.0.8
; #@! TF.FileFunction,Plated,1,2,PTH
FMAT,2
INCH
; #@! TA.AperFunction,Plated,PTH,ViaDrill
T1C0.0118
; #@! TA.AperFunction,Plated,PTH,ComponentDrill
T2C0.0315
; #@! TA.AperFunction,Plated,PTH,ComponentDrill
T3C0.0394
; #@! TA.AperFunction,Plated,PTH,ComponentDrill
T4C0.0433
; #@! TA.AperFunction,Plated,PTH,ComponentDrill
T5C0.0469
%
G90
G05
T1
X4.3293Y-3.1995
X4.57Y-3.1995
X4.7668Y-2.907
X4.9693Y-3.2395
X5.26Y-3.64
X5.3093Y-2.9095
X5.39Y-3.64
X5.4993Y-2.8495
X5.7251Y-3.7049
X5.7293Y-3.9695
X5.77Y-3.4995
X5.83Y-3.59
X5.8393Y-4.2295
X5.94Y-4.77
X5.9693Y-3.7295
X6.0Y-2.7095
X6.1293Y-4.2295
X6.1393Y-3.8495
X6.1693Y-4.5895
X6.1793Y-3.7895
X6.1893Y-3.7595
X6.2293Y-3.6595
X6.2293Y-3.9695
X6.2293Y-4.0195
X6.2293Y-4.1995
X6.2633Y-3.7456
X6.2647Y-3.9695
X6.2647Y-4.0195
X6.2647Y-4.0649
X6.2893Y-4.1695
X6.3293Y-4.1692
X6.3693Y-4.3868
X6.4093Y-4.3621
X6.4347Y-4.1749
X6.4593Y-4.1995
X6.484Y-3.8695
X6.4893Y-3.7295
X6.4908Y-4.1995
X6.5193Y-2.7095
X6.5493Y-3.9195
X6.5493Y-4.1195
X6.59Y-4.77
X6.594Y-4.2595
X6.5993Y-4.5395
X6.7293Y-4.0595
X6.7793Y-2.7095
X6.88Y-4.77
X6.9Y-3.58
X7.01Y-3.49
X7.2493Y-4.5095
T2
X6.84Y-5.03
X6.84Y-5.13
X6.84Y-5.23
X6.84Y-5.33
X7.14Y-5.03
X7.14Y-5.13
X7.14Y-5.23
X7.14Y-5.33
T3
X4.4193Y-3.3045
X4.4693Y-3.1045
X4.5193Y-3.3045
X4.5693Y-3.1045
X4.6193Y-3.3045
X4.6693Y-3.1045
X4.7193Y-3.3045
X4.7693Y-3.1045
X4.8193Y-3.3045
X4.8693Y-3.1045
X4.9193Y-3.3045
X4.9493Y-4.0995
X4.9693Y-3.1045
X4.9993Y-3.8995
X5.0193Y-3.3045
X5.0493Y-4.0995
X5.0693Y-3.1045
X5.0993Y-3.8995
X5.1193Y-3.3045
X5.1493Y-4.0995
X5.1993Y-3.8995
X5.2493Y-4.0995
X5.2993Y-3.8995
X5.3493Y-4.0995
X5.3993Y-3.8995
X5.4493Y-4.0995
X5.4993Y-3.8995
X5.5493Y-4.0995
X5.5993Y-3.8995
X5.6493Y-4.0995
X6.0343Y-3.2345
X6.0843Y-3.0345
X6.1343Y-3.2345
X6.1843Y-3.0345
X6.2343Y-3.2345
X6.2843Y-3.0345
X6.3343Y-3.2345
X6.3843Y-3.0345
X6.4343Y-3.2345
X6.4843Y-3.0345
X6.5343Y-3.2345
X6.5843Y-3.0345
X6.6343Y-3.2345
X6.6843Y-3.0345
X6.7343Y-3.2345
X7.1293Y-3.8595
X7.1293Y-3.9595
X7.1293Y-4.0595
X7.1293Y-4.1595
X7.1293Y-4.2595
X7.2293Y-3.8595
X7.2293Y-3.9595
X7.2293Y-4.0595
X7.2293Y-4.1595
X7.2293Y-4.2595
X7.6993Y-3.7345
X7.6993Y-3.8345
X7.6993Y-3.9345
X7.7993Y-3.7345
X7.7993Y-3.8345
X7.7993Y-3.9345
T4
X4.08Y-3.57
X4.08Y-3.97
X4.16Y-4.54
X4.16Y-5.02
X4.1907Y-2.29
X4.1907Y-2.69
X4.1984Y-1.59
X4.1984Y-1.99
X4.29Y-3.94
X4.29Y-4.34
X4.46Y-3.62
X4.56Y-4.54
X4.56Y-5.02
X4.58Y-4.2795
X4.71Y-2.3
X4.71Y-2.7
X4.7116Y-1.59
X4.7116Y-1.99
X4.81Y-4.53
X4.82Y-5.01
X4.86Y-3.62
X4.98Y-4.2795
X5.03Y-1.59
X5.03Y-1.99
X5.03Y-2.22
X5.03Y-2.62
X5.21Y-4.53
X5.22Y-5.01
X5.49Y-1.59
X5.49Y-1.99
X5.49Y-2.2
X5.49Y-2.6
X5.79Y-1.59
X5.79Y-1.99
X5.79Y-2.2
X5.79Y-2.6
X6.175Y-4.955
X6.175Y-5.355
X6.27Y-2.19
X6.27Y-2.59
X6.29Y-1.57
X6.29Y-1.97
X6.52Y-1.57
X6.52Y-1.97
X6.52Y-2.18
X6.52Y-2.58
X7.0Y-1.58
X7.0Y-1.98
X7.0Y-2.16
X7.0Y-2.56
X7.3993Y-2.0795
X7.3993Y-2.1795
X7.3993Y-2.2795
X7.6493Y-2.6395
X7.6493Y-2.7395
X7.6493Y-2.8395
T5
X4.4243Y-2.15
X4.5243Y-2.15
X4.58Y-4.71
X4.58Y-4.81
X4.59Y-3.89
X4.59Y-3.99
X5.22Y-2.14
X5.32Y-2.14
X5.83Y-5.1
X5.83Y-5.2
X6.05Y-2.0
X6.05Y-2.1
X6.5993Y-3.6095
X6.6993Y-3.6095
X6.7792Y-2.01
X6.7792Y-2.11
X6.7893Y-3.8895
X6.8893Y-3.8895
X7.77Y-1.76
X7.87Y-1.76
M30
