%TF.GenerationSoftware,KiCad,Pcbnew,8.0.8*%
%TF.CreationDate,2025-03-31T18:54:26-05:00*%
%TF.ProjectId,Senior_Design_PCB_ethanl7_nrkim2,53656e69-6f72-45f4-9465-7369676e5f50,rev?*%
%TF.SameCoordinates,Original*%
%TF.FileFunction,Paste,Top*%
%TF.FilePolarity,Positive*%
%FSLAX46Y46*%
G04 Gerber Fmt 4.6, Leading zero omitted, Abs format (unit mm)*
G04 Created by KiCad (PCBNEW 8.0.8) date 2025-03-31 18:54:26*
%MOMM*%
%LPD*%
G01*
G04 APERTURE LIST*
G04 Aperture macros list*
%AMRoundRect*
0 Rectangle with rounded corners*
0 $1 Rounding radius*
0 $2 $3 $4 $5 $6 $7 $8 $9 X,Y pos of 4 corners*
0 Add a 4 corners polygon primitive as box body*
4,1,4,$2,$3,$4,$5,$6,$7,$8,$9,$2,$3,0*
0 Add four circle primitives for the rounded corners*
1,1,$1+$1,$2,$3*
1,1,$1+$1,$4,$5*
1,1,$1+$1,$6,$7*
1,1,$1+$1,$8,$9*
0 Add four rect primitives between the rounded corners*
20,1,$1+$1,$2,$3,$4,$5,0*
20,1,$1+$1,$4,$5,$6,$7,0*
20,1,$1+$1,$6,$7,$8,$9,0*
20,1,$1+$1,$8,$9,$2,$3,0*%
G04 Aperture macros list end*
%ADD10RoundRect,0.250000X0.337500X0.475000X-0.337500X0.475000X-0.337500X-0.475000X0.337500X-0.475000X0*%
%ADD11RoundRect,0.250000X-0.450000X0.350000X-0.450000X-0.350000X0.450000X-0.350000X0.450000X0.350000X0*%
%ADD12RoundRect,0.225000X0.225000X0.375000X-0.225000X0.375000X-0.225000X-0.375000X0.225000X-0.375000X0*%
%ADD13RoundRect,0.250000X-0.337500X-0.475000X0.337500X-0.475000X0.337500X0.475000X-0.337500X0.475000X0*%
%ADD14RoundRect,0.250000X-0.475000X0.337500X-0.475000X-0.337500X0.475000X-0.337500X0.475000X0.337500X0*%
%ADD15RoundRect,0.250000X0.350000X0.450000X-0.350000X0.450000X-0.350000X-0.450000X0.350000X-0.450000X0*%
%ADD16RoundRect,0.250000X-0.350000X-0.450000X0.350000X-0.450000X0.350000X0.450000X-0.350000X0.450000X0*%
%ADD17R,1.550000X1.300000*%
%ADD18RoundRect,0.075000X-0.075000X0.700000X-0.075000X-0.700000X0.075000X-0.700000X0.075000X0.700000X0*%
%ADD19RoundRect,0.075000X-0.700000X0.075000X-0.700000X-0.075000X0.700000X-0.075000X0.700000X0.075000X0*%
%ADD20RoundRect,0.250000X0.475000X-0.337500X0.475000X0.337500X-0.475000X0.337500X-0.475000X-0.337500X0*%
G04 APERTURE END LIST*
D10*
%TO.C,C19*%
X166396361Y-125210469D03*
X164321361Y-125210469D03*
%TD*%
D11*
%TO.C,R12*%
X181339361Y-138180469D03*
X181339361Y-140180469D03*
%TD*%
%TO.C,R11*%
X177783361Y-138180469D03*
X177783361Y-140180469D03*
%TD*%
D12*
%TO.C,D4*%
X199119361Y-114415469D03*
X195819361Y-114415469D03*
%TD*%
D11*
%TO.C,R1*%
X164575361Y-91190469D03*
X164575361Y-93190469D03*
%TD*%
%TO.C,R8*%
X182355361Y-116352469D03*
X182355361Y-118352469D03*
%TD*%
D13*
%TO.C,C16*%
X129734361Y-92444469D03*
X131809361Y-92444469D03*
%TD*%
%TO.C,C13*%
X147535861Y-82538469D03*
X149610861Y-82538469D03*
%TD*%
D11*
%TO.C,R3*%
X132571361Y-132576469D03*
X132571361Y-134576469D03*
%TD*%
D14*
%TO.C,C14*%
X175751361Y-79447469D03*
X175751361Y-81522469D03*
%TD*%
%TO.C,C7*%
X172830361Y-113272469D03*
X172830361Y-115347469D03*
%TD*%
D10*
%TO.C,C10*%
X156955361Y-114796469D03*
X154880361Y-114796469D03*
%TD*%
D14*
%TO.C,C17*%
X105117861Y-85310969D03*
X105117861Y-87385969D03*
%TD*%
D13*
%TO.C,C2*%
X192239861Y-52820469D03*
X194314861Y-52820469D03*
%TD*%
D14*
%TO.C,C6*%
X159495361Y-130247469D03*
X159495361Y-132322469D03*
%TD*%
D15*
%TO.C,R5*%
X178502361Y-89904469D03*
X176502361Y-89904469D03*
%TD*%
D13*
%TO.C,C4*%
X187689361Y-72124469D03*
X189764361Y-72124469D03*
%TD*%
D11*
%TO.C,R9*%
X178545361Y-116352469D03*
X178545361Y-118352469D03*
%TD*%
D10*
%TO.C,C18*%
X135386861Y-72378469D03*
X133311861Y-72378469D03*
%TD*%
D16*
%TO.C,R6*%
X201167361Y-104636469D03*
X203167361Y-104636469D03*
%TD*%
D17*
%TO.C,SW1*%
X186927361Y-83808469D03*
X178977361Y-83808469D03*
X186927361Y-79308469D03*
X178977361Y-79308469D03*
%TD*%
D16*
%TO.C,R4*%
X158638361Y-136005469D03*
X160638361Y-136005469D03*
%TD*%
D10*
%TO.C,C11*%
X156955361Y-111240469D03*
X154880361Y-111240469D03*
%TD*%
D18*
%TO.C,U6*%
X165952361Y-96735469D03*
X165452361Y-96735469D03*
X164952361Y-96735469D03*
X164452361Y-96735469D03*
X163952361Y-96735469D03*
X163452361Y-96735469D03*
X162952361Y-96735469D03*
X162452361Y-96735469D03*
X161952361Y-96735469D03*
X161452361Y-96735469D03*
X160952361Y-96735469D03*
X160452361Y-96735469D03*
X159952361Y-96735469D03*
X159452361Y-96735469D03*
X158952361Y-96735469D03*
X158452361Y-96735469D03*
D19*
X156527361Y-98660469D03*
X156527361Y-99160469D03*
X156527361Y-99660469D03*
X156527361Y-100160469D03*
X156527361Y-100660469D03*
X156527361Y-101160469D03*
X156527361Y-101660469D03*
X156527361Y-102160469D03*
X156527361Y-102660469D03*
X156527361Y-103160469D03*
X156527361Y-103660469D03*
X156527361Y-104160469D03*
X156527361Y-104660469D03*
X156527361Y-105160469D03*
X156527361Y-105660469D03*
X156527361Y-106160469D03*
D18*
X158452361Y-108085469D03*
X158952361Y-108085469D03*
X159452361Y-108085469D03*
X159952361Y-108085469D03*
X160452361Y-108085469D03*
X160952361Y-108085469D03*
X161452361Y-108085469D03*
X161952361Y-108085469D03*
X162452361Y-108085469D03*
X162952361Y-108085469D03*
X163452361Y-108085469D03*
X163952361Y-108085469D03*
X164452361Y-108085469D03*
X164952361Y-108085469D03*
X165452361Y-108085469D03*
X165952361Y-108085469D03*
D19*
X167877361Y-106160469D03*
X167877361Y-105660469D03*
X167877361Y-105160469D03*
X167877361Y-104660469D03*
X167877361Y-104160469D03*
X167877361Y-103660469D03*
X167877361Y-103160469D03*
X167877361Y-102660469D03*
X167877361Y-102160469D03*
X167877361Y-101660469D03*
X167877361Y-101160469D03*
X167877361Y-100660469D03*
X167877361Y-100160469D03*
X167877361Y-99660469D03*
X167877361Y-99160469D03*
X167877361Y-98660469D03*
%TD*%
D14*
%TO.C,C9*%
X165718361Y-113229469D03*
X165718361Y-115304469D03*
%TD*%
D20*
%TO.C,C15*%
X146287361Y-106435969D03*
X146287361Y-104360969D03*
%TD*%
D11*
%TO.C,R10*%
X185657361Y-116352469D03*
X185657361Y-118352469D03*
%TD*%
D13*
%TO.C,C3*%
X182609361Y-67552469D03*
X184684361Y-67552469D03*
%TD*%
D16*
%TO.C,R2*%
X173243361Y-92698469D03*
X175243361Y-92698469D03*
%TD*%
D10*
%TO.C,C1*%
X199881361Y-58257969D03*
X197806361Y-58257969D03*
%TD*%
D14*
%TO.C,C8*%
X169274361Y-113229469D03*
X169274361Y-115304469D03*
%TD*%
%TO.C,C5*%
X163051361Y-113250969D03*
X163051361Y-115325969D03*
%TD*%
D16*
%TO.C,R7*%
X195960361Y-104509469D03*
X197960361Y-104509469D03*
%TD*%
D13*
%TO.C,C12*%
X176470361Y-87364469D03*
X178545361Y-87364469D03*
%TD*%
M02*
