%TF.GenerationSoftware,KiCad,Pcbnew,8.0.8*%
%TF.CreationDate,2025-03-31T18:54:26-05:00*%
%TF.ProjectId,Senior_Design_PCB_ethanl7_nrkim2,53656e69-6f72-45f4-9465-7369676e5f50,rev?*%
%TF.SameCoordinates,Original*%
%TF.FileFunction,Legend,Top*%
%TF.FilePolarity,Positive*%
%FSLAX46Y46*%
G04 Gerber Fmt 4.6, Leading zero omitted, Abs format (unit mm)*
G04 Created by KiCad (PCBNEW 8.0.8) date 2025-03-31 18:54:26*
%MOMM*%
%LPD*%
G01*
G04 APERTURE LIST*
%ADD10C,0.300000*%
%ADD11C,0.150000*%
%ADD12C,0.120000*%
G04 APERTURE END LIST*
D10*
X89663076Y-135754894D02*
X90377362Y-135754894D01*
X89520219Y-136183465D02*
X90020219Y-134683465D01*
X90020219Y-134683465D02*
X90520219Y-136183465D01*
X91663076Y-135183465D02*
X91663076Y-136183465D01*
X91020218Y-135183465D02*
X91020218Y-135969179D01*
X91020218Y-135969179D02*
X91091647Y-136112037D01*
X91091647Y-136112037D02*
X91234504Y-136183465D01*
X91234504Y-136183465D02*
X91448790Y-136183465D01*
X91448790Y-136183465D02*
X91591647Y-136112037D01*
X91591647Y-136112037D02*
X91663076Y-136040608D01*
X92163076Y-135183465D02*
X92734504Y-135183465D01*
X92377361Y-134683465D02*
X92377361Y-135969179D01*
X92377361Y-135969179D02*
X92448790Y-136112037D01*
X92448790Y-136112037D02*
X92591647Y-136183465D01*
X92591647Y-136183465D02*
X92734504Y-136183465D01*
X93448790Y-136183465D02*
X93305933Y-136112037D01*
X93305933Y-136112037D02*
X93234504Y-136040608D01*
X93234504Y-136040608D02*
X93163076Y-135897751D01*
X93163076Y-135897751D02*
X93163076Y-135469179D01*
X93163076Y-135469179D02*
X93234504Y-135326322D01*
X93234504Y-135326322D02*
X93305933Y-135254894D01*
X93305933Y-135254894D02*
X93448790Y-135183465D01*
X93448790Y-135183465D02*
X93663076Y-135183465D01*
X93663076Y-135183465D02*
X93805933Y-135254894D01*
X93805933Y-135254894D02*
X93877362Y-135326322D01*
X93877362Y-135326322D02*
X93948790Y-135469179D01*
X93948790Y-135469179D02*
X93948790Y-135897751D01*
X93948790Y-135897751D02*
X93877362Y-136040608D01*
X93877362Y-136040608D02*
X93805933Y-136112037D01*
X93805933Y-136112037D02*
X93663076Y-136183465D01*
X93663076Y-136183465D02*
X93448790Y-136183465D01*
X94591647Y-136183465D02*
X94591647Y-135183465D01*
X94591647Y-135326322D02*
X94663076Y-135254894D01*
X94663076Y-135254894D02*
X94805933Y-135183465D01*
X94805933Y-135183465D02*
X95020219Y-135183465D01*
X95020219Y-135183465D02*
X95163076Y-135254894D01*
X95163076Y-135254894D02*
X95234505Y-135397751D01*
X95234505Y-135397751D02*
X95234505Y-136183465D01*
X95234505Y-135397751D02*
X95305933Y-135254894D01*
X95305933Y-135254894D02*
X95448790Y-135183465D01*
X95448790Y-135183465D02*
X95663076Y-135183465D01*
X95663076Y-135183465D02*
X95805933Y-135254894D01*
X95805933Y-135254894D02*
X95877362Y-135397751D01*
X95877362Y-135397751D02*
X95877362Y-136183465D01*
X97234505Y-136183465D02*
X97234505Y-135397751D01*
X97234505Y-135397751D02*
X97163076Y-135254894D01*
X97163076Y-135254894D02*
X97020219Y-135183465D01*
X97020219Y-135183465D02*
X96734505Y-135183465D01*
X96734505Y-135183465D02*
X96591647Y-135254894D01*
X97234505Y-136112037D02*
X97091647Y-136183465D01*
X97091647Y-136183465D02*
X96734505Y-136183465D01*
X96734505Y-136183465D02*
X96591647Y-136112037D01*
X96591647Y-136112037D02*
X96520219Y-135969179D01*
X96520219Y-135969179D02*
X96520219Y-135826322D01*
X96520219Y-135826322D02*
X96591647Y-135683465D01*
X96591647Y-135683465D02*
X96734505Y-135612037D01*
X96734505Y-135612037D02*
X97091647Y-135612037D01*
X97091647Y-135612037D02*
X97234505Y-135540608D01*
X97734505Y-135183465D02*
X98305933Y-135183465D01*
X97948790Y-134683465D02*
X97948790Y-135969179D01*
X97948790Y-135969179D02*
X98020219Y-136112037D01*
X98020219Y-136112037D02*
X98163076Y-136183465D01*
X98163076Y-136183465D02*
X98305933Y-136183465D01*
X98805933Y-136183465D02*
X98805933Y-135183465D01*
X98805933Y-134683465D02*
X98734505Y-134754894D01*
X98734505Y-134754894D02*
X98805933Y-134826322D01*
X98805933Y-134826322D02*
X98877362Y-134754894D01*
X98877362Y-134754894D02*
X98805933Y-134683465D01*
X98805933Y-134683465D02*
X98805933Y-134826322D01*
X100163077Y-136112037D02*
X100020219Y-136183465D01*
X100020219Y-136183465D02*
X99734505Y-136183465D01*
X99734505Y-136183465D02*
X99591648Y-136112037D01*
X99591648Y-136112037D02*
X99520219Y-136040608D01*
X99520219Y-136040608D02*
X99448791Y-135897751D01*
X99448791Y-135897751D02*
X99448791Y-135469179D01*
X99448791Y-135469179D02*
X99520219Y-135326322D01*
X99520219Y-135326322D02*
X99591648Y-135254894D01*
X99591648Y-135254894D02*
X99734505Y-135183465D01*
X99734505Y-135183465D02*
X100020219Y-135183465D01*
X100020219Y-135183465D02*
X100163077Y-135254894D01*
X102734505Y-134754894D02*
X102591648Y-134683465D01*
X102591648Y-134683465D02*
X102377362Y-134683465D01*
X102377362Y-134683465D02*
X102163076Y-134754894D01*
X102163076Y-134754894D02*
X102020219Y-134897751D01*
X102020219Y-134897751D02*
X101948790Y-135040608D01*
X101948790Y-135040608D02*
X101877362Y-135326322D01*
X101877362Y-135326322D02*
X101877362Y-135540608D01*
X101877362Y-135540608D02*
X101948790Y-135826322D01*
X101948790Y-135826322D02*
X102020219Y-135969179D01*
X102020219Y-135969179D02*
X102163076Y-136112037D01*
X102163076Y-136112037D02*
X102377362Y-136183465D01*
X102377362Y-136183465D02*
X102520219Y-136183465D01*
X102520219Y-136183465D02*
X102734505Y-136112037D01*
X102734505Y-136112037D02*
X102805933Y-136040608D01*
X102805933Y-136040608D02*
X102805933Y-135540608D01*
X102805933Y-135540608D02*
X102520219Y-135540608D01*
X104091648Y-135183465D02*
X104091648Y-136183465D01*
X103448790Y-135183465D02*
X103448790Y-135969179D01*
X103448790Y-135969179D02*
X103520219Y-136112037D01*
X103520219Y-136112037D02*
X103663076Y-136183465D01*
X103663076Y-136183465D02*
X103877362Y-136183465D01*
X103877362Y-136183465D02*
X104020219Y-136112037D01*
X104020219Y-136112037D02*
X104091648Y-136040608D01*
X104805933Y-136183465D02*
X104805933Y-135183465D01*
X104805933Y-134683465D02*
X104734505Y-134754894D01*
X104734505Y-134754894D02*
X104805933Y-134826322D01*
X104805933Y-134826322D02*
X104877362Y-134754894D01*
X104877362Y-134754894D02*
X104805933Y-134683465D01*
X104805933Y-134683465D02*
X104805933Y-134826322D01*
X105305934Y-135183465D02*
X105877362Y-135183465D01*
X105520219Y-134683465D02*
X105520219Y-135969179D01*
X105520219Y-135969179D02*
X105591648Y-136112037D01*
X105591648Y-136112037D02*
X105734505Y-136183465D01*
X105734505Y-136183465D02*
X105877362Y-136183465D01*
X107020220Y-136183465D02*
X107020220Y-135397751D01*
X107020220Y-135397751D02*
X106948791Y-135254894D01*
X106948791Y-135254894D02*
X106805934Y-135183465D01*
X106805934Y-135183465D02*
X106520220Y-135183465D01*
X106520220Y-135183465D02*
X106377362Y-135254894D01*
X107020220Y-136112037D02*
X106877362Y-136183465D01*
X106877362Y-136183465D02*
X106520220Y-136183465D01*
X106520220Y-136183465D02*
X106377362Y-136112037D01*
X106377362Y-136112037D02*
X106305934Y-135969179D01*
X106305934Y-135969179D02*
X106305934Y-135826322D01*
X106305934Y-135826322D02*
X106377362Y-135683465D01*
X106377362Y-135683465D02*
X106520220Y-135612037D01*
X106520220Y-135612037D02*
X106877362Y-135612037D01*
X106877362Y-135612037D02*
X107020220Y-135540608D01*
X107734505Y-136183465D02*
X107734505Y-135183465D01*
X107734505Y-135469179D02*
X107805934Y-135326322D01*
X107805934Y-135326322D02*
X107877363Y-135254894D01*
X107877363Y-135254894D02*
X108020220Y-135183465D01*
X108020220Y-135183465D02*
X108163077Y-135183465D01*
X109591648Y-134683465D02*
X110448791Y-134683465D01*
X110020219Y-136183465D02*
X110020219Y-134683465D01*
X111591648Y-135183465D02*
X111591648Y-136183465D01*
X110948790Y-135183465D02*
X110948790Y-135969179D01*
X110948790Y-135969179D02*
X111020219Y-136112037D01*
X111020219Y-136112037D02*
X111163076Y-136183465D01*
X111163076Y-136183465D02*
X111377362Y-136183465D01*
X111377362Y-136183465D02*
X111520219Y-136112037D01*
X111520219Y-136112037D02*
X111591648Y-136040608D01*
X112305933Y-135183465D02*
X112305933Y-136183465D01*
X112305933Y-135326322D02*
X112377362Y-135254894D01*
X112377362Y-135254894D02*
X112520219Y-135183465D01*
X112520219Y-135183465D02*
X112734505Y-135183465D01*
X112734505Y-135183465D02*
X112877362Y-135254894D01*
X112877362Y-135254894D02*
X112948791Y-135397751D01*
X112948791Y-135397751D02*
X112948791Y-136183465D01*
X114234505Y-136112037D02*
X114091648Y-136183465D01*
X114091648Y-136183465D02*
X113805934Y-136183465D01*
X113805934Y-136183465D02*
X113663076Y-136112037D01*
X113663076Y-136112037D02*
X113591648Y-135969179D01*
X113591648Y-135969179D02*
X113591648Y-135397751D01*
X113591648Y-135397751D02*
X113663076Y-135254894D01*
X113663076Y-135254894D02*
X113805934Y-135183465D01*
X113805934Y-135183465D02*
X114091648Y-135183465D01*
X114091648Y-135183465D02*
X114234505Y-135254894D01*
X114234505Y-135254894D02*
X114305934Y-135397751D01*
X114305934Y-135397751D02*
X114305934Y-135540608D01*
X114305934Y-135540608D02*
X113591648Y-135683465D01*
X114948790Y-136183465D02*
X114948790Y-135183465D01*
X114948790Y-135469179D02*
X115020219Y-135326322D01*
X115020219Y-135326322D02*
X115091648Y-135254894D01*
X115091648Y-135254894D02*
X115234505Y-135183465D01*
X115234505Y-135183465D02*
X115377362Y-135183465D01*
X116805933Y-134683465D02*
X117305933Y-136183465D01*
X117305933Y-136183465D02*
X117805933Y-134683465D01*
X119091647Y-136183465D02*
X118234504Y-136183465D01*
X118663075Y-136183465D02*
X118663075Y-134683465D01*
X118663075Y-134683465D02*
X118520218Y-134897751D01*
X118520218Y-134897751D02*
X118377361Y-135040608D01*
X118377361Y-135040608D02*
X118234504Y-135112037D01*
X99163076Y-137098381D02*
X99305933Y-137098381D01*
X99305933Y-137098381D02*
X99448790Y-137169810D01*
X99448790Y-137169810D02*
X99520219Y-137241238D01*
X99520219Y-137241238D02*
X99591647Y-137384095D01*
X99591647Y-137384095D02*
X99663076Y-137669810D01*
X99663076Y-137669810D02*
X99663076Y-138026953D01*
X99663076Y-138026953D02*
X99591647Y-138312667D01*
X99591647Y-138312667D02*
X99520219Y-138455524D01*
X99520219Y-138455524D02*
X99448790Y-138526953D01*
X99448790Y-138526953D02*
X99305933Y-138598381D01*
X99305933Y-138598381D02*
X99163076Y-138598381D01*
X99163076Y-138598381D02*
X99020219Y-138526953D01*
X99020219Y-138526953D02*
X98948790Y-138455524D01*
X98948790Y-138455524D02*
X98877361Y-138312667D01*
X98877361Y-138312667D02*
X98805933Y-138026953D01*
X98805933Y-138026953D02*
X98805933Y-137669810D01*
X98805933Y-137669810D02*
X98877361Y-137384095D01*
X98877361Y-137384095D02*
X98948790Y-137241238D01*
X98948790Y-137241238D02*
X99020219Y-137169810D01*
X99020219Y-137169810D02*
X99163076Y-137098381D01*
X100163075Y-137098381D02*
X101091647Y-137098381D01*
X101091647Y-137098381D02*
X100591647Y-137669810D01*
X100591647Y-137669810D02*
X100805932Y-137669810D01*
X100805932Y-137669810D02*
X100948790Y-137741238D01*
X100948790Y-137741238D02*
X101020218Y-137812667D01*
X101020218Y-137812667D02*
X101091647Y-137955524D01*
X101091647Y-137955524D02*
X101091647Y-138312667D01*
X101091647Y-138312667D02*
X101020218Y-138455524D01*
X101020218Y-138455524D02*
X100948790Y-138526953D01*
X100948790Y-138526953D02*
X100805932Y-138598381D01*
X100805932Y-138598381D02*
X100377361Y-138598381D01*
X100377361Y-138598381D02*
X100234504Y-138526953D01*
X100234504Y-138526953D02*
X100163075Y-138455524D01*
X102805932Y-137026953D02*
X101520218Y-138955524D01*
X103163075Y-137098381D02*
X104091647Y-137098381D01*
X104091647Y-137098381D02*
X103591647Y-137669810D01*
X103591647Y-137669810D02*
X103805932Y-137669810D01*
X103805932Y-137669810D02*
X103948790Y-137741238D01*
X103948790Y-137741238D02*
X104020218Y-137812667D01*
X104020218Y-137812667D02*
X104091647Y-137955524D01*
X104091647Y-137955524D02*
X104091647Y-138312667D01*
X104091647Y-138312667D02*
X104020218Y-138455524D01*
X104020218Y-138455524D02*
X103948790Y-138526953D01*
X103948790Y-138526953D02*
X103805932Y-138598381D01*
X103805932Y-138598381D02*
X103377361Y-138598381D01*
X103377361Y-138598381D02*
X103234504Y-138526953D01*
X103234504Y-138526953D02*
X103163075Y-138455524D01*
X105520218Y-138598381D02*
X104663075Y-138598381D01*
X105091646Y-138598381D02*
X105091646Y-137098381D01*
X105091646Y-137098381D02*
X104948789Y-137312667D01*
X104948789Y-137312667D02*
X104805932Y-137455524D01*
X104805932Y-137455524D02*
X104663075Y-137526953D01*
X107234503Y-137026953D02*
X105948789Y-138955524D01*
X107663075Y-137241238D02*
X107734503Y-137169810D01*
X107734503Y-137169810D02*
X107877361Y-137098381D01*
X107877361Y-137098381D02*
X108234503Y-137098381D01*
X108234503Y-137098381D02*
X108377361Y-137169810D01*
X108377361Y-137169810D02*
X108448789Y-137241238D01*
X108448789Y-137241238D02*
X108520218Y-137384095D01*
X108520218Y-137384095D02*
X108520218Y-137526953D01*
X108520218Y-137526953D02*
X108448789Y-137741238D01*
X108448789Y-137741238D02*
X107591646Y-138598381D01*
X107591646Y-138598381D02*
X108520218Y-138598381D01*
X109877360Y-137098381D02*
X109163074Y-137098381D01*
X109163074Y-137098381D02*
X109091646Y-137812667D01*
X109091646Y-137812667D02*
X109163074Y-137741238D01*
X109163074Y-137741238D02*
X109305932Y-137669810D01*
X109305932Y-137669810D02*
X109663074Y-137669810D01*
X109663074Y-137669810D02*
X109805932Y-137741238D01*
X109805932Y-137741238D02*
X109877360Y-137812667D01*
X109877360Y-137812667D02*
X109948789Y-137955524D01*
X109948789Y-137955524D02*
X109948789Y-138312667D01*
X109948789Y-138312667D02*
X109877360Y-138455524D01*
X109877360Y-138455524D02*
X109805932Y-138526953D01*
X109805932Y-138526953D02*
X109663074Y-138598381D01*
X109663074Y-138598381D02*
X109305932Y-138598381D01*
X109305932Y-138598381D02*
X109163074Y-138526953D01*
X109163074Y-138526953D02*
X109091646Y-138455524D01*
X99627362Y-139513297D02*
X100484505Y-139513297D01*
X100055933Y-141013297D02*
X100055933Y-139513297D01*
X101555933Y-140941869D02*
X101413076Y-141013297D01*
X101413076Y-141013297D02*
X101127362Y-141013297D01*
X101127362Y-141013297D02*
X100984504Y-140941869D01*
X100984504Y-140941869D02*
X100913076Y-140799011D01*
X100913076Y-140799011D02*
X100913076Y-140227583D01*
X100913076Y-140227583D02*
X100984504Y-140084726D01*
X100984504Y-140084726D02*
X101127362Y-140013297D01*
X101127362Y-140013297D02*
X101413076Y-140013297D01*
X101413076Y-140013297D02*
X101555933Y-140084726D01*
X101555933Y-140084726D02*
X101627362Y-140227583D01*
X101627362Y-140227583D02*
X101627362Y-140370440D01*
X101627362Y-140370440D02*
X100913076Y-140513297D01*
X102913076Y-141013297D02*
X102913076Y-140227583D01*
X102913076Y-140227583D02*
X102841647Y-140084726D01*
X102841647Y-140084726D02*
X102698790Y-140013297D01*
X102698790Y-140013297D02*
X102413076Y-140013297D01*
X102413076Y-140013297D02*
X102270218Y-140084726D01*
X102913076Y-140941869D02*
X102770218Y-141013297D01*
X102770218Y-141013297D02*
X102413076Y-141013297D01*
X102413076Y-141013297D02*
X102270218Y-140941869D01*
X102270218Y-140941869D02*
X102198790Y-140799011D01*
X102198790Y-140799011D02*
X102198790Y-140656154D01*
X102198790Y-140656154D02*
X102270218Y-140513297D01*
X102270218Y-140513297D02*
X102413076Y-140441869D01*
X102413076Y-140441869D02*
X102770218Y-140441869D01*
X102770218Y-140441869D02*
X102913076Y-140370440D01*
X103627361Y-141013297D02*
X103627361Y-140013297D01*
X103627361Y-140156154D02*
X103698790Y-140084726D01*
X103698790Y-140084726D02*
X103841647Y-140013297D01*
X103841647Y-140013297D02*
X104055933Y-140013297D01*
X104055933Y-140013297D02*
X104198790Y-140084726D01*
X104198790Y-140084726D02*
X104270219Y-140227583D01*
X104270219Y-140227583D02*
X104270219Y-141013297D01*
X104270219Y-140227583D02*
X104341647Y-140084726D01*
X104341647Y-140084726D02*
X104484504Y-140013297D01*
X104484504Y-140013297D02*
X104698790Y-140013297D01*
X104698790Y-140013297D02*
X104841647Y-140084726D01*
X104841647Y-140084726D02*
X104913076Y-140227583D01*
X104913076Y-140227583D02*
X104913076Y-141013297D01*
X107413076Y-139513297D02*
X107127361Y-139513297D01*
X107127361Y-139513297D02*
X106984504Y-139584726D01*
X106984504Y-139584726D02*
X106913076Y-139656154D01*
X106913076Y-139656154D02*
X106770218Y-139870440D01*
X106770218Y-139870440D02*
X106698790Y-140156154D01*
X106698790Y-140156154D02*
X106698790Y-140727583D01*
X106698790Y-140727583D02*
X106770218Y-140870440D01*
X106770218Y-140870440D02*
X106841647Y-140941869D01*
X106841647Y-140941869D02*
X106984504Y-141013297D01*
X106984504Y-141013297D02*
X107270218Y-141013297D01*
X107270218Y-141013297D02*
X107413076Y-140941869D01*
X107413076Y-140941869D02*
X107484504Y-140870440D01*
X107484504Y-140870440D02*
X107555933Y-140727583D01*
X107555933Y-140727583D02*
X107555933Y-140370440D01*
X107555933Y-140370440D02*
X107484504Y-140227583D01*
X107484504Y-140227583D02*
X107413076Y-140156154D01*
X107413076Y-140156154D02*
X107270218Y-140084726D01*
X107270218Y-140084726D02*
X106984504Y-140084726D01*
X106984504Y-140084726D02*
X106841647Y-140156154D01*
X106841647Y-140156154D02*
X106770218Y-140227583D01*
X106770218Y-140227583D02*
X106698790Y-140370440D01*
X108913075Y-139513297D02*
X108198789Y-139513297D01*
X108198789Y-139513297D02*
X108127361Y-140227583D01*
X108127361Y-140227583D02*
X108198789Y-140156154D01*
X108198789Y-140156154D02*
X108341647Y-140084726D01*
X108341647Y-140084726D02*
X108698789Y-140084726D01*
X108698789Y-140084726D02*
X108841647Y-140156154D01*
X108841647Y-140156154D02*
X108913075Y-140227583D01*
X108913075Y-140227583D02*
X108984504Y-140370440D01*
X108984504Y-140370440D02*
X108984504Y-140727583D01*
X108984504Y-140727583D02*
X108913075Y-140870440D01*
X108913075Y-140870440D02*
X108841647Y-140941869D01*
X108841647Y-140941869D02*
X108698789Y-141013297D01*
X108698789Y-141013297D02*
X108341647Y-141013297D01*
X108341647Y-141013297D02*
X108198789Y-140941869D01*
X108198789Y-140941869D02*
X108127361Y-140870440D01*
D11*
X164694503Y-123792049D02*
X164646884Y-123839669D01*
X164646884Y-123839669D02*
X164504027Y-123887288D01*
X164504027Y-123887288D02*
X164408789Y-123887288D01*
X164408789Y-123887288D02*
X164265932Y-123839669D01*
X164265932Y-123839669D02*
X164170694Y-123744430D01*
X164170694Y-123744430D02*
X164123075Y-123649192D01*
X164123075Y-123649192D02*
X164075456Y-123458716D01*
X164075456Y-123458716D02*
X164075456Y-123315859D01*
X164075456Y-123315859D02*
X164123075Y-123125383D01*
X164123075Y-123125383D02*
X164170694Y-123030145D01*
X164170694Y-123030145D02*
X164265932Y-122934907D01*
X164265932Y-122934907D02*
X164408789Y-122887288D01*
X164408789Y-122887288D02*
X164504027Y-122887288D01*
X164504027Y-122887288D02*
X164646884Y-122934907D01*
X164646884Y-122934907D02*
X164694503Y-122982526D01*
X165646884Y-123887288D02*
X165075456Y-123887288D01*
X165361170Y-123887288D02*
X165361170Y-122887288D01*
X165361170Y-122887288D02*
X165265932Y-123030145D01*
X165265932Y-123030145D02*
X165170694Y-123125383D01*
X165170694Y-123125383D02*
X165075456Y-123173002D01*
X166123075Y-123887288D02*
X166313551Y-123887288D01*
X166313551Y-123887288D02*
X166408789Y-123839669D01*
X166408789Y-123839669D02*
X166456408Y-123792049D01*
X166456408Y-123792049D02*
X166551646Y-123649192D01*
X166551646Y-123649192D02*
X166599265Y-123458716D01*
X166599265Y-123458716D02*
X166599265Y-123077764D01*
X166599265Y-123077764D02*
X166551646Y-122982526D01*
X166551646Y-122982526D02*
X166504027Y-122934907D01*
X166504027Y-122934907D02*
X166408789Y-122887288D01*
X166408789Y-122887288D02*
X166218313Y-122887288D01*
X166218313Y-122887288D02*
X166123075Y-122934907D01*
X166123075Y-122934907D02*
X166075456Y-122982526D01*
X166075456Y-122982526D02*
X166027837Y-123077764D01*
X166027837Y-123077764D02*
X166027837Y-123315859D01*
X166027837Y-123315859D02*
X166075456Y-123411097D01*
X166075456Y-123411097D02*
X166123075Y-123458716D01*
X166123075Y-123458716D02*
X166218313Y-123506335D01*
X166218313Y-123506335D02*
X166408789Y-123506335D01*
X166408789Y-123506335D02*
X166504027Y-123458716D01*
X166504027Y-123458716D02*
X166551646Y-123411097D01*
X166551646Y-123411097D02*
X166599265Y-123315859D01*
X180696503Y-142429288D02*
X180363170Y-141953097D01*
X180125075Y-142429288D02*
X180125075Y-141429288D01*
X180125075Y-141429288D02*
X180506027Y-141429288D01*
X180506027Y-141429288D02*
X180601265Y-141476907D01*
X180601265Y-141476907D02*
X180648884Y-141524526D01*
X180648884Y-141524526D02*
X180696503Y-141619764D01*
X180696503Y-141619764D02*
X180696503Y-141762621D01*
X180696503Y-141762621D02*
X180648884Y-141857859D01*
X180648884Y-141857859D02*
X180601265Y-141905478D01*
X180601265Y-141905478D02*
X180506027Y-141953097D01*
X180506027Y-141953097D02*
X180125075Y-141953097D01*
X181648884Y-142429288D02*
X181077456Y-142429288D01*
X181363170Y-142429288D02*
X181363170Y-141429288D01*
X181363170Y-141429288D02*
X181267932Y-141572145D01*
X181267932Y-141572145D02*
X181172694Y-141667383D01*
X181172694Y-141667383D02*
X181077456Y-141715002D01*
X182029837Y-141524526D02*
X182077456Y-141476907D01*
X182077456Y-141476907D02*
X182172694Y-141429288D01*
X182172694Y-141429288D02*
X182410789Y-141429288D01*
X182410789Y-141429288D02*
X182506027Y-141476907D01*
X182506027Y-141476907D02*
X182553646Y-141524526D01*
X182553646Y-141524526D02*
X182601265Y-141619764D01*
X182601265Y-141619764D02*
X182601265Y-141715002D01*
X182601265Y-141715002D02*
X182553646Y-141857859D01*
X182553646Y-141857859D02*
X181982218Y-142429288D01*
X181982218Y-142429288D02*
X182601265Y-142429288D01*
X177140503Y-142429288D02*
X176807170Y-141953097D01*
X176569075Y-142429288D02*
X176569075Y-141429288D01*
X176569075Y-141429288D02*
X176950027Y-141429288D01*
X176950027Y-141429288D02*
X177045265Y-141476907D01*
X177045265Y-141476907D02*
X177092884Y-141524526D01*
X177092884Y-141524526D02*
X177140503Y-141619764D01*
X177140503Y-141619764D02*
X177140503Y-141762621D01*
X177140503Y-141762621D02*
X177092884Y-141857859D01*
X177092884Y-141857859D02*
X177045265Y-141905478D01*
X177045265Y-141905478D02*
X176950027Y-141953097D01*
X176950027Y-141953097D02*
X176569075Y-141953097D01*
X178092884Y-142429288D02*
X177521456Y-142429288D01*
X177807170Y-142429288D02*
X177807170Y-141429288D01*
X177807170Y-141429288D02*
X177711932Y-141572145D01*
X177711932Y-141572145D02*
X177616694Y-141667383D01*
X177616694Y-141667383D02*
X177521456Y-141715002D01*
X179045265Y-142429288D02*
X178473837Y-142429288D01*
X178759551Y-142429288D02*
X178759551Y-141429288D01*
X178759551Y-141429288D02*
X178664313Y-141572145D01*
X178664313Y-141572145D02*
X178569075Y-141667383D01*
X178569075Y-141667383D02*
X178473837Y-141715002D01*
X172981266Y-103369288D02*
X172981266Y-102369288D01*
X172981266Y-102369288D02*
X173219361Y-102369288D01*
X173219361Y-102369288D02*
X173362218Y-102416907D01*
X173362218Y-102416907D02*
X173457456Y-102512145D01*
X173457456Y-102512145D02*
X173505075Y-102607383D01*
X173505075Y-102607383D02*
X173552694Y-102797859D01*
X173552694Y-102797859D02*
X173552694Y-102940716D01*
X173552694Y-102940716D02*
X173505075Y-103131192D01*
X173505075Y-103131192D02*
X173457456Y-103226430D01*
X173457456Y-103226430D02*
X173362218Y-103321669D01*
X173362218Y-103321669D02*
X173219361Y-103369288D01*
X173219361Y-103369288D02*
X172981266Y-103369288D01*
X173933647Y-102464526D02*
X173981266Y-102416907D01*
X173981266Y-102416907D02*
X174076504Y-102369288D01*
X174076504Y-102369288D02*
X174314599Y-102369288D01*
X174314599Y-102369288D02*
X174409837Y-102416907D01*
X174409837Y-102416907D02*
X174457456Y-102464526D01*
X174457456Y-102464526D02*
X174505075Y-102559764D01*
X174505075Y-102559764D02*
X174505075Y-102655002D01*
X174505075Y-102655002D02*
X174457456Y-102797859D01*
X174457456Y-102797859D02*
X173886028Y-103369288D01*
X173886028Y-103369288D02*
X174505075Y-103369288D01*
X168155266Y-96257288D02*
X168155266Y-95257288D01*
X168155266Y-95257288D02*
X168393361Y-95257288D01*
X168393361Y-95257288D02*
X168536218Y-95304907D01*
X168536218Y-95304907D02*
X168631456Y-95400145D01*
X168631456Y-95400145D02*
X168679075Y-95495383D01*
X168679075Y-95495383D02*
X168726694Y-95685859D01*
X168726694Y-95685859D02*
X168726694Y-95828716D01*
X168726694Y-95828716D02*
X168679075Y-96019192D01*
X168679075Y-96019192D02*
X168631456Y-96114430D01*
X168631456Y-96114430D02*
X168536218Y-96209669D01*
X168536218Y-96209669D02*
X168393361Y-96257288D01*
X168393361Y-96257288D02*
X168155266Y-96257288D01*
X169679075Y-96257288D02*
X169107647Y-96257288D01*
X169393361Y-96257288D02*
X169393361Y-95257288D01*
X169393361Y-95257288D02*
X169298123Y-95400145D01*
X169298123Y-95400145D02*
X169202885Y-95495383D01*
X169202885Y-95495383D02*
X169107647Y-95543002D01*
X198127266Y-113219288D02*
X198127266Y-112219288D01*
X198127266Y-112219288D02*
X198365361Y-112219288D01*
X198365361Y-112219288D02*
X198508218Y-112266907D01*
X198508218Y-112266907D02*
X198603456Y-112362145D01*
X198603456Y-112362145D02*
X198651075Y-112457383D01*
X198651075Y-112457383D02*
X198698694Y-112647859D01*
X198698694Y-112647859D02*
X198698694Y-112790716D01*
X198698694Y-112790716D02*
X198651075Y-112981192D01*
X198651075Y-112981192D02*
X198603456Y-113076430D01*
X198603456Y-113076430D02*
X198508218Y-113171669D01*
X198508218Y-113171669D02*
X198365361Y-113219288D01*
X198365361Y-113219288D02*
X198127266Y-113219288D01*
X199555837Y-112552621D02*
X199555837Y-113219288D01*
X199317742Y-112171669D02*
X199079647Y-112885954D01*
X199079647Y-112885954D02*
X199698694Y-112885954D01*
X177406180Y-57844754D02*
X176406180Y-57844754D01*
X176406180Y-57844754D02*
X176406180Y-57606659D01*
X176406180Y-57606659D02*
X176453799Y-57463802D01*
X176453799Y-57463802D02*
X176549037Y-57368564D01*
X176549037Y-57368564D02*
X176644275Y-57320945D01*
X176644275Y-57320945D02*
X176834751Y-57273326D01*
X176834751Y-57273326D02*
X176977608Y-57273326D01*
X176977608Y-57273326D02*
X177168084Y-57320945D01*
X177168084Y-57320945D02*
X177263322Y-57368564D01*
X177263322Y-57368564D02*
X177358561Y-57463802D01*
X177358561Y-57463802D02*
X177406180Y-57606659D01*
X177406180Y-57606659D02*
X177406180Y-57844754D01*
X177406180Y-56320945D02*
X177406180Y-56892373D01*
X177406180Y-56606659D02*
X176406180Y-56606659D01*
X176406180Y-56606659D02*
X176549037Y-56701897D01*
X176549037Y-56701897D02*
X176644275Y-56797135D01*
X176644275Y-56797135D02*
X176691894Y-56892373D01*
X176501418Y-55939992D02*
X176453799Y-55892373D01*
X176453799Y-55892373D02*
X176406180Y-55797135D01*
X176406180Y-55797135D02*
X176406180Y-55559040D01*
X176406180Y-55559040D02*
X176453799Y-55463802D01*
X176453799Y-55463802D02*
X176501418Y-55416183D01*
X176501418Y-55416183D02*
X176596656Y-55368564D01*
X176596656Y-55368564D02*
X176691894Y-55368564D01*
X176691894Y-55368564D02*
X176834751Y-55416183D01*
X176834751Y-55416183D02*
X177406180Y-55987611D01*
X177406180Y-55987611D02*
X177406180Y-55368564D01*
X177036180Y-51812373D02*
X176036180Y-51812373D01*
X177036180Y-51240945D02*
X176464751Y-51669516D01*
X176036180Y-51240945D02*
X176607608Y-51812373D01*
X88939075Y-125889288D02*
X88939075Y-124889288D01*
X88939075Y-124889288D02*
X89177170Y-124889288D01*
X89177170Y-124889288D02*
X89320027Y-124936907D01*
X89320027Y-124936907D02*
X89415265Y-125032145D01*
X89415265Y-125032145D02*
X89462884Y-125127383D01*
X89462884Y-125127383D02*
X89510503Y-125317859D01*
X89510503Y-125317859D02*
X89510503Y-125460716D01*
X89510503Y-125460716D02*
X89462884Y-125651192D01*
X89462884Y-125651192D02*
X89415265Y-125746430D01*
X89415265Y-125746430D02*
X89320027Y-125841669D01*
X89320027Y-125841669D02*
X89177170Y-125889288D01*
X89177170Y-125889288D02*
X88939075Y-125889288D01*
X90462884Y-125889288D02*
X89891456Y-125889288D01*
X90177170Y-125889288D02*
X90177170Y-124889288D01*
X90177170Y-124889288D02*
X90081932Y-125032145D01*
X90081932Y-125032145D02*
X89986694Y-125127383D01*
X89986694Y-125127383D02*
X89891456Y-125175002D01*
X90796218Y-124889288D02*
X91415265Y-124889288D01*
X91415265Y-124889288D02*
X91081932Y-125270240D01*
X91081932Y-125270240D02*
X91224789Y-125270240D01*
X91224789Y-125270240D02*
X91320027Y-125317859D01*
X91320027Y-125317859D02*
X91367646Y-125365478D01*
X91367646Y-125365478D02*
X91415265Y-125460716D01*
X91415265Y-125460716D02*
X91415265Y-125698811D01*
X91415265Y-125698811D02*
X91367646Y-125794049D01*
X91367646Y-125794049D02*
X91320027Y-125841669D01*
X91320027Y-125841669D02*
X91224789Y-125889288D01*
X91224789Y-125889288D02*
X90939075Y-125889288D01*
X90939075Y-125889288D02*
X90843837Y-125841669D01*
X90843837Y-125841669D02*
X90796218Y-125794049D01*
X84811456Y-126259288D02*
X84811456Y-125259288D01*
X85382884Y-126259288D02*
X84954313Y-125687859D01*
X85382884Y-125259288D02*
X84811456Y-125830716D01*
X110886551Y-86803288D02*
X110886551Y-85803288D01*
X110886551Y-86279478D02*
X111457979Y-86279478D01*
X111457979Y-86803288D02*
X111457979Y-85803288D01*
X112267503Y-86279478D02*
X112410360Y-86327097D01*
X112410360Y-86327097D02*
X112457979Y-86374716D01*
X112457979Y-86374716D02*
X112505598Y-86469954D01*
X112505598Y-86469954D02*
X112505598Y-86612811D01*
X112505598Y-86612811D02*
X112457979Y-86708049D01*
X112457979Y-86708049D02*
X112410360Y-86755669D01*
X112410360Y-86755669D02*
X112315122Y-86803288D01*
X112315122Y-86803288D02*
X111934170Y-86803288D01*
X111934170Y-86803288D02*
X111934170Y-85803288D01*
X111934170Y-85803288D02*
X112267503Y-85803288D01*
X112267503Y-85803288D02*
X112362741Y-85850907D01*
X112362741Y-85850907D02*
X112410360Y-85898526D01*
X112410360Y-85898526D02*
X112457979Y-85993764D01*
X112457979Y-85993764D02*
X112457979Y-86089002D01*
X112457979Y-86089002D02*
X112410360Y-86184240D01*
X112410360Y-86184240D02*
X112362741Y-86231859D01*
X112362741Y-86231859D02*
X112267503Y-86279478D01*
X112267503Y-86279478D02*
X111934170Y-86279478D01*
X112934170Y-86803288D02*
X112934170Y-86136621D01*
X112934170Y-86327097D02*
X112981789Y-86231859D01*
X112981789Y-86231859D02*
X113029408Y-86184240D01*
X113029408Y-86184240D02*
X113124646Y-86136621D01*
X113124646Y-86136621D02*
X113219884Y-86136621D01*
X113553218Y-86803288D02*
X113553218Y-86136621D01*
X113553218Y-85803288D02*
X113505599Y-85850907D01*
X113505599Y-85850907D02*
X113553218Y-85898526D01*
X113553218Y-85898526D02*
X113600837Y-85850907D01*
X113600837Y-85850907D02*
X113553218Y-85803288D01*
X113553218Y-85803288D02*
X113553218Y-85898526D01*
X114457979Y-86803288D02*
X114457979Y-85803288D01*
X114457979Y-86755669D02*
X114362741Y-86803288D01*
X114362741Y-86803288D02*
X114172265Y-86803288D01*
X114172265Y-86803288D02*
X114077027Y-86755669D01*
X114077027Y-86755669D02*
X114029408Y-86708049D01*
X114029408Y-86708049D02*
X113981789Y-86612811D01*
X113981789Y-86612811D02*
X113981789Y-86327097D01*
X113981789Y-86327097D02*
X114029408Y-86231859D01*
X114029408Y-86231859D02*
X114077027Y-86184240D01*
X114077027Y-86184240D02*
X114172265Y-86136621D01*
X114172265Y-86136621D02*
X114362741Y-86136621D01*
X114362741Y-86136621D02*
X114457979Y-86184240D01*
X115362741Y-86136621D02*
X115362741Y-86946145D01*
X115362741Y-86946145D02*
X115315122Y-87041383D01*
X115315122Y-87041383D02*
X115267503Y-87089002D01*
X115267503Y-87089002D02*
X115172265Y-87136621D01*
X115172265Y-87136621D02*
X115029408Y-87136621D01*
X115029408Y-87136621D02*
X114934170Y-87089002D01*
X115362741Y-86755669D02*
X115267503Y-86803288D01*
X115267503Y-86803288D02*
X115077027Y-86803288D01*
X115077027Y-86803288D02*
X114981789Y-86755669D01*
X114981789Y-86755669D02*
X114934170Y-86708049D01*
X114934170Y-86708049D02*
X114886551Y-86612811D01*
X114886551Y-86612811D02*
X114886551Y-86327097D01*
X114886551Y-86327097D02*
X114934170Y-86231859D01*
X114934170Y-86231859D02*
X114981789Y-86184240D01*
X114981789Y-86184240D02*
X115077027Y-86136621D01*
X115077027Y-86136621D02*
X115267503Y-86136621D01*
X115267503Y-86136621D02*
X115362741Y-86184240D01*
X116219884Y-86755669D02*
X116124646Y-86803288D01*
X116124646Y-86803288D02*
X115934170Y-86803288D01*
X115934170Y-86803288D02*
X115838932Y-86755669D01*
X115838932Y-86755669D02*
X115791313Y-86660430D01*
X115791313Y-86660430D02*
X115791313Y-86279478D01*
X115791313Y-86279478D02*
X115838932Y-86184240D01*
X115838932Y-86184240D02*
X115934170Y-86136621D01*
X115934170Y-86136621D02*
X116124646Y-86136621D01*
X116124646Y-86136621D02*
X116219884Y-86184240D01*
X116219884Y-86184240D02*
X116267503Y-86279478D01*
X116267503Y-86279478D02*
X116267503Y-86374716D01*
X116267503Y-86374716D02*
X115791313Y-86469954D01*
X117362742Y-85803288D02*
X117981789Y-85803288D01*
X117981789Y-85803288D02*
X117648456Y-86184240D01*
X117648456Y-86184240D02*
X117791313Y-86184240D01*
X117791313Y-86184240D02*
X117886551Y-86231859D01*
X117886551Y-86231859D02*
X117934170Y-86279478D01*
X117934170Y-86279478D02*
X117981789Y-86374716D01*
X117981789Y-86374716D02*
X117981789Y-86612811D01*
X117981789Y-86612811D02*
X117934170Y-86708049D01*
X117934170Y-86708049D02*
X117886551Y-86755669D01*
X117886551Y-86755669D02*
X117791313Y-86803288D01*
X117791313Y-86803288D02*
X117505599Y-86803288D01*
X117505599Y-86803288D02*
X117410361Y-86755669D01*
X117410361Y-86755669D02*
X117362742Y-86708049D01*
X177406180Y-43112754D02*
X176406180Y-43112754D01*
X176406180Y-43112754D02*
X176406180Y-42874659D01*
X176406180Y-42874659D02*
X176453799Y-42731802D01*
X176453799Y-42731802D02*
X176549037Y-42636564D01*
X176549037Y-42636564D02*
X176644275Y-42588945D01*
X176644275Y-42588945D02*
X176834751Y-42541326D01*
X176834751Y-42541326D02*
X176977608Y-42541326D01*
X176977608Y-42541326D02*
X177168084Y-42588945D01*
X177168084Y-42588945D02*
X177263322Y-42636564D01*
X177263322Y-42636564D02*
X177358561Y-42731802D01*
X177358561Y-42731802D02*
X177406180Y-42874659D01*
X177406180Y-42874659D02*
X177406180Y-43112754D01*
X177406180Y-41588945D02*
X177406180Y-42160373D01*
X177406180Y-41874659D02*
X176406180Y-41874659D01*
X176406180Y-41874659D02*
X176549037Y-41969897D01*
X176549037Y-41969897D02*
X176644275Y-42065135D01*
X176644275Y-42065135D02*
X176691894Y-42160373D01*
X177406180Y-40636564D02*
X177406180Y-41207992D01*
X177406180Y-40922278D02*
X176406180Y-40922278D01*
X176406180Y-40922278D02*
X176549037Y-41017516D01*
X176549037Y-41017516D02*
X176644275Y-41112754D01*
X176644275Y-41112754D02*
X176691894Y-41207992D01*
X177036180Y-37080373D02*
X176036180Y-37080373D01*
X177036180Y-36508945D02*
X176464751Y-36937516D01*
X176036180Y-36508945D02*
X176607608Y-37080373D01*
X88939075Y-113797288D02*
X88939075Y-112797288D01*
X88939075Y-112797288D02*
X89177170Y-112797288D01*
X89177170Y-112797288D02*
X89320027Y-112844907D01*
X89320027Y-112844907D02*
X89415265Y-112940145D01*
X89415265Y-112940145D02*
X89462884Y-113035383D01*
X89462884Y-113035383D02*
X89510503Y-113225859D01*
X89510503Y-113225859D02*
X89510503Y-113368716D01*
X89510503Y-113368716D02*
X89462884Y-113559192D01*
X89462884Y-113559192D02*
X89415265Y-113654430D01*
X89415265Y-113654430D02*
X89320027Y-113749669D01*
X89320027Y-113749669D02*
X89177170Y-113797288D01*
X89177170Y-113797288D02*
X88939075Y-113797288D01*
X90462884Y-113797288D02*
X89891456Y-113797288D01*
X90177170Y-113797288D02*
X90177170Y-112797288D01*
X90177170Y-112797288D02*
X90081932Y-112940145D01*
X90081932Y-112940145D02*
X89986694Y-113035383D01*
X89986694Y-113035383D02*
X89891456Y-113083002D01*
X91367646Y-112797288D02*
X90891456Y-112797288D01*
X90891456Y-112797288D02*
X90843837Y-113273478D01*
X90843837Y-113273478D02*
X90891456Y-113225859D01*
X90891456Y-113225859D02*
X90986694Y-113178240D01*
X90986694Y-113178240D02*
X91224789Y-113178240D01*
X91224789Y-113178240D02*
X91320027Y-113225859D01*
X91320027Y-113225859D02*
X91367646Y-113273478D01*
X91367646Y-113273478D02*
X91415265Y-113368716D01*
X91415265Y-113368716D02*
X91415265Y-113606811D01*
X91415265Y-113606811D02*
X91367646Y-113702049D01*
X91367646Y-113702049D02*
X91320027Y-113749669D01*
X91320027Y-113749669D02*
X91224789Y-113797288D01*
X91224789Y-113797288D02*
X90986694Y-113797288D01*
X90986694Y-113797288D02*
X90891456Y-113749669D01*
X90891456Y-113749669D02*
X90843837Y-113702049D01*
X84811456Y-114167288D02*
X84811456Y-113167288D01*
X85382884Y-114167288D02*
X84954313Y-113595859D01*
X85382884Y-113167288D02*
X84811456Y-113738716D01*
X156070180Y-42763563D02*
X155070180Y-42763563D01*
X155070180Y-42763563D02*
X155070180Y-42525468D01*
X155070180Y-42525468D02*
X155117799Y-42382611D01*
X155117799Y-42382611D02*
X155213037Y-42287373D01*
X155213037Y-42287373D02*
X155308275Y-42239754D01*
X155308275Y-42239754D02*
X155498751Y-42192135D01*
X155498751Y-42192135D02*
X155641608Y-42192135D01*
X155641608Y-42192135D02*
X155832084Y-42239754D01*
X155832084Y-42239754D02*
X155927322Y-42287373D01*
X155927322Y-42287373D02*
X156022561Y-42382611D01*
X156022561Y-42382611D02*
X156070180Y-42525468D01*
X156070180Y-42525468D02*
X156070180Y-42763563D01*
X155498751Y-41620706D02*
X155451132Y-41715944D01*
X155451132Y-41715944D02*
X155403513Y-41763563D01*
X155403513Y-41763563D02*
X155308275Y-41811182D01*
X155308275Y-41811182D02*
X155260656Y-41811182D01*
X155260656Y-41811182D02*
X155165418Y-41763563D01*
X155165418Y-41763563D02*
X155117799Y-41715944D01*
X155117799Y-41715944D02*
X155070180Y-41620706D01*
X155070180Y-41620706D02*
X155070180Y-41430230D01*
X155070180Y-41430230D02*
X155117799Y-41334992D01*
X155117799Y-41334992D02*
X155165418Y-41287373D01*
X155165418Y-41287373D02*
X155260656Y-41239754D01*
X155260656Y-41239754D02*
X155308275Y-41239754D01*
X155308275Y-41239754D02*
X155403513Y-41287373D01*
X155403513Y-41287373D02*
X155451132Y-41334992D01*
X155451132Y-41334992D02*
X155498751Y-41430230D01*
X155498751Y-41430230D02*
X155498751Y-41620706D01*
X155498751Y-41620706D02*
X155546370Y-41715944D01*
X155546370Y-41715944D02*
X155593989Y-41763563D01*
X155593989Y-41763563D02*
X155689227Y-41811182D01*
X155689227Y-41811182D02*
X155879703Y-41811182D01*
X155879703Y-41811182D02*
X155974941Y-41763563D01*
X155974941Y-41763563D02*
X156022561Y-41715944D01*
X156022561Y-41715944D02*
X156070180Y-41620706D01*
X156070180Y-41620706D02*
X156070180Y-41430230D01*
X156070180Y-41430230D02*
X156022561Y-41334992D01*
X156022561Y-41334992D02*
X155974941Y-41287373D01*
X155974941Y-41287373D02*
X155879703Y-41239754D01*
X155879703Y-41239754D02*
X155689227Y-41239754D01*
X155689227Y-41239754D02*
X155593989Y-41287373D01*
X155593989Y-41287373D02*
X155546370Y-41334992D01*
X155546370Y-41334992D02*
X155498751Y-41430230D01*
X155700180Y-37207373D02*
X154700180Y-37207373D01*
X155700180Y-36635945D02*
X155128751Y-37064516D01*
X154700180Y-36635945D02*
X155271608Y-37207373D01*
X156733551Y-71563288D02*
X156733551Y-70563288D01*
X156733551Y-71039478D02*
X157304979Y-71039478D01*
X157304979Y-71563288D02*
X157304979Y-70563288D01*
X158114503Y-71039478D02*
X158257360Y-71087097D01*
X158257360Y-71087097D02*
X158304979Y-71134716D01*
X158304979Y-71134716D02*
X158352598Y-71229954D01*
X158352598Y-71229954D02*
X158352598Y-71372811D01*
X158352598Y-71372811D02*
X158304979Y-71468049D01*
X158304979Y-71468049D02*
X158257360Y-71515669D01*
X158257360Y-71515669D02*
X158162122Y-71563288D01*
X158162122Y-71563288D02*
X157781170Y-71563288D01*
X157781170Y-71563288D02*
X157781170Y-70563288D01*
X157781170Y-70563288D02*
X158114503Y-70563288D01*
X158114503Y-70563288D02*
X158209741Y-70610907D01*
X158209741Y-70610907D02*
X158257360Y-70658526D01*
X158257360Y-70658526D02*
X158304979Y-70753764D01*
X158304979Y-70753764D02*
X158304979Y-70849002D01*
X158304979Y-70849002D02*
X158257360Y-70944240D01*
X158257360Y-70944240D02*
X158209741Y-70991859D01*
X158209741Y-70991859D02*
X158114503Y-71039478D01*
X158114503Y-71039478D02*
X157781170Y-71039478D01*
X158781170Y-71563288D02*
X158781170Y-70896621D01*
X158781170Y-71087097D02*
X158828789Y-70991859D01*
X158828789Y-70991859D02*
X158876408Y-70944240D01*
X158876408Y-70944240D02*
X158971646Y-70896621D01*
X158971646Y-70896621D02*
X159066884Y-70896621D01*
X159400218Y-71563288D02*
X159400218Y-70896621D01*
X159400218Y-70563288D02*
X159352599Y-70610907D01*
X159352599Y-70610907D02*
X159400218Y-70658526D01*
X159400218Y-70658526D02*
X159447837Y-70610907D01*
X159447837Y-70610907D02*
X159400218Y-70563288D01*
X159400218Y-70563288D02*
X159400218Y-70658526D01*
X160304979Y-71563288D02*
X160304979Y-70563288D01*
X160304979Y-71515669D02*
X160209741Y-71563288D01*
X160209741Y-71563288D02*
X160019265Y-71563288D01*
X160019265Y-71563288D02*
X159924027Y-71515669D01*
X159924027Y-71515669D02*
X159876408Y-71468049D01*
X159876408Y-71468049D02*
X159828789Y-71372811D01*
X159828789Y-71372811D02*
X159828789Y-71087097D01*
X159828789Y-71087097D02*
X159876408Y-70991859D01*
X159876408Y-70991859D02*
X159924027Y-70944240D01*
X159924027Y-70944240D02*
X160019265Y-70896621D01*
X160019265Y-70896621D02*
X160209741Y-70896621D01*
X160209741Y-70896621D02*
X160304979Y-70944240D01*
X161209741Y-70896621D02*
X161209741Y-71706145D01*
X161209741Y-71706145D02*
X161162122Y-71801383D01*
X161162122Y-71801383D02*
X161114503Y-71849002D01*
X161114503Y-71849002D02*
X161019265Y-71896621D01*
X161019265Y-71896621D02*
X160876408Y-71896621D01*
X160876408Y-71896621D02*
X160781170Y-71849002D01*
X161209741Y-71515669D02*
X161114503Y-71563288D01*
X161114503Y-71563288D02*
X160924027Y-71563288D01*
X160924027Y-71563288D02*
X160828789Y-71515669D01*
X160828789Y-71515669D02*
X160781170Y-71468049D01*
X160781170Y-71468049D02*
X160733551Y-71372811D01*
X160733551Y-71372811D02*
X160733551Y-71087097D01*
X160733551Y-71087097D02*
X160781170Y-70991859D01*
X160781170Y-70991859D02*
X160828789Y-70944240D01*
X160828789Y-70944240D02*
X160924027Y-70896621D01*
X160924027Y-70896621D02*
X161114503Y-70896621D01*
X161114503Y-70896621D02*
X161209741Y-70944240D01*
X162066884Y-71515669D02*
X161971646Y-71563288D01*
X161971646Y-71563288D02*
X161781170Y-71563288D01*
X161781170Y-71563288D02*
X161685932Y-71515669D01*
X161685932Y-71515669D02*
X161638313Y-71420430D01*
X161638313Y-71420430D02*
X161638313Y-71039478D01*
X161638313Y-71039478D02*
X161685932Y-70944240D01*
X161685932Y-70944240D02*
X161781170Y-70896621D01*
X161781170Y-70896621D02*
X161971646Y-70896621D01*
X161971646Y-70896621D02*
X162066884Y-70944240D01*
X162066884Y-70944240D02*
X162114503Y-71039478D01*
X162114503Y-71039478D02*
X162114503Y-71134716D01*
X162114503Y-71134716D02*
X161638313Y-71229954D01*
X163828789Y-71563288D02*
X163257361Y-71563288D01*
X163543075Y-71563288D02*
X163543075Y-70563288D01*
X163543075Y-70563288D02*
X163447837Y-70706145D01*
X163447837Y-70706145D02*
X163352599Y-70801383D01*
X163352599Y-70801383D02*
X163257361Y-70849002D01*
X173473456Y-143207288D02*
X174044884Y-143207288D01*
X173759170Y-144207288D02*
X173759170Y-143207288D01*
X174378218Y-144207288D02*
X174378218Y-143207288D01*
X174378218Y-143207288D02*
X174759170Y-143207288D01*
X174759170Y-143207288D02*
X174854408Y-143254907D01*
X174854408Y-143254907D02*
X174902027Y-143302526D01*
X174902027Y-143302526D02*
X174949646Y-143397764D01*
X174949646Y-143397764D02*
X174949646Y-143540621D01*
X174949646Y-143540621D02*
X174902027Y-143635859D01*
X174902027Y-143635859D02*
X174854408Y-143683478D01*
X174854408Y-143683478D02*
X174759170Y-143731097D01*
X174759170Y-143731097D02*
X174378218Y-143731097D01*
X175330599Y-143302526D02*
X175378218Y-143254907D01*
X175378218Y-143254907D02*
X175473456Y-143207288D01*
X175473456Y-143207288D02*
X175711551Y-143207288D01*
X175711551Y-143207288D02*
X175806789Y-143254907D01*
X175806789Y-143254907D02*
X175854408Y-143302526D01*
X175854408Y-143302526D02*
X175902027Y-143397764D01*
X175902027Y-143397764D02*
X175902027Y-143493002D01*
X175902027Y-143493002D02*
X175854408Y-143635859D01*
X175854408Y-143635859D02*
X175282980Y-144207288D01*
X175282980Y-144207288D02*
X175902027Y-144207288D01*
X162490180Y-92357135D02*
X162013989Y-92690468D01*
X162490180Y-92928563D02*
X161490180Y-92928563D01*
X161490180Y-92928563D02*
X161490180Y-92547611D01*
X161490180Y-92547611D02*
X161537799Y-92452373D01*
X161537799Y-92452373D02*
X161585418Y-92404754D01*
X161585418Y-92404754D02*
X161680656Y-92357135D01*
X161680656Y-92357135D02*
X161823513Y-92357135D01*
X161823513Y-92357135D02*
X161918751Y-92404754D01*
X161918751Y-92404754D02*
X161966370Y-92452373D01*
X161966370Y-92452373D02*
X162013989Y-92547611D01*
X162013989Y-92547611D02*
X162013989Y-92928563D01*
X162490180Y-91404754D02*
X162490180Y-91976182D01*
X162490180Y-91690468D02*
X161490180Y-91690468D01*
X161490180Y-91690468D02*
X161633037Y-91785706D01*
X161633037Y-91785706D02*
X161728275Y-91880944D01*
X161728275Y-91880944D02*
X161775894Y-91976182D01*
X182188694Y-120585288D02*
X181855361Y-120109097D01*
X181617266Y-120585288D02*
X181617266Y-119585288D01*
X181617266Y-119585288D02*
X181998218Y-119585288D01*
X181998218Y-119585288D02*
X182093456Y-119632907D01*
X182093456Y-119632907D02*
X182141075Y-119680526D01*
X182141075Y-119680526D02*
X182188694Y-119775764D01*
X182188694Y-119775764D02*
X182188694Y-119918621D01*
X182188694Y-119918621D02*
X182141075Y-120013859D01*
X182141075Y-120013859D02*
X182093456Y-120061478D01*
X182093456Y-120061478D02*
X181998218Y-120109097D01*
X181998218Y-120109097D02*
X181617266Y-120109097D01*
X182760123Y-120013859D02*
X182664885Y-119966240D01*
X182664885Y-119966240D02*
X182617266Y-119918621D01*
X182617266Y-119918621D02*
X182569647Y-119823383D01*
X182569647Y-119823383D02*
X182569647Y-119775764D01*
X182569647Y-119775764D02*
X182617266Y-119680526D01*
X182617266Y-119680526D02*
X182664885Y-119632907D01*
X182664885Y-119632907D02*
X182760123Y-119585288D01*
X182760123Y-119585288D02*
X182950599Y-119585288D01*
X182950599Y-119585288D02*
X183045837Y-119632907D01*
X183045837Y-119632907D02*
X183093456Y-119680526D01*
X183093456Y-119680526D02*
X183141075Y-119775764D01*
X183141075Y-119775764D02*
X183141075Y-119823383D01*
X183141075Y-119823383D02*
X183093456Y-119918621D01*
X183093456Y-119918621D02*
X183045837Y-119966240D01*
X183045837Y-119966240D02*
X182950599Y-120013859D01*
X182950599Y-120013859D02*
X182760123Y-120013859D01*
X182760123Y-120013859D02*
X182664885Y-120061478D01*
X182664885Y-120061478D02*
X182617266Y-120109097D01*
X182617266Y-120109097D02*
X182569647Y-120204335D01*
X182569647Y-120204335D02*
X182569647Y-120394811D01*
X182569647Y-120394811D02*
X182617266Y-120490049D01*
X182617266Y-120490049D02*
X182664885Y-120537669D01*
X182664885Y-120537669D02*
X182760123Y-120585288D01*
X182760123Y-120585288D02*
X182950599Y-120585288D01*
X182950599Y-120585288D02*
X183045837Y-120537669D01*
X183045837Y-120537669D02*
X183093456Y-120490049D01*
X183093456Y-120490049D02*
X183141075Y-120394811D01*
X183141075Y-120394811D02*
X183141075Y-120204335D01*
X183141075Y-120204335D02*
X183093456Y-120109097D01*
X183093456Y-120109097D02*
X183045837Y-120061478D01*
X183045837Y-120061478D02*
X182950599Y-120013859D01*
X88939075Y-93477288D02*
X88939075Y-92477288D01*
X88939075Y-92477288D02*
X89177170Y-92477288D01*
X89177170Y-92477288D02*
X89320027Y-92524907D01*
X89320027Y-92524907D02*
X89415265Y-92620145D01*
X89415265Y-92620145D02*
X89462884Y-92715383D01*
X89462884Y-92715383D02*
X89510503Y-92905859D01*
X89510503Y-92905859D02*
X89510503Y-93048716D01*
X89510503Y-93048716D02*
X89462884Y-93239192D01*
X89462884Y-93239192D02*
X89415265Y-93334430D01*
X89415265Y-93334430D02*
X89320027Y-93429669D01*
X89320027Y-93429669D02*
X89177170Y-93477288D01*
X89177170Y-93477288D02*
X88939075Y-93477288D01*
X90462884Y-93477288D02*
X89891456Y-93477288D01*
X90177170Y-93477288D02*
X90177170Y-92477288D01*
X90177170Y-92477288D02*
X90081932Y-92620145D01*
X90081932Y-92620145D02*
X89986694Y-92715383D01*
X89986694Y-92715383D02*
X89891456Y-92763002D01*
X90939075Y-93477288D02*
X91129551Y-93477288D01*
X91129551Y-93477288D02*
X91224789Y-93429669D01*
X91224789Y-93429669D02*
X91272408Y-93382049D01*
X91272408Y-93382049D02*
X91367646Y-93239192D01*
X91367646Y-93239192D02*
X91415265Y-93048716D01*
X91415265Y-93048716D02*
X91415265Y-92667764D01*
X91415265Y-92667764D02*
X91367646Y-92572526D01*
X91367646Y-92572526D02*
X91320027Y-92524907D01*
X91320027Y-92524907D02*
X91224789Y-92477288D01*
X91224789Y-92477288D02*
X91034313Y-92477288D01*
X91034313Y-92477288D02*
X90939075Y-92524907D01*
X90939075Y-92524907D02*
X90891456Y-92572526D01*
X90891456Y-92572526D02*
X90843837Y-92667764D01*
X90843837Y-92667764D02*
X90843837Y-92905859D01*
X90843837Y-92905859D02*
X90891456Y-93001097D01*
X90891456Y-93001097D02*
X90939075Y-93048716D01*
X90939075Y-93048716D02*
X91034313Y-93096335D01*
X91034313Y-93096335D02*
X91224789Y-93096335D01*
X91224789Y-93096335D02*
X91320027Y-93048716D01*
X91320027Y-93048716D02*
X91367646Y-93001097D01*
X91367646Y-93001097D02*
X91415265Y-92905859D01*
X84811456Y-93847288D02*
X84811456Y-92847288D01*
X85382884Y-93847288D02*
X84954313Y-93275859D01*
X85382884Y-92847288D02*
X84811456Y-93418716D01*
X131178180Y-61654754D02*
X130178180Y-61654754D01*
X130178180Y-61654754D02*
X130178180Y-61416659D01*
X130178180Y-61416659D02*
X130225799Y-61273802D01*
X130225799Y-61273802D02*
X130321037Y-61178564D01*
X130321037Y-61178564D02*
X130416275Y-61130945D01*
X130416275Y-61130945D02*
X130606751Y-61083326D01*
X130606751Y-61083326D02*
X130749608Y-61083326D01*
X130749608Y-61083326D02*
X130940084Y-61130945D01*
X130940084Y-61130945D02*
X131035322Y-61178564D01*
X131035322Y-61178564D02*
X131130561Y-61273802D01*
X131130561Y-61273802D02*
X131178180Y-61416659D01*
X131178180Y-61416659D02*
X131178180Y-61654754D01*
X130273418Y-60702373D02*
X130225799Y-60654754D01*
X130225799Y-60654754D02*
X130178180Y-60559516D01*
X130178180Y-60559516D02*
X130178180Y-60321421D01*
X130178180Y-60321421D02*
X130225799Y-60226183D01*
X130225799Y-60226183D02*
X130273418Y-60178564D01*
X130273418Y-60178564D02*
X130368656Y-60130945D01*
X130368656Y-60130945D02*
X130463894Y-60130945D01*
X130463894Y-60130945D02*
X130606751Y-60178564D01*
X130606751Y-60178564D02*
X131178180Y-60749992D01*
X131178180Y-60749992D02*
X131178180Y-60130945D01*
X130606751Y-59559516D02*
X130559132Y-59654754D01*
X130559132Y-59654754D02*
X130511513Y-59702373D01*
X130511513Y-59702373D02*
X130416275Y-59749992D01*
X130416275Y-59749992D02*
X130368656Y-59749992D01*
X130368656Y-59749992D02*
X130273418Y-59702373D01*
X130273418Y-59702373D02*
X130225799Y-59654754D01*
X130225799Y-59654754D02*
X130178180Y-59559516D01*
X130178180Y-59559516D02*
X130178180Y-59369040D01*
X130178180Y-59369040D02*
X130225799Y-59273802D01*
X130225799Y-59273802D02*
X130273418Y-59226183D01*
X130273418Y-59226183D02*
X130368656Y-59178564D01*
X130368656Y-59178564D02*
X130416275Y-59178564D01*
X130416275Y-59178564D02*
X130511513Y-59226183D01*
X130511513Y-59226183D02*
X130559132Y-59273802D01*
X130559132Y-59273802D02*
X130606751Y-59369040D01*
X130606751Y-59369040D02*
X130606751Y-59559516D01*
X130606751Y-59559516D02*
X130654370Y-59654754D01*
X130654370Y-59654754D02*
X130701989Y-59702373D01*
X130701989Y-59702373D02*
X130797227Y-59749992D01*
X130797227Y-59749992D02*
X130987703Y-59749992D01*
X130987703Y-59749992D02*
X131082941Y-59702373D01*
X131082941Y-59702373D02*
X131130561Y-59654754D01*
X131130561Y-59654754D02*
X131178180Y-59559516D01*
X131178180Y-59559516D02*
X131178180Y-59369040D01*
X131178180Y-59369040D02*
X131130561Y-59273802D01*
X131130561Y-59273802D02*
X131082941Y-59226183D01*
X131082941Y-59226183D02*
X130987703Y-59178564D01*
X130987703Y-59178564D02*
X130797227Y-59178564D01*
X130797227Y-59178564D02*
X130701989Y-59226183D01*
X130701989Y-59226183D02*
X130654370Y-59273802D01*
X130654370Y-59273802D02*
X130606751Y-59369040D01*
X130808180Y-55622373D02*
X129808180Y-55622373D01*
X130808180Y-55050945D02*
X130236751Y-55479516D01*
X129808180Y-55050945D02*
X130379608Y-55622373D01*
X84074095Y-140780819D02*
X84074095Y-139780819D01*
X84074095Y-140257009D02*
X84645523Y-140257009D01*
X84645523Y-140780819D02*
X84645523Y-139780819D01*
X85026476Y-139780819D02*
X85645523Y-139780819D01*
X85645523Y-139780819D02*
X85312190Y-140161771D01*
X85312190Y-140161771D02*
X85455047Y-140161771D01*
X85455047Y-140161771D02*
X85550285Y-140209390D01*
X85550285Y-140209390D02*
X85597904Y-140257009D01*
X85597904Y-140257009D02*
X85645523Y-140352247D01*
X85645523Y-140352247D02*
X85645523Y-140590342D01*
X85645523Y-140590342D02*
X85597904Y-140685580D01*
X85597904Y-140685580D02*
X85550285Y-140733200D01*
X85550285Y-140733200D02*
X85455047Y-140780819D01*
X85455047Y-140780819D02*
X85169333Y-140780819D01*
X85169333Y-140780819D02*
X85074095Y-140733200D01*
X85074095Y-140733200D02*
X85026476Y-140685580D01*
X130129003Y-91124049D02*
X130081384Y-91171669D01*
X130081384Y-91171669D02*
X129938527Y-91219288D01*
X129938527Y-91219288D02*
X129843289Y-91219288D01*
X129843289Y-91219288D02*
X129700432Y-91171669D01*
X129700432Y-91171669D02*
X129605194Y-91076430D01*
X129605194Y-91076430D02*
X129557575Y-90981192D01*
X129557575Y-90981192D02*
X129509956Y-90790716D01*
X129509956Y-90790716D02*
X129509956Y-90647859D01*
X129509956Y-90647859D02*
X129557575Y-90457383D01*
X129557575Y-90457383D02*
X129605194Y-90362145D01*
X129605194Y-90362145D02*
X129700432Y-90266907D01*
X129700432Y-90266907D02*
X129843289Y-90219288D01*
X129843289Y-90219288D02*
X129938527Y-90219288D01*
X129938527Y-90219288D02*
X130081384Y-90266907D01*
X130081384Y-90266907D02*
X130129003Y-90314526D01*
X131081384Y-91219288D02*
X130509956Y-91219288D01*
X130795670Y-91219288D02*
X130795670Y-90219288D01*
X130795670Y-90219288D02*
X130700432Y-90362145D01*
X130700432Y-90362145D02*
X130605194Y-90457383D01*
X130605194Y-90457383D02*
X130509956Y-90505002D01*
X131938527Y-90219288D02*
X131748051Y-90219288D01*
X131748051Y-90219288D02*
X131652813Y-90266907D01*
X131652813Y-90266907D02*
X131605194Y-90314526D01*
X131605194Y-90314526D02*
X131509956Y-90457383D01*
X131509956Y-90457383D02*
X131462337Y-90647859D01*
X131462337Y-90647859D02*
X131462337Y-91028811D01*
X131462337Y-91028811D02*
X131509956Y-91124049D01*
X131509956Y-91124049D02*
X131557575Y-91171669D01*
X131557575Y-91171669D02*
X131652813Y-91219288D01*
X131652813Y-91219288D02*
X131843289Y-91219288D01*
X131843289Y-91219288D02*
X131938527Y-91171669D01*
X131938527Y-91171669D02*
X131986146Y-91124049D01*
X131986146Y-91124049D02*
X132033765Y-91028811D01*
X132033765Y-91028811D02*
X132033765Y-90790716D01*
X132033765Y-90790716D02*
X131986146Y-90695478D01*
X131986146Y-90695478D02*
X131938527Y-90647859D01*
X131938527Y-90647859D02*
X131843289Y-90600240D01*
X131843289Y-90600240D02*
X131652813Y-90600240D01*
X131652813Y-90600240D02*
X131557575Y-90647859D01*
X131557575Y-90647859D02*
X131509956Y-90695478D01*
X131509956Y-90695478D02*
X131462337Y-90790716D01*
X164579180Y-42763563D02*
X163579180Y-42763563D01*
X163579180Y-42763563D02*
X163579180Y-42525468D01*
X163579180Y-42525468D02*
X163626799Y-42382611D01*
X163626799Y-42382611D02*
X163722037Y-42287373D01*
X163722037Y-42287373D02*
X163817275Y-42239754D01*
X163817275Y-42239754D02*
X164007751Y-42192135D01*
X164007751Y-42192135D02*
X164150608Y-42192135D01*
X164150608Y-42192135D02*
X164341084Y-42239754D01*
X164341084Y-42239754D02*
X164436322Y-42287373D01*
X164436322Y-42287373D02*
X164531561Y-42382611D01*
X164531561Y-42382611D02*
X164579180Y-42525468D01*
X164579180Y-42525468D02*
X164579180Y-42763563D01*
X164579180Y-41715944D02*
X164579180Y-41525468D01*
X164579180Y-41525468D02*
X164531561Y-41430230D01*
X164531561Y-41430230D02*
X164483941Y-41382611D01*
X164483941Y-41382611D02*
X164341084Y-41287373D01*
X164341084Y-41287373D02*
X164150608Y-41239754D01*
X164150608Y-41239754D02*
X163769656Y-41239754D01*
X163769656Y-41239754D02*
X163674418Y-41287373D01*
X163674418Y-41287373D02*
X163626799Y-41334992D01*
X163626799Y-41334992D02*
X163579180Y-41430230D01*
X163579180Y-41430230D02*
X163579180Y-41620706D01*
X163579180Y-41620706D02*
X163626799Y-41715944D01*
X163626799Y-41715944D02*
X163674418Y-41763563D01*
X163674418Y-41763563D02*
X163769656Y-41811182D01*
X163769656Y-41811182D02*
X164007751Y-41811182D01*
X164007751Y-41811182D02*
X164102989Y-41763563D01*
X164102989Y-41763563D02*
X164150608Y-41715944D01*
X164150608Y-41715944D02*
X164198227Y-41620706D01*
X164198227Y-41620706D02*
X164198227Y-41430230D01*
X164198227Y-41430230D02*
X164150608Y-41334992D01*
X164150608Y-41334992D02*
X164102989Y-41287373D01*
X164102989Y-41287373D02*
X164007751Y-41239754D01*
X164209180Y-37207373D02*
X163209180Y-37207373D01*
X164209180Y-36635945D02*
X163637751Y-37064516D01*
X163209180Y-36635945D02*
X163780608Y-37207373D01*
X154042456Y-131015288D02*
X154613884Y-131015288D01*
X154328170Y-132015288D02*
X154328170Y-131015288D01*
X154947218Y-132015288D02*
X154947218Y-131015288D01*
X154947218Y-131015288D02*
X155328170Y-131015288D01*
X155328170Y-131015288D02*
X155423408Y-131062907D01*
X155423408Y-131062907D02*
X155471027Y-131110526D01*
X155471027Y-131110526D02*
X155518646Y-131205764D01*
X155518646Y-131205764D02*
X155518646Y-131348621D01*
X155518646Y-131348621D02*
X155471027Y-131443859D01*
X155471027Y-131443859D02*
X155423408Y-131491478D01*
X155423408Y-131491478D02*
X155328170Y-131539097D01*
X155328170Y-131539097D02*
X154947218Y-131539097D01*
X155851980Y-131015288D02*
X156471027Y-131015288D01*
X156471027Y-131015288D02*
X156137694Y-131396240D01*
X156137694Y-131396240D02*
X156280551Y-131396240D01*
X156280551Y-131396240D02*
X156375789Y-131443859D01*
X156375789Y-131443859D02*
X156423408Y-131491478D01*
X156423408Y-131491478D02*
X156471027Y-131586716D01*
X156471027Y-131586716D02*
X156471027Y-131824811D01*
X156471027Y-131824811D02*
X156423408Y-131920049D01*
X156423408Y-131920049D02*
X156375789Y-131967669D01*
X156375789Y-131967669D02*
X156280551Y-132015288D01*
X156280551Y-132015288D02*
X155994837Y-132015288D01*
X155994837Y-132015288D02*
X155899599Y-131967669D01*
X155899599Y-131967669D02*
X155851980Y-131920049D01*
X144120503Y-82898049D02*
X144072884Y-82945669D01*
X144072884Y-82945669D02*
X143930027Y-82993288D01*
X143930027Y-82993288D02*
X143834789Y-82993288D01*
X143834789Y-82993288D02*
X143691932Y-82945669D01*
X143691932Y-82945669D02*
X143596694Y-82850430D01*
X143596694Y-82850430D02*
X143549075Y-82755192D01*
X143549075Y-82755192D02*
X143501456Y-82564716D01*
X143501456Y-82564716D02*
X143501456Y-82421859D01*
X143501456Y-82421859D02*
X143549075Y-82231383D01*
X143549075Y-82231383D02*
X143596694Y-82136145D01*
X143596694Y-82136145D02*
X143691932Y-82040907D01*
X143691932Y-82040907D02*
X143834789Y-81993288D01*
X143834789Y-81993288D02*
X143930027Y-81993288D01*
X143930027Y-81993288D02*
X144072884Y-82040907D01*
X144072884Y-82040907D02*
X144120503Y-82088526D01*
X145072884Y-82993288D02*
X144501456Y-82993288D01*
X144787170Y-82993288D02*
X144787170Y-81993288D01*
X144787170Y-81993288D02*
X144691932Y-82136145D01*
X144691932Y-82136145D02*
X144596694Y-82231383D01*
X144596694Y-82231383D02*
X144501456Y-82279002D01*
X145406218Y-81993288D02*
X146025265Y-81993288D01*
X146025265Y-81993288D02*
X145691932Y-82374240D01*
X145691932Y-82374240D02*
X145834789Y-82374240D01*
X145834789Y-82374240D02*
X145930027Y-82421859D01*
X145930027Y-82421859D02*
X145977646Y-82469478D01*
X145977646Y-82469478D02*
X146025265Y-82564716D01*
X146025265Y-82564716D02*
X146025265Y-82802811D01*
X146025265Y-82802811D02*
X145977646Y-82898049D01*
X145977646Y-82898049D02*
X145930027Y-82945669D01*
X145930027Y-82945669D02*
X145834789Y-82993288D01*
X145834789Y-82993288D02*
X145549075Y-82993288D01*
X145549075Y-82993288D02*
X145453837Y-82945669D01*
X145453837Y-82945669D02*
X145406218Y-82898049D01*
X134676180Y-133743135D02*
X134199989Y-134076468D01*
X134676180Y-134314563D02*
X133676180Y-134314563D01*
X133676180Y-134314563D02*
X133676180Y-133933611D01*
X133676180Y-133933611D02*
X133723799Y-133838373D01*
X133723799Y-133838373D02*
X133771418Y-133790754D01*
X133771418Y-133790754D02*
X133866656Y-133743135D01*
X133866656Y-133743135D02*
X134009513Y-133743135D01*
X134009513Y-133743135D02*
X134104751Y-133790754D01*
X134104751Y-133790754D02*
X134152370Y-133838373D01*
X134152370Y-133838373D02*
X134199989Y-133933611D01*
X134199989Y-133933611D02*
X134199989Y-134314563D01*
X133676180Y-133409801D02*
X133676180Y-132790754D01*
X133676180Y-132790754D02*
X134057132Y-133124087D01*
X134057132Y-133124087D02*
X134057132Y-132981230D01*
X134057132Y-132981230D02*
X134104751Y-132885992D01*
X134104751Y-132885992D02*
X134152370Y-132838373D01*
X134152370Y-132838373D02*
X134247608Y-132790754D01*
X134247608Y-132790754D02*
X134485703Y-132790754D01*
X134485703Y-132790754D02*
X134580941Y-132838373D01*
X134580941Y-132838373D02*
X134628561Y-132885992D01*
X134628561Y-132885992D02*
X134676180Y-132981230D01*
X134676180Y-132981230D02*
X134676180Y-133266944D01*
X134676180Y-133266944D02*
X134628561Y-133362182D01*
X134628561Y-133362182D02*
X134580941Y-133409801D01*
X117970180Y-61146754D02*
X116970180Y-61146754D01*
X116970180Y-61146754D02*
X116970180Y-60908659D01*
X116970180Y-60908659D02*
X117017799Y-60765802D01*
X117017799Y-60765802D02*
X117113037Y-60670564D01*
X117113037Y-60670564D02*
X117208275Y-60622945D01*
X117208275Y-60622945D02*
X117398751Y-60575326D01*
X117398751Y-60575326D02*
X117541608Y-60575326D01*
X117541608Y-60575326D02*
X117732084Y-60622945D01*
X117732084Y-60622945D02*
X117827322Y-60670564D01*
X117827322Y-60670564D02*
X117922561Y-60765802D01*
X117922561Y-60765802D02*
X117970180Y-60908659D01*
X117970180Y-60908659D02*
X117970180Y-61146754D01*
X117065418Y-60194373D02*
X117017799Y-60146754D01*
X117017799Y-60146754D02*
X116970180Y-60051516D01*
X116970180Y-60051516D02*
X116970180Y-59813421D01*
X116970180Y-59813421D02*
X117017799Y-59718183D01*
X117017799Y-59718183D02*
X117065418Y-59670564D01*
X117065418Y-59670564D02*
X117160656Y-59622945D01*
X117160656Y-59622945D02*
X117255894Y-59622945D01*
X117255894Y-59622945D02*
X117398751Y-59670564D01*
X117398751Y-59670564D02*
X117970180Y-60241992D01*
X117970180Y-60241992D02*
X117970180Y-59622945D01*
X116970180Y-58765802D02*
X116970180Y-58956278D01*
X116970180Y-58956278D02*
X117017799Y-59051516D01*
X117017799Y-59051516D02*
X117065418Y-59099135D01*
X117065418Y-59099135D02*
X117208275Y-59194373D01*
X117208275Y-59194373D02*
X117398751Y-59241992D01*
X117398751Y-59241992D02*
X117779703Y-59241992D01*
X117779703Y-59241992D02*
X117874941Y-59194373D01*
X117874941Y-59194373D02*
X117922561Y-59146754D01*
X117922561Y-59146754D02*
X117970180Y-59051516D01*
X117970180Y-59051516D02*
X117970180Y-58861040D01*
X117970180Y-58861040D02*
X117922561Y-58765802D01*
X117922561Y-58765802D02*
X117874941Y-58718183D01*
X117874941Y-58718183D02*
X117779703Y-58670564D01*
X117779703Y-58670564D02*
X117541608Y-58670564D01*
X117541608Y-58670564D02*
X117446370Y-58718183D01*
X117446370Y-58718183D02*
X117398751Y-58765802D01*
X117398751Y-58765802D02*
X117351132Y-58861040D01*
X117351132Y-58861040D02*
X117351132Y-59051516D01*
X117351132Y-59051516D02*
X117398751Y-59146754D01*
X117398751Y-59146754D02*
X117446370Y-59194373D01*
X117446370Y-59194373D02*
X117541608Y-59241992D01*
X117600180Y-55114373D02*
X116600180Y-55114373D01*
X117600180Y-54542945D02*
X117028751Y-54971516D01*
X116600180Y-54542945D02*
X117171608Y-55114373D01*
X175108503Y-83914049D02*
X175060884Y-83961669D01*
X175060884Y-83961669D02*
X174918027Y-84009288D01*
X174918027Y-84009288D02*
X174822789Y-84009288D01*
X174822789Y-84009288D02*
X174679932Y-83961669D01*
X174679932Y-83961669D02*
X174584694Y-83866430D01*
X174584694Y-83866430D02*
X174537075Y-83771192D01*
X174537075Y-83771192D02*
X174489456Y-83580716D01*
X174489456Y-83580716D02*
X174489456Y-83437859D01*
X174489456Y-83437859D02*
X174537075Y-83247383D01*
X174537075Y-83247383D02*
X174584694Y-83152145D01*
X174584694Y-83152145D02*
X174679932Y-83056907D01*
X174679932Y-83056907D02*
X174822789Y-83009288D01*
X174822789Y-83009288D02*
X174918027Y-83009288D01*
X174918027Y-83009288D02*
X175060884Y-83056907D01*
X175060884Y-83056907D02*
X175108503Y-83104526D01*
X176060884Y-84009288D02*
X175489456Y-84009288D01*
X175775170Y-84009288D02*
X175775170Y-83009288D01*
X175775170Y-83009288D02*
X175679932Y-83152145D01*
X175679932Y-83152145D02*
X175584694Y-83247383D01*
X175584694Y-83247383D02*
X175489456Y-83295002D01*
X176918027Y-83342621D02*
X176918027Y-84009288D01*
X176679932Y-82961669D02*
X176441837Y-83675954D01*
X176441837Y-83675954D02*
X177060884Y-83675954D01*
X184395456Y-133177288D02*
X184966884Y-133177288D01*
X184681170Y-134177288D02*
X184681170Y-133177288D01*
X185300218Y-134177288D02*
X185300218Y-133177288D01*
X185300218Y-133177288D02*
X185681170Y-133177288D01*
X185681170Y-133177288D02*
X185776408Y-133224907D01*
X185776408Y-133224907D02*
X185824027Y-133272526D01*
X185824027Y-133272526D02*
X185871646Y-133367764D01*
X185871646Y-133367764D02*
X185871646Y-133510621D01*
X185871646Y-133510621D02*
X185824027Y-133605859D01*
X185824027Y-133605859D02*
X185776408Y-133653478D01*
X185776408Y-133653478D02*
X185681170Y-133701097D01*
X185681170Y-133701097D02*
X185300218Y-133701097D01*
X186824027Y-134177288D02*
X186252599Y-134177288D01*
X186538313Y-134177288D02*
X186538313Y-133177288D01*
X186538313Y-133177288D02*
X186443075Y-133320145D01*
X186443075Y-133320145D02*
X186347837Y-133415383D01*
X186347837Y-133415383D02*
X186252599Y-133463002D01*
X172790694Y-112108049D02*
X172743075Y-112155669D01*
X172743075Y-112155669D02*
X172600218Y-112203288D01*
X172600218Y-112203288D02*
X172504980Y-112203288D01*
X172504980Y-112203288D02*
X172362123Y-112155669D01*
X172362123Y-112155669D02*
X172266885Y-112060430D01*
X172266885Y-112060430D02*
X172219266Y-111965192D01*
X172219266Y-111965192D02*
X172171647Y-111774716D01*
X172171647Y-111774716D02*
X172171647Y-111631859D01*
X172171647Y-111631859D02*
X172219266Y-111441383D01*
X172219266Y-111441383D02*
X172266885Y-111346145D01*
X172266885Y-111346145D02*
X172362123Y-111250907D01*
X172362123Y-111250907D02*
X172504980Y-111203288D01*
X172504980Y-111203288D02*
X172600218Y-111203288D01*
X172600218Y-111203288D02*
X172743075Y-111250907D01*
X172743075Y-111250907D02*
X172790694Y-111298526D01*
X173124028Y-111203288D02*
X173790694Y-111203288D01*
X173790694Y-111203288D02*
X173362123Y-112203288D01*
X169441218Y-128173573D02*
X169917408Y-128173573D01*
X169345980Y-128459288D02*
X169679313Y-127459288D01*
X169679313Y-127459288D02*
X170012646Y-128459288D01*
X170345980Y-128459288D02*
X170345980Y-127792621D01*
X170345980Y-127887859D02*
X170393599Y-127840240D01*
X170393599Y-127840240D02*
X170488837Y-127792621D01*
X170488837Y-127792621D02*
X170631694Y-127792621D01*
X170631694Y-127792621D02*
X170726932Y-127840240D01*
X170726932Y-127840240D02*
X170774551Y-127935478D01*
X170774551Y-127935478D02*
X170774551Y-128459288D01*
X170774551Y-127935478D02*
X170822170Y-127840240D01*
X170822170Y-127840240D02*
X170917408Y-127792621D01*
X170917408Y-127792621D02*
X171060265Y-127792621D01*
X171060265Y-127792621D02*
X171155504Y-127840240D01*
X171155504Y-127840240D02*
X171203123Y-127935478D01*
X171203123Y-127935478D02*
X171203123Y-128459288D01*
X171679313Y-127792621D02*
X171679313Y-128792621D01*
X171679313Y-127840240D02*
X171774551Y-127792621D01*
X171774551Y-127792621D02*
X171965027Y-127792621D01*
X171965027Y-127792621D02*
X172060265Y-127840240D01*
X172060265Y-127840240D02*
X172107884Y-127887859D01*
X172107884Y-127887859D02*
X172155503Y-127983097D01*
X172155503Y-127983097D02*
X172155503Y-128268811D01*
X172155503Y-128268811D02*
X172107884Y-128364049D01*
X172107884Y-128364049D02*
X172060265Y-128411669D01*
X172060265Y-128411669D02*
X171965027Y-128459288D01*
X171965027Y-128459288D02*
X171774551Y-128459288D01*
X171774551Y-128459288D02*
X171679313Y-128411669D01*
X141465180Y-59654563D02*
X140465180Y-59654563D01*
X140465180Y-59654563D02*
X140465180Y-59416468D01*
X140465180Y-59416468D02*
X140512799Y-59273611D01*
X140512799Y-59273611D02*
X140608037Y-59178373D01*
X140608037Y-59178373D02*
X140703275Y-59130754D01*
X140703275Y-59130754D02*
X140893751Y-59083135D01*
X140893751Y-59083135D02*
X141036608Y-59083135D01*
X141036608Y-59083135D02*
X141227084Y-59130754D01*
X141227084Y-59130754D02*
X141322322Y-59178373D01*
X141322322Y-59178373D02*
X141417561Y-59273611D01*
X141417561Y-59273611D02*
X141465180Y-59416468D01*
X141465180Y-59416468D02*
X141465180Y-59654563D01*
X140465180Y-58178373D02*
X140465180Y-58654563D01*
X140465180Y-58654563D02*
X140941370Y-58702182D01*
X140941370Y-58702182D02*
X140893751Y-58654563D01*
X140893751Y-58654563D02*
X140846132Y-58559325D01*
X140846132Y-58559325D02*
X140846132Y-58321230D01*
X140846132Y-58321230D02*
X140893751Y-58225992D01*
X140893751Y-58225992D02*
X140941370Y-58178373D01*
X140941370Y-58178373D02*
X141036608Y-58130754D01*
X141036608Y-58130754D02*
X141274703Y-58130754D01*
X141274703Y-58130754D02*
X141369941Y-58178373D01*
X141369941Y-58178373D02*
X141417561Y-58225992D01*
X141417561Y-58225992D02*
X141465180Y-58321230D01*
X141465180Y-58321230D02*
X141465180Y-58559325D01*
X141465180Y-58559325D02*
X141417561Y-58654563D01*
X141417561Y-58654563D02*
X141369941Y-58702182D01*
X141095180Y-54098373D02*
X140095180Y-54098373D01*
X141095180Y-53526945D02*
X140523751Y-53955516D01*
X140095180Y-53526945D02*
X140666608Y-54098373D01*
X182826180Y-56804850D02*
X182826180Y-57281040D01*
X182826180Y-57281040D02*
X183302370Y-57328659D01*
X183302370Y-57328659D02*
X183254751Y-57281040D01*
X183254751Y-57281040D02*
X183207132Y-57185802D01*
X183207132Y-57185802D02*
X183207132Y-56947707D01*
X183207132Y-56947707D02*
X183254751Y-56852469D01*
X183254751Y-56852469D02*
X183302370Y-56804850D01*
X183302370Y-56804850D02*
X183397608Y-56757231D01*
X183397608Y-56757231D02*
X183635703Y-56757231D01*
X183635703Y-56757231D02*
X183730941Y-56804850D01*
X183730941Y-56804850D02*
X183778561Y-56852469D01*
X183778561Y-56852469D02*
X183826180Y-56947707D01*
X183826180Y-56947707D02*
X183826180Y-57185802D01*
X183826180Y-57185802D02*
X183778561Y-57281040D01*
X183778561Y-57281040D02*
X183730941Y-57328659D01*
X182826180Y-56471516D02*
X183826180Y-56138183D01*
X183826180Y-56138183D02*
X182826180Y-55804850D01*
X183826180Y-54138183D02*
X183349989Y-54471516D01*
X183826180Y-54709611D02*
X182826180Y-54709611D01*
X182826180Y-54709611D02*
X182826180Y-54328659D01*
X182826180Y-54328659D02*
X182873799Y-54233421D01*
X182873799Y-54233421D02*
X182921418Y-54185802D01*
X182921418Y-54185802D02*
X183016656Y-54138183D01*
X183016656Y-54138183D02*
X183159513Y-54138183D01*
X183159513Y-54138183D02*
X183254751Y-54185802D01*
X183254751Y-54185802D02*
X183302370Y-54233421D01*
X183302370Y-54233421D02*
X183349989Y-54328659D01*
X183349989Y-54328659D02*
X183349989Y-54709611D01*
X183778561Y-53328659D02*
X183826180Y-53423897D01*
X183826180Y-53423897D02*
X183826180Y-53614373D01*
X183826180Y-53614373D02*
X183778561Y-53709611D01*
X183778561Y-53709611D02*
X183683322Y-53757230D01*
X183683322Y-53757230D02*
X183302370Y-53757230D01*
X183302370Y-53757230D02*
X183207132Y-53709611D01*
X183207132Y-53709611D02*
X183159513Y-53614373D01*
X183159513Y-53614373D02*
X183159513Y-53423897D01*
X183159513Y-53423897D02*
X183207132Y-53328659D01*
X183207132Y-53328659D02*
X183302370Y-53281040D01*
X183302370Y-53281040D02*
X183397608Y-53281040D01*
X183397608Y-53281040D02*
X183492846Y-53757230D01*
X183159513Y-52423897D02*
X183969037Y-52423897D01*
X183969037Y-52423897D02*
X184064275Y-52471516D01*
X184064275Y-52471516D02*
X184111894Y-52519135D01*
X184111894Y-52519135D02*
X184159513Y-52614373D01*
X184159513Y-52614373D02*
X184159513Y-52757230D01*
X184159513Y-52757230D02*
X184111894Y-52852468D01*
X183778561Y-52423897D02*
X183826180Y-52519135D01*
X183826180Y-52519135D02*
X183826180Y-52709611D01*
X183826180Y-52709611D02*
X183778561Y-52804849D01*
X183778561Y-52804849D02*
X183730941Y-52852468D01*
X183730941Y-52852468D02*
X183635703Y-52900087D01*
X183635703Y-52900087D02*
X183349989Y-52900087D01*
X183349989Y-52900087D02*
X183254751Y-52852468D01*
X183254751Y-52852468D02*
X183207132Y-52804849D01*
X183207132Y-52804849D02*
X183159513Y-52709611D01*
X183159513Y-52709611D02*
X183159513Y-52519135D01*
X183159513Y-52519135D02*
X183207132Y-52423897D01*
X135905551Y-93661288D02*
X135905551Y-92661288D01*
X135905551Y-93137478D02*
X136476979Y-93137478D01*
X136476979Y-93661288D02*
X136476979Y-92661288D01*
X137286503Y-93137478D02*
X137429360Y-93185097D01*
X137429360Y-93185097D02*
X137476979Y-93232716D01*
X137476979Y-93232716D02*
X137524598Y-93327954D01*
X137524598Y-93327954D02*
X137524598Y-93470811D01*
X137524598Y-93470811D02*
X137476979Y-93566049D01*
X137476979Y-93566049D02*
X137429360Y-93613669D01*
X137429360Y-93613669D02*
X137334122Y-93661288D01*
X137334122Y-93661288D02*
X136953170Y-93661288D01*
X136953170Y-93661288D02*
X136953170Y-92661288D01*
X136953170Y-92661288D02*
X137286503Y-92661288D01*
X137286503Y-92661288D02*
X137381741Y-92708907D01*
X137381741Y-92708907D02*
X137429360Y-92756526D01*
X137429360Y-92756526D02*
X137476979Y-92851764D01*
X137476979Y-92851764D02*
X137476979Y-92947002D01*
X137476979Y-92947002D02*
X137429360Y-93042240D01*
X137429360Y-93042240D02*
X137381741Y-93089859D01*
X137381741Y-93089859D02*
X137286503Y-93137478D01*
X137286503Y-93137478D02*
X136953170Y-93137478D01*
X137953170Y-93661288D02*
X137953170Y-92994621D01*
X137953170Y-93185097D02*
X138000789Y-93089859D01*
X138000789Y-93089859D02*
X138048408Y-93042240D01*
X138048408Y-93042240D02*
X138143646Y-92994621D01*
X138143646Y-92994621D02*
X138238884Y-92994621D01*
X138572218Y-93661288D02*
X138572218Y-92994621D01*
X138572218Y-92661288D02*
X138524599Y-92708907D01*
X138524599Y-92708907D02*
X138572218Y-92756526D01*
X138572218Y-92756526D02*
X138619837Y-92708907D01*
X138619837Y-92708907D02*
X138572218Y-92661288D01*
X138572218Y-92661288D02*
X138572218Y-92756526D01*
X139476979Y-93661288D02*
X139476979Y-92661288D01*
X139476979Y-93613669D02*
X139381741Y-93661288D01*
X139381741Y-93661288D02*
X139191265Y-93661288D01*
X139191265Y-93661288D02*
X139096027Y-93613669D01*
X139096027Y-93613669D02*
X139048408Y-93566049D01*
X139048408Y-93566049D02*
X139000789Y-93470811D01*
X139000789Y-93470811D02*
X139000789Y-93185097D01*
X139000789Y-93185097D02*
X139048408Y-93089859D01*
X139048408Y-93089859D02*
X139096027Y-93042240D01*
X139096027Y-93042240D02*
X139191265Y-92994621D01*
X139191265Y-92994621D02*
X139381741Y-92994621D01*
X139381741Y-92994621D02*
X139476979Y-93042240D01*
X140381741Y-92994621D02*
X140381741Y-93804145D01*
X140381741Y-93804145D02*
X140334122Y-93899383D01*
X140334122Y-93899383D02*
X140286503Y-93947002D01*
X140286503Y-93947002D02*
X140191265Y-93994621D01*
X140191265Y-93994621D02*
X140048408Y-93994621D01*
X140048408Y-93994621D02*
X139953170Y-93947002D01*
X140381741Y-93613669D02*
X140286503Y-93661288D01*
X140286503Y-93661288D02*
X140096027Y-93661288D01*
X140096027Y-93661288D02*
X140000789Y-93613669D01*
X140000789Y-93613669D02*
X139953170Y-93566049D01*
X139953170Y-93566049D02*
X139905551Y-93470811D01*
X139905551Y-93470811D02*
X139905551Y-93185097D01*
X139905551Y-93185097D02*
X139953170Y-93089859D01*
X139953170Y-93089859D02*
X140000789Y-93042240D01*
X140000789Y-93042240D02*
X140096027Y-92994621D01*
X140096027Y-92994621D02*
X140286503Y-92994621D01*
X140286503Y-92994621D02*
X140381741Y-93042240D01*
X141238884Y-93613669D02*
X141143646Y-93661288D01*
X141143646Y-93661288D02*
X140953170Y-93661288D01*
X140953170Y-93661288D02*
X140857932Y-93613669D01*
X140857932Y-93613669D02*
X140810313Y-93518430D01*
X140810313Y-93518430D02*
X140810313Y-93137478D01*
X140810313Y-93137478D02*
X140857932Y-93042240D01*
X140857932Y-93042240D02*
X140953170Y-92994621D01*
X140953170Y-92994621D02*
X141143646Y-92994621D01*
X141143646Y-92994621D02*
X141238884Y-93042240D01*
X141238884Y-93042240D02*
X141286503Y-93137478D01*
X141286503Y-93137478D02*
X141286503Y-93232716D01*
X141286503Y-93232716D02*
X140810313Y-93327954D01*
X142429361Y-92756526D02*
X142476980Y-92708907D01*
X142476980Y-92708907D02*
X142572218Y-92661288D01*
X142572218Y-92661288D02*
X142810313Y-92661288D01*
X142810313Y-92661288D02*
X142905551Y-92708907D01*
X142905551Y-92708907D02*
X142953170Y-92756526D01*
X142953170Y-92756526D02*
X143000789Y-92851764D01*
X143000789Y-92851764D02*
X143000789Y-92947002D01*
X143000789Y-92947002D02*
X142953170Y-93089859D01*
X142953170Y-93089859D02*
X142381742Y-93661288D01*
X142381742Y-93661288D02*
X143000789Y-93661288D01*
X121093837Y-55831288D02*
X121093837Y-54831288D01*
X121093837Y-54831288D02*
X121427170Y-55545573D01*
X121427170Y-55545573D02*
X121760503Y-54831288D01*
X121760503Y-54831288D02*
X121760503Y-55831288D01*
X122665265Y-54831288D02*
X122474789Y-54831288D01*
X122474789Y-54831288D02*
X122379551Y-54878907D01*
X122379551Y-54878907D02*
X122331932Y-54926526D01*
X122331932Y-54926526D02*
X122236694Y-55069383D01*
X122236694Y-55069383D02*
X122189075Y-55259859D01*
X122189075Y-55259859D02*
X122189075Y-55640811D01*
X122189075Y-55640811D02*
X122236694Y-55736049D01*
X122236694Y-55736049D02*
X122284313Y-55783669D01*
X122284313Y-55783669D02*
X122379551Y-55831288D01*
X122379551Y-55831288D02*
X122570027Y-55831288D01*
X122570027Y-55831288D02*
X122665265Y-55783669D01*
X122665265Y-55783669D02*
X122712884Y-55736049D01*
X122712884Y-55736049D02*
X122760503Y-55640811D01*
X122760503Y-55640811D02*
X122760503Y-55402716D01*
X122760503Y-55402716D02*
X122712884Y-55307478D01*
X122712884Y-55307478D02*
X122665265Y-55259859D01*
X122665265Y-55259859D02*
X122570027Y-55212240D01*
X122570027Y-55212240D02*
X122379551Y-55212240D01*
X122379551Y-55212240D02*
X122284313Y-55259859D01*
X122284313Y-55259859D02*
X122236694Y-55307478D01*
X122236694Y-55307478D02*
X122189075Y-55402716D01*
X103932180Y-43366754D02*
X102932180Y-43366754D01*
X102932180Y-43366754D02*
X102932180Y-43128659D01*
X102932180Y-43128659D02*
X102979799Y-42985802D01*
X102979799Y-42985802D02*
X103075037Y-42890564D01*
X103075037Y-42890564D02*
X103170275Y-42842945D01*
X103170275Y-42842945D02*
X103360751Y-42795326D01*
X103360751Y-42795326D02*
X103503608Y-42795326D01*
X103503608Y-42795326D02*
X103694084Y-42842945D01*
X103694084Y-42842945D02*
X103789322Y-42890564D01*
X103789322Y-42890564D02*
X103884561Y-42985802D01*
X103884561Y-42985802D02*
X103932180Y-43128659D01*
X103932180Y-43128659D02*
X103932180Y-43366754D01*
X103027418Y-42414373D02*
X102979799Y-42366754D01*
X102979799Y-42366754D02*
X102932180Y-42271516D01*
X102932180Y-42271516D02*
X102932180Y-42033421D01*
X102932180Y-42033421D02*
X102979799Y-41938183D01*
X102979799Y-41938183D02*
X103027418Y-41890564D01*
X103027418Y-41890564D02*
X103122656Y-41842945D01*
X103122656Y-41842945D02*
X103217894Y-41842945D01*
X103217894Y-41842945D02*
X103360751Y-41890564D01*
X103360751Y-41890564D02*
X103932180Y-42461992D01*
X103932180Y-42461992D02*
X103932180Y-41842945D01*
X102932180Y-41509611D02*
X102932180Y-40890564D01*
X102932180Y-40890564D02*
X103313132Y-41223897D01*
X103313132Y-41223897D02*
X103313132Y-41081040D01*
X103313132Y-41081040D02*
X103360751Y-40985802D01*
X103360751Y-40985802D02*
X103408370Y-40938183D01*
X103408370Y-40938183D02*
X103503608Y-40890564D01*
X103503608Y-40890564D02*
X103741703Y-40890564D01*
X103741703Y-40890564D02*
X103836941Y-40938183D01*
X103836941Y-40938183D02*
X103884561Y-40985802D01*
X103884561Y-40985802D02*
X103932180Y-41081040D01*
X103932180Y-41081040D02*
X103932180Y-41366754D01*
X103932180Y-41366754D02*
X103884561Y-41461992D01*
X103884561Y-41461992D02*
X103836941Y-41509611D01*
X103562180Y-37334373D02*
X102562180Y-37334373D01*
X103562180Y-36762945D02*
X102990751Y-37191516D01*
X102562180Y-36762945D02*
X103133608Y-37334373D01*
X142662180Y-51343992D02*
X141662180Y-51343992D01*
X141662180Y-51343992D02*
X142376465Y-51010659D01*
X142376465Y-51010659D02*
X141662180Y-50677326D01*
X141662180Y-50677326D02*
X142662180Y-50677326D01*
X142662180Y-49677326D02*
X142662180Y-50248754D01*
X142662180Y-49963040D02*
X141662180Y-49963040D01*
X141662180Y-49963040D02*
X141805037Y-50058278D01*
X141805037Y-50058278D02*
X141900275Y-50153516D01*
X141900275Y-50153516D02*
X141947894Y-50248754D01*
X158598503Y-115156049D02*
X158550884Y-115203669D01*
X158550884Y-115203669D02*
X158408027Y-115251288D01*
X158408027Y-115251288D02*
X158312789Y-115251288D01*
X158312789Y-115251288D02*
X158169932Y-115203669D01*
X158169932Y-115203669D02*
X158074694Y-115108430D01*
X158074694Y-115108430D02*
X158027075Y-115013192D01*
X158027075Y-115013192D02*
X157979456Y-114822716D01*
X157979456Y-114822716D02*
X157979456Y-114679859D01*
X157979456Y-114679859D02*
X158027075Y-114489383D01*
X158027075Y-114489383D02*
X158074694Y-114394145D01*
X158074694Y-114394145D02*
X158169932Y-114298907D01*
X158169932Y-114298907D02*
X158312789Y-114251288D01*
X158312789Y-114251288D02*
X158408027Y-114251288D01*
X158408027Y-114251288D02*
X158550884Y-114298907D01*
X158550884Y-114298907D02*
X158598503Y-114346526D01*
X159550884Y-115251288D02*
X158979456Y-115251288D01*
X159265170Y-115251288D02*
X159265170Y-114251288D01*
X159265170Y-114251288D02*
X159169932Y-114394145D01*
X159169932Y-114394145D02*
X159074694Y-114489383D01*
X159074694Y-114489383D02*
X158979456Y-114537002D01*
X160169932Y-114251288D02*
X160265170Y-114251288D01*
X160265170Y-114251288D02*
X160360408Y-114298907D01*
X160360408Y-114298907D02*
X160408027Y-114346526D01*
X160408027Y-114346526D02*
X160455646Y-114441764D01*
X160455646Y-114441764D02*
X160503265Y-114632240D01*
X160503265Y-114632240D02*
X160503265Y-114870335D01*
X160503265Y-114870335D02*
X160455646Y-115060811D01*
X160455646Y-115060811D02*
X160408027Y-115156049D01*
X160408027Y-115156049D02*
X160360408Y-115203669D01*
X160360408Y-115203669D02*
X160265170Y-115251288D01*
X160265170Y-115251288D02*
X160169932Y-115251288D01*
X160169932Y-115251288D02*
X160074694Y-115203669D01*
X160074694Y-115203669D02*
X160027075Y-115156049D01*
X160027075Y-115156049D02*
X159979456Y-115060811D01*
X159979456Y-115060811D02*
X159931837Y-114870335D01*
X159931837Y-114870335D02*
X159931837Y-114632240D01*
X159931837Y-114632240D02*
X159979456Y-114441764D01*
X159979456Y-114441764D02*
X160027075Y-114346526D01*
X160027075Y-114346526D02*
X160074694Y-114298907D01*
X160074694Y-114298907D02*
X160169932Y-114251288D01*
X104750503Y-83914049D02*
X104702884Y-83961669D01*
X104702884Y-83961669D02*
X104560027Y-84009288D01*
X104560027Y-84009288D02*
X104464789Y-84009288D01*
X104464789Y-84009288D02*
X104321932Y-83961669D01*
X104321932Y-83961669D02*
X104226694Y-83866430D01*
X104226694Y-83866430D02*
X104179075Y-83771192D01*
X104179075Y-83771192D02*
X104131456Y-83580716D01*
X104131456Y-83580716D02*
X104131456Y-83437859D01*
X104131456Y-83437859D02*
X104179075Y-83247383D01*
X104179075Y-83247383D02*
X104226694Y-83152145D01*
X104226694Y-83152145D02*
X104321932Y-83056907D01*
X104321932Y-83056907D02*
X104464789Y-83009288D01*
X104464789Y-83009288D02*
X104560027Y-83009288D01*
X104560027Y-83009288D02*
X104702884Y-83056907D01*
X104702884Y-83056907D02*
X104750503Y-83104526D01*
X105702884Y-84009288D02*
X105131456Y-84009288D01*
X105417170Y-84009288D02*
X105417170Y-83009288D01*
X105417170Y-83009288D02*
X105321932Y-83152145D01*
X105321932Y-83152145D02*
X105226694Y-83247383D01*
X105226694Y-83247383D02*
X105131456Y-83295002D01*
X106036218Y-83009288D02*
X106702884Y-83009288D01*
X106702884Y-83009288D02*
X106274313Y-84009288D01*
X199664541Y-66600374D02*
X199664541Y-67219421D01*
X199664541Y-67219421D02*
X199283589Y-66886088D01*
X199283589Y-66886088D02*
X199283589Y-67028945D01*
X199283589Y-67028945D02*
X199235970Y-67124183D01*
X199235970Y-67124183D02*
X199188351Y-67171802D01*
X199188351Y-67171802D02*
X199093113Y-67219421D01*
X199093113Y-67219421D02*
X198855018Y-67219421D01*
X198855018Y-67219421D02*
X198759780Y-67171802D01*
X198759780Y-67171802D02*
X198712161Y-67124183D01*
X198712161Y-67124183D02*
X198664541Y-67028945D01*
X198664541Y-67028945D02*
X198664541Y-66743231D01*
X198664541Y-66743231D02*
X198712161Y-66647993D01*
X198712161Y-66647993D02*
X198759780Y-66600374D01*
X198759780Y-67647993D02*
X198712161Y-67695612D01*
X198712161Y-67695612D02*
X198664541Y-67647993D01*
X198664541Y-67647993D02*
X198712161Y-67600374D01*
X198712161Y-67600374D02*
X198759780Y-67647993D01*
X198759780Y-67647993D02*
X198664541Y-67647993D01*
X199664541Y-68028945D02*
X199664541Y-68647992D01*
X199664541Y-68647992D02*
X199283589Y-68314659D01*
X199283589Y-68314659D02*
X199283589Y-68457516D01*
X199283589Y-68457516D02*
X199235970Y-68552754D01*
X199235970Y-68552754D02*
X199188351Y-68600373D01*
X199188351Y-68600373D02*
X199093113Y-68647992D01*
X199093113Y-68647992D02*
X198855018Y-68647992D01*
X198855018Y-68647992D02*
X198759780Y-68600373D01*
X198759780Y-68600373D02*
X198712161Y-68552754D01*
X198712161Y-68552754D02*
X198664541Y-68457516D01*
X198664541Y-68457516D02*
X198664541Y-68171802D01*
X198664541Y-68171802D02*
X198712161Y-68076564D01*
X198712161Y-68076564D02*
X198759780Y-68028945D01*
X199664541Y-68933707D02*
X198664541Y-69267040D01*
X198664541Y-69267040D02*
X199664541Y-69600373D01*
X198664541Y-71267040D02*
X199140732Y-70933707D01*
X198664541Y-70695612D02*
X199664541Y-70695612D01*
X199664541Y-70695612D02*
X199664541Y-71076564D01*
X199664541Y-71076564D02*
X199616922Y-71171802D01*
X199616922Y-71171802D02*
X199569303Y-71219421D01*
X199569303Y-71219421D02*
X199474065Y-71267040D01*
X199474065Y-71267040D02*
X199331208Y-71267040D01*
X199331208Y-71267040D02*
X199235970Y-71219421D01*
X199235970Y-71219421D02*
X199188351Y-71171802D01*
X199188351Y-71171802D02*
X199140732Y-71076564D01*
X199140732Y-71076564D02*
X199140732Y-70695612D01*
X198712161Y-72076564D02*
X198664541Y-71981326D01*
X198664541Y-71981326D02*
X198664541Y-71790850D01*
X198664541Y-71790850D02*
X198712161Y-71695612D01*
X198712161Y-71695612D02*
X198807399Y-71647993D01*
X198807399Y-71647993D02*
X199188351Y-71647993D01*
X199188351Y-71647993D02*
X199283589Y-71695612D01*
X199283589Y-71695612D02*
X199331208Y-71790850D01*
X199331208Y-71790850D02*
X199331208Y-71981326D01*
X199331208Y-71981326D02*
X199283589Y-72076564D01*
X199283589Y-72076564D02*
X199188351Y-72124183D01*
X199188351Y-72124183D02*
X199093113Y-72124183D01*
X199093113Y-72124183D02*
X198997875Y-71647993D01*
X199331208Y-72981326D02*
X198521684Y-72981326D01*
X198521684Y-72981326D02*
X198426446Y-72933707D01*
X198426446Y-72933707D02*
X198378827Y-72886088D01*
X198378827Y-72886088D02*
X198331208Y-72790850D01*
X198331208Y-72790850D02*
X198331208Y-72647993D01*
X198331208Y-72647993D02*
X198378827Y-72552755D01*
X198712161Y-72981326D02*
X198664541Y-72886088D01*
X198664541Y-72886088D02*
X198664541Y-72695612D01*
X198664541Y-72695612D02*
X198712161Y-72600374D01*
X198712161Y-72600374D02*
X198759780Y-72552755D01*
X198759780Y-72552755D02*
X198855018Y-72505136D01*
X198855018Y-72505136D02*
X199140732Y-72505136D01*
X199140732Y-72505136D02*
X199235970Y-72552755D01*
X199235970Y-72552755D02*
X199283589Y-72600374D01*
X199283589Y-72600374D02*
X199331208Y-72695612D01*
X199331208Y-72695612D02*
X199331208Y-72886088D01*
X199331208Y-72886088D02*
X199283589Y-72981326D01*
X153149180Y-134457563D02*
X152149180Y-134457563D01*
X152149180Y-134457563D02*
X152149180Y-134219468D01*
X152149180Y-134219468D02*
X152196799Y-134076611D01*
X152196799Y-134076611D02*
X152292037Y-133981373D01*
X152292037Y-133981373D02*
X152387275Y-133933754D01*
X152387275Y-133933754D02*
X152577751Y-133886135D01*
X152577751Y-133886135D02*
X152720608Y-133886135D01*
X152720608Y-133886135D02*
X152911084Y-133933754D01*
X152911084Y-133933754D02*
X153006322Y-133981373D01*
X153006322Y-133981373D02*
X153101561Y-134076611D01*
X153101561Y-134076611D02*
X153149180Y-134219468D01*
X153149180Y-134219468D02*
X153149180Y-134457563D01*
X152149180Y-133552801D02*
X152149180Y-132933754D01*
X152149180Y-132933754D02*
X152530132Y-133267087D01*
X152530132Y-133267087D02*
X152530132Y-133124230D01*
X152530132Y-133124230D02*
X152577751Y-133028992D01*
X152577751Y-133028992D02*
X152625370Y-132981373D01*
X152625370Y-132981373D02*
X152720608Y-132933754D01*
X152720608Y-132933754D02*
X152958703Y-132933754D01*
X152958703Y-132933754D02*
X153053941Y-132981373D01*
X153053941Y-132981373D02*
X153101561Y-133028992D01*
X153101561Y-133028992D02*
X153149180Y-133124230D01*
X153149180Y-133124230D02*
X153149180Y-133409944D01*
X153149180Y-133409944D02*
X153101561Y-133505182D01*
X153101561Y-133505182D02*
X153053941Y-133552801D01*
X152779180Y-128901373D02*
X151779180Y-128901373D01*
X152779180Y-128329945D02*
X152207751Y-128758516D01*
X151779180Y-128329945D02*
X152350608Y-128901373D01*
X109894075Y-106685288D02*
X109894075Y-105685288D01*
X109894075Y-105685288D02*
X110132170Y-105685288D01*
X110132170Y-105685288D02*
X110275027Y-105732907D01*
X110275027Y-105732907D02*
X110370265Y-105828145D01*
X110370265Y-105828145D02*
X110417884Y-105923383D01*
X110417884Y-105923383D02*
X110465503Y-106113859D01*
X110465503Y-106113859D02*
X110465503Y-106256716D01*
X110465503Y-106256716D02*
X110417884Y-106447192D01*
X110417884Y-106447192D02*
X110370265Y-106542430D01*
X110370265Y-106542430D02*
X110275027Y-106637669D01*
X110275027Y-106637669D02*
X110132170Y-106685288D01*
X110132170Y-106685288D02*
X109894075Y-106685288D01*
X111417884Y-106685288D02*
X110846456Y-106685288D01*
X111132170Y-106685288D02*
X111132170Y-105685288D01*
X111132170Y-105685288D02*
X111036932Y-105828145D01*
X111036932Y-105828145D02*
X110941694Y-105923383D01*
X110941694Y-105923383D02*
X110846456Y-105971002D01*
X111989313Y-106113859D02*
X111894075Y-106066240D01*
X111894075Y-106066240D02*
X111846456Y-106018621D01*
X111846456Y-106018621D02*
X111798837Y-105923383D01*
X111798837Y-105923383D02*
X111798837Y-105875764D01*
X111798837Y-105875764D02*
X111846456Y-105780526D01*
X111846456Y-105780526D02*
X111894075Y-105732907D01*
X111894075Y-105732907D02*
X111989313Y-105685288D01*
X111989313Y-105685288D02*
X112179789Y-105685288D01*
X112179789Y-105685288D02*
X112275027Y-105732907D01*
X112275027Y-105732907D02*
X112322646Y-105780526D01*
X112322646Y-105780526D02*
X112370265Y-105875764D01*
X112370265Y-105875764D02*
X112370265Y-105923383D01*
X112370265Y-105923383D02*
X112322646Y-106018621D01*
X112322646Y-106018621D02*
X112275027Y-106066240D01*
X112275027Y-106066240D02*
X112179789Y-106113859D01*
X112179789Y-106113859D02*
X111989313Y-106113859D01*
X111989313Y-106113859D02*
X111894075Y-106161478D01*
X111894075Y-106161478D02*
X111846456Y-106209097D01*
X111846456Y-106209097D02*
X111798837Y-106304335D01*
X111798837Y-106304335D02*
X111798837Y-106494811D01*
X111798837Y-106494811D02*
X111846456Y-106590049D01*
X111846456Y-106590049D02*
X111894075Y-106637669D01*
X111894075Y-106637669D02*
X111989313Y-106685288D01*
X111989313Y-106685288D02*
X112179789Y-106685288D01*
X112179789Y-106685288D02*
X112275027Y-106637669D01*
X112275027Y-106637669D02*
X112322646Y-106590049D01*
X112322646Y-106590049D02*
X112370265Y-106494811D01*
X112370265Y-106494811D02*
X112370265Y-106304335D01*
X112370265Y-106304335D02*
X112322646Y-106209097D01*
X112322646Y-106209097D02*
X112275027Y-106161478D01*
X112275027Y-106161478D02*
X112179789Y-106113859D01*
X105766456Y-107055288D02*
X105766456Y-106055288D01*
X106337884Y-107055288D02*
X105909313Y-106483859D01*
X106337884Y-106055288D02*
X105766456Y-106626716D01*
X118038180Y-43366754D02*
X117038180Y-43366754D01*
X117038180Y-43366754D02*
X117038180Y-43128659D01*
X117038180Y-43128659D02*
X117085799Y-42985802D01*
X117085799Y-42985802D02*
X117181037Y-42890564D01*
X117181037Y-42890564D02*
X117276275Y-42842945D01*
X117276275Y-42842945D02*
X117466751Y-42795326D01*
X117466751Y-42795326D02*
X117609608Y-42795326D01*
X117609608Y-42795326D02*
X117800084Y-42842945D01*
X117800084Y-42842945D02*
X117895322Y-42890564D01*
X117895322Y-42890564D02*
X117990561Y-42985802D01*
X117990561Y-42985802D02*
X118038180Y-43128659D01*
X118038180Y-43128659D02*
X118038180Y-43366754D01*
X117133418Y-42414373D02*
X117085799Y-42366754D01*
X117085799Y-42366754D02*
X117038180Y-42271516D01*
X117038180Y-42271516D02*
X117038180Y-42033421D01*
X117038180Y-42033421D02*
X117085799Y-41938183D01*
X117085799Y-41938183D02*
X117133418Y-41890564D01*
X117133418Y-41890564D02*
X117228656Y-41842945D01*
X117228656Y-41842945D02*
X117323894Y-41842945D01*
X117323894Y-41842945D02*
X117466751Y-41890564D01*
X117466751Y-41890564D02*
X118038180Y-42461992D01*
X118038180Y-42461992D02*
X118038180Y-41842945D01*
X117038180Y-40938183D02*
X117038180Y-41414373D01*
X117038180Y-41414373D02*
X117514370Y-41461992D01*
X117514370Y-41461992D02*
X117466751Y-41414373D01*
X117466751Y-41414373D02*
X117419132Y-41319135D01*
X117419132Y-41319135D02*
X117419132Y-41081040D01*
X117419132Y-41081040D02*
X117466751Y-40985802D01*
X117466751Y-40985802D02*
X117514370Y-40938183D01*
X117514370Y-40938183D02*
X117609608Y-40890564D01*
X117609608Y-40890564D02*
X117847703Y-40890564D01*
X117847703Y-40890564D02*
X117942941Y-40938183D01*
X117942941Y-40938183D02*
X117990561Y-40985802D01*
X117990561Y-40985802D02*
X118038180Y-41081040D01*
X118038180Y-41081040D02*
X118038180Y-41319135D01*
X118038180Y-41319135D02*
X117990561Y-41414373D01*
X117990561Y-41414373D02*
X117942941Y-41461992D01*
X117668180Y-37334373D02*
X116668180Y-37334373D01*
X117668180Y-36762945D02*
X117096751Y-37191516D01*
X116668180Y-36762945D02*
X117239608Y-37334373D01*
X192224180Y-48049850D02*
X192224180Y-48526040D01*
X192224180Y-48526040D02*
X192700370Y-48573659D01*
X192700370Y-48573659D02*
X192652751Y-48526040D01*
X192652751Y-48526040D02*
X192605132Y-48430802D01*
X192605132Y-48430802D02*
X192605132Y-48192707D01*
X192605132Y-48192707D02*
X192652751Y-48097469D01*
X192652751Y-48097469D02*
X192700370Y-48049850D01*
X192700370Y-48049850D02*
X192795608Y-48002231D01*
X192795608Y-48002231D02*
X193033703Y-48002231D01*
X193033703Y-48002231D02*
X193128941Y-48049850D01*
X193128941Y-48049850D02*
X193176561Y-48097469D01*
X193176561Y-48097469D02*
X193224180Y-48192707D01*
X193224180Y-48192707D02*
X193224180Y-48430802D01*
X193224180Y-48430802D02*
X193176561Y-48526040D01*
X193176561Y-48526040D02*
X193128941Y-48573659D01*
X192224180Y-47716516D02*
X193224180Y-47383183D01*
X193224180Y-47383183D02*
X192224180Y-47049850D01*
X192224180Y-46097468D02*
X192224180Y-45526040D01*
X193224180Y-45811754D02*
X192224180Y-45811754D01*
X193224180Y-45192706D02*
X192224180Y-45192706D01*
X192224180Y-45192706D02*
X192224180Y-44811754D01*
X192224180Y-44811754D02*
X192271799Y-44716516D01*
X192271799Y-44716516D02*
X192319418Y-44668897D01*
X192319418Y-44668897D02*
X192414656Y-44621278D01*
X192414656Y-44621278D02*
X192557513Y-44621278D01*
X192557513Y-44621278D02*
X192652751Y-44668897D01*
X192652751Y-44668897D02*
X192700370Y-44716516D01*
X192700370Y-44716516D02*
X192747989Y-44811754D01*
X192747989Y-44811754D02*
X192747989Y-45192706D01*
X193110694Y-51500049D02*
X193063075Y-51547669D01*
X193063075Y-51547669D02*
X192920218Y-51595288D01*
X192920218Y-51595288D02*
X192824980Y-51595288D01*
X192824980Y-51595288D02*
X192682123Y-51547669D01*
X192682123Y-51547669D02*
X192586885Y-51452430D01*
X192586885Y-51452430D02*
X192539266Y-51357192D01*
X192539266Y-51357192D02*
X192491647Y-51166716D01*
X192491647Y-51166716D02*
X192491647Y-51023859D01*
X192491647Y-51023859D02*
X192539266Y-50833383D01*
X192539266Y-50833383D02*
X192586885Y-50738145D01*
X192586885Y-50738145D02*
X192682123Y-50642907D01*
X192682123Y-50642907D02*
X192824980Y-50595288D01*
X192824980Y-50595288D02*
X192920218Y-50595288D01*
X192920218Y-50595288D02*
X193063075Y-50642907D01*
X193063075Y-50642907D02*
X193110694Y-50690526D01*
X193491647Y-50690526D02*
X193539266Y-50642907D01*
X193539266Y-50642907D02*
X193634504Y-50595288D01*
X193634504Y-50595288D02*
X193872599Y-50595288D01*
X193872599Y-50595288D02*
X193967837Y-50642907D01*
X193967837Y-50642907D02*
X194015456Y-50690526D01*
X194015456Y-50690526D02*
X194063075Y-50785764D01*
X194063075Y-50785764D02*
X194063075Y-50881002D01*
X194063075Y-50881002D02*
X194015456Y-51023859D01*
X194015456Y-51023859D02*
X193444028Y-51595288D01*
X193444028Y-51595288D02*
X194063075Y-51595288D01*
X104086180Y-122209992D02*
X103086180Y-122209992D01*
X103086180Y-122209992D02*
X103800465Y-121876659D01*
X103800465Y-121876659D02*
X103086180Y-121543326D01*
X103086180Y-121543326D02*
X104086180Y-121543326D01*
X103086180Y-121162373D02*
X103086180Y-120543326D01*
X103086180Y-120543326D02*
X103467132Y-120876659D01*
X103467132Y-120876659D02*
X103467132Y-120733802D01*
X103467132Y-120733802D02*
X103514751Y-120638564D01*
X103514751Y-120638564D02*
X103562370Y-120590945D01*
X103562370Y-120590945D02*
X103657608Y-120543326D01*
X103657608Y-120543326D02*
X103895703Y-120543326D01*
X103895703Y-120543326D02*
X103990941Y-120590945D01*
X103990941Y-120590945D02*
X104038561Y-120638564D01*
X104038561Y-120638564D02*
X104086180Y-120733802D01*
X104086180Y-120733802D02*
X104086180Y-121019516D01*
X104086180Y-121019516D02*
X104038561Y-121114754D01*
X104038561Y-121114754D02*
X103990941Y-121162373D01*
X110275075Y-93477288D02*
X110275075Y-92477288D01*
X110275075Y-92477288D02*
X110513170Y-92477288D01*
X110513170Y-92477288D02*
X110656027Y-92524907D01*
X110656027Y-92524907D02*
X110751265Y-92620145D01*
X110751265Y-92620145D02*
X110798884Y-92715383D01*
X110798884Y-92715383D02*
X110846503Y-92905859D01*
X110846503Y-92905859D02*
X110846503Y-93048716D01*
X110846503Y-93048716D02*
X110798884Y-93239192D01*
X110798884Y-93239192D02*
X110751265Y-93334430D01*
X110751265Y-93334430D02*
X110656027Y-93429669D01*
X110656027Y-93429669D02*
X110513170Y-93477288D01*
X110513170Y-93477288D02*
X110275075Y-93477288D01*
X111227456Y-92572526D02*
X111275075Y-92524907D01*
X111275075Y-92524907D02*
X111370313Y-92477288D01*
X111370313Y-92477288D02*
X111608408Y-92477288D01*
X111608408Y-92477288D02*
X111703646Y-92524907D01*
X111703646Y-92524907D02*
X111751265Y-92572526D01*
X111751265Y-92572526D02*
X111798884Y-92667764D01*
X111798884Y-92667764D02*
X111798884Y-92763002D01*
X111798884Y-92763002D02*
X111751265Y-92905859D01*
X111751265Y-92905859D02*
X111179837Y-93477288D01*
X111179837Y-93477288D02*
X111798884Y-93477288D01*
X112417932Y-92477288D02*
X112513170Y-92477288D01*
X112513170Y-92477288D02*
X112608408Y-92524907D01*
X112608408Y-92524907D02*
X112656027Y-92572526D01*
X112656027Y-92572526D02*
X112703646Y-92667764D01*
X112703646Y-92667764D02*
X112751265Y-92858240D01*
X112751265Y-92858240D02*
X112751265Y-93096335D01*
X112751265Y-93096335D02*
X112703646Y-93286811D01*
X112703646Y-93286811D02*
X112656027Y-93382049D01*
X112656027Y-93382049D02*
X112608408Y-93429669D01*
X112608408Y-93429669D02*
X112513170Y-93477288D01*
X112513170Y-93477288D02*
X112417932Y-93477288D01*
X112417932Y-93477288D02*
X112322694Y-93429669D01*
X112322694Y-93429669D02*
X112275075Y-93382049D01*
X112275075Y-93382049D02*
X112227456Y-93286811D01*
X112227456Y-93286811D02*
X112179837Y-93096335D01*
X112179837Y-93096335D02*
X112179837Y-92858240D01*
X112179837Y-92858240D02*
X112227456Y-92667764D01*
X112227456Y-92667764D02*
X112275075Y-92572526D01*
X112275075Y-92572526D02*
X112322694Y-92524907D01*
X112322694Y-92524907D02*
X112417932Y-92477288D01*
X106147456Y-93847288D02*
X106147456Y-92847288D01*
X106718884Y-93847288D02*
X106290313Y-93275859D01*
X106718884Y-92847288D02*
X106147456Y-93418716D01*
X110021075Y-125989288D02*
X110021075Y-124989288D01*
X110021075Y-124989288D02*
X110259170Y-124989288D01*
X110259170Y-124989288D02*
X110402027Y-125036907D01*
X110402027Y-125036907D02*
X110497265Y-125132145D01*
X110497265Y-125132145D02*
X110544884Y-125227383D01*
X110544884Y-125227383D02*
X110592503Y-125417859D01*
X110592503Y-125417859D02*
X110592503Y-125560716D01*
X110592503Y-125560716D02*
X110544884Y-125751192D01*
X110544884Y-125751192D02*
X110497265Y-125846430D01*
X110497265Y-125846430D02*
X110402027Y-125941669D01*
X110402027Y-125941669D02*
X110259170Y-125989288D01*
X110259170Y-125989288D02*
X110021075Y-125989288D01*
X111544884Y-125989288D02*
X110973456Y-125989288D01*
X111259170Y-125989288D02*
X111259170Y-124989288D01*
X111259170Y-124989288D02*
X111163932Y-125132145D01*
X111163932Y-125132145D02*
X111068694Y-125227383D01*
X111068694Y-125227383D02*
X110973456Y-125275002D01*
X112402027Y-125322621D02*
X112402027Y-125989288D01*
X112163932Y-124941669D02*
X111925837Y-125655954D01*
X111925837Y-125655954D02*
X112544884Y-125655954D01*
X105893456Y-126359288D02*
X105893456Y-125359288D01*
X106464884Y-126359288D02*
X106036313Y-125787859D01*
X106464884Y-125359288D02*
X105893456Y-125930716D01*
X161534941Y-131451635D02*
X161582561Y-131499254D01*
X161582561Y-131499254D02*
X161630180Y-131642111D01*
X161630180Y-131642111D02*
X161630180Y-131737349D01*
X161630180Y-131737349D02*
X161582561Y-131880206D01*
X161582561Y-131880206D02*
X161487322Y-131975444D01*
X161487322Y-131975444D02*
X161392084Y-132023063D01*
X161392084Y-132023063D02*
X161201608Y-132070682D01*
X161201608Y-132070682D02*
X161058751Y-132070682D01*
X161058751Y-132070682D02*
X160868275Y-132023063D01*
X160868275Y-132023063D02*
X160773037Y-131975444D01*
X160773037Y-131975444D02*
X160677799Y-131880206D01*
X160677799Y-131880206D02*
X160630180Y-131737349D01*
X160630180Y-131737349D02*
X160630180Y-131642111D01*
X160630180Y-131642111D02*
X160677799Y-131499254D01*
X160677799Y-131499254D02*
X160725418Y-131451635D01*
X160630180Y-130594492D02*
X160630180Y-130784968D01*
X160630180Y-130784968D02*
X160677799Y-130880206D01*
X160677799Y-130880206D02*
X160725418Y-130927825D01*
X160725418Y-130927825D02*
X160868275Y-131023063D01*
X160868275Y-131023063D02*
X161058751Y-131070682D01*
X161058751Y-131070682D02*
X161439703Y-131070682D01*
X161439703Y-131070682D02*
X161534941Y-131023063D01*
X161534941Y-131023063D02*
X161582561Y-130975444D01*
X161582561Y-130975444D02*
X161630180Y-130880206D01*
X161630180Y-130880206D02*
X161630180Y-130689730D01*
X161630180Y-130689730D02*
X161582561Y-130594492D01*
X161582561Y-130594492D02*
X161534941Y-130546873D01*
X161534941Y-130546873D02*
X161439703Y-130499254D01*
X161439703Y-130499254D02*
X161201608Y-130499254D01*
X161201608Y-130499254D02*
X161106370Y-130546873D01*
X161106370Y-130546873D02*
X161058751Y-130594492D01*
X161058751Y-130594492D02*
X161011132Y-130689730D01*
X161011132Y-130689730D02*
X161011132Y-130880206D01*
X161011132Y-130880206D02*
X161058751Y-130975444D01*
X161058751Y-130975444D02*
X161106370Y-131023063D01*
X161106370Y-131023063D02*
X161201608Y-131070682D01*
X156070180Y-59400563D02*
X155070180Y-59400563D01*
X155070180Y-59400563D02*
X155070180Y-59162468D01*
X155070180Y-59162468D02*
X155117799Y-59019611D01*
X155117799Y-59019611D02*
X155213037Y-58924373D01*
X155213037Y-58924373D02*
X155308275Y-58876754D01*
X155308275Y-58876754D02*
X155498751Y-58829135D01*
X155498751Y-58829135D02*
X155641608Y-58829135D01*
X155641608Y-58829135D02*
X155832084Y-58876754D01*
X155832084Y-58876754D02*
X155927322Y-58924373D01*
X155927322Y-58924373D02*
X156022561Y-59019611D01*
X156022561Y-59019611D02*
X156070180Y-59162468D01*
X156070180Y-59162468D02*
X156070180Y-59400563D01*
X155070180Y-57971992D02*
X155070180Y-58162468D01*
X155070180Y-58162468D02*
X155117799Y-58257706D01*
X155117799Y-58257706D02*
X155165418Y-58305325D01*
X155165418Y-58305325D02*
X155308275Y-58400563D01*
X155308275Y-58400563D02*
X155498751Y-58448182D01*
X155498751Y-58448182D02*
X155879703Y-58448182D01*
X155879703Y-58448182D02*
X155974941Y-58400563D01*
X155974941Y-58400563D02*
X156022561Y-58352944D01*
X156022561Y-58352944D02*
X156070180Y-58257706D01*
X156070180Y-58257706D02*
X156070180Y-58067230D01*
X156070180Y-58067230D02*
X156022561Y-57971992D01*
X156022561Y-57971992D02*
X155974941Y-57924373D01*
X155974941Y-57924373D02*
X155879703Y-57876754D01*
X155879703Y-57876754D02*
X155641608Y-57876754D01*
X155641608Y-57876754D02*
X155546370Y-57924373D01*
X155546370Y-57924373D02*
X155498751Y-57971992D01*
X155498751Y-57971992D02*
X155451132Y-58067230D01*
X155451132Y-58067230D02*
X155451132Y-58257706D01*
X155451132Y-58257706D02*
X155498751Y-58352944D01*
X155498751Y-58352944D02*
X155546370Y-58400563D01*
X155546370Y-58400563D02*
X155641608Y-58448182D01*
X155700180Y-53844373D02*
X154700180Y-53844373D01*
X155700180Y-53272945D02*
X155128751Y-53701516D01*
X154700180Y-53272945D02*
X155271608Y-53844373D01*
X201930095Y-26480819D02*
X201930095Y-25480819D01*
X201930095Y-25957009D02*
X202501523Y-25957009D01*
X202501523Y-26480819D02*
X202501523Y-25480819D01*
X202930095Y-25576057D02*
X202977714Y-25528438D01*
X202977714Y-25528438D02*
X203072952Y-25480819D01*
X203072952Y-25480819D02*
X203311047Y-25480819D01*
X203311047Y-25480819D02*
X203406285Y-25528438D01*
X203406285Y-25528438D02*
X203453904Y-25576057D01*
X203453904Y-25576057D02*
X203501523Y-25671295D01*
X203501523Y-25671295D02*
X203501523Y-25766533D01*
X203501523Y-25766533D02*
X203453904Y-25909390D01*
X203453904Y-25909390D02*
X202882476Y-26480819D01*
X202882476Y-26480819D02*
X203501523Y-26480819D01*
X174314694Y-90359288D02*
X173981361Y-89883097D01*
X173743266Y-90359288D02*
X173743266Y-89359288D01*
X173743266Y-89359288D02*
X174124218Y-89359288D01*
X174124218Y-89359288D02*
X174219456Y-89406907D01*
X174219456Y-89406907D02*
X174267075Y-89454526D01*
X174267075Y-89454526D02*
X174314694Y-89549764D01*
X174314694Y-89549764D02*
X174314694Y-89692621D01*
X174314694Y-89692621D02*
X174267075Y-89787859D01*
X174267075Y-89787859D02*
X174219456Y-89835478D01*
X174219456Y-89835478D02*
X174124218Y-89883097D01*
X174124218Y-89883097D02*
X173743266Y-89883097D01*
X175219456Y-89359288D02*
X174743266Y-89359288D01*
X174743266Y-89359288D02*
X174695647Y-89835478D01*
X174695647Y-89835478D02*
X174743266Y-89787859D01*
X174743266Y-89787859D02*
X174838504Y-89740240D01*
X174838504Y-89740240D02*
X175076599Y-89740240D01*
X175076599Y-89740240D02*
X175171837Y-89787859D01*
X175171837Y-89787859D02*
X175219456Y-89835478D01*
X175219456Y-89835478D02*
X175267075Y-89930716D01*
X175267075Y-89930716D02*
X175267075Y-90168811D01*
X175267075Y-90168811D02*
X175219456Y-90264049D01*
X175219456Y-90264049D02*
X175171837Y-90311669D01*
X175171837Y-90311669D02*
X175076599Y-90359288D01*
X175076599Y-90359288D02*
X174838504Y-90359288D01*
X174838504Y-90359288D02*
X174743266Y-90311669D01*
X174743266Y-90311669D02*
X174695647Y-90264049D01*
X188560194Y-70804049D02*
X188512575Y-70851669D01*
X188512575Y-70851669D02*
X188369718Y-70899288D01*
X188369718Y-70899288D02*
X188274480Y-70899288D01*
X188274480Y-70899288D02*
X188131623Y-70851669D01*
X188131623Y-70851669D02*
X188036385Y-70756430D01*
X188036385Y-70756430D02*
X187988766Y-70661192D01*
X187988766Y-70661192D02*
X187941147Y-70470716D01*
X187941147Y-70470716D02*
X187941147Y-70327859D01*
X187941147Y-70327859D02*
X187988766Y-70137383D01*
X187988766Y-70137383D02*
X188036385Y-70042145D01*
X188036385Y-70042145D02*
X188131623Y-69946907D01*
X188131623Y-69946907D02*
X188274480Y-69899288D01*
X188274480Y-69899288D02*
X188369718Y-69899288D01*
X188369718Y-69899288D02*
X188512575Y-69946907D01*
X188512575Y-69946907D02*
X188560194Y-69994526D01*
X189417337Y-70232621D02*
X189417337Y-70899288D01*
X189179242Y-69851669D02*
X188941147Y-70565954D01*
X188941147Y-70565954D02*
X189560194Y-70565954D01*
X178378694Y-120585288D02*
X178045361Y-120109097D01*
X177807266Y-120585288D02*
X177807266Y-119585288D01*
X177807266Y-119585288D02*
X178188218Y-119585288D01*
X178188218Y-119585288D02*
X178283456Y-119632907D01*
X178283456Y-119632907D02*
X178331075Y-119680526D01*
X178331075Y-119680526D02*
X178378694Y-119775764D01*
X178378694Y-119775764D02*
X178378694Y-119918621D01*
X178378694Y-119918621D02*
X178331075Y-120013859D01*
X178331075Y-120013859D02*
X178283456Y-120061478D01*
X178283456Y-120061478D02*
X178188218Y-120109097D01*
X178188218Y-120109097D02*
X177807266Y-120109097D01*
X178854885Y-120585288D02*
X179045361Y-120585288D01*
X179045361Y-120585288D02*
X179140599Y-120537669D01*
X179140599Y-120537669D02*
X179188218Y-120490049D01*
X179188218Y-120490049D02*
X179283456Y-120347192D01*
X179283456Y-120347192D02*
X179331075Y-120156716D01*
X179331075Y-120156716D02*
X179331075Y-119775764D01*
X179331075Y-119775764D02*
X179283456Y-119680526D01*
X179283456Y-119680526D02*
X179235837Y-119632907D01*
X179235837Y-119632907D02*
X179140599Y-119585288D01*
X179140599Y-119585288D02*
X178950123Y-119585288D01*
X178950123Y-119585288D02*
X178854885Y-119632907D01*
X178854885Y-119632907D02*
X178807266Y-119680526D01*
X178807266Y-119680526D02*
X178759647Y-119775764D01*
X178759647Y-119775764D02*
X178759647Y-120013859D01*
X178759647Y-120013859D02*
X178807266Y-120109097D01*
X178807266Y-120109097D02*
X178854885Y-120156716D01*
X178854885Y-120156716D02*
X178950123Y-120204335D01*
X178950123Y-120204335D02*
X179140599Y-120204335D01*
X179140599Y-120204335D02*
X179235837Y-120156716D01*
X179235837Y-120156716D02*
X179283456Y-120109097D01*
X179283456Y-120109097D02*
X179331075Y-120013859D01*
X141465180Y-42763563D02*
X140465180Y-42763563D01*
X140465180Y-42763563D02*
X140465180Y-42525468D01*
X140465180Y-42525468D02*
X140512799Y-42382611D01*
X140512799Y-42382611D02*
X140608037Y-42287373D01*
X140608037Y-42287373D02*
X140703275Y-42239754D01*
X140703275Y-42239754D02*
X140893751Y-42192135D01*
X140893751Y-42192135D02*
X141036608Y-42192135D01*
X141036608Y-42192135D02*
X141227084Y-42239754D01*
X141227084Y-42239754D02*
X141322322Y-42287373D01*
X141322322Y-42287373D02*
X141417561Y-42382611D01*
X141417561Y-42382611D02*
X141465180Y-42525468D01*
X141465180Y-42525468D02*
X141465180Y-42763563D01*
X140465180Y-41858801D02*
X140465180Y-41192135D01*
X140465180Y-41192135D02*
X141465180Y-41620706D01*
X141095180Y-37207373D02*
X140095180Y-37207373D01*
X141095180Y-36635945D02*
X140523751Y-37064516D01*
X140095180Y-36635945D02*
X140666608Y-37207373D01*
X131364180Y-43366754D02*
X130364180Y-43366754D01*
X130364180Y-43366754D02*
X130364180Y-43128659D01*
X130364180Y-43128659D02*
X130411799Y-42985802D01*
X130411799Y-42985802D02*
X130507037Y-42890564D01*
X130507037Y-42890564D02*
X130602275Y-42842945D01*
X130602275Y-42842945D02*
X130792751Y-42795326D01*
X130792751Y-42795326D02*
X130935608Y-42795326D01*
X130935608Y-42795326D02*
X131126084Y-42842945D01*
X131126084Y-42842945D02*
X131221322Y-42890564D01*
X131221322Y-42890564D02*
X131316561Y-42985802D01*
X131316561Y-42985802D02*
X131364180Y-43128659D01*
X131364180Y-43128659D02*
X131364180Y-43366754D01*
X130459418Y-42414373D02*
X130411799Y-42366754D01*
X130411799Y-42366754D02*
X130364180Y-42271516D01*
X130364180Y-42271516D02*
X130364180Y-42033421D01*
X130364180Y-42033421D02*
X130411799Y-41938183D01*
X130411799Y-41938183D02*
X130459418Y-41890564D01*
X130459418Y-41890564D02*
X130554656Y-41842945D01*
X130554656Y-41842945D02*
X130649894Y-41842945D01*
X130649894Y-41842945D02*
X130792751Y-41890564D01*
X130792751Y-41890564D02*
X131364180Y-42461992D01*
X131364180Y-42461992D02*
X131364180Y-41842945D01*
X130364180Y-41509611D02*
X130364180Y-40842945D01*
X130364180Y-40842945D02*
X131364180Y-41271516D01*
X130994180Y-37334373D02*
X129994180Y-37334373D01*
X130994180Y-36762945D02*
X130422751Y-37191516D01*
X129994180Y-36762945D02*
X130565608Y-37334373D01*
X104340180Y-102143992D02*
X103340180Y-102143992D01*
X103340180Y-102143992D02*
X104054465Y-101810659D01*
X104054465Y-101810659D02*
X103340180Y-101477326D01*
X103340180Y-101477326D02*
X104340180Y-101477326D01*
X103673513Y-100572564D02*
X104340180Y-100572564D01*
X103292561Y-100810659D02*
X104006846Y-101048754D01*
X104006846Y-101048754D02*
X104006846Y-100429707D01*
X133706503Y-70960049D02*
X133658884Y-71007669D01*
X133658884Y-71007669D02*
X133516027Y-71055288D01*
X133516027Y-71055288D02*
X133420789Y-71055288D01*
X133420789Y-71055288D02*
X133277932Y-71007669D01*
X133277932Y-71007669D02*
X133182694Y-70912430D01*
X133182694Y-70912430D02*
X133135075Y-70817192D01*
X133135075Y-70817192D02*
X133087456Y-70626716D01*
X133087456Y-70626716D02*
X133087456Y-70483859D01*
X133087456Y-70483859D02*
X133135075Y-70293383D01*
X133135075Y-70293383D02*
X133182694Y-70198145D01*
X133182694Y-70198145D02*
X133277932Y-70102907D01*
X133277932Y-70102907D02*
X133420789Y-70055288D01*
X133420789Y-70055288D02*
X133516027Y-70055288D01*
X133516027Y-70055288D02*
X133658884Y-70102907D01*
X133658884Y-70102907D02*
X133706503Y-70150526D01*
X134658884Y-71055288D02*
X134087456Y-71055288D01*
X134373170Y-71055288D02*
X134373170Y-70055288D01*
X134373170Y-70055288D02*
X134277932Y-70198145D01*
X134277932Y-70198145D02*
X134182694Y-70293383D01*
X134182694Y-70293383D02*
X134087456Y-70341002D01*
X135230313Y-70483859D02*
X135135075Y-70436240D01*
X135135075Y-70436240D02*
X135087456Y-70388621D01*
X135087456Y-70388621D02*
X135039837Y-70293383D01*
X135039837Y-70293383D02*
X135039837Y-70245764D01*
X135039837Y-70245764D02*
X135087456Y-70150526D01*
X135087456Y-70150526D02*
X135135075Y-70102907D01*
X135135075Y-70102907D02*
X135230313Y-70055288D01*
X135230313Y-70055288D02*
X135420789Y-70055288D01*
X135420789Y-70055288D02*
X135516027Y-70102907D01*
X135516027Y-70102907D02*
X135563646Y-70150526D01*
X135563646Y-70150526D02*
X135611265Y-70245764D01*
X135611265Y-70245764D02*
X135611265Y-70293383D01*
X135611265Y-70293383D02*
X135563646Y-70388621D01*
X135563646Y-70388621D02*
X135516027Y-70436240D01*
X135516027Y-70436240D02*
X135420789Y-70483859D01*
X135420789Y-70483859D02*
X135230313Y-70483859D01*
X135230313Y-70483859D02*
X135135075Y-70531478D01*
X135135075Y-70531478D02*
X135087456Y-70579097D01*
X135087456Y-70579097D02*
X135039837Y-70674335D01*
X135039837Y-70674335D02*
X135039837Y-70864811D01*
X135039837Y-70864811D02*
X135087456Y-70960049D01*
X135087456Y-70960049D02*
X135135075Y-71007669D01*
X135135075Y-71007669D02*
X135230313Y-71055288D01*
X135230313Y-71055288D02*
X135420789Y-71055288D01*
X135420789Y-71055288D02*
X135516027Y-71007669D01*
X135516027Y-71007669D02*
X135563646Y-70960049D01*
X135563646Y-70960049D02*
X135611265Y-70864811D01*
X135611265Y-70864811D02*
X135611265Y-70674335D01*
X135611265Y-70674335D02*
X135563646Y-70579097D01*
X135563646Y-70579097D02*
X135516027Y-70531478D01*
X135516027Y-70531478D02*
X135420789Y-70483859D01*
X109767075Y-113797288D02*
X109767075Y-112797288D01*
X109767075Y-112797288D02*
X110005170Y-112797288D01*
X110005170Y-112797288D02*
X110148027Y-112844907D01*
X110148027Y-112844907D02*
X110243265Y-112940145D01*
X110243265Y-112940145D02*
X110290884Y-113035383D01*
X110290884Y-113035383D02*
X110338503Y-113225859D01*
X110338503Y-113225859D02*
X110338503Y-113368716D01*
X110338503Y-113368716D02*
X110290884Y-113559192D01*
X110290884Y-113559192D02*
X110243265Y-113654430D01*
X110243265Y-113654430D02*
X110148027Y-113749669D01*
X110148027Y-113749669D02*
X110005170Y-113797288D01*
X110005170Y-113797288D02*
X109767075Y-113797288D01*
X111290884Y-113797288D02*
X110719456Y-113797288D01*
X111005170Y-113797288D02*
X111005170Y-112797288D01*
X111005170Y-112797288D02*
X110909932Y-112940145D01*
X110909932Y-112940145D02*
X110814694Y-113035383D01*
X110814694Y-113035383D02*
X110719456Y-113083002D01*
X112148027Y-112797288D02*
X111957551Y-112797288D01*
X111957551Y-112797288D02*
X111862313Y-112844907D01*
X111862313Y-112844907D02*
X111814694Y-112892526D01*
X111814694Y-112892526D02*
X111719456Y-113035383D01*
X111719456Y-113035383D02*
X111671837Y-113225859D01*
X111671837Y-113225859D02*
X111671837Y-113606811D01*
X111671837Y-113606811D02*
X111719456Y-113702049D01*
X111719456Y-113702049D02*
X111767075Y-113749669D01*
X111767075Y-113749669D02*
X111862313Y-113797288D01*
X111862313Y-113797288D02*
X112052789Y-113797288D01*
X112052789Y-113797288D02*
X112148027Y-113749669D01*
X112148027Y-113749669D02*
X112195646Y-113702049D01*
X112195646Y-113702049D02*
X112243265Y-113606811D01*
X112243265Y-113606811D02*
X112243265Y-113368716D01*
X112243265Y-113368716D02*
X112195646Y-113273478D01*
X112195646Y-113273478D02*
X112148027Y-113225859D01*
X112148027Y-113225859D02*
X112052789Y-113178240D01*
X112052789Y-113178240D02*
X111862313Y-113178240D01*
X111862313Y-113178240D02*
X111767075Y-113225859D01*
X111767075Y-113225859D02*
X111719456Y-113273478D01*
X111719456Y-113273478D02*
X111671837Y-113368716D01*
X105639456Y-114167288D02*
X105639456Y-113167288D01*
X106210884Y-114167288D02*
X105782313Y-113595859D01*
X106210884Y-113167288D02*
X105639456Y-113738716D01*
X202000694Y-107123288D02*
X201667361Y-106647097D01*
X201429266Y-107123288D02*
X201429266Y-106123288D01*
X201429266Y-106123288D02*
X201810218Y-106123288D01*
X201810218Y-106123288D02*
X201905456Y-106170907D01*
X201905456Y-106170907D02*
X201953075Y-106218526D01*
X201953075Y-106218526D02*
X202000694Y-106313764D01*
X202000694Y-106313764D02*
X202000694Y-106456621D01*
X202000694Y-106456621D02*
X201953075Y-106551859D01*
X201953075Y-106551859D02*
X201905456Y-106599478D01*
X201905456Y-106599478D02*
X201810218Y-106647097D01*
X201810218Y-106647097D02*
X201429266Y-106647097D01*
X202857837Y-106123288D02*
X202667361Y-106123288D01*
X202667361Y-106123288D02*
X202572123Y-106170907D01*
X202572123Y-106170907D02*
X202524504Y-106218526D01*
X202524504Y-106218526D02*
X202429266Y-106361383D01*
X202429266Y-106361383D02*
X202381647Y-106551859D01*
X202381647Y-106551859D02*
X202381647Y-106932811D01*
X202381647Y-106932811D02*
X202429266Y-107028049D01*
X202429266Y-107028049D02*
X202476885Y-107075669D01*
X202476885Y-107075669D02*
X202572123Y-107123288D01*
X202572123Y-107123288D02*
X202762599Y-107123288D01*
X202762599Y-107123288D02*
X202857837Y-107075669D01*
X202857837Y-107075669D02*
X202905456Y-107028049D01*
X202905456Y-107028049D02*
X202953075Y-106932811D01*
X202953075Y-106932811D02*
X202953075Y-106694716D01*
X202953075Y-106694716D02*
X202905456Y-106599478D01*
X202905456Y-106599478D02*
X202857837Y-106551859D01*
X202857837Y-106551859D02*
X202762599Y-106504240D01*
X202762599Y-106504240D02*
X202572123Y-106504240D01*
X202572123Y-106504240D02*
X202476885Y-106551859D01*
X202476885Y-106551859D02*
X202429266Y-106599478D01*
X202429266Y-106599478D02*
X202381647Y-106694716D01*
X90896180Y-43366754D02*
X89896180Y-43366754D01*
X89896180Y-43366754D02*
X89896180Y-43128659D01*
X89896180Y-43128659D02*
X89943799Y-42985802D01*
X89943799Y-42985802D02*
X90039037Y-42890564D01*
X90039037Y-42890564D02*
X90134275Y-42842945D01*
X90134275Y-42842945D02*
X90324751Y-42795326D01*
X90324751Y-42795326D02*
X90467608Y-42795326D01*
X90467608Y-42795326D02*
X90658084Y-42842945D01*
X90658084Y-42842945D02*
X90753322Y-42890564D01*
X90753322Y-42890564D02*
X90848561Y-42985802D01*
X90848561Y-42985802D02*
X90896180Y-43128659D01*
X90896180Y-43128659D02*
X90896180Y-43366754D01*
X89991418Y-42414373D02*
X89943799Y-42366754D01*
X89943799Y-42366754D02*
X89896180Y-42271516D01*
X89896180Y-42271516D02*
X89896180Y-42033421D01*
X89896180Y-42033421D02*
X89943799Y-41938183D01*
X89943799Y-41938183D02*
X89991418Y-41890564D01*
X89991418Y-41890564D02*
X90086656Y-41842945D01*
X90086656Y-41842945D02*
X90181894Y-41842945D01*
X90181894Y-41842945D02*
X90324751Y-41890564D01*
X90324751Y-41890564D02*
X90896180Y-42461992D01*
X90896180Y-42461992D02*
X90896180Y-41842945D01*
X90896180Y-40890564D02*
X90896180Y-41461992D01*
X90896180Y-41176278D02*
X89896180Y-41176278D01*
X89896180Y-41176278D02*
X90039037Y-41271516D01*
X90039037Y-41271516D02*
X90134275Y-41366754D01*
X90134275Y-41366754D02*
X90181894Y-41461992D01*
X90526180Y-37334373D02*
X89526180Y-37334373D01*
X90526180Y-36762945D02*
X89954751Y-37191516D01*
X89526180Y-36762945D02*
X90097608Y-37334373D01*
X198193180Y-35683277D02*
X199193180Y-35349944D01*
X199193180Y-35349944D02*
X198193180Y-35016611D01*
X199193180Y-34683277D02*
X198526513Y-34683277D01*
X198193180Y-34683277D02*
X198240799Y-34730896D01*
X198240799Y-34730896D02*
X198288418Y-34683277D01*
X198288418Y-34683277D02*
X198240799Y-34635658D01*
X198240799Y-34635658D02*
X198193180Y-34683277D01*
X198193180Y-34683277D02*
X198288418Y-34683277D01*
X198526513Y-34207087D02*
X199193180Y-34207087D01*
X198621751Y-34207087D02*
X198574132Y-34159468D01*
X198574132Y-34159468D02*
X198526513Y-34064230D01*
X198526513Y-34064230D02*
X198526513Y-33921373D01*
X198526513Y-33921373D02*
X198574132Y-33826135D01*
X198574132Y-33826135D02*
X198669370Y-33778516D01*
X198669370Y-33778516D02*
X199193180Y-33778516D01*
X179196789Y-77659288D02*
X179196789Y-76659288D01*
X179196789Y-76659288D02*
X179768217Y-77659288D01*
X179768217Y-77659288D02*
X179768217Y-76659288D01*
X180815836Y-77659288D02*
X180482503Y-77183097D01*
X180244408Y-77659288D02*
X180244408Y-76659288D01*
X180244408Y-76659288D02*
X180625360Y-76659288D01*
X180625360Y-76659288D02*
X180720598Y-76706907D01*
X180720598Y-76706907D02*
X180768217Y-76754526D01*
X180768217Y-76754526D02*
X180815836Y-76849764D01*
X180815836Y-76849764D02*
X180815836Y-76992621D01*
X180815836Y-76992621D02*
X180768217Y-77087859D01*
X180768217Y-77087859D02*
X180720598Y-77135478D01*
X180720598Y-77135478D02*
X180625360Y-77183097D01*
X180625360Y-77183097D02*
X180244408Y-77183097D01*
X181196789Y-77611669D02*
X181339646Y-77659288D01*
X181339646Y-77659288D02*
X181577741Y-77659288D01*
X181577741Y-77659288D02*
X181672979Y-77611669D01*
X181672979Y-77611669D02*
X181720598Y-77564049D01*
X181720598Y-77564049D02*
X181768217Y-77468811D01*
X181768217Y-77468811D02*
X181768217Y-77373573D01*
X181768217Y-77373573D02*
X181720598Y-77278335D01*
X181720598Y-77278335D02*
X181672979Y-77230716D01*
X181672979Y-77230716D02*
X181577741Y-77183097D01*
X181577741Y-77183097D02*
X181387265Y-77135478D01*
X181387265Y-77135478D02*
X181292027Y-77087859D01*
X181292027Y-77087859D02*
X181244408Y-77040240D01*
X181244408Y-77040240D02*
X181196789Y-76945002D01*
X181196789Y-76945002D02*
X181196789Y-76849764D01*
X181196789Y-76849764D02*
X181244408Y-76754526D01*
X181244408Y-76754526D02*
X181292027Y-76706907D01*
X181292027Y-76706907D02*
X181387265Y-76659288D01*
X181387265Y-76659288D02*
X181625360Y-76659288D01*
X181625360Y-76659288D02*
X181768217Y-76706907D01*
X182053932Y-76659288D02*
X182625360Y-76659288D01*
X182339646Y-77659288D02*
X182339646Y-76659288D01*
X183672980Y-77611669D02*
X183815837Y-77659288D01*
X183815837Y-77659288D02*
X184053932Y-77659288D01*
X184053932Y-77659288D02*
X184149170Y-77611669D01*
X184149170Y-77611669D02*
X184196789Y-77564049D01*
X184196789Y-77564049D02*
X184244408Y-77468811D01*
X184244408Y-77468811D02*
X184244408Y-77373573D01*
X184244408Y-77373573D02*
X184196789Y-77278335D01*
X184196789Y-77278335D02*
X184149170Y-77230716D01*
X184149170Y-77230716D02*
X184053932Y-77183097D01*
X184053932Y-77183097D02*
X183863456Y-77135478D01*
X183863456Y-77135478D02*
X183768218Y-77087859D01*
X183768218Y-77087859D02*
X183720599Y-77040240D01*
X183720599Y-77040240D02*
X183672980Y-76945002D01*
X183672980Y-76945002D02*
X183672980Y-76849764D01*
X183672980Y-76849764D02*
X183720599Y-76754526D01*
X183720599Y-76754526D02*
X183768218Y-76706907D01*
X183768218Y-76706907D02*
X183863456Y-76659288D01*
X183863456Y-76659288D02*
X184101551Y-76659288D01*
X184101551Y-76659288D02*
X184244408Y-76706907D01*
X184577742Y-76992621D02*
X184768218Y-77659288D01*
X184768218Y-77659288D02*
X184958694Y-77183097D01*
X184958694Y-77183097D02*
X185149170Y-77659288D01*
X185149170Y-77659288D02*
X185339646Y-76992621D01*
X185720599Y-77659288D02*
X185720599Y-76992621D01*
X185720599Y-76659288D02*
X185672980Y-76706907D01*
X185672980Y-76706907D02*
X185720599Y-76754526D01*
X185720599Y-76754526D02*
X185768218Y-76706907D01*
X185768218Y-76706907D02*
X185720599Y-76659288D01*
X185720599Y-76659288D02*
X185720599Y-76754526D01*
X186053932Y-76992621D02*
X186434884Y-76992621D01*
X186196789Y-76659288D02*
X186196789Y-77516430D01*
X186196789Y-77516430D02*
X186244408Y-77611669D01*
X186244408Y-77611669D02*
X186339646Y-77659288D01*
X186339646Y-77659288D02*
X186434884Y-77659288D01*
X187196789Y-77611669D02*
X187101551Y-77659288D01*
X187101551Y-77659288D02*
X186911075Y-77659288D01*
X186911075Y-77659288D02*
X186815837Y-77611669D01*
X186815837Y-77611669D02*
X186768218Y-77564049D01*
X186768218Y-77564049D02*
X186720599Y-77468811D01*
X186720599Y-77468811D02*
X186720599Y-77183097D01*
X186720599Y-77183097D02*
X186768218Y-77087859D01*
X186768218Y-77087859D02*
X186815837Y-77040240D01*
X186815837Y-77040240D02*
X186911075Y-76992621D01*
X186911075Y-76992621D02*
X187101551Y-76992621D01*
X187101551Y-76992621D02*
X187196789Y-77040240D01*
X187625361Y-77659288D02*
X187625361Y-76659288D01*
X188053932Y-77659288D02*
X188053932Y-77135478D01*
X188053932Y-77135478D02*
X188006313Y-77040240D01*
X188006313Y-77040240D02*
X187911075Y-76992621D01*
X187911075Y-76992621D02*
X187768218Y-76992621D01*
X187768218Y-76992621D02*
X187672980Y-77040240D01*
X187672980Y-77040240D02*
X187625361Y-77087859D01*
X160598694Y-134810288D02*
X160265361Y-134334097D01*
X160027266Y-134810288D02*
X160027266Y-133810288D01*
X160027266Y-133810288D02*
X160408218Y-133810288D01*
X160408218Y-133810288D02*
X160503456Y-133857907D01*
X160503456Y-133857907D02*
X160551075Y-133905526D01*
X160551075Y-133905526D02*
X160598694Y-134000764D01*
X160598694Y-134000764D02*
X160598694Y-134143621D01*
X160598694Y-134143621D02*
X160551075Y-134238859D01*
X160551075Y-134238859D02*
X160503456Y-134286478D01*
X160503456Y-134286478D02*
X160408218Y-134334097D01*
X160408218Y-134334097D02*
X160027266Y-134334097D01*
X161455837Y-134143621D02*
X161455837Y-134810288D01*
X161217742Y-133762669D02*
X160979647Y-134476954D01*
X160979647Y-134476954D02*
X161598694Y-134476954D01*
X158598503Y-113124049D02*
X158550884Y-113171669D01*
X158550884Y-113171669D02*
X158408027Y-113219288D01*
X158408027Y-113219288D02*
X158312789Y-113219288D01*
X158312789Y-113219288D02*
X158169932Y-113171669D01*
X158169932Y-113171669D02*
X158074694Y-113076430D01*
X158074694Y-113076430D02*
X158027075Y-112981192D01*
X158027075Y-112981192D02*
X157979456Y-112790716D01*
X157979456Y-112790716D02*
X157979456Y-112647859D01*
X157979456Y-112647859D02*
X158027075Y-112457383D01*
X158027075Y-112457383D02*
X158074694Y-112362145D01*
X158074694Y-112362145D02*
X158169932Y-112266907D01*
X158169932Y-112266907D02*
X158312789Y-112219288D01*
X158312789Y-112219288D02*
X158408027Y-112219288D01*
X158408027Y-112219288D02*
X158550884Y-112266907D01*
X158550884Y-112266907D02*
X158598503Y-112314526D01*
X159550884Y-113219288D02*
X158979456Y-113219288D01*
X159265170Y-113219288D02*
X159265170Y-112219288D01*
X159265170Y-112219288D02*
X159169932Y-112362145D01*
X159169932Y-112362145D02*
X159074694Y-112457383D01*
X159074694Y-112457383D02*
X158979456Y-112505002D01*
X160503265Y-113219288D02*
X159931837Y-113219288D01*
X160217551Y-113219288D02*
X160217551Y-112219288D01*
X160217551Y-112219288D02*
X160122313Y-112362145D01*
X160122313Y-112362145D02*
X160027075Y-112457383D01*
X160027075Y-112457383D02*
X159931837Y-112505002D01*
X160098885Y-101487669D02*
X160241742Y-101535288D01*
X160241742Y-101535288D02*
X160479837Y-101535288D01*
X160479837Y-101535288D02*
X160575075Y-101487669D01*
X160575075Y-101487669D02*
X160622694Y-101440049D01*
X160622694Y-101440049D02*
X160670313Y-101344811D01*
X160670313Y-101344811D02*
X160670313Y-101249573D01*
X160670313Y-101249573D02*
X160622694Y-101154335D01*
X160622694Y-101154335D02*
X160575075Y-101106716D01*
X160575075Y-101106716D02*
X160479837Y-101059097D01*
X160479837Y-101059097D02*
X160289361Y-101011478D01*
X160289361Y-101011478D02*
X160194123Y-100963859D01*
X160194123Y-100963859D02*
X160146504Y-100916240D01*
X160146504Y-100916240D02*
X160098885Y-100821002D01*
X160098885Y-100821002D02*
X160098885Y-100725764D01*
X160098885Y-100725764D02*
X160146504Y-100630526D01*
X160146504Y-100630526D02*
X160194123Y-100582907D01*
X160194123Y-100582907D02*
X160289361Y-100535288D01*
X160289361Y-100535288D02*
X160527456Y-100535288D01*
X160527456Y-100535288D02*
X160670313Y-100582907D01*
X160956028Y-100535288D02*
X161527456Y-100535288D01*
X161241742Y-101535288D02*
X161241742Y-100535288D01*
X161860790Y-101535288D02*
X161860790Y-100535288D01*
X161860790Y-100535288D02*
X162194123Y-101249573D01*
X162194123Y-101249573D02*
X162527456Y-100535288D01*
X162527456Y-100535288D02*
X162527456Y-101535288D01*
X162908409Y-100535288D02*
X163527456Y-100535288D01*
X163527456Y-100535288D02*
X163194123Y-100916240D01*
X163194123Y-100916240D02*
X163336980Y-100916240D01*
X163336980Y-100916240D02*
X163432218Y-100963859D01*
X163432218Y-100963859D02*
X163479837Y-101011478D01*
X163479837Y-101011478D02*
X163527456Y-101106716D01*
X163527456Y-101106716D02*
X163527456Y-101344811D01*
X163527456Y-101344811D02*
X163479837Y-101440049D01*
X163479837Y-101440049D02*
X163432218Y-101487669D01*
X163432218Y-101487669D02*
X163336980Y-101535288D01*
X163336980Y-101535288D02*
X163051266Y-101535288D01*
X163051266Y-101535288D02*
X162956028Y-101487669D01*
X162956028Y-101487669D02*
X162908409Y-101440049D01*
X163908409Y-100630526D02*
X163956028Y-100582907D01*
X163956028Y-100582907D02*
X164051266Y-100535288D01*
X164051266Y-100535288D02*
X164289361Y-100535288D01*
X164289361Y-100535288D02*
X164384599Y-100582907D01*
X164384599Y-100582907D02*
X164432218Y-100630526D01*
X164432218Y-100630526D02*
X164479837Y-100725764D01*
X164479837Y-100725764D02*
X164479837Y-100821002D01*
X164479837Y-100821002D02*
X164432218Y-100963859D01*
X164432218Y-100963859D02*
X163860790Y-101535288D01*
X163860790Y-101535288D02*
X164479837Y-101535288D01*
X164887180Y-51089992D02*
X163887180Y-51089992D01*
X163887180Y-51089992D02*
X164601465Y-50756659D01*
X164601465Y-50756659D02*
X163887180Y-50423326D01*
X163887180Y-50423326D02*
X164887180Y-50423326D01*
X163982418Y-49994754D02*
X163934799Y-49947135D01*
X163934799Y-49947135D02*
X163887180Y-49851897D01*
X163887180Y-49851897D02*
X163887180Y-49613802D01*
X163887180Y-49613802D02*
X163934799Y-49518564D01*
X163934799Y-49518564D02*
X163982418Y-49470945D01*
X163982418Y-49470945D02*
X164077656Y-49423326D01*
X164077656Y-49423326D02*
X164172894Y-49423326D01*
X164172894Y-49423326D02*
X164315751Y-49470945D01*
X164315751Y-49470945D02*
X164887180Y-50042373D01*
X164887180Y-50042373D02*
X164887180Y-49423326D01*
X165424694Y-112108049D02*
X165377075Y-112155669D01*
X165377075Y-112155669D02*
X165234218Y-112203288D01*
X165234218Y-112203288D02*
X165138980Y-112203288D01*
X165138980Y-112203288D02*
X164996123Y-112155669D01*
X164996123Y-112155669D02*
X164900885Y-112060430D01*
X164900885Y-112060430D02*
X164853266Y-111965192D01*
X164853266Y-111965192D02*
X164805647Y-111774716D01*
X164805647Y-111774716D02*
X164805647Y-111631859D01*
X164805647Y-111631859D02*
X164853266Y-111441383D01*
X164853266Y-111441383D02*
X164900885Y-111346145D01*
X164900885Y-111346145D02*
X164996123Y-111250907D01*
X164996123Y-111250907D02*
X165138980Y-111203288D01*
X165138980Y-111203288D02*
X165234218Y-111203288D01*
X165234218Y-111203288D02*
X165377075Y-111250907D01*
X165377075Y-111250907D02*
X165424694Y-111298526D01*
X165900885Y-112203288D02*
X166091361Y-112203288D01*
X166091361Y-112203288D02*
X166186599Y-112155669D01*
X166186599Y-112155669D02*
X166234218Y-112108049D01*
X166234218Y-112108049D02*
X166329456Y-111965192D01*
X166329456Y-111965192D02*
X166377075Y-111774716D01*
X166377075Y-111774716D02*
X166377075Y-111393764D01*
X166377075Y-111393764D02*
X166329456Y-111298526D01*
X166329456Y-111298526D02*
X166281837Y-111250907D01*
X166281837Y-111250907D02*
X166186599Y-111203288D01*
X166186599Y-111203288D02*
X165996123Y-111203288D01*
X165996123Y-111203288D02*
X165900885Y-111250907D01*
X165900885Y-111250907D02*
X165853266Y-111298526D01*
X165853266Y-111298526D02*
X165805647Y-111393764D01*
X165805647Y-111393764D02*
X165805647Y-111631859D01*
X165805647Y-111631859D02*
X165853266Y-111727097D01*
X165853266Y-111727097D02*
X165900885Y-111774716D01*
X165900885Y-111774716D02*
X165996123Y-111822335D01*
X165996123Y-111822335D02*
X166186599Y-111822335D01*
X166186599Y-111822335D02*
X166281837Y-111774716D01*
X166281837Y-111774716D02*
X166329456Y-111727097D01*
X166329456Y-111727097D02*
X166377075Y-111631859D01*
X94169837Y-55831288D02*
X94169837Y-54831288D01*
X94169837Y-54831288D02*
X94503170Y-55545573D01*
X94503170Y-55545573D02*
X94836503Y-54831288D01*
X94836503Y-54831288D02*
X94836503Y-55831288D01*
X95788884Y-54831288D02*
X95312694Y-54831288D01*
X95312694Y-54831288D02*
X95265075Y-55307478D01*
X95265075Y-55307478D02*
X95312694Y-55259859D01*
X95312694Y-55259859D02*
X95407932Y-55212240D01*
X95407932Y-55212240D02*
X95646027Y-55212240D01*
X95646027Y-55212240D02*
X95741265Y-55259859D01*
X95741265Y-55259859D02*
X95788884Y-55307478D01*
X95788884Y-55307478D02*
X95836503Y-55402716D01*
X95836503Y-55402716D02*
X95836503Y-55640811D01*
X95836503Y-55640811D02*
X95788884Y-55736049D01*
X95788884Y-55736049D02*
X95741265Y-55783669D01*
X95741265Y-55783669D02*
X95646027Y-55831288D01*
X95646027Y-55831288D02*
X95407932Y-55831288D01*
X95407932Y-55831288D02*
X95312694Y-55783669D01*
X95312694Y-55783669D02*
X95265075Y-55736049D01*
X90701180Y-61146754D02*
X89701180Y-61146754D01*
X89701180Y-61146754D02*
X89701180Y-60908659D01*
X89701180Y-60908659D02*
X89748799Y-60765802D01*
X89748799Y-60765802D02*
X89844037Y-60670564D01*
X89844037Y-60670564D02*
X89939275Y-60622945D01*
X89939275Y-60622945D02*
X90129751Y-60575326D01*
X90129751Y-60575326D02*
X90272608Y-60575326D01*
X90272608Y-60575326D02*
X90463084Y-60622945D01*
X90463084Y-60622945D02*
X90558322Y-60670564D01*
X90558322Y-60670564D02*
X90653561Y-60765802D01*
X90653561Y-60765802D02*
X90701180Y-60908659D01*
X90701180Y-60908659D02*
X90701180Y-61146754D01*
X89796418Y-60194373D02*
X89748799Y-60146754D01*
X89748799Y-60146754D02*
X89701180Y-60051516D01*
X89701180Y-60051516D02*
X89701180Y-59813421D01*
X89701180Y-59813421D02*
X89748799Y-59718183D01*
X89748799Y-59718183D02*
X89796418Y-59670564D01*
X89796418Y-59670564D02*
X89891656Y-59622945D01*
X89891656Y-59622945D02*
X89986894Y-59622945D01*
X89986894Y-59622945D02*
X90129751Y-59670564D01*
X90129751Y-59670564D02*
X90701180Y-60241992D01*
X90701180Y-60241992D02*
X90701180Y-59622945D01*
X89796418Y-59241992D02*
X89748799Y-59194373D01*
X89748799Y-59194373D02*
X89701180Y-59099135D01*
X89701180Y-59099135D02*
X89701180Y-58861040D01*
X89701180Y-58861040D02*
X89748799Y-58765802D01*
X89748799Y-58765802D02*
X89796418Y-58718183D01*
X89796418Y-58718183D02*
X89891656Y-58670564D01*
X89891656Y-58670564D02*
X89986894Y-58670564D01*
X89986894Y-58670564D02*
X90129751Y-58718183D01*
X90129751Y-58718183D02*
X90701180Y-59289611D01*
X90701180Y-59289611D02*
X90701180Y-58670564D01*
X90331180Y-55114373D02*
X89331180Y-55114373D01*
X90331180Y-54542945D02*
X89759751Y-54971516D01*
X89331180Y-54542945D02*
X89902608Y-55114373D01*
X148297941Y-106041326D02*
X148345561Y-106088945D01*
X148345561Y-106088945D02*
X148393180Y-106231802D01*
X148393180Y-106231802D02*
X148393180Y-106327040D01*
X148393180Y-106327040D02*
X148345561Y-106469897D01*
X148345561Y-106469897D02*
X148250322Y-106565135D01*
X148250322Y-106565135D02*
X148155084Y-106612754D01*
X148155084Y-106612754D02*
X147964608Y-106660373D01*
X147964608Y-106660373D02*
X147821751Y-106660373D01*
X147821751Y-106660373D02*
X147631275Y-106612754D01*
X147631275Y-106612754D02*
X147536037Y-106565135D01*
X147536037Y-106565135D02*
X147440799Y-106469897D01*
X147440799Y-106469897D02*
X147393180Y-106327040D01*
X147393180Y-106327040D02*
X147393180Y-106231802D01*
X147393180Y-106231802D02*
X147440799Y-106088945D01*
X147440799Y-106088945D02*
X147488418Y-106041326D01*
X148393180Y-105088945D02*
X148393180Y-105660373D01*
X148393180Y-105374659D02*
X147393180Y-105374659D01*
X147393180Y-105374659D02*
X147536037Y-105469897D01*
X147536037Y-105469897D02*
X147631275Y-105565135D01*
X147631275Y-105565135D02*
X147678894Y-105660373D01*
X147393180Y-104184183D02*
X147393180Y-104660373D01*
X147393180Y-104660373D02*
X147869370Y-104707992D01*
X147869370Y-104707992D02*
X147821751Y-104660373D01*
X147821751Y-104660373D02*
X147774132Y-104565135D01*
X147774132Y-104565135D02*
X147774132Y-104327040D01*
X147774132Y-104327040D02*
X147821751Y-104231802D01*
X147821751Y-104231802D02*
X147869370Y-104184183D01*
X147869370Y-104184183D02*
X147964608Y-104136564D01*
X147964608Y-104136564D02*
X148202703Y-104136564D01*
X148202703Y-104136564D02*
X148297941Y-104184183D01*
X148297941Y-104184183D02*
X148345561Y-104231802D01*
X148345561Y-104231802D02*
X148393180Y-104327040D01*
X148393180Y-104327040D02*
X148393180Y-104565135D01*
X148393180Y-104565135D02*
X148345561Y-104660373D01*
X148345561Y-104660373D02*
X148297941Y-104707992D01*
X185014503Y-120585288D02*
X184681170Y-120109097D01*
X184443075Y-120585288D02*
X184443075Y-119585288D01*
X184443075Y-119585288D02*
X184824027Y-119585288D01*
X184824027Y-119585288D02*
X184919265Y-119632907D01*
X184919265Y-119632907D02*
X184966884Y-119680526D01*
X184966884Y-119680526D02*
X185014503Y-119775764D01*
X185014503Y-119775764D02*
X185014503Y-119918621D01*
X185014503Y-119918621D02*
X184966884Y-120013859D01*
X184966884Y-120013859D02*
X184919265Y-120061478D01*
X184919265Y-120061478D02*
X184824027Y-120109097D01*
X184824027Y-120109097D02*
X184443075Y-120109097D01*
X185966884Y-120585288D02*
X185395456Y-120585288D01*
X185681170Y-120585288D02*
X185681170Y-119585288D01*
X185681170Y-119585288D02*
X185585932Y-119728145D01*
X185585932Y-119728145D02*
X185490694Y-119823383D01*
X185490694Y-119823383D02*
X185395456Y-119871002D01*
X186585932Y-119585288D02*
X186681170Y-119585288D01*
X186681170Y-119585288D02*
X186776408Y-119632907D01*
X186776408Y-119632907D02*
X186824027Y-119680526D01*
X186824027Y-119680526D02*
X186871646Y-119775764D01*
X186871646Y-119775764D02*
X186919265Y-119966240D01*
X186919265Y-119966240D02*
X186919265Y-120204335D01*
X186919265Y-120204335D02*
X186871646Y-120394811D01*
X186871646Y-120394811D02*
X186824027Y-120490049D01*
X186824027Y-120490049D02*
X186776408Y-120537669D01*
X186776408Y-120537669D02*
X186681170Y-120585288D01*
X186681170Y-120585288D02*
X186585932Y-120585288D01*
X186585932Y-120585288D02*
X186490694Y-120537669D01*
X186490694Y-120537669D02*
X186443075Y-120490049D01*
X186443075Y-120490049D02*
X186395456Y-120394811D01*
X186395456Y-120394811D02*
X186347837Y-120204335D01*
X186347837Y-120204335D02*
X186347837Y-119966240D01*
X186347837Y-119966240D02*
X186395456Y-119775764D01*
X186395456Y-119775764D02*
X186443075Y-119680526D01*
X186443075Y-119680526D02*
X186490694Y-119632907D01*
X186490694Y-119632907D02*
X186585932Y-119585288D01*
X182442694Y-65880049D02*
X182395075Y-65927669D01*
X182395075Y-65927669D02*
X182252218Y-65975288D01*
X182252218Y-65975288D02*
X182156980Y-65975288D01*
X182156980Y-65975288D02*
X182014123Y-65927669D01*
X182014123Y-65927669D02*
X181918885Y-65832430D01*
X181918885Y-65832430D02*
X181871266Y-65737192D01*
X181871266Y-65737192D02*
X181823647Y-65546716D01*
X181823647Y-65546716D02*
X181823647Y-65403859D01*
X181823647Y-65403859D02*
X181871266Y-65213383D01*
X181871266Y-65213383D02*
X181918885Y-65118145D01*
X181918885Y-65118145D02*
X182014123Y-65022907D01*
X182014123Y-65022907D02*
X182156980Y-64975288D01*
X182156980Y-64975288D02*
X182252218Y-64975288D01*
X182252218Y-64975288D02*
X182395075Y-65022907D01*
X182395075Y-65022907D02*
X182442694Y-65070526D01*
X182776028Y-64975288D02*
X183395075Y-64975288D01*
X183395075Y-64975288D02*
X183061742Y-65356240D01*
X183061742Y-65356240D02*
X183204599Y-65356240D01*
X183204599Y-65356240D02*
X183299837Y-65403859D01*
X183299837Y-65403859D02*
X183347456Y-65451478D01*
X183347456Y-65451478D02*
X183395075Y-65546716D01*
X183395075Y-65546716D02*
X183395075Y-65784811D01*
X183395075Y-65784811D02*
X183347456Y-65880049D01*
X183347456Y-65880049D02*
X183299837Y-65927669D01*
X183299837Y-65927669D02*
X183204599Y-65975288D01*
X183204599Y-65975288D02*
X182918885Y-65975288D01*
X182918885Y-65975288D02*
X182823647Y-65927669D01*
X182823647Y-65927669D02*
X182776028Y-65880049D01*
X164579180Y-61146754D02*
X163579180Y-61146754D01*
X163579180Y-61146754D02*
X163579180Y-60908659D01*
X163579180Y-60908659D02*
X163626799Y-60765802D01*
X163626799Y-60765802D02*
X163722037Y-60670564D01*
X163722037Y-60670564D02*
X163817275Y-60622945D01*
X163817275Y-60622945D02*
X164007751Y-60575326D01*
X164007751Y-60575326D02*
X164150608Y-60575326D01*
X164150608Y-60575326D02*
X164341084Y-60622945D01*
X164341084Y-60622945D02*
X164436322Y-60670564D01*
X164436322Y-60670564D02*
X164531561Y-60765802D01*
X164531561Y-60765802D02*
X164579180Y-60908659D01*
X164579180Y-60908659D02*
X164579180Y-61146754D01*
X164579180Y-59622945D02*
X164579180Y-60194373D01*
X164579180Y-59908659D02*
X163579180Y-59908659D01*
X163579180Y-59908659D02*
X163722037Y-60003897D01*
X163722037Y-60003897D02*
X163817275Y-60099135D01*
X163817275Y-60099135D02*
X163864894Y-60194373D01*
X163579180Y-59003897D02*
X163579180Y-58908659D01*
X163579180Y-58908659D02*
X163626799Y-58813421D01*
X163626799Y-58813421D02*
X163674418Y-58765802D01*
X163674418Y-58765802D02*
X163769656Y-58718183D01*
X163769656Y-58718183D02*
X163960132Y-58670564D01*
X163960132Y-58670564D02*
X164198227Y-58670564D01*
X164198227Y-58670564D02*
X164388703Y-58718183D01*
X164388703Y-58718183D02*
X164483941Y-58765802D01*
X164483941Y-58765802D02*
X164531561Y-58813421D01*
X164531561Y-58813421D02*
X164579180Y-58908659D01*
X164579180Y-58908659D02*
X164579180Y-59003897D01*
X164579180Y-59003897D02*
X164531561Y-59099135D01*
X164531561Y-59099135D02*
X164483941Y-59146754D01*
X164483941Y-59146754D02*
X164388703Y-59194373D01*
X164388703Y-59194373D02*
X164198227Y-59241992D01*
X164198227Y-59241992D02*
X163960132Y-59241992D01*
X163960132Y-59241992D02*
X163769656Y-59194373D01*
X163769656Y-59194373D02*
X163674418Y-59146754D01*
X163674418Y-59146754D02*
X163626799Y-59099135D01*
X163626799Y-59099135D02*
X163579180Y-59003897D01*
X164209180Y-55114373D02*
X163209180Y-55114373D01*
X164209180Y-54542945D02*
X163637751Y-54971516D01*
X163209180Y-54542945D02*
X163780608Y-55114373D01*
X174314694Y-94931288D02*
X173981361Y-94455097D01*
X173743266Y-94931288D02*
X173743266Y-93931288D01*
X173743266Y-93931288D02*
X174124218Y-93931288D01*
X174124218Y-93931288D02*
X174219456Y-93978907D01*
X174219456Y-93978907D02*
X174267075Y-94026526D01*
X174267075Y-94026526D02*
X174314694Y-94121764D01*
X174314694Y-94121764D02*
X174314694Y-94264621D01*
X174314694Y-94264621D02*
X174267075Y-94359859D01*
X174267075Y-94359859D02*
X174219456Y-94407478D01*
X174219456Y-94407478D02*
X174124218Y-94455097D01*
X174124218Y-94455097D02*
X173743266Y-94455097D01*
X174695647Y-94026526D02*
X174743266Y-93978907D01*
X174743266Y-93978907D02*
X174838504Y-93931288D01*
X174838504Y-93931288D02*
X175076599Y-93931288D01*
X175076599Y-93931288D02*
X175171837Y-93978907D01*
X175171837Y-93978907D02*
X175219456Y-94026526D01*
X175219456Y-94026526D02*
X175267075Y-94121764D01*
X175267075Y-94121764D02*
X175267075Y-94217002D01*
X175267075Y-94217002D02*
X175219456Y-94359859D01*
X175219456Y-94359859D02*
X174648028Y-94931288D01*
X174648028Y-94931288D02*
X175267075Y-94931288D01*
X195365122Y-92248478D02*
X195507979Y-92296097D01*
X195507979Y-92296097D02*
X195555598Y-92343716D01*
X195555598Y-92343716D02*
X195603217Y-92438954D01*
X195603217Y-92438954D02*
X195603217Y-92581811D01*
X195603217Y-92581811D02*
X195555598Y-92677049D01*
X195555598Y-92677049D02*
X195507979Y-92724669D01*
X195507979Y-92724669D02*
X195412741Y-92772288D01*
X195412741Y-92772288D02*
X195031789Y-92772288D01*
X195031789Y-92772288D02*
X195031789Y-91772288D01*
X195031789Y-91772288D02*
X195365122Y-91772288D01*
X195365122Y-91772288D02*
X195460360Y-91819907D01*
X195460360Y-91819907D02*
X195507979Y-91867526D01*
X195507979Y-91867526D02*
X195555598Y-91962764D01*
X195555598Y-91962764D02*
X195555598Y-92058002D01*
X195555598Y-92058002D02*
X195507979Y-92153240D01*
X195507979Y-92153240D02*
X195460360Y-92200859D01*
X195460360Y-92200859D02*
X195365122Y-92248478D01*
X195365122Y-92248478D02*
X195031789Y-92248478D01*
X196174646Y-92772288D02*
X196079408Y-92724669D01*
X196079408Y-92724669D02*
X196031789Y-92677049D01*
X196031789Y-92677049D02*
X195984170Y-92581811D01*
X195984170Y-92581811D02*
X195984170Y-92296097D01*
X195984170Y-92296097D02*
X196031789Y-92200859D01*
X196031789Y-92200859D02*
X196079408Y-92153240D01*
X196079408Y-92153240D02*
X196174646Y-92105621D01*
X196174646Y-92105621D02*
X196317503Y-92105621D01*
X196317503Y-92105621D02*
X196412741Y-92153240D01*
X196412741Y-92153240D02*
X196460360Y-92200859D01*
X196460360Y-92200859D02*
X196507979Y-92296097D01*
X196507979Y-92296097D02*
X196507979Y-92581811D01*
X196507979Y-92581811D02*
X196460360Y-92677049D01*
X196460360Y-92677049D02*
X196412741Y-92724669D01*
X196412741Y-92724669D02*
X196317503Y-92772288D01*
X196317503Y-92772288D02*
X196174646Y-92772288D01*
X197079408Y-92772288D02*
X196984170Y-92724669D01*
X196984170Y-92724669D02*
X196936551Y-92677049D01*
X196936551Y-92677049D02*
X196888932Y-92581811D01*
X196888932Y-92581811D02*
X196888932Y-92296097D01*
X196888932Y-92296097D02*
X196936551Y-92200859D01*
X196936551Y-92200859D02*
X196984170Y-92153240D01*
X196984170Y-92153240D02*
X197079408Y-92105621D01*
X197079408Y-92105621D02*
X197222265Y-92105621D01*
X197222265Y-92105621D02*
X197317503Y-92153240D01*
X197317503Y-92153240D02*
X197365122Y-92200859D01*
X197365122Y-92200859D02*
X197412741Y-92296097D01*
X197412741Y-92296097D02*
X197412741Y-92581811D01*
X197412741Y-92581811D02*
X197365122Y-92677049D01*
X197365122Y-92677049D02*
X197317503Y-92724669D01*
X197317503Y-92724669D02*
X197222265Y-92772288D01*
X197222265Y-92772288D02*
X197079408Y-92772288D01*
X197698456Y-92105621D02*
X198079408Y-92105621D01*
X197841313Y-91772288D02*
X197841313Y-92629430D01*
X197841313Y-92629430D02*
X197888932Y-92724669D01*
X197888932Y-92724669D02*
X197984170Y-92772288D01*
X197984170Y-92772288D02*
X198079408Y-92772288D01*
X198603218Y-91772288D02*
X198698456Y-91772288D01*
X198698456Y-91772288D02*
X198793694Y-91819907D01*
X198793694Y-91819907D02*
X198841313Y-91867526D01*
X198841313Y-91867526D02*
X198888932Y-91962764D01*
X198888932Y-91962764D02*
X198936551Y-92153240D01*
X198936551Y-92153240D02*
X198936551Y-92391335D01*
X198936551Y-92391335D02*
X198888932Y-92581811D01*
X198888932Y-92581811D02*
X198841313Y-92677049D01*
X198841313Y-92677049D02*
X198793694Y-92724669D01*
X198793694Y-92724669D02*
X198698456Y-92772288D01*
X198698456Y-92772288D02*
X198603218Y-92772288D01*
X198603218Y-92772288D02*
X198507980Y-92724669D01*
X198507980Y-92724669D02*
X198460361Y-92677049D01*
X198460361Y-92677049D02*
X198412742Y-92581811D01*
X198412742Y-92581811D02*
X198365123Y-92391335D01*
X198365123Y-92391335D02*
X198365123Y-92153240D01*
X198365123Y-92153240D02*
X198412742Y-91962764D01*
X198412742Y-91962764D02*
X198460361Y-91867526D01*
X198460361Y-91867526D02*
X198507980Y-91819907D01*
X198507980Y-91819907D02*
X198603218Y-91772288D01*
X88939075Y-106440288D02*
X88939075Y-105440288D01*
X88939075Y-105440288D02*
X89177170Y-105440288D01*
X89177170Y-105440288D02*
X89320027Y-105487907D01*
X89320027Y-105487907D02*
X89415265Y-105583145D01*
X89415265Y-105583145D02*
X89462884Y-105678383D01*
X89462884Y-105678383D02*
X89510503Y-105868859D01*
X89510503Y-105868859D02*
X89510503Y-106011716D01*
X89510503Y-106011716D02*
X89462884Y-106202192D01*
X89462884Y-106202192D02*
X89415265Y-106297430D01*
X89415265Y-106297430D02*
X89320027Y-106392669D01*
X89320027Y-106392669D02*
X89177170Y-106440288D01*
X89177170Y-106440288D02*
X88939075Y-106440288D01*
X90462884Y-106440288D02*
X89891456Y-106440288D01*
X90177170Y-106440288D02*
X90177170Y-105440288D01*
X90177170Y-105440288D02*
X90081932Y-105583145D01*
X90081932Y-105583145D02*
X89986694Y-105678383D01*
X89986694Y-105678383D02*
X89891456Y-105726002D01*
X90796218Y-105440288D02*
X91462884Y-105440288D01*
X91462884Y-105440288D02*
X91034313Y-106440288D01*
X84811456Y-106810288D02*
X84811456Y-105810288D01*
X85382884Y-106810288D02*
X84954313Y-106238859D01*
X85382884Y-105810288D02*
X84811456Y-106381716D01*
X198698694Y-60800049D02*
X198651075Y-60847669D01*
X198651075Y-60847669D02*
X198508218Y-60895288D01*
X198508218Y-60895288D02*
X198412980Y-60895288D01*
X198412980Y-60895288D02*
X198270123Y-60847669D01*
X198270123Y-60847669D02*
X198174885Y-60752430D01*
X198174885Y-60752430D02*
X198127266Y-60657192D01*
X198127266Y-60657192D02*
X198079647Y-60466716D01*
X198079647Y-60466716D02*
X198079647Y-60323859D01*
X198079647Y-60323859D02*
X198127266Y-60133383D01*
X198127266Y-60133383D02*
X198174885Y-60038145D01*
X198174885Y-60038145D02*
X198270123Y-59942907D01*
X198270123Y-59942907D02*
X198412980Y-59895288D01*
X198412980Y-59895288D02*
X198508218Y-59895288D01*
X198508218Y-59895288D02*
X198651075Y-59942907D01*
X198651075Y-59942907D02*
X198698694Y-59990526D01*
X199651075Y-60895288D02*
X199079647Y-60895288D01*
X199365361Y-60895288D02*
X199365361Y-59895288D01*
X199365361Y-59895288D02*
X199270123Y-60038145D01*
X199270123Y-60038145D02*
X199174885Y-60133383D01*
X199174885Y-60133383D02*
X199079647Y-60181002D01*
X169234694Y-112108049D02*
X169187075Y-112155669D01*
X169187075Y-112155669D02*
X169044218Y-112203288D01*
X169044218Y-112203288D02*
X168948980Y-112203288D01*
X168948980Y-112203288D02*
X168806123Y-112155669D01*
X168806123Y-112155669D02*
X168710885Y-112060430D01*
X168710885Y-112060430D02*
X168663266Y-111965192D01*
X168663266Y-111965192D02*
X168615647Y-111774716D01*
X168615647Y-111774716D02*
X168615647Y-111631859D01*
X168615647Y-111631859D02*
X168663266Y-111441383D01*
X168663266Y-111441383D02*
X168710885Y-111346145D01*
X168710885Y-111346145D02*
X168806123Y-111250907D01*
X168806123Y-111250907D02*
X168948980Y-111203288D01*
X168948980Y-111203288D02*
X169044218Y-111203288D01*
X169044218Y-111203288D02*
X169187075Y-111250907D01*
X169187075Y-111250907D02*
X169234694Y-111298526D01*
X169806123Y-111631859D02*
X169710885Y-111584240D01*
X169710885Y-111584240D02*
X169663266Y-111536621D01*
X169663266Y-111536621D02*
X169615647Y-111441383D01*
X169615647Y-111441383D02*
X169615647Y-111393764D01*
X169615647Y-111393764D02*
X169663266Y-111298526D01*
X169663266Y-111298526D02*
X169710885Y-111250907D01*
X169710885Y-111250907D02*
X169806123Y-111203288D01*
X169806123Y-111203288D02*
X169996599Y-111203288D01*
X169996599Y-111203288D02*
X170091837Y-111250907D01*
X170091837Y-111250907D02*
X170139456Y-111298526D01*
X170139456Y-111298526D02*
X170187075Y-111393764D01*
X170187075Y-111393764D02*
X170187075Y-111441383D01*
X170187075Y-111441383D02*
X170139456Y-111536621D01*
X170139456Y-111536621D02*
X170091837Y-111584240D01*
X170091837Y-111584240D02*
X169996599Y-111631859D01*
X169996599Y-111631859D02*
X169806123Y-111631859D01*
X169806123Y-111631859D02*
X169710885Y-111679478D01*
X169710885Y-111679478D02*
X169663266Y-111727097D01*
X169663266Y-111727097D02*
X169615647Y-111822335D01*
X169615647Y-111822335D02*
X169615647Y-112012811D01*
X169615647Y-112012811D02*
X169663266Y-112108049D01*
X169663266Y-112108049D02*
X169710885Y-112155669D01*
X169710885Y-112155669D02*
X169806123Y-112203288D01*
X169806123Y-112203288D02*
X169996599Y-112203288D01*
X169996599Y-112203288D02*
X170091837Y-112155669D01*
X170091837Y-112155669D02*
X170139456Y-112108049D01*
X170139456Y-112108049D02*
X170187075Y-112012811D01*
X170187075Y-112012811D02*
X170187075Y-111822335D01*
X170187075Y-111822335D02*
X170139456Y-111727097D01*
X170139456Y-111727097D02*
X170091837Y-111679478D01*
X170091837Y-111679478D02*
X169996599Y-111631859D01*
X189377541Y-74339421D02*
X189377541Y-74958468D01*
X189377541Y-74958468D02*
X188996589Y-74625135D01*
X188996589Y-74625135D02*
X188996589Y-74767992D01*
X188996589Y-74767992D02*
X188948970Y-74863230D01*
X188948970Y-74863230D02*
X188901351Y-74910849D01*
X188901351Y-74910849D02*
X188806113Y-74958468D01*
X188806113Y-74958468D02*
X188568018Y-74958468D01*
X188568018Y-74958468D02*
X188472780Y-74910849D01*
X188472780Y-74910849D02*
X188425161Y-74863230D01*
X188425161Y-74863230D02*
X188377541Y-74767992D01*
X188377541Y-74767992D02*
X188377541Y-74482278D01*
X188377541Y-74482278D02*
X188425161Y-74387040D01*
X188425161Y-74387040D02*
X188472780Y-74339421D01*
X188472780Y-75387040D02*
X188425161Y-75434659D01*
X188425161Y-75434659D02*
X188377541Y-75387040D01*
X188377541Y-75387040D02*
X188425161Y-75339421D01*
X188425161Y-75339421D02*
X188472780Y-75387040D01*
X188472780Y-75387040D02*
X188377541Y-75387040D01*
X189377541Y-75767992D02*
X189377541Y-76387039D01*
X189377541Y-76387039D02*
X188996589Y-76053706D01*
X188996589Y-76053706D02*
X188996589Y-76196563D01*
X188996589Y-76196563D02*
X188948970Y-76291801D01*
X188948970Y-76291801D02*
X188901351Y-76339420D01*
X188901351Y-76339420D02*
X188806113Y-76387039D01*
X188806113Y-76387039D02*
X188568018Y-76387039D01*
X188568018Y-76387039D02*
X188472780Y-76339420D01*
X188472780Y-76339420D02*
X188425161Y-76291801D01*
X188425161Y-76291801D02*
X188377541Y-76196563D01*
X188377541Y-76196563D02*
X188377541Y-75910849D01*
X188377541Y-75910849D02*
X188425161Y-75815611D01*
X188425161Y-75815611D02*
X188472780Y-75767992D01*
X189377541Y-77434659D02*
X188377541Y-77767992D01*
X188377541Y-77767992D02*
X189377541Y-78101325D01*
X189377541Y-79053707D02*
X189377541Y-79625135D01*
X188377541Y-79339421D02*
X189377541Y-79339421D01*
X188377541Y-79958469D02*
X189377541Y-79958469D01*
X189377541Y-79958469D02*
X189377541Y-80339421D01*
X189377541Y-80339421D02*
X189329922Y-80434659D01*
X189329922Y-80434659D02*
X189282303Y-80482278D01*
X189282303Y-80482278D02*
X189187065Y-80529897D01*
X189187065Y-80529897D02*
X189044208Y-80529897D01*
X189044208Y-80529897D02*
X188948970Y-80482278D01*
X188948970Y-80482278D02*
X188901351Y-80434659D01*
X188901351Y-80434659D02*
X188853732Y-80339421D01*
X188853732Y-80339421D02*
X188853732Y-79958469D01*
X162884694Y-112108049D02*
X162837075Y-112155669D01*
X162837075Y-112155669D02*
X162694218Y-112203288D01*
X162694218Y-112203288D02*
X162598980Y-112203288D01*
X162598980Y-112203288D02*
X162456123Y-112155669D01*
X162456123Y-112155669D02*
X162360885Y-112060430D01*
X162360885Y-112060430D02*
X162313266Y-111965192D01*
X162313266Y-111965192D02*
X162265647Y-111774716D01*
X162265647Y-111774716D02*
X162265647Y-111631859D01*
X162265647Y-111631859D02*
X162313266Y-111441383D01*
X162313266Y-111441383D02*
X162360885Y-111346145D01*
X162360885Y-111346145D02*
X162456123Y-111250907D01*
X162456123Y-111250907D02*
X162598980Y-111203288D01*
X162598980Y-111203288D02*
X162694218Y-111203288D01*
X162694218Y-111203288D02*
X162837075Y-111250907D01*
X162837075Y-111250907D02*
X162884694Y-111298526D01*
X163789456Y-111203288D02*
X163313266Y-111203288D01*
X163313266Y-111203288D02*
X163265647Y-111679478D01*
X163265647Y-111679478D02*
X163313266Y-111631859D01*
X163313266Y-111631859D02*
X163408504Y-111584240D01*
X163408504Y-111584240D02*
X163646599Y-111584240D01*
X163646599Y-111584240D02*
X163741837Y-111631859D01*
X163741837Y-111631859D02*
X163789456Y-111679478D01*
X163789456Y-111679478D02*
X163837075Y-111774716D01*
X163837075Y-111774716D02*
X163837075Y-112012811D01*
X163837075Y-112012811D02*
X163789456Y-112108049D01*
X163789456Y-112108049D02*
X163741837Y-112155669D01*
X163741837Y-112155669D02*
X163646599Y-112203288D01*
X163646599Y-112203288D02*
X163408504Y-112203288D01*
X163408504Y-112203288D02*
X163313266Y-112155669D01*
X163313266Y-112155669D02*
X163265647Y-112108049D01*
X196793694Y-106869288D02*
X196460361Y-106393097D01*
X196222266Y-106869288D02*
X196222266Y-105869288D01*
X196222266Y-105869288D02*
X196603218Y-105869288D01*
X196603218Y-105869288D02*
X196698456Y-105916907D01*
X196698456Y-105916907D02*
X196746075Y-105964526D01*
X196746075Y-105964526D02*
X196793694Y-106059764D01*
X196793694Y-106059764D02*
X196793694Y-106202621D01*
X196793694Y-106202621D02*
X196746075Y-106297859D01*
X196746075Y-106297859D02*
X196698456Y-106345478D01*
X196698456Y-106345478D02*
X196603218Y-106393097D01*
X196603218Y-106393097D02*
X196222266Y-106393097D01*
X197127028Y-105869288D02*
X197793694Y-105869288D01*
X197793694Y-105869288D02*
X197365123Y-106869288D01*
X103891180Y-61400754D02*
X102891180Y-61400754D01*
X102891180Y-61400754D02*
X102891180Y-61162659D01*
X102891180Y-61162659D02*
X102938799Y-61019802D01*
X102938799Y-61019802D02*
X103034037Y-60924564D01*
X103034037Y-60924564D02*
X103129275Y-60876945D01*
X103129275Y-60876945D02*
X103319751Y-60829326D01*
X103319751Y-60829326D02*
X103462608Y-60829326D01*
X103462608Y-60829326D02*
X103653084Y-60876945D01*
X103653084Y-60876945D02*
X103748322Y-60924564D01*
X103748322Y-60924564D02*
X103843561Y-61019802D01*
X103843561Y-61019802D02*
X103891180Y-61162659D01*
X103891180Y-61162659D02*
X103891180Y-61400754D01*
X102986418Y-60448373D02*
X102938799Y-60400754D01*
X102938799Y-60400754D02*
X102891180Y-60305516D01*
X102891180Y-60305516D02*
X102891180Y-60067421D01*
X102891180Y-60067421D02*
X102938799Y-59972183D01*
X102938799Y-59972183D02*
X102986418Y-59924564D01*
X102986418Y-59924564D02*
X103081656Y-59876945D01*
X103081656Y-59876945D02*
X103176894Y-59876945D01*
X103176894Y-59876945D02*
X103319751Y-59924564D01*
X103319751Y-59924564D02*
X103891180Y-60495992D01*
X103891180Y-60495992D02*
X103891180Y-59876945D01*
X103224513Y-59019802D02*
X103891180Y-59019802D01*
X102843561Y-59257897D02*
X103557846Y-59495992D01*
X103557846Y-59495992D02*
X103557846Y-58876945D01*
X103521180Y-55368373D02*
X102521180Y-55368373D01*
X103521180Y-54796945D02*
X102949751Y-55225516D01*
X102521180Y-54796945D02*
X103092608Y-55368373D01*
X180434742Y-91756288D02*
X180434742Y-90756288D01*
X180434742Y-90756288D02*
X180672837Y-90756288D01*
X180672837Y-90756288D02*
X180815694Y-90803907D01*
X180815694Y-90803907D02*
X180910932Y-90899145D01*
X180910932Y-90899145D02*
X180958551Y-90994383D01*
X180958551Y-90994383D02*
X181006170Y-91184859D01*
X181006170Y-91184859D02*
X181006170Y-91327716D01*
X181006170Y-91327716D02*
X180958551Y-91518192D01*
X180958551Y-91518192D02*
X180910932Y-91613430D01*
X180910932Y-91613430D02*
X180815694Y-91708669D01*
X180815694Y-91708669D02*
X180672837Y-91756288D01*
X180672837Y-91756288D02*
X180434742Y-91756288D01*
X181815694Y-91708669D02*
X181720456Y-91756288D01*
X181720456Y-91756288D02*
X181529980Y-91756288D01*
X181529980Y-91756288D02*
X181434742Y-91708669D01*
X181434742Y-91708669D02*
X181387123Y-91613430D01*
X181387123Y-91613430D02*
X181387123Y-91232478D01*
X181387123Y-91232478D02*
X181434742Y-91137240D01*
X181434742Y-91137240D02*
X181529980Y-91089621D01*
X181529980Y-91089621D02*
X181720456Y-91089621D01*
X181720456Y-91089621D02*
X181815694Y-91137240D01*
X181815694Y-91137240D02*
X181863313Y-91232478D01*
X181863313Y-91232478D02*
X181863313Y-91327716D01*
X181863313Y-91327716D02*
X181387123Y-91422954D01*
X182291885Y-91756288D02*
X182291885Y-90756288D01*
X182291885Y-91137240D02*
X182387123Y-91089621D01*
X182387123Y-91089621D02*
X182577599Y-91089621D01*
X182577599Y-91089621D02*
X182672837Y-91137240D01*
X182672837Y-91137240D02*
X182720456Y-91184859D01*
X182720456Y-91184859D02*
X182768075Y-91280097D01*
X182768075Y-91280097D02*
X182768075Y-91565811D01*
X182768075Y-91565811D02*
X182720456Y-91661049D01*
X182720456Y-91661049D02*
X182672837Y-91708669D01*
X182672837Y-91708669D02*
X182577599Y-91756288D01*
X182577599Y-91756288D02*
X182387123Y-91756288D01*
X182387123Y-91756288D02*
X182291885Y-91708669D01*
X183625218Y-91089621D02*
X183625218Y-91756288D01*
X183196647Y-91089621D02*
X183196647Y-91613430D01*
X183196647Y-91613430D02*
X183244266Y-91708669D01*
X183244266Y-91708669D02*
X183339504Y-91756288D01*
X183339504Y-91756288D02*
X183482361Y-91756288D01*
X183482361Y-91756288D02*
X183577599Y-91708669D01*
X183577599Y-91708669D02*
X183625218Y-91661049D01*
X184529980Y-91089621D02*
X184529980Y-91899145D01*
X184529980Y-91899145D02*
X184482361Y-91994383D01*
X184482361Y-91994383D02*
X184434742Y-92042002D01*
X184434742Y-92042002D02*
X184339504Y-92089621D01*
X184339504Y-92089621D02*
X184196647Y-92089621D01*
X184196647Y-92089621D02*
X184101409Y-92042002D01*
X184529980Y-91708669D02*
X184434742Y-91756288D01*
X184434742Y-91756288D02*
X184244266Y-91756288D01*
X184244266Y-91756288D02*
X184149028Y-91708669D01*
X184149028Y-91708669D02*
X184101409Y-91661049D01*
X184101409Y-91661049D02*
X184053790Y-91565811D01*
X184053790Y-91565811D02*
X184053790Y-91280097D01*
X184053790Y-91280097D02*
X184101409Y-91184859D01*
X184101409Y-91184859D02*
X184149028Y-91137240D01*
X184149028Y-91137240D02*
X184244266Y-91089621D01*
X184244266Y-91089621D02*
X184434742Y-91089621D01*
X184434742Y-91089621D02*
X184529980Y-91137240D01*
X139802647Y-130110288D02*
X139802647Y-129110288D01*
X139802647Y-129110288D02*
X140183599Y-129110288D01*
X140183599Y-129110288D02*
X140278837Y-129157907D01*
X140278837Y-129157907D02*
X140326456Y-129205526D01*
X140326456Y-129205526D02*
X140374075Y-129300764D01*
X140374075Y-129300764D02*
X140374075Y-129443621D01*
X140374075Y-129443621D02*
X140326456Y-129538859D01*
X140326456Y-129538859D02*
X140278837Y-129586478D01*
X140278837Y-129586478D02*
X140183599Y-129634097D01*
X140183599Y-129634097D02*
X139802647Y-129634097D01*
X140802647Y-130110288D02*
X140802647Y-129443621D01*
X140802647Y-129110288D02*
X140755028Y-129157907D01*
X140755028Y-129157907D02*
X140802647Y-129205526D01*
X140802647Y-129205526D02*
X140850266Y-129157907D01*
X140850266Y-129157907D02*
X140802647Y-129110288D01*
X140802647Y-129110288D02*
X140802647Y-129205526D01*
X141659789Y-130062669D02*
X141564551Y-130110288D01*
X141564551Y-130110288D02*
X141374075Y-130110288D01*
X141374075Y-130110288D02*
X141278837Y-130062669D01*
X141278837Y-130062669D02*
X141231218Y-129967430D01*
X141231218Y-129967430D02*
X141231218Y-129586478D01*
X141231218Y-129586478D02*
X141278837Y-129491240D01*
X141278837Y-129491240D02*
X141374075Y-129443621D01*
X141374075Y-129443621D02*
X141564551Y-129443621D01*
X141564551Y-129443621D02*
X141659789Y-129491240D01*
X141659789Y-129491240D02*
X141707408Y-129586478D01*
X141707408Y-129586478D02*
X141707408Y-129681716D01*
X141707408Y-129681716D02*
X141231218Y-129776954D01*
X142040742Y-129443621D02*
X142564551Y-129443621D01*
X142564551Y-129443621D02*
X142040742Y-130110288D01*
X142040742Y-130110288D02*
X142564551Y-130110288D01*
X143088361Y-130110288D02*
X142993123Y-130062669D01*
X142993123Y-130062669D02*
X142945504Y-130015049D01*
X142945504Y-130015049D02*
X142897885Y-129919811D01*
X142897885Y-129919811D02*
X142897885Y-129634097D01*
X142897885Y-129634097D02*
X142945504Y-129538859D01*
X142945504Y-129538859D02*
X142993123Y-129491240D01*
X142993123Y-129491240D02*
X143088361Y-129443621D01*
X143088361Y-129443621D02*
X143231218Y-129443621D01*
X143231218Y-129443621D02*
X143326456Y-129491240D01*
X143326456Y-129491240D02*
X143374075Y-129538859D01*
X143374075Y-129538859D02*
X143421694Y-129634097D01*
X143421694Y-129634097D02*
X143421694Y-129919811D01*
X143421694Y-129919811D02*
X143374075Y-130015049D01*
X143374075Y-130015049D02*
X143326456Y-130062669D01*
X143326456Y-130062669D02*
X143231218Y-130110288D01*
X143231218Y-130110288D02*
X143088361Y-130110288D01*
X84074095Y-26480819D02*
X84074095Y-25480819D01*
X84074095Y-25957009D02*
X84645523Y-25957009D01*
X84645523Y-26480819D02*
X84645523Y-25480819D01*
X85645523Y-26480819D02*
X85074095Y-26480819D01*
X85359809Y-26480819D02*
X85359809Y-25480819D01*
X85359809Y-25480819D02*
X85264571Y-25623676D01*
X85264571Y-25623676D02*
X85169333Y-25718914D01*
X85169333Y-25718914D02*
X85074095Y-25766533D01*
X180188503Y-87724049D02*
X180140884Y-87771669D01*
X180140884Y-87771669D02*
X179998027Y-87819288D01*
X179998027Y-87819288D02*
X179902789Y-87819288D01*
X179902789Y-87819288D02*
X179759932Y-87771669D01*
X179759932Y-87771669D02*
X179664694Y-87676430D01*
X179664694Y-87676430D02*
X179617075Y-87581192D01*
X179617075Y-87581192D02*
X179569456Y-87390716D01*
X179569456Y-87390716D02*
X179569456Y-87247859D01*
X179569456Y-87247859D02*
X179617075Y-87057383D01*
X179617075Y-87057383D02*
X179664694Y-86962145D01*
X179664694Y-86962145D02*
X179759932Y-86866907D01*
X179759932Y-86866907D02*
X179902789Y-86819288D01*
X179902789Y-86819288D02*
X179998027Y-86819288D01*
X179998027Y-86819288D02*
X180140884Y-86866907D01*
X180140884Y-86866907D02*
X180188503Y-86914526D01*
X181140884Y-87819288D02*
X180569456Y-87819288D01*
X180855170Y-87819288D02*
X180855170Y-86819288D01*
X180855170Y-86819288D02*
X180759932Y-86962145D01*
X180759932Y-86962145D02*
X180664694Y-87057383D01*
X180664694Y-87057383D02*
X180569456Y-87105002D01*
X181521837Y-86914526D02*
X181569456Y-86866907D01*
X181569456Y-86866907D02*
X181664694Y-86819288D01*
X181664694Y-86819288D02*
X181902789Y-86819288D01*
X181902789Y-86819288D02*
X181998027Y-86866907D01*
X181998027Y-86866907D02*
X182045646Y-86914526D01*
X182045646Y-86914526D02*
X182093265Y-87009764D01*
X182093265Y-87009764D02*
X182093265Y-87105002D01*
X182093265Y-87105002D02*
X182045646Y-87247859D01*
X182045646Y-87247859D02*
X181474218Y-87819288D01*
X181474218Y-87819288D02*
X182093265Y-87819288D01*
X201930095Y-140780819D02*
X201930095Y-139780819D01*
X201930095Y-140257009D02*
X202501523Y-140257009D01*
X202501523Y-140780819D02*
X202501523Y-139780819D01*
X203406285Y-140114152D02*
X203406285Y-140780819D01*
X203168190Y-139733200D02*
X202930095Y-140447485D01*
X202930095Y-140447485D02*
X203549142Y-140447485D01*
D12*
%TO.C,C19*%
X165620113Y-125945469D02*
X165097609Y-125945469D01*
X165620113Y-124475469D02*
X165097609Y-124475469D01*
%TO.C,R12*%
X182074361Y-138953405D02*
X182074361Y-139407533D01*
X180604361Y-138953405D02*
X180604361Y-139407533D01*
%TO.C,R11*%
X178518361Y-138953405D02*
X178518361Y-139407533D01*
X177048361Y-138953405D02*
X177048361Y-139407533D01*
%TO.C,D2*%
X176659361Y-100794469D02*
X176659361Y-96794469D01*
X176369361Y-101824469D02*
X176369361Y-95804469D01*
X176369361Y-95804469D02*
X171069361Y-95804469D01*
X175789361Y-101824469D02*
X175789361Y-101224469D01*
X175789361Y-101224469D02*
X174189361Y-101224469D01*
X174989361Y-96804469D02*
X174739361Y-97334469D01*
X174989361Y-96804469D02*
X172449361Y-96804469D01*
X174989361Y-95804469D02*
X174989361Y-96804469D01*
X174739361Y-97334469D02*
X172699361Y-97334469D01*
X174739361Y-95804469D02*
X174739361Y-96804469D01*
X174189361Y-101224469D02*
X174189361Y-101824469D01*
X173249361Y-101824469D02*
X173249361Y-101224469D01*
X173249361Y-101224469D02*
X171649361Y-101224469D01*
X172699361Y-97334469D02*
X172449361Y-96804469D01*
X172699361Y-95804469D02*
X172699361Y-96804469D01*
X172449361Y-96804469D02*
X172449361Y-95804469D01*
X171649361Y-101224469D02*
X171649361Y-101824469D01*
X171069361Y-101824469D02*
X176369361Y-101824469D01*
X171069361Y-95804469D02*
X171069361Y-101824469D01*
%TO.C,D1*%
X171833361Y-93682469D02*
X171833361Y-89682469D01*
X171543361Y-94712469D02*
X171543361Y-88692469D01*
X171543361Y-88692469D02*
X166243361Y-88692469D01*
X170963361Y-94712469D02*
X170963361Y-94112469D01*
X170963361Y-94112469D02*
X169363361Y-94112469D01*
X170163361Y-89692469D02*
X169913361Y-90222469D01*
X170163361Y-89692469D02*
X167623361Y-89692469D01*
X170163361Y-88692469D02*
X170163361Y-89692469D01*
X169913361Y-90222469D02*
X167873361Y-90222469D01*
X169913361Y-88692469D02*
X169913361Y-89692469D01*
X169363361Y-94112469D02*
X169363361Y-94712469D01*
X168423361Y-94712469D02*
X168423361Y-94112469D01*
X168423361Y-94112469D02*
X166823361Y-94112469D01*
X167873361Y-90222469D02*
X167623361Y-89692469D01*
X167873361Y-88692469D02*
X167873361Y-89692469D01*
X167623361Y-89692469D02*
X167623361Y-88692469D01*
X166823361Y-94112469D02*
X166823361Y-94712469D01*
X166243361Y-94712469D02*
X171543361Y-94712469D01*
X166243361Y-88692469D02*
X166243361Y-94712469D01*
%TO.C,D4*%
X199829361Y-113415469D02*
X195819361Y-113415469D01*
X199829361Y-115415469D02*
X195819361Y-115415469D01*
X199829361Y-115415469D02*
X199829361Y-113415469D01*
%TO.C,D12*%
X173011361Y-53910469D02*
X173011361Y-59350469D01*
X173011361Y-59350469D02*
X175951361Y-59350469D01*
X174481361Y-52890469D02*
X174481361Y-53910469D01*
X174481361Y-60370469D02*
X174481361Y-59350469D01*
X175951361Y-53910469D02*
X173011361Y-53910469D01*
X175951361Y-54690469D02*
X173011361Y-54690469D01*
X175951361Y-54810469D02*
X173011361Y-54810469D01*
X175951361Y-54930469D02*
X173011361Y-54930469D01*
X175951361Y-59350469D02*
X175951361Y-53910469D01*
%TO.C,D13*%
X86413361Y-127904469D02*
X87433361Y-127904469D01*
X87433361Y-126434469D02*
X87433361Y-129374469D01*
X87433361Y-129374469D02*
X92873361Y-129374469D01*
X88213361Y-126434469D02*
X88213361Y-129374469D01*
X88333361Y-126434469D02*
X88333361Y-129374469D01*
X88453361Y-126434469D02*
X88453361Y-129374469D01*
X92873361Y-126434469D02*
X87433361Y-126434469D01*
X92873361Y-129374469D02*
X92873361Y-126434469D01*
X93893361Y-127904469D02*
X92873361Y-127904469D01*
%TO.C,U5*%
X110921361Y-74235469D02*
X110921361Y-79476469D01*
X110921361Y-74235469D02*
X131361361Y-74235469D01*
X110921361Y-76075469D02*
X131361361Y-76075469D01*
X110921361Y-79476469D02*
X112597361Y-79476469D01*
X112251361Y-79476469D02*
X112251361Y-82885469D01*
X114446361Y-79476469D02*
X115137361Y-79476469D01*
X114791361Y-79476469D02*
X114791361Y-82870469D01*
X116986361Y-79476469D02*
X117677361Y-79476469D01*
X117331361Y-79476469D02*
X117331361Y-82870469D01*
X119292361Y-74235469D02*
X119292361Y-76075469D01*
X119526361Y-79476469D02*
X120217361Y-79476469D01*
X119871361Y-79476469D02*
X119871361Y-82870469D01*
X122066361Y-79476469D02*
X122757361Y-79476469D01*
X122411361Y-79476469D02*
X122411361Y-82870469D01*
X122991361Y-74235469D02*
X122991361Y-76075469D01*
X124606361Y-79476469D02*
X125297361Y-79476469D01*
X124951361Y-79476469D02*
X124951361Y-82870469D01*
X127146361Y-79476469D02*
X127837361Y-79476469D01*
X127491361Y-79476469D02*
X127491361Y-82870469D01*
X129686361Y-79476469D02*
X131361361Y-79476469D01*
X130031361Y-79476469D02*
X130031361Y-82870469D01*
X131361361Y-74235469D02*
X131361361Y-79476469D01*
%TO.C,D11*%
X173011361Y-39178469D02*
X173011361Y-44618469D01*
X173011361Y-44618469D02*
X175951361Y-44618469D01*
X174481361Y-38158469D02*
X174481361Y-39178469D01*
X174481361Y-45638469D02*
X174481361Y-44618469D01*
X175951361Y-39178469D02*
X173011361Y-39178469D01*
X175951361Y-39958469D02*
X173011361Y-39958469D01*
X175951361Y-40078469D02*
X173011361Y-40078469D01*
X175951361Y-40198469D02*
X173011361Y-40198469D01*
X175951361Y-44618469D02*
X175951361Y-39178469D01*
%TO.C,D15*%
X86413361Y-115812469D02*
X87433361Y-115812469D01*
X87433361Y-114342469D02*
X87433361Y-117282469D01*
X87433361Y-117282469D02*
X92873361Y-117282469D01*
X88213361Y-114342469D02*
X88213361Y-117282469D01*
X88333361Y-114342469D02*
X88333361Y-117282469D01*
X88453361Y-114342469D02*
X88453361Y-117282469D01*
X92873361Y-114342469D02*
X87433361Y-114342469D01*
X92873361Y-117282469D02*
X92873361Y-114342469D01*
X93893361Y-115812469D02*
X92873361Y-115812469D01*
%TO.C,D8*%
X151675361Y-39305469D02*
X151675361Y-44745469D01*
X151675361Y-44745469D02*
X154615361Y-44745469D01*
X153145361Y-38285469D02*
X153145361Y-39305469D01*
X153145361Y-45765469D02*
X153145361Y-44745469D01*
X154615361Y-39305469D02*
X151675361Y-39305469D01*
X154615361Y-40085469D02*
X151675361Y-40085469D01*
X154615361Y-40205469D02*
X151675361Y-40205469D01*
X154615361Y-40325469D02*
X151675361Y-40325469D01*
X154615361Y-44745469D02*
X154615361Y-39305469D01*
%TO.C,U3*%
X151942361Y-72457469D02*
X151942361Y-77698469D01*
X151942361Y-72457469D02*
X172382361Y-72457469D01*
X151942361Y-74297469D02*
X172382361Y-74297469D01*
X151942361Y-77698469D02*
X153618361Y-77698469D01*
X153272361Y-77698469D02*
X153272361Y-81107469D01*
X155467361Y-77698469D02*
X156158361Y-77698469D01*
X155812361Y-77698469D02*
X155812361Y-81092469D01*
X158007361Y-77698469D02*
X158698361Y-77698469D01*
X158352361Y-77698469D02*
X158352361Y-81092469D01*
X160313361Y-72457469D02*
X160313361Y-74297469D01*
X160547361Y-77698469D02*
X161238361Y-77698469D01*
X160892361Y-77698469D02*
X160892361Y-81092469D01*
X163087361Y-77698469D02*
X163778361Y-77698469D01*
X163432361Y-77698469D02*
X163432361Y-81092469D01*
X164012361Y-72457469D02*
X164012361Y-74297469D01*
X165627361Y-77698469D02*
X166318361Y-77698469D01*
X165972361Y-77698469D02*
X165972361Y-81092469D01*
X168167361Y-77698469D02*
X168858361Y-77698469D01*
X168512361Y-77698469D02*
X168512361Y-81092469D01*
X170707361Y-77698469D02*
X172382361Y-77698469D01*
X171052361Y-77698469D02*
X171052361Y-81092469D01*
X172382361Y-72457469D02*
X172382361Y-77698469D01*
%TO.C,TP2*%
X175685361Y-141720469D02*
G75*
G02*
X173785361Y-141720469I-950000J0D01*
G01*
X173785361Y-141720469D02*
G75*
G02*
X175685361Y-141720469I950000J0D01*
G01*
%TO.C,R1*%
X165310361Y-91963405D02*
X165310361Y-92417533D01*
X163840361Y-91963405D02*
X163840361Y-92417533D01*
%TO.C,R8*%
X181620361Y-117125405D02*
X181620361Y-117579533D01*
X183090361Y-117125405D02*
X183090361Y-117579533D01*
%TO.C,D19*%
X86413361Y-95492469D02*
X87433361Y-95492469D01*
X87433361Y-94022469D02*
X87433361Y-96962469D01*
X87433361Y-96962469D02*
X92873361Y-96962469D01*
X88213361Y-94022469D02*
X88213361Y-96962469D01*
X88333361Y-94022469D02*
X88333361Y-96962469D01*
X88453361Y-94022469D02*
X88453361Y-96962469D01*
X92873361Y-94022469D02*
X87433361Y-94022469D01*
X92873361Y-96962469D02*
X92873361Y-94022469D01*
X93893361Y-95492469D02*
X92873361Y-95492469D01*
%TO.C,D28*%
X126783361Y-57720469D02*
X126783361Y-63160469D01*
X126783361Y-63160469D02*
X129723361Y-63160469D01*
X128253361Y-56700469D02*
X128253361Y-57720469D01*
X128253361Y-64180469D02*
X128253361Y-63160469D01*
X129723361Y-57720469D02*
X126783361Y-57720469D01*
X129723361Y-58500469D02*
X126783361Y-58500469D01*
X129723361Y-58620469D02*
X126783361Y-58620469D01*
X129723361Y-58740469D02*
X126783361Y-58740469D01*
X129723361Y-63160469D02*
X129723361Y-57720469D01*
%TO.C,C16*%
X130510609Y-91709469D02*
X131033113Y-91709469D01*
X130510609Y-93179469D02*
X131033113Y-93179469D01*
%TO.C,D9*%
X160184361Y-39305469D02*
X160184361Y-44745469D01*
X160184361Y-44745469D02*
X163124361Y-44745469D01*
X161654361Y-38285469D02*
X161654361Y-39305469D01*
X161654361Y-45765469D02*
X161654361Y-44745469D01*
X163124361Y-39305469D02*
X160184361Y-39305469D01*
X163124361Y-40085469D02*
X160184361Y-40085469D01*
X163124361Y-40205469D02*
X160184361Y-40205469D01*
X163124361Y-40325469D02*
X160184361Y-40325469D01*
X163124361Y-44745469D02*
X163124361Y-39305469D01*
%TO.C,TP3*%
X156254361Y-133465469D02*
G75*
G02*
X154354361Y-133465469I-950000J0D01*
G01*
X154354361Y-133465469D02*
G75*
G02*
X156254361Y-133465469I950000J0D01*
G01*
%TO.C,C13*%
X148312109Y-83273469D02*
X148834613Y-83273469D01*
X148312109Y-81803469D02*
X148834613Y-81803469D01*
%TO.C,R3*%
X131836361Y-133349405D02*
X131836361Y-133803533D01*
X133306361Y-133349405D02*
X133306361Y-133803533D01*
%TO.C,D26*%
X113575361Y-57212469D02*
X113575361Y-62652469D01*
X113575361Y-62652469D02*
X116515361Y-62652469D01*
X115045361Y-56192469D02*
X115045361Y-57212469D01*
X115045361Y-63672469D02*
X115045361Y-62652469D01*
X116515361Y-57212469D02*
X113575361Y-57212469D01*
X116515361Y-57992469D02*
X113575361Y-57992469D01*
X116515361Y-58112469D02*
X113575361Y-58112469D01*
X116515361Y-58232469D02*
X113575361Y-58232469D01*
X116515361Y-62652469D02*
X116515361Y-57212469D01*
%TO.C,C14*%
X175016361Y-80223717D02*
X175016361Y-80746221D01*
X176486361Y-80223717D02*
X176486361Y-80746221D01*
%TO.C,TP1*%
X186607361Y-135370469D02*
G75*
G02*
X184707361Y-135370469I-950000J0D01*
G01*
X184707361Y-135370469D02*
G75*
G02*
X186607361Y-135370469I950000J0D01*
G01*
%TO.C,C7*%
X172095361Y-114048717D02*
X172095361Y-114571221D01*
X173565361Y-114048717D02*
X173565361Y-114571221D01*
%TO.C,U2*%
X168275361Y-129214469D02*
X168275361Y-139494469D01*
X168275361Y-139494469D02*
X173575361Y-139494469D01*
X169925361Y-129214469D02*
X168275361Y-129214469D01*
X173575361Y-129214469D02*
X171925361Y-129214469D01*
X173575361Y-139494469D02*
X173575361Y-129214469D01*
X171925361Y-129214469D02*
G75*
G02*
X169925361Y-129214469I-1000000J0D01*
G01*
%TO.C,D5*%
X137070361Y-56196469D02*
X137070361Y-61636469D01*
X137070361Y-61636469D02*
X140010361Y-61636469D01*
X138540361Y-55176469D02*
X138540361Y-56196469D01*
X138540361Y-62656469D02*
X138540361Y-61636469D01*
X140010361Y-56196469D02*
X137070361Y-56196469D01*
X140010361Y-56976469D02*
X137070361Y-56976469D01*
X140010361Y-57096469D02*
X137070361Y-57096469D01*
X140010361Y-57216469D02*
X137070361Y-57216469D01*
X140010361Y-61636469D02*
X140010361Y-56196469D01*
%TO.C,U1*%
X184673361Y-50240469D02*
X189314361Y-50240469D01*
X184673361Y-53509469D02*
X186183361Y-53509469D01*
X184673361Y-57210469D02*
X186183361Y-57210469D01*
X184673361Y-60480469D02*
X184673361Y-50240469D01*
X184673361Y-60480469D02*
X189314361Y-60480469D01*
X186183361Y-60480469D02*
X186183361Y-50240469D01*
X189314361Y-60480469D02*
X189314361Y-50240469D01*
%TO.C,U4*%
X124383361Y-94428469D02*
X124383361Y-99669469D01*
X124383361Y-94428469D02*
X144823361Y-94428469D01*
X124383361Y-96268469D02*
X144823361Y-96268469D01*
X124383361Y-99669469D02*
X126059361Y-99669469D01*
X125713361Y-99669469D02*
X125713361Y-103078469D01*
X127908361Y-99669469D02*
X128599361Y-99669469D01*
X128253361Y-99669469D02*
X128253361Y-103063469D01*
X130448361Y-99669469D02*
X131139361Y-99669469D01*
X130793361Y-99669469D02*
X130793361Y-103063469D01*
X132754361Y-94428469D02*
X132754361Y-96268469D01*
X132988361Y-99669469D02*
X133679361Y-99669469D01*
X133333361Y-99669469D02*
X133333361Y-103063469D01*
X135528361Y-99669469D02*
X136219361Y-99669469D01*
X135873361Y-99669469D02*
X135873361Y-103063469D01*
X136453361Y-94428469D02*
X136453361Y-96268469D01*
X138068361Y-99669469D02*
X138759361Y-99669469D01*
X138413361Y-99669469D02*
X138413361Y-103063469D01*
X140608361Y-99669469D02*
X141299361Y-99669469D01*
X140953361Y-99669469D02*
X140953361Y-103063469D01*
X143148361Y-99669469D02*
X144823361Y-99669469D01*
X143493361Y-99669469D02*
X143493361Y-103063469D01*
X144823361Y-94428469D02*
X144823361Y-99669469D01*
%TO.C,J10*%
X118963361Y-49296469D02*
X118963361Y-53296469D01*
X119253361Y-48266469D02*
X119253361Y-54286469D01*
X119253361Y-54286469D02*
X124553361Y-54286469D01*
X119833361Y-48266469D02*
X119833361Y-48866469D01*
X119833361Y-48866469D02*
X121433361Y-48866469D01*
X120633361Y-53286469D02*
X120883361Y-52756469D01*
X120633361Y-53286469D02*
X123173361Y-53286469D01*
X120633361Y-54286469D02*
X120633361Y-53286469D01*
X120883361Y-52756469D02*
X122923361Y-52756469D01*
X120883361Y-54286469D02*
X120883361Y-53286469D01*
X121433361Y-48866469D02*
X121433361Y-48266469D01*
X122373361Y-48266469D02*
X122373361Y-48866469D01*
X122373361Y-48866469D02*
X123973361Y-48866469D01*
X122923361Y-52756469D02*
X123173361Y-53286469D01*
X122923361Y-54286469D02*
X122923361Y-53286469D01*
X123173361Y-53286469D02*
X123173361Y-54286469D01*
X123973361Y-48866469D02*
X123973361Y-48266469D01*
X124553361Y-48266469D02*
X119253361Y-48266469D01*
X124553361Y-54286469D02*
X124553361Y-48266469D01*
%TO.C,D23*%
X99537361Y-39432469D02*
X99537361Y-44872469D01*
X99537361Y-44872469D02*
X102477361Y-44872469D01*
X101007361Y-38412469D02*
X101007361Y-39432469D01*
X101007361Y-45892469D02*
X101007361Y-44872469D01*
X102477361Y-39432469D02*
X99537361Y-39432469D01*
X102477361Y-40212469D02*
X99537361Y-40212469D01*
X102477361Y-40332469D02*
X99537361Y-40332469D01*
X102477361Y-40452469D02*
X99537361Y-40452469D01*
X102477361Y-44872469D02*
X102477361Y-39432469D01*
%TO.C,J5*%
X143297361Y-47884469D02*
X143297361Y-53184469D01*
X143297361Y-49264469D02*
X144297361Y-49264469D01*
X143297361Y-49514469D02*
X144297361Y-49514469D01*
X143297361Y-51554469D02*
X144297361Y-51554469D01*
X143297361Y-53184469D02*
X149317361Y-53184469D01*
X144297361Y-49264469D02*
X144297361Y-51804469D01*
X144297361Y-49264469D02*
X144827361Y-49514469D01*
X144297361Y-51804469D02*
X143297361Y-51804469D01*
X144827361Y-49514469D02*
X144827361Y-51554469D01*
X144827361Y-51554469D02*
X144297361Y-51804469D01*
X148287361Y-47594469D02*
X144287361Y-47594469D01*
X148717361Y-48464469D02*
X148717361Y-50064469D01*
X148717361Y-50064469D02*
X149317361Y-50064469D01*
X148717361Y-51004469D02*
X148717361Y-52604469D01*
X148717361Y-52604469D02*
X149317361Y-52604469D01*
X149317361Y-47884469D02*
X143297361Y-47884469D01*
X149317361Y-48464469D02*
X148717361Y-48464469D01*
X149317361Y-51004469D02*
X148717361Y-51004469D01*
X149317361Y-53184469D02*
X149317361Y-47884469D01*
%TO.C,C10*%
X156179113Y-114061469D02*
X155656609Y-114061469D01*
X156179113Y-115531469D02*
X155656609Y-115531469D01*
%TO.C,C17*%
X104382861Y-86087217D02*
X104382861Y-86609721D01*
X105852861Y-86087217D02*
X105852861Y-86609721D01*
%TO.C,U7*%
X192922361Y-64464469D02*
X192922361Y-74704469D01*
X196053361Y-64464469D02*
X196053361Y-74704469D01*
X197563361Y-64464469D02*
X192922361Y-64464469D01*
X197563361Y-64464469D02*
X197563361Y-74704469D01*
X197563361Y-67734469D02*
X196053361Y-67734469D01*
X197563361Y-71435469D02*
X196053361Y-71435469D01*
X197563361Y-74704469D02*
X192922361Y-74704469D01*
%TO.C,D3*%
X148754361Y-130999469D02*
X148754361Y-136439469D01*
X148754361Y-136439469D02*
X151694361Y-136439469D01*
X150224361Y-129979469D02*
X150224361Y-130999469D01*
X150224361Y-137459469D02*
X150224361Y-136439469D01*
X151694361Y-130999469D02*
X148754361Y-130999469D01*
X151694361Y-131779469D02*
X148754361Y-131779469D01*
X151694361Y-131899469D02*
X148754361Y-131899469D01*
X151694361Y-132019469D02*
X148754361Y-132019469D01*
X151694361Y-136439469D02*
X151694361Y-130999469D01*
%TO.C,D18*%
X107368361Y-108700469D02*
X108388361Y-108700469D01*
X108388361Y-107230469D02*
X108388361Y-110170469D01*
X108388361Y-110170469D02*
X113828361Y-110170469D01*
X109168361Y-107230469D02*
X109168361Y-110170469D01*
X109288361Y-107230469D02*
X109288361Y-110170469D01*
X109408361Y-107230469D02*
X109408361Y-110170469D01*
X113828361Y-107230469D02*
X108388361Y-107230469D01*
X113828361Y-110170469D02*
X113828361Y-107230469D01*
X114848361Y-108700469D02*
X113828361Y-108700469D01*
%TO.C,D25*%
X113643361Y-39432469D02*
X113643361Y-44872469D01*
X113643361Y-44872469D02*
X116583361Y-44872469D01*
X115113361Y-38412469D02*
X115113361Y-39432469D01*
X115113361Y-45892469D02*
X115113361Y-44872469D01*
X116583361Y-39432469D02*
X113643361Y-39432469D01*
X116583361Y-40212469D02*
X113643361Y-40212469D01*
X116583361Y-40332469D02*
X113643361Y-40332469D01*
X116583361Y-40452469D02*
X113643361Y-40452469D01*
X116583361Y-44872469D02*
X116583361Y-39432469D01*
%TO.C,TP4*%
X191560361Y-46597469D02*
G75*
G02*
X189660361Y-46597469I-950000J0D01*
G01*
X189660361Y-46597469D02*
G75*
G02*
X191560361Y-46597469I950000J0D01*
G01*
%TO.C,C2*%
X193016109Y-52085469D02*
X193538613Y-52085469D01*
X193016109Y-53555469D02*
X193538613Y-53555469D01*
%TO.C,J7*%
X96521361Y-118750469D02*
X96521361Y-124050469D01*
X96521361Y-120930469D02*
X97121361Y-120930469D01*
X96521361Y-123470469D02*
X97121361Y-123470469D01*
X96521361Y-124050469D02*
X102541361Y-124050469D01*
X97121361Y-119330469D02*
X96521361Y-119330469D01*
X97121361Y-120930469D02*
X97121361Y-119330469D01*
X97121361Y-121870469D02*
X96521361Y-121870469D01*
X97121361Y-123470469D02*
X97121361Y-121870469D01*
X97551361Y-124340469D02*
X101551361Y-124340469D01*
X101011361Y-120380469D02*
X101541361Y-120130469D01*
X101011361Y-122420469D02*
X101011361Y-120380469D01*
X101541361Y-120130469D02*
X102541361Y-120130469D01*
X101541361Y-122670469D02*
X101011361Y-122420469D01*
X101541361Y-122670469D02*
X101541361Y-120130469D01*
X102541361Y-118750469D02*
X96521361Y-118750469D01*
X102541361Y-120380469D02*
X101541361Y-120380469D01*
X102541361Y-122420469D02*
X101541361Y-122420469D01*
X102541361Y-122670469D02*
X101541361Y-122670469D01*
X102541361Y-124050469D02*
X102541361Y-118750469D01*
%TO.C,D20*%
X107749361Y-95492469D02*
X108769361Y-95492469D01*
X108769361Y-94022469D02*
X108769361Y-96962469D01*
X108769361Y-96962469D02*
X114209361Y-96962469D01*
X109549361Y-94022469D02*
X109549361Y-96962469D01*
X109669361Y-94022469D02*
X109669361Y-96962469D01*
X109789361Y-94022469D02*
X109789361Y-96962469D01*
X114209361Y-94022469D02*
X108769361Y-94022469D01*
X114209361Y-96962469D02*
X114209361Y-94022469D01*
X115229361Y-95492469D02*
X114209361Y-95492469D01*
%TO.C,D14*%
X107495361Y-128004469D02*
X108515361Y-128004469D01*
X108515361Y-126534469D02*
X108515361Y-129474469D01*
X108515361Y-129474469D02*
X113955361Y-129474469D01*
X109295361Y-126534469D02*
X109295361Y-129474469D01*
X109415361Y-126534469D02*
X109415361Y-129474469D01*
X109535361Y-126534469D02*
X109535361Y-129474469D01*
X113955361Y-126534469D02*
X108515361Y-126534469D01*
X113955361Y-129474469D02*
X113955361Y-126534469D01*
X114975361Y-128004469D02*
X113955361Y-128004469D01*
%TO.C,C6*%
X158760361Y-131023717D02*
X158760361Y-131546221D01*
X160230361Y-131023717D02*
X160230361Y-131546221D01*
%TO.C,D6*%
X151675361Y-55942469D02*
X151675361Y-61382469D01*
X151675361Y-61382469D02*
X154615361Y-61382469D01*
X153145361Y-54922469D02*
X153145361Y-55942469D01*
X153145361Y-62402469D02*
X153145361Y-61382469D01*
X154615361Y-55942469D02*
X151675361Y-55942469D01*
X154615361Y-56722469D02*
X151675361Y-56722469D01*
X154615361Y-56842469D02*
X151675361Y-56842469D01*
X154615361Y-56962469D02*
X151675361Y-56962469D01*
X154615361Y-61382469D02*
X154615361Y-55942469D01*
%TO.C,R5*%
X177729425Y-89169469D02*
X177275297Y-89169469D01*
X177729425Y-90639469D02*
X177275297Y-90639469D01*
%TO.C,C4*%
X188465609Y-71389469D02*
X188988113Y-71389469D01*
X188465609Y-72859469D02*
X188988113Y-72859469D01*
%TO.C,R9*%
X177810361Y-117125405D02*
X177810361Y-117579533D01*
X179280361Y-117125405D02*
X179280361Y-117579533D01*
%TO.C,D7*%
X137070361Y-39305469D02*
X137070361Y-44745469D01*
X137070361Y-44745469D02*
X140010361Y-44745469D01*
X138540361Y-38285469D02*
X138540361Y-39305469D01*
X138540361Y-45765469D02*
X138540361Y-44745469D01*
X140010361Y-39305469D02*
X137070361Y-39305469D01*
X140010361Y-40085469D02*
X137070361Y-40085469D01*
X140010361Y-40205469D02*
X137070361Y-40205469D01*
X140010361Y-40325469D02*
X137070361Y-40325469D01*
X140010361Y-44745469D02*
X140010361Y-39305469D01*
%TO.C,D27*%
X126969361Y-39432469D02*
X126969361Y-44872469D01*
X126969361Y-44872469D02*
X129909361Y-44872469D01*
X128439361Y-38412469D02*
X128439361Y-39432469D01*
X128439361Y-45892469D02*
X128439361Y-44872469D01*
X129909361Y-39432469D02*
X126969361Y-39432469D01*
X129909361Y-40212469D02*
X126969361Y-40212469D01*
X129909361Y-40332469D02*
X126969361Y-40332469D01*
X129909361Y-40452469D02*
X126969361Y-40452469D01*
X129909361Y-44872469D02*
X129909361Y-39432469D01*
%TO.C,J8*%
X96775361Y-98684469D02*
X96775361Y-103984469D01*
X96775361Y-100864469D02*
X97375361Y-100864469D01*
X96775361Y-103404469D02*
X97375361Y-103404469D01*
X96775361Y-103984469D02*
X102795361Y-103984469D01*
X97375361Y-99264469D02*
X96775361Y-99264469D01*
X97375361Y-100864469D02*
X97375361Y-99264469D01*
X97375361Y-101804469D02*
X96775361Y-101804469D01*
X97375361Y-103404469D02*
X97375361Y-101804469D01*
X97805361Y-104274469D02*
X101805361Y-104274469D01*
X101265361Y-100314469D02*
X101795361Y-100064469D01*
X101265361Y-102354469D02*
X101265361Y-100314469D01*
X101795361Y-100064469D02*
X102795361Y-100064469D01*
X101795361Y-102604469D02*
X101265361Y-102354469D01*
X101795361Y-102604469D02*
X101795361Y-100064469D01*
X102795361Y-98684469D02*
X96775361Y-98684469D01*
X102795361Y-100314469D02*
X101795361Y-100314469D01*
X102795361Y-102354469D02*
X101795361Y-102354469D01*
X102795361Y-102604469D02*
X101795361Y-102604469D01*
X102795361Y-103984469D02*
X102795361Y-98684469D01*
%TO.C,C18*%
X134610613Y-71643469D02*
X134088109Y-71643469D01*
X134610613Y-73113469D02*
X134088109Y-73113469D01*
%TO.C,D16*%
X107241361Y-115812469D02*
X108261361Y-115812469D01*
X108261361Y-114342469D02*
X108261361Y-117282469D01*
X108261361Y-117282469D02*
X113701361Y-117282469D01*
X109041361Y-114342469D02*
X109041361Y-117282469D01*
X109161361Y-114342469D02*
X109161361Y-117282469D01*
X109281361Y-114342469D02*
X109281361Y-117282469D01*
X113701361Y-114342469D02*
X108261361Y-114342469D01*
X113701361Y-117282469D02*
X113701361Y-114342469D01*
X114721361Y-115812469D02*
X113701361Y-115812469D01*
%TO.C,R6*%
X201940297Y-103901469D02*
X202394425Y-103901469D01*
X201940297Y-105371469D02*
X202394425Y-105371469D01*
%TO.C,D21*%
X86501361Y-39432469D02*
X86501361Y-44872469D01*
X86501361Y-44872469D02*
X89441361Y-44872469D01*
X87971361Y-38412469D02*
X87971361Y-39432469D01*
X87971361Y-45892469D02*
X87971361Y-44872469D01*
X89441361Y-39432469D02*
X86501361Y-39432469D01*
X89441361Y-40212469D02*
X86501361Y-40212469D01*
X89441361Y-40332469D02*
X86501361Y-40332469D01*
X89441361Y-40452469D02*
X86501361Y-40452469D01*
X89441361Y-44872469D02*
X89441361Y-39432469D01*
%TO.C,J2*%
X195671361Y-37485469D02*
X195671361Y-41485469D01*
X195961361Y-36455469D02*
X195961361Y-42475469D01*
X195961361Y-42475469D02*
X201261361Y-42475469D01*
X196541361Y-36455469D02*
X196541361Y-37055469D01*
X196541361Y-37055469D02*
X198141361Y-37055469D01*
X197341361Y-41475469D02*
X197591361Y-40945469D01*
X197341361Y-41475469D02*
X199881361Y-41475469D01*
X197341361Y-42475469D02*
X197341361Y-41475469D01*
X197591361Y-40945469D02*
X199631361Y-40945469D01*
X197591361Y-42475469D02*
X197591361Y-41475469D01*
X198141361Y-37055469D02*
X198141361Y-36455469D01*
X199081361Y-36455469D02*
X199081361Y-37055469D01*
X199081361Y-37055469D02*
X200681361Y-37055469D01*
X199631361Y-40945469D02*
X199881361Y-41475469D01*
X199631361Y-42475469D02*
X199631361Y-41475469D01*
X199881361Y-41475469D02*
X199881361Y-42475469D01*
X200681361Y-37055469D02*
X200681361Y-36455469D01*
X201261361Y-36455469D02*
X195961361Y-36455469D01*
X201261361Y-42475469D02*
X201261361Y-36455469D01*
%TO.C,SW1*%
X186102361Y-85008469D02*
X179802361Y-85008469D01*
X186102361Y-84758469D02*
X186102361Y-85008469D01*
X186102361Y-80258469D02*
X186102361Y-82858469D01*
X186102361Y-78108469D02*
X186102361Y-78358469D01*
X179802361Y-85008469D02*
X179802361Y-84758469D01*
X179802361Y-82858469D02*
X179802361Y-80258469D01*
X179802361Y-78358469D02*
X179802361Y-78108469D01*
X179802361Y-78108469D02*
X186102361Y-78108469D01*
%TO.C,R4*%
X159411297Y-135270469D02*
X159865425Y-135270469D01*
X159411297Y-136740469D02*
X159865425Y-136740469D01*
%TO.C,C11*%
X156179113Y-110505469D02*
X155656609Y-110505469D01*
X156179113Y-111975469D02*
X155656609Y-111975469D01*
%TO.C,U6*%
X157092361Y-107520469D02*
X158042361Y-107520469D01*
X167312361Y-107520469D02*
X166362361Y-107520469D01*
X157092361Y-106570469D02*
X157092361Y-107520469D01*
X167312361Y-106570469D02*
X167312361Y-107520469D01*
X157092361Y-98250469D02*
X157092361Y-97300469D01*
X167312361Y-98250469D02*
X167312361Y-97300469D01*
X157092361Y-97300469D02*
X158042361Y-97300469D01*
X167312361Y-97300469D02*
X166362361Y-97300469D01*
X166832361Y-97025469D02*
X166362361Y-96685469D01*
X166832361Y-96345469D01*
X166832361Y-97025469D01*
G36*
X166832361Y-97025469D02*
G01*
X166362361Y-96685469D01*
X166832361Y-96345469D01*
X166832361Y-97025469D01*
G37*
%TO.C,J6*%
X165522361Y-47630469D02*
X165522361Y-52930469D01*
X165522361Y-49010469D02*
X166522361Y-49010469D01*
X165522361Y-49260469D02*
X166522361Y-49260469D01*
X165522361Y-51300469D02*
X166522361Y-51300469D01*
X165522361Y-52930469D02*
X171542361Y-52930469D01*
X166522361Y-49010469D02*
X166522361Y-51550469D01*
X166522361Y-49010469D02*
X167052361Y-49260469D01*
X166522361Y-51550469D02*
X165522361Y-51550469D01*
X167052361Y-49260469D02*
X167052361Y-51300469D01*
X167052361Y-51300469D02*
X166522361Y-51550469D01*
X170512361Y-47340469D02*
X166512361Y-47340469D01*
X170942361Y-48210469D02*
X170942361Y-49810469D01*
X170942361Y-49810469D02*
X171542361Y-49810469D01*
X170942361Y-50750469D02*
X170942361Y-52350469D01*
X170942361Y-52350469D02*
X171542361Y-52350469D01*
X171542361Y-47630469D02*
X165522361Y-47630469D01*
X171542361Y-48210469D02*
X170942361Y-48210469D01*
X171542361Y-50750469D02*
X170942361Y-50750469D01*
X171542361Y-52930469D02*
X171542361Y-47630469D01*
%TO.C,C9*%
X164983361Y-114005717D02*
X164983361Y-114528221D01*
X166453361Y-114005717D02*
X166453361Y-114528221D01*
%TO.C,J9*%
X92039361Y-49296469D02*
X92039361Y-53296469D01*
X92329361Y-48266469D02*
X92329361Y-54286469D01*
X92329361Y-54286469D02*
X97629361Y-54286469D01*
X92909361Y-48266469D02*
X92909361Y-48866469D01*
X92909361Y-48866469D02*
X94509361Y-48866469D01*
X93709361Y-53286469D02*
X93959361Y-52756469D01*
X93709361Y-53286469D02*
X96249361Y-53286469D01*
X93709361Y-54286469D02*
X93709361Y-53286469D01*
X93959361Y-52756469D02*
X95999361Y-52756469D01*
X93959361Y-54286469D02*
X93959361Y-53286469D01*
X94509361Y-48866469D02*
X94509361Y-48266469D01*
X95449361Y-48266469D02*
X95449361Y-48866469D01*
X95449361Y-48866469D02*
X97049361Y-48866469D01*
X95999361Y-52756469D02*
X96249361Y-53286469D01*
X95999361Y-54286469D02*
X95999361Y-53286469D01*
X96249361Y-53286469D02*
X96249361Y-54286469D01*
X97049361Y-48866469D02*
X97049361Y-48266469D01*
X97629361Y-48266469D02*
X92329361Y-48266469D01*
X97629361Y-54286469D02*
X97629361Y-48266469D01*
%TO.C,D22*%
X86306361Y-57212469D02*
X86306361Y-62652469D01*
X86306361Y-62652469D02*
X89246361Y-62652469D01*
X87776361Y-56192469D02*
X87776361Y-57212469D01*
X87776361Y-63672469D02*
X87776361Y-62652469D01*
X89246361Y-57212469D02*
X86306361Y-57212469D01*
X89246361Y-57992469D02*
X86306361Y-57992469D01*
X89246361Y-58112469D02*
X86306361Y-58112469D01*
X89246361Y-58232469D02*
X86306361Y-58232469D01*
X89246361Y-62652469D02*
X89246361Y-57212469D01*
%TO.C,C15*%
X147022361Y-105659721D02*
X147022361Y-105137217D01*
X145552361Y-105659721D02*
X145552361Y-105137217D01*
%TO.C,R10*%
X184922361Y-117125405D02*
X184922361Y-117579533D01*
X186392361Y-117125405D02*
X186392361Y-117579533D01*
%TO.C,C3*%
X183385609Y-66817469D02*
X183908113Y-66817469D01*
X183385609Y-68287469D02*
X183908113Y-68287469D01*
%TO.C,D10*%
X160184361Y-57212469D02*
X160184361Y-62652469D01*
X160184361Y-62652469D02*
X163124361Y-62652469D01*
X161654361Y-56192469D02*
X161654361Y-57212469D01*
X161654361Y-63672469D02*
X161654361Y-62652469D01*
X163124361Y-57212469D02*
X160184361Y-57212469D01*
X163124361Y-57992469D02*
X160184361Y-57992469D01*
X163124361Y-58112469D02*
X160184361Y-58112469D01*
X163124361Y-58232469D02*
X160184361Y-58232469D01*
X163124361Y-62652469D02*
X163124361Y-57212469D01*
%TO.C,R2*%
X174016297Y-91963469D02*
X174470425Y-91963469D01*
X174016297Y-93433469D02*
X174470425Y-93433469D01*
%TO.C,J3*%
X194233361Y-93527469D02*
X194233361Y-101267469D01*
X194233361Y-93527469D02*
X196833361Y-93527469D01*
X194233361Y-101267469D02*
X199433361Y-101267469D01*
X196833361Y-93527469D02*
X196833361Y-96127469D01*
X196833361Y-96127469D02*
X199433361Y-96127469D01*
X198103361Y-93527469D02*
X199433361Y-93527469D01*
X199433361Y-93527469D02*
X199433361Y-94857469D01*
X199433361Y-96127469D02*
X199433361Y-101267469D01*
%TO.C,D17*%
X86413361Y-108455469D02*
X87433361Y-108455469D01*
X87433361Y-106985469D02*
X87433361Y-109925469D01*
X87433361Y-109925469D02*
X92873361Y-109925469D01*
X88213361Y-106985469D02*
X88213361Y-109925469D01*
X88333361Y-106985469D02*
X88333361Y-109925469D01*
X88453361Y-106985469D02*
X88453361Y-109925469D01*
X92873361Y-106985469D02*
X87433361Y-106985469D01*
X92873361Y-109925469D02*
X92873361Y-106985469D01*
X93893361Y-108455469D02*
X92873361Y-108455469D01*
%TO.C,C1*%
X199105113Y-57522969D02*
X198582609Y-57522969D01*
X199105113Y-58992969D02*
X198582609Y-58992969D01*
%TO.C,C8*%
X168539361Y-114005717D02*
X168539361Y-114528221D01*
X170009361Y-114005717D02*
X170009361Y-114528221D01*
%TO.C,TP5*%
X191941361Y-77077469D02*
G75*
G02*
X190041361Y-77077469I-950000J0D01*
G01*
X190041361Y-77077469D02*
G75*
G02*
X191941361Y-77077469I950000J0D01*
G01*
%TO.C,C5*%
X162316361Y-114027217D02*
X162316361Y-114549721D01*
X163786361Y-114027217D02*
X163786361Y-114549721D01*
%TO.C,R7*%
X196733297Y-103774469D02*
X197187425Y-103774469D01*
X196733297Y-105244469D02*
X197187425Y-105244469D01*
%TO.C,D24*%
X99496361Y-57466469D02*
X99496361Y-62906469D01*
X99496361Y-62906469D02*
X102436361Y-62906469D01*
X100966361Y-56446469D02*
X100966361Y-57466469D01*
X100966361Y-63926469D02*
X100966361Y-62906469D01*
X102436361Y-57466469D02*
X99496361Y-57466469D01*
X102436361Y-58246469D02*
X99496361Y-58246469D01*
X102436361Y-58366469D02*
X99496361Y-58366469D01*
X102436361Y-58486469D02*
X99496361Y-58486469D01*
X102436361Y-62906469D02*
X102436361Y-57466469D01*
%TO.C,J4*%
X177795361Y-92822469D02*
X186915361Y-92822469D01*
X177795361Y-113402469D02*
X177795361Y-92822469D01*
X179105361Y-94122469D02*
X185605361Y-94122469D01*
X179105361Y-112102469D02*
X179105361Y-94122469D01*
X185605361Y-94122469D02*
X185605361Y-101062469D01*
X185605361Y-101062469D02*
X185605361Y-101062469D01*
X185605361Y-101062469D02*
X186915361Y-101062469D01*
X185605361Y-105162469D02*
X185605361Y-112102469D01*
X185605361Y-112102469D02*
X179105361Y-112102469D01*
X186915361Y-92822469D02*
X186915361Y-113402469D01*
X186915361Y-105162469D02*
X185605361Y-105162469D01*
X186915361Y-113402469D02*
X177795361Y-113402469D01*
X187305361Y-108192469D02*
X188305361Y-108692469D01*
X188305361Y-107692469D02*
X187305361Y-108192469D01*
X188305361Y-108692469D02*
X188305361Y-107692469D01*
%TO.C,J1*%
X138431361Y-130942469D02*
X138431361Y-136242469D01*
X138431361Y-133122469D02*
X139031361Y-133122469D01*
X138431361Y-135662469D02*
X139031361Y-135662469D01*
X138431361Y-136242469D02*
X144451361Y-136242469D01*
X139031361Y-131522469D02*
X138431361Y-131522469D01*
X139031361Y-133122469D02*
X139031361Y-131522469D01*
X139031361Y-134062469D02*
X138431361Y-134062469D01*
X139031361Y-135662469D02*
X139031361Y-134062469D01*
X139461361Y-136532469D02*
X143461361Y-136532469D01*
X142921361Y-132572469D02*
X143451361Y-132322469D01*
X142921361Y-134612469D02*
X142921361Y-132572469D01*
X143451361Y-132322469D02*
X144451361Y-132322469D01*
X143451361Y-134862469D02*
X142921361Y-134612469D01*
X143451361Y-134862469D02*
X143451361Y-132322469D01*
X144451361Y-130942469D02*
X138431361Y-130942469D01*
X144451361Y-132572469D02*
X143451361Y-132572469D01*
X144451361Y-134612469D02*
X143451361Y-134612469D01*
X144451361Y-134862469D02*
X143451361Y-134862469D01*
X144451361Y-136242469D02*
X144451361Y-130942469D01*
%TO.C,C12*%
X177246609Y-86629469D02*
X177769113Y-86629469D01*
X177246609Y-88099469D02*
X177769113Y-88099469D01*
%TD*%
M02*
