%TF.GenerationSoftware,KiCad,Pcbnew,8.0.8*%
%TF.CreationDate,2025-03-31T18:54:26-05:00*%
%TF.ProjectId,Senior_Design_PCB_ethanl7_nrkim2,53656e69-6f72-45f4-9465-7369676e5f50,rev?*%
%TF.SameCoordinates,Original*%
%TF.FileFunction,Soldermask,Bot*%
%TF.FilePolarity,Negative*%
%FSLAX46Y46*%
G04 Gerber Fmt 4.6, Leading zero omitted, Abs format (unit mm)*
G04 Created by KiCad (PCBNEW 8.0.8) date 2025-03-31 18:54:26*
%MOMM*%
%LPD*%
G01*
G04 APERTURE LIST*
G04 Aperture macros list*
%AMRoundRect*
0 Rectangle with rounded corners*
0 $1 Rounding radius*
0 $2 $3 $4 $5 $6 $7 $8 $9 X,Y pos of 4 corners*
0 Add a 4 corners polygon primitive as box body*
4,1,4,$2,$3,$4,$5,$6,$7,$8,$9,$2,$3,0*
0 Add four circle primitives for the rounded corners*
1,1,$1+$1,$2,$3*
1,1,$1+$1,$4,$5*
1,1,$1+$1,$6,$7*
1,1,$1+$1,$8,$9*
0 Add four rect primitives between the rounded corners*
20,1,$1+$1,$2,$3,$4,$5,0*
20,1,$1+$1,$4,$5,$6,$7,0*
20,1,$1+$1,$6,$7,$8,$9,0*
20,1,$1+$1,$8,$9,$2,$3,0*%
G04 Aperture macros list end*
%ADD10RoundRect,0.250000X0.620000X0.845000X-0.620000X0.845000X-0.620000X-0.845000X0.620000X-0.845000X0*%
%ADD11O,1.740000X2.190000*%
%ADD12R,2.200000X2.200000*%
%ADD13O,2.200000X2.200000*%
%ADD14R,1.800000X1.800000*%
%ADD15O,1.800000X1.800000*%
%ADD16C,3.200000*%
%ADD17R,1.600000X1.600000*%
%ADD18O,1.600000X1.600000*%
%ADD19R,2.000000X1.905000*%
%ADD20O,2.000000X1.905000*%
%ADD21RoundRect,0.250000X-0.620000X-0.845000X0.620000X-0.845000X0.620000X0.845000X-0.620000X0.845000X0*%
%ADD22RoundRect,0.250000X-0.845000X0.620000X-0.845000X-0.620000X0.845000X-0.620000X0.845000X0.620000X0*%
%ADD23O,2.190000X1.740000*%
%ADD24RoundRect,0.250000X0.845000X-0.620000X0.845000X0.620000X-0.845000X0.620000X-0.845000X-0.620000X0*%
%ADD25R,1.700000X1.700000*%
%ADD26O,1.700000X1.700000*%
%ADD27RoundRect,0.250000X0.600000X0.600000X-0.600000X0.600000X-0.600000X-0.600000X0.600000X-0.600000X0*%
%ADD28C,1.700000*%
G04 APERTURE END LIST*
D10*
%TO.C,D2*%
X174989361Y-98794469D03*
D11*
X172449361Y-98794469D03*
%TD*%
D10*
%TO.C,D1*%
X170163361Y-91682469D03*
D11*
X167623361Y-91682469D03*
%TD*%
D12*
%TO.C,D12*%
X174481361Y-51550469D03*
D13*
X174481361Y-61710469D03*
%TD*%
D12*
%TO.C,D13*%
X85073361Y-127904469D03*
D13*
X95233361Y-127904469D03*
%TD*%
D14*
%TO.C,U5*%
X112251361Y-83935469D03*
D15*
X113521361Y-78855469D03*
X114791361Y-83935469D03*
X116061361Y-78855469D03*
X117331361Y-83935469D03*
X118601361Y-78855469D03*
X119871361Y-83935469D03*
X121141361Y-78855469D03*
X122411361Y-83935469D03*
X123681361Y-78855469D03*
X124951361Y-83935469D03*
X126221361Y-78855469D03*
X127491361Y-83935469D03*
X128761361Y-78855469D03*
X130031361Y-83935469D03*
%TD*%
D12*
%TO.C,D11*%
X174481361Y-36818469D03*
D13*
X174481361Y-46978469D03*
%TD*%
D12*
%TO.C,D15*%
X85073361Y-115812469D03*
D13*
X95233361Y-115812469D03*
%TD*%
D12*
%TO.C,D8*%
X153145361Y-36945469D03*
D13*
X153145361Y-47105469D03*
%TD*%
D14*
%TO.C,U3*%
X153272361Y-82157469D03*
D15*
X154542361Y-77077469D03*
X155812361Y-82157469D03*
X157082361Y-77077469D03*
X158352361Y-82157469D03*
X159622361Y-77077469D03*
X160892361Y-82157469D03*
X162162361Y-77077469D03*
X163432361Y-82157469D03*
X164702361Y-77077469D03*
X165972361Y-82157469D03*
X167242361Y-77077469D03*
X168512361Y-82157469D03*
X169782361Y-77077469D03*
X171052361Y-82157469D03*
%TD*%
D12*
%TO.C,D19*%
X85073361Y-95492469D03*
D13*
X95233361Y-95492469D03*
%TD*%
D12*
%TO.C,D28*%
X128253361Y-55360469D03*
D13*
X128253361Y-65520469D03*
%TD*%
D16*
%TO.C,H3*%
X84836000Y-144526000D03*
%TD*%
D12*
%TO.C,D9*%
X161654361Y-36945469D03*
D13*
X161654361Y-47105469D03*
%TD*%
D12*
%TO.C,D26*%
X115045361Y-54852469D03*
D13*
X115045361Y-65012469D03*
%TD*%
D17*
%TO.C,U2*%
X167115361Y-130544469D03*
D18*
X167115361Y-133084469D03*
X167115361Y-135624469D03*
X167115361Y-138164469D03*
X174735361Y-138164469D03*
X174735361Y-135624469D03*
X174735361Y-133084469D03*
X174735361Y-130544469D03*
%TD*%
D12*
%TO.C,D5*%
X138540361Y-53836469D03*
D13*
X138540361Y-63996469D03*
%TD*%
D19*
%TO.C,U1*%
X187943361Y-57900469D03*
D20*
X187943361Y-55360469D03*
X187943361Y-52820469D03*
%TD*%
D14*
%TO.C,U4*%
X125713361Y-104128469D03*
D15*
X126983361Y-99048469D03*
X128253361Y-104128469D03*
X129523361Y-99048469D03*
X130793361Y-104128469D03*
X132063361Y-99048469D03*
X133333361Y-104128469D03*
X134603361Y-99048469D03*
X135873361Y-104128469D03*
X137143361Y-99048469D03*
X138413361Y-104128469D03*
X139683361Y-99048469D03*
X140953361Y-104128469D03*
X142223361Y-99048469D03*
X143493361Y-104128469D03*
%TD*%
D21*
%TO.C,J10*%
X120633361Y-51296469D03*
D11*
X123173361Y-51296469D03*
%TD*%
D12*
%TO.C,D23*%
X101007361Y-37072469D03*
D13*
X101007361Y-47232469D03*
%TD*%
D22*
%TO.C,J5*%
X146287361Y-49264469D03*
D23*
X146287361Y-51804469D03*
%TD*%
D19*
%TO.C,U7*%
X194293361Y-67044469D03*
D20*
X194293361Y-69584469D03*
X194293361Y-72124469D03*
%TD*%
D12*
%TO.C,D3*%
X150224361Y-128639469D03*
D13*
X150224361Y-138799469D03*
%TD*%
D12*
%TO.C,D18*%
X106028361Y-108700469D03*
D13*
X116188361Y-108700469D03*
%TD*%
D12*
%TO.C,D25*%
X115113361Y-37072469D03*
D13*
X115113361Y-47232469D03*
%TD*%
D24*
%TO.C,J7*%
X99551361Y-122670469D03*
D23*
X99551361Y-120130469D03*
%TD*%
D12*
%TO.C,D20*%
X106409361Y-95492469D03*
D13*
X116569361Y-95492469D03*
%TD*%
D12*
%TO.C,D14*%
X106155361Y-128004469D03*
D13*
X116315361Y-128004469D03*
%TD*%
D12*
%TO.C,D6*%
X153145361Y-53582469D03*
D13*
X153145361Y-63742469D03*
%TD*%
D16*
%TO.C,H2*%
X202692000Y-30226000D03*
%TD*%
D12*
%TO.C,D7*%
X138540361Y-36945469D03*
D13*
X138540361Y-47105469D03*
%TD*%
D12*
%TO.C,D27*%
X128439361Y-37072469D03*
D13*
X128439361Y-47232469D03*
%TD*%
D24*
%TO.C,J8*%
X99805361Y-102604469D03*
D23*
X99805361Y-100064469D03*
%TD*%
D12*
%TO.C,D16*%
X105901361Y-115812469D03*
D13*
X116061361Y-115812469D03*
%TD*%
D12*
%TO.C,D21*%
X87971361Y-37072469D03*
D13*
X87971361Y-47232469D03*
%TD*%
D21*
%TO.C,J2*%
X197341361Y-39485469D03*
D11*
X199881361Y-39485469D03*
%TD*%
D22*
%TO.C,J6*%
X168512361Y-49010469D03*
D23*
X168512361Y-51550469D03*
%TD*%
D21*
%TO.C,J9*%
X93709361Y-51296469D03*
D11*
X96249361Y-51296469D03*
%TD*%
D12*
%TO.C,D22*%
X87776361Y-54852469D03*
D13*
X87776361Y-65012469D03*
%TD*%
D12*
%TO.C,D10*%
X161654361Y-54852469D03*
D13*
X161654361Y-65012469D03*
%TD*%
D25*
%TO.C,J3*%
X198103361Y-94857469D03*
D26*
X195563361Y-94857469D03*
X198103361Y-97397469D03*
X195563361Y-97397469D03*
X198103361Y-99937469D03*
X195563361Y-99937469D03*
%TD*%
D12*
%TO.C,D17*%
X85073361Y-108455469D03*
D13*
X95233361Y-108455469D03*
%TD*%
D12*
%TO.C,D24*%
X100966361Y-55106469D03*
D13*
X100966361Y-65266469D03*
%TD*%
D27*
%TO.C,J4*%
X183625361Y-108192469D03*
D28*
X181085361Y-108192469D03*
X183625361Y-105652469D03*
X181085361Y-105652469D03*
X183625361Y-103112469D03*
X181085361Y-103112469D03*
X183625361Y-100572469D03*
X181085361Y-100572469D03*
X183625361Y-98032469D03*
X181085361Y-98032469D03*
%TD*%
D24*
%TO.C,J1*%
X141461361Y-134862469D03*
D23*
X141461361Y-132322469D03*
%TD*%
D16*
%TO.C,H1*%
X84836000Y-30226000D03*
%TD*%
%TO.C,H4*%
X202692000Y-144526000D03*
%TD*%
M02*
