M48
; DRILL file {KiCad 8.0.8} date 2025-03-31T18:54:04-0500
; FORMAT={-:-/ absolute / inch / decimal}
; #@! TF.CreationDate,2025-03-31T18:54:04-05:00
; #@! TF.GenerationSoftware,Kicad,Pcbnew,8.0.8
; #@! TF.FileFunction,Plated,1,2,PTH
FMAT,2
INCH
; #@! TA.AperFunction,Plated,PTH,ViaDrill
T1C0.0118
; #@! TA.AperFunction,Plated,PTH,ComponentDrill
T2C0.0315
; #@! TA.AperFunction,Plated,PTH,ComponentDrill
T3C0.0394
; #@! TA.AperFunction,Plated,PTH,ComponentDrill
T4C0.0433
; #@! TA.AperFunction,Plated,PTH,ComponentDrill
T5C0.0469
%
G90
G05
T1
X4.3293Y-3.1995
X4.6793Y-3.1995
X4.7668Y-2.907
X4.9693Y-3.2395
X5.3093Y-2.9095
X5.4993Y-2.8495
X5.7293Y-3.9695
X5.7993Y-3.4995
X5.8393Y-4.2295
X5.8993Y-2.7095
X5.9693Y-3.7295
X6.1293Y-4.2295
X6.1393Y-3.8495
X6.1693Y-4.5895
X6.1793Y-3.7895
X6.1893Y-3.7595
X6.2293Y-3.6595
X6.2293Y-3.9695
X6.2293Y-4.0195
X6.2293Y-4.1995
X6.2633Y-3.7456
X6.2647Y-3.9695
X6.2647Y-4.0195
X6.2647Y-4.0649
X6.2893Y-4.1695
X6.3293Y-4.1692
X6.3693Y-4.3868
X6.4093Y-4.3621
X6.4347Y-4.1749
X6.4593Y-4.1995
X6.484Y-3.8695
X6.4893Y-3.7295
X6.4908Y-4.1995
X6.5193Y-2.7095
X6.5493Y-3.9195
X6.5493Y-4.1195
X6.594Y-4.2595
X6.5993Y-4.5395
X6.7293Y-4.0595
X6.7793Y-2.7095
X6.9Y-3.58
X7.01Y-3.49
X7.2493Y-4.5095
T2
X6.5793Y-5.1395
X6.5793Y-5.2395
X6.5793Y-5.3395
X6.5793Y-5.4395
X6.8793Y-5.1395
X6.8793Y-5.2395
X6.8793Y-5.3395
X6.8793Y-5.4395
T3
X4.4193Y-3.3045
X4.4693Y-3.1045
X4.5193Y-3.3045
X4.5693Y-3.1045
X4.6193Y-3.3045
X4.6693Y-3.1045
X4.7193Y-3.3045
X4.7693Y-3.1045
X4.8193Y-3.3045
X4.8693Y-3.1045
X4.9193Y-3.3045
X4.9493Y-4.0995
X4.9693Y-3.1045
X4.9993Y-3.8995
X5.0193Y-3.3045
X5.0493Y-4.0995
X5.0693Y-3.1045
X5.0993Y-3.8995
X5.1193Y-3.3045
X5.1493Y-4.0995
X5.1993Y-3.8995
X5.2493Y-4.0995
X5.2993Y-3.8995
X5.3493Y-4.0995
X5.3993Y-3.8995
X5.4493Y-4.0995
X5.4993Y-3.8995
X5.5493Y-4.0995
X5.5993Y-3.8995
X5.6493Y-4.0995
X6.0343Y-3.2345
X6.0843Y-3.0345
X6.1343Y-3.2345
X6.1843Y-3.0345
X6.2343Y-3.2345
X6.2843Y-3.0345
X6.3343Y-3.2345
X6.3843Y-3.0345
X6.4343Y-3.2345
X6.4843Y-3.0345
X6.5343Y-3.2345
X6.5843Y-3.0345
X6.6343Y-3.2345
X6.6843Y-3.0345
X6.7343Y-3.2345
X7.1293Y-3.8595
X7.1293Y-3.9595
X7.1293Y-4.0595
X7.1293Y-4.1595
X7.1293Y-4.2595
X7.2293Y-3.8595
X7.2293Y-3.9595
X7.2293Y-4.0595
X7.2293Y-4.1595
X7.2293Y-4.2595
X7.6993Y-3.7345
X7.6993Y-3.8345
X7.6993Y-3.9345
X7.7993Y-3.7345
X7.7993Y-3.8345
X7.7993Y-3.9345
T4
X3.3493Y-3.7595
X3.3493Y-4.2699
X3.3493Y-4.5595
X3.3493Y-5.0356
X3.4558Y-2.1595
X3.4558Y-2.5595
X3.4634Y-1.4595
X3.4634Y-1.8595
X3.7493Y-3.7595
X3.7493Y-4.2699
X3.7493Y-4.5595
X3.7493Y-5.0356
X3.9751Y-2.1695
X3.9751Y-2.5695
X3.9767Y-1.4595
X3.9767Y-1.8595
X4.1693Y-4.5595
X4.1743Y-4.2795
X4.1793Y-5.0395
X4.1893Y-3.7595
X4.5293Y-2.1595
X4.5293Y-2.5595
X4.532Y-1.4595
X4.532Y-1.8595
X4.5693Y-4.5595
X4.5743Y-4.2795
X4.5793Y-5.0395
X4.5893Y-3.7595
X5.0493Y-2.1795
X5.0493Y-2.5795
X5.0567Y-1.4595
X5.0567Y-1.8595
X5.4543Y-1.4545
X5.4543Y-1.8545
X5.4543Y-2.1195
X5.4543Y-2.5195
X5.9143Y-5.0645
X5.9143Y-5.4645
X6.0293Y-1.4545
X6.0293Y-1.8545
X6.0293Y-2.1095
X6.0293Y-2.5095
X6.3643Y-1.4545
X6.3643Y-1.8545
X6.3643Y-2.1595
X6.3643Y-2.5595
X6.8693Y-1.4495
X6.8693Y-1.8495
X6.8693Y-2.0295
X6.8693Y-2.4295
X7.3993Y-2.0795
X7.3993Y-2.1795
X7.3993Y-2.2795
X7.6493Y-2.6395
X7.6493Y-2.7395
X7.6493Y-2.8395
T5
X3.6893Y-2.0195
X3.7893Y-2.0195
X3.9193Y-4.7295
X3.9193Y-4.8295
X3.9293Y-3.9395
X3.9293Y-4.0395
X4.7493Y-2.0195
X4.8493Y-2.0195
X5.5693Y-5.2095
X5.5693Y-5.3095
X5.7593Y-1.9395
X5.7593Y-2.0395
X6.5993Y-3.6095
X6.6343Y-1.9295
X6.6343Y-2.0295
X6.6993Y-3.6095
X6.7893Y-3.8895
X6.8893Y-3.8895
X7.7693Y-1.5545
X7.8693Y-1.5545
M30
